%TF.GenerationSoftware,KiCad,Pcbnew,4.0.6*%
%TF.CreationDate,2017-08-02T11:59:14-04:00*%
%TF.ProjectId,pmt-transimpedance-amplifier,706D742D7472616E73696D706564616E,rev?*%
%TF.FileFunction,Copper,L2,Bot,Signal*%
%FSLAX46Y46*%
G04 Gerber Fmt 4.6, Leading zero omitted, Abs format (unit mm)*
G04 Created by KiCad (PCBNEW 4.0.6) date 08/02/17 11:59:14*
%MOMM*%
%LPD*%
G01*
G04 APERTURE LIST*
%ADD10C,0.100000*%
%ADD11C,1.524000*%
%ADD12R,1.000000X1.250000*%
%ADD13C,2.400000*%
%ADD14C,2.500000*%
%ADD15C,0.600000*%
%ADD16C,0.820000*%
%ADD17C,0.250000*%
%ADD18C,0.200000*%
%ADD19C,0.254000*%
G04 APERTURE END LIST*
D10*
D11*
X206350000Y-112530000D03*
X221590000Y-112530000D03*
X221590000Y-107450000D03*
X206350000Y-107450000D03*
X206350000Y-89650000D03*
X206350000Y-84570000D03*
X221590000Y-71870000D03*
D12*
X219545000Y-113715000D03*
X217545000Y-113715000D03*
X219595000Y-115765000D03*
X217595000Y-115765000D03*
D13*
X206300000Y-72875000D03*
D14*
X203760000Y-70335000D03*
X208840000Y-70335000D03*
X208840000Y-75415000D03*
X203760000Y-75415000D03*
D12*
X215275000Y-82600000D03*
X217275000Y-82600000D03*
D15*
X215600000Y-92900000D03*
X215525000Y-88025000D03*
X215525000Y-86525000D03*
X210850000Y-70925000D03*
X206250000Y-70850000D03*
X203875000Y-72800000D03*
X209075000Y-72800000D03*
X208250000Y-87500000D03*
X215475000Y-78500000D03*
X215475000Y-80150000D03*
X206250000Y-91100000D03*
X214325000Y-92200000D03*
X210250000Y-92200000D03*
X208250000Y-92200000D03*
X206250000Y-92200000D03*
X204250000Y-92200000D03*
X212450000Y-92200000D03*
X210250000Y-90800000D03*
X208250000Y-90800000D03*
X204250000Y-90800000D03*
X214250000Y-88050000D03*
X212250000Y-88050000D03*
X210250000Y-88050000D03*
X208250000Y-88875000D03*
X206250000Y-87625000D03*
X204075000Y-88125000D03*
X202350000Y-88050000D03*
X214250000Y-86550000D03*
X212250000Y-86550000D03*
X210250000Y-86550000D03*
X208250000Y-86550000D03*
X206250000Y-86550000D03*
X204250000Y-86550000D03*
X202350000Y-86550000D03*
X204250000Y-84800000D03*
X202350000Y-84800000D03*
X210250000Y-82800000D03*
X208250000Y-82800000D03*
X204250000Y-82800000D03*
X202350000Y-82800000D03*
X210250000Y-80800000D03*
X208250000Y-80800000D03*
X204250000Y-80800000D03*
X202350000Y-80800000D03*
X214250000Y-78050000D03*
X212250000Y-78050000D03*
X210250000Y-78800000D03*
X208250000Y-78800000D03*
X204250000Y-78800000D03*
X202350000Y-78800000D03*
X210550000Y-76975000D03*
X208250000Y-77300000D03*
X204250000Y-77300000D03*
X202350000Y-76800000D03*
X210850000Y-74800000D03*
X210850000Y-72800000D03*
X202375000Y-72750000D03*
X210250000Y-68800000D03*
X206250000Y-68800000D03*
X202250000Y-68800000D03*
X218300000Y-121000000D03*
X217925000Y-82850000D03*
X207459998Y-104900000D03*
X204890000Y-104880000D03*
X225040000Y-87910000D03*
X224740000Y-99800000D03*
X207400000Y-97110002D03*
X206100000Y-97089998D03*
X212130000Y-96760000D03*
X211800000Y-97300000D03*
X210870000Y-97290000D03*
X217040000Y-96830000D03*
X217925000Y-82225000D03*
X221225000Y-88700000D03*
X221197905Y-86475000D03*
X217950000Y-80900000D03*
X209075000Y-105025000D03*
X206625000Y-96575000D03*
X211050000Y-95825000D03*
X208775000Y-95825000D03*
X216550000Y-91525000D03*
X203375000Y-116475000D03*
X203350000Y-114725000D03*
X222900000Y-102800000D03*
X218090000Y-93890000D03*
X215706591Y-81943403D03*
X217075000Y-93025000D03*
X214925000Y-83100000D03*
X218025012Y-100250000D03*
X216899998Y-100250000D03*
X216900000Y-123500000D03*
X215100000Y-123500000D03*
X217100000Y-118400000D03*
X216200000Y-107000000D03*
X210900000Y-123500000D03*
X209000000Y-123500000D03*
X213000000Y-123500000D03*
X209100000Y-117400000D03*
X215000000Y-118400000D03*
X213800000Y-117400000D03*
X212000000Y-117400000D03*
X210400000Y-119000000D03*
X210400000Y-117400000D03*
X213000000Y-104600000D03*
X214400000Y-102800000D03*
X214200000Y-105200000D03*
X214200000Y-106600000D03*
X213000000Y-106600000D03*
X211000000Y-106600000D03*
X211000000Y-108600000D03*
X211000000Y-110600000D03*
X211000000Y-112600000D03*
X211000000Y-112600000D03*
X213000000Y-112600000D03*
X213000000Y-110600000D03*
X213000000Y-108600000D03*
X214200000Y-108600000D03*
X214200000Y-112600000D03*
X214300000Y-110500000D03*
X218575012Y-103000000D03*
X218575012Y-105000000D03*
X218575012Y-107000000D03*
X218000000Y-109000000D03*
X218000000Y-111000000D03*
D16*
X206350000Y-89660000D02*
X202760000Y-89660000D01*
D17*
X217075000Y-93025000D02*
X217940000Y-93890000D01*
X217940000Y-93890000D02*
X218090000Y-93890000D01*
X214925000Y-82724994D02*
X215406592Y-82243402D01*
X214925000Y-83100000D02*
X215706591Y-82318409D01*
X214925000Y-82925000D02*
X214925000Y-82724994D01*
X215406592Y-82243402D02*
X215706591Y-81943403D01*
X215706591Y-82318409D02*
X215706591Y-81943403D01*
D18*
X218025012Y-100250000D02*
X216899998Y-100250000D01*
D17*
X213800000Y-117400000D02*
X214000000Y-117400000D01*
X214300000Y-108700000D02*
X214200000Y-108600000D01*
X214300000Y-112500000D02*
X214200000Y-112600000D01*
D19*
G36*
X211373000Y-70490655D02*
X211233990Y-70351402D01*
X210985254Y-70248118D01*
X210715927Y-70247883D01*
X210467011Y-70350733D01*
X210276402Y-70541010D01*
X210173118Y-70789746D01*
X210172883Y-71059073D01*
X210275733Y-71307989D01*
X210466010Y-71498598D01*
X210714746Y-71601882D01*
X210984073Y-71602117D01*
X211232989Y-71499267D01*
X211373000Y-71359500D01*
X211373000Y-72365655D01*
X211233990Y-72226402D01*
X210985254Y-72123118D01*
X210715927Y-72122883D01*
X210467011Y-72225733D01*
X210276402Y-72416010D01*
X210173118Y-72664746D01*
X210172883Y-72934073D01*
X210275733Y-73182989D01*
X210466010Y-73373598D01*
X210714746Y-73476882D01*
X210984073Y-73477117D01*
X211232989Y-73374267D01*
X211373000Y-73234500D01*
X211373000Y-74365655D01*
X211233990Y-74226402D01*
X210985254Y-74123118D01*
X210715927Y-74122883D01*
X210467011Y-74225733D01*
X210276402Y-74416010D01*
X210173118Y-74664746D01*
X210172883Y-74934073D01*
X210275733Y-75182989D01*
X210466010Y-75373598D01*
X210714746Y-75476882D01*
X210984073Y-75477117D01*
X211232989Y-75374267D01*
X211373000Y-75234500D01*
X211373000Y-77500000D01*
X211383006Y-77549410D01*
X211411447Y-77591035D01*
X211453841Y-77618315D01*
X211500000Y-77627000D01*
X211715480Y-77627000D01*
X211676402Y-77666010D01*
X211573118Y-77914746D01*
X211572883Y-78184073D01*
X211675733Y-78432989D01*
X211866010Y-78623598D01*
X212114746Y-78726882D01*
X212384073Y-78727117D01*
X212632989Y-78624267D01*
X212823598Y-78433990D01*
X212926882Y-78185254D01*
X212927117Y-77915927D01*
X212824267Y-77667011D01*
X212784326Y-77627000D01*
X213715480Y-77627000D01*
X213676402Y-77666010D01*
X213573118Y-77914746D01*
X213572883Y-78184073D01*
X213675733Y-78432989D01*
X213866010Y-78623598D01*
X214114746Y-78726882D01*
X214384073Y-78727117D01*
X214632989Y-78624267D01*
X214798035Y-78459508D01*
X214797883Y-78634073D01*
X214900733Y-78882989D01*
X215091010Y-79073598D01*
X215339746Y-79176882D01*
X215609073Y-79177117D01*
X215857989Y-79074267D01*
X215873000Y-79059282D01*
X215873000Y-79590436D01*
X215858990Y-79576402D01*
X215610254Y-79473118D01*
X215340927Y-79472883D01*
X215092011Y-79575733D01*
X214901402Y-79766010D01*
X214798118Y-80014746D01*
X214797883Y-80284073D01*
X214900733Y-80532989D01*
X215091010Y-80723598D01*
X215339746Y-80826882D01*
X215609073Y-80827117D01*
X215857989Y-80724267D01*
X215873000Y-80709282D01*
X215873000Y-81279458D01*
X215841845Y-81266521D01*
X215572518Y-81266286D01*
X215323602Y-81369136D01*
X215132993Y-81559413D01*
X215120037Y-81590615D01*
X214775000Y-81590615D01*
X214635292Y-81616903D01*
X214506980Y-81699470D01*
X214420899Y-81825453D01*
X214390615Y-81975000D01*
X214390615Y-82676865D01*
X214351402Y-82716010D01*
X214248118Y-82964746D01*
X214247883Y-83234073D01*
X214350733Y-83482989D01*
X214541010Y-83673598D01*
X214789746Y-83776882D01*
X215059073Y-83777117D01*
X215307989Y-83674267D01*
X215372984Y-83609385D01*
X215775000Y-83609385D01*
X215873000Y-83590945D01*
X215873000Y-85936458D01*
X215660254Y-85848118D01*
X215390927Y-85847883D01*
X215142011Y-85950733D01*
X214951402Y-86141010D01*
X214882293Y-86307444D01*
X214824267Y-86167011D01*
X214633990Y-85976402D01*
X214385254Y-85873118D01*
X214115927Y-85872883D01*
X213867011Y-85975733D01*
X213676402Y-86166010D01*
X213573118Y-86414746D01*
X213572883Y-86684073D01*
X213675733Y-86932989D01*
X213866010Y-87123598D01*
X214114746Y-87226882D01*
X214384073Y-87227117D01*
X214632989Y-87124267D01*
X214823598Y-86933990D01*
X214892707Y-86767556D01*
X214950733Y-86907989D01*
X215141010Y-87098598D01*
X215389746Y-87201882D01*
X215659073Y-87202117D01*
X215873000Y-87113724D01*
X215873000Y-87436458D01*
X215660254Y-87348118D01*
X215390927Y-87347883D01*
X215142011Y-87450733D01*
X214951402Y-87641010D01*
X214882293Y-87807444D01*
X214824267Y-87667011D01*
X214633990Y-87476402D01*
X214385254Y-87373118D01*
X214115927Y-87372883D01*
X213867011Y-87475733D01*
X213676402Y-87666010D01*
X213573118Y-87914746D01*
X213572883Y-88184073D01*
X213675733Y-88432989D01*
X213866010Y-88623598D01*
X214114746Y-88726882D01*
X214384073Y-88727117D01*
X214632989Y-88624267D01*
X214823598Y-88433990D01*
X214892707Y-88267556D01*
X214950733Y-88407989D01*
X215141010Y-88598598D01*
X215389746Y-88701882D01*
X215659073Y-88702117D01*
X215873000Y-88613724D01*
X215873000Y-91524983D01*
X215872883Y-91659073D01*
X215873000Y-91659356D01*
X215873000Y-92280315D01*
X215735254Y-92223118D01*
X215465927Y-92222883D01*
X215217011Y-92325733D01*
X215026402Y-92516010D01*
X214923118Y-92764746D01*
X214922883Y-93034073D01*
X215025733Y-93282989D01*
X215216010Y-93473598D01*
X215464746Y-93576882D01*
X215734073Y-93577117D01*
X215873000Y-93519714D01*
X215873000Y-94373000D01*
X213377000Y-94373000D01*
X213377000Y-93000000D01*
X213366994Y-92950590D01*
X213338553Y-92908965D01*
X213296159Y-92881685D01*
X213250000Y-92873000D01*
X212594037Y-92873000D01*
X212832989Y-92774267D01*
X213023598Y-92583990D01*
X213126882Y-92335254D01*
X213126883Y-92334073D01*
X213647883Y-92334073D01*
X213750733Y-92582989D01*
X213941010Y-92773598D01*
X214189746Y-92876882D01*
X214459073Y-92877117D01*
X214707989Y-92774267D01*
X214898598Y-92583990D01*
X215001882Y-92335254D01*
X215002117Y-92065927D01*
X214899267Y-91817011D01*
X214708990Y-91626402D01*
X214460254Y-91523118D01*
X214190927Y-91522883D01*
X213942011Y-91625733D01*
X213751402Y-91816010D01*
X213648118Y-92064746D01*
X213647883Y-92334073D01*
X213126883Y-92334073D01*
X213127117Y-92065927D01*
X213024267Y-91817011D01*
X212833990Y-91626402D01*
X212585254Y-91523118D01*
X212315927Y-91522883D01*
X212067011Y-91625733D01*
X211876402Y-91816010D01*
X211773118Y-92064746D01*
X211772883Y-92334073D01*
X211875733Y-92582989D01*
X212066010Y-92773598D01*
X212305397Y-92873000D01*
X210394037Y-92873000D01*
X210632989Y-92774267D01*
X210823598Y-92583990D01*
X210926882Y-92335254D01*
X210927117Y-92065927D01*
X210824267Y-91817011D01*
X210633990Y-91626402D01*
X210385254Y-91523118D01*
X210115927Y-91522883D01*
X209867011Y-91625733D01*
X209676402Y-91816010D01*
X209573118Y-92064746D01*
X209572883Y-92334073D01*
X209675733Y-92582989D01*
X209866010Y-92773598D01*
X210105397Y-92873000D01*
X208394037Y-92873000D01*
X208632989Y-92774267D01*
X208823598Y-92583990D01*
X208926882Y-92335254D01*
X208927117Y-92065927D01*
X208824267Y-91817011D01*
X208633990Y-91626402D01*
X208385254Y-91523118D01*
X208115927Y-91522883D01*
X207867011Y-91625733D01*
X207676402Y-91816010D01*
X207573118Y-92064746D01*
X207572883Y-92334073D01*
X207675733Y-92582989D01*
X207866010Y-92773598D01*
X208105397Y-92873000D01*
X206394037Y-92873000D01*
X206632989Y-92774267D01*
X206823598Y-92583990D01*
X206926882Y-92335254D01*
X206927117Y-92065927D01*
X206824267Y-91817011D01*
X206657423Y-91649876D01*
X206823598Y-91483990D01*
X206926882Y-91235254D01*
X206927117Y-90965927D01*
X206913956Y-90934073D01*
X207572883Y-90934073D01*
X207675733Y-91182989D01*
X207866010Y-91373598D01*
X208114746Y-91476882D01*
X208384073Y-91477117D01*
X208632989Y-91374267D01*
X208823598Y-91183990D01*
X208926882Y-90935254D01*
X208926883Y-90934073D01*
X209572883Y-90934073D01*
X209675733Y-91182989D01*
X209866010Y-91373598D01*
X210114746Y-91476882D01*
X210384073Y-91477117D01*
X210632989Y-91374267D01*
X210823598Y-91183990D01*
X210926882Y-90935254D01*
X210927117Y-90665927D01*
X210824267Y-90417011D01*
X210633990Y-90226402D01*
X210385254Y-90123118D01*
X210115927Y-90122883D01*
X209867011Y-90225733D01*
X209676402Y-90416010D01*
X209573118Y-90664746D01*
X209572883Y-90934073D01*
X208926883Y-90934073D01*
X208927117Y-90665927D01*
X208824267Y-90417011D01*
X208633990Y-90226402D01*
X208385254Y-90123118D01*
X208115927Y-90122883D01*
X207867011Y-90225733D01*
X207676402Y-90416010D01*
X207573118Y-90664746D01*
X207572883Y-90934073D01*
X206913956Y-90934073D01*
X206824267Y-90717011D01*
X206802659Y-90695365D01*
X206994349Y-90616160D01*
X207315034Y-90296034D01*
X207488802Y-89877555D01*
X207489197Y-89424433D01*
X207317574Y-89009073D01*
X207572883Y-89009073D01*
X207675733Y-89257989D01*
X207866010Y-89448598D01*
X208114746Y-89551882D01*
X208384073Y-89552117D01*
X208632989Y-89449267D01*
X208823598Y-89258990D01*
X208926882Y-89010254D01*
X208927117Y-88740927D01*
X208824267Y-88492011D01*
X208633990Y-88301402D01*
X208385254Y-88198118D01*
X208115927Y-88197883D01*
X207867011Y-88300733D01*
X207676402Y-88491010D01*
X207573118Y-88739746D01*
X207572883Y-89009073D01*
X207317574Y-89009073D01*
X207316160Y-89005651D01*
X206996034Y-88684966D01*
X206577555Y-88511198D01*
X206124433Y-88510803D01*
X205705651Y-88683840D01*
X205516161Y-88873000D01*
X202127000Y-88873000D01*
X202127000Y-88690447D01*
X202214746Y-88726882D01*
X202484073Y-88727117D01*
X202732989Y-88624267D01*
X202923598Y-88433990D01*
X202996229Y-88259073D01*
X203397883Y-88259073D01*
X203500733Y-88507989D01*
X203691010Y-88698598D01*
X203939746Y-88801882D01*
X204209073Y-88802117D01*
X204457989Y-88699267D01*
X204648598Y-88508990D01*
X204751882Y-88260254D01*
X204752117Y-87990927D01*
X204649267Y-87742011D01*
X204458990Y-87551402D01*
X204210254Y-87448118D01*
X203940927Y-87447883D01*
X203692011Y-87550733D01*
X203501402Y-87741010D01*
X203398118Y-87989746D01*
X203397883Y-88259073D01*
X202996229Y-88259073D01*
X203026882Y-88185254D01*
X203027117Y-87915927D01*
X202924267Y-87667011D01*
X202733990Y-87476402D01*
X202485254Y-87373118D01*
X202215927Y-87372883D01*
X202127000Y-87409627D01*
X202127000Y-87190447D01*
X202214746Y-87226882D01*
X202484073Y-87227117D01*
X202732989Y-87124267D01*
X202923598Y-86933990D01*
X203026882Y-86685254D01*
X203026883Y-86684073D01*
X203572883Y-86684073D01*
X203675733Y-86932989D01*
X203866010Y-87123598D01*
X204114746Y-87226882D01*
X204384073Y-87227117D01*
X204632989Y-87124267D01*
X204823598Y-86933990D01*
X204926882Y-86685254D01*
X204926883Y-86684073D01*
X205572883Y-86684073D01*
X205675733Y-86932989D01*
X205830077Y-87087602D01*
X205676402Y-87241010D01*
X205573118Y-87489746D01*
X205572883Y-87759073D01*
X205675733Y-88007989D01*
X205866010Y-88198598D01*
X206114746Y-88301882D01*
X206384073Y-88302117D01*
X206632989Y-88199267D01*
X206648209Y-88184073D01*
X209572883Y-88184073D01*
X209675733Y-88432989D01*
X209866010Y-88623598D01*
X210114746Y-88726882D01*
X210384073Y-88727117D01*
X210632989Y-88624267D01*
X210823598Y-88433990D01*
X210926882Y-88185254D01*
X210926883Y-88184073D01*
X211572883Y-88184073D01*
X211675733Y-88432989D01*
X211866010Y-88623598D01*
X212114746Y-88726882D01*
X212384073Y-88727117D01*
X212632989Y-88624267D01*
X212823598Y-88433990D01*
X212926882Y-88185254D01*
X212927117Y-87915927D01*
X212824267Y-87667011D01*
X212633990Y-87476402D01*
X212385254Y-87373118D01*
X212115927Y-87372883D01*
X211867011Y-87475733D01*
X211676402Y-87666010D01*
X211573118Y-87914746D01*
X211572883Y-88184073D01*
X210926883Y-88184073D01*
X210927117Y-87915927D01*
X210824267Y-87667011D01*
X210633990Y-87476402D01*
X210385254Y-87373118D01*
X210115927Y-87372883D01*
X209867011Y-87475733D01*
X209676402Y-87666010D01*
X209573118Y-87914746D01*
X209572883Y-88184073D01*
X206648209Y-88184073D01*
X206823598Y-88008990D01*
X206926882Y-87760254D01*
X206927117Y-87490927D01*
X206824267Y-87242011D01*
X206669923Y-87087398D01*
X206823598Y-86933990D01*
X206926882Y-86685254D01*
X206926883Y-86684073D01*
X207572883Y-86684073D01*
X207675733Y-86932989D01*
X207767577Y-87024994D01*
X207676402Y-87116010D01*
X207573118Y-87364746D01*
X207572883Y-87634073D01*
X207675733Y-87882989D01*
X207866010Y-88073598D01*
X208114746Y-88176882D01*
X208384073Y-88177117D01*
X208632989Y-88074267D01*
X208823598Y-87883990D01*
X208926882Y-87635254D01*
X208927117Y-87365927D01*
X208824267Y-87117011D01*
X208732423Y-87025006D01*
X208823598Y-86933990D01*
X208926882Y-86685254D01*
X208926883Y-86684073D01*
X209572883Y-86684073D01*
X209675733Y-86932989D01*
X209866010Y-87123598D01*
X210114746Y-87226882D01*
X210384073Y-87227117D01*
X210632989Y-87124267D01*
X210823598Y-86933990D01*
X210926882Y-86685254D01*
X210926883Y-86684073D01*
X211572883Y-86684073D01*
X211675733Y-86932989D01*
X211866010Y-87123598D01*
X212114746Y-87226882D01*
X212384073Y-87227117D01*
X212632989Y-87124267D01*
X212823598Y-86933990D01*
X212926882Y-86685254D01*
X212927117Y-86415927D01*
X212824267Y-86167011D01*
X212633990Y-85976402D01*
X212385254Y-85873118D01*
X212115927Y-85872883D01*
X211867011Y-85975733D01*
X211676402Y-86166010D01*
X211573118Y-86414746D01*
X211572883Y-86684073D01*
X210926883Y-86684073D01*
X210927117Y-86415927D01*
X210824267Y-86167011D01*
X210633990Y-85976402D01*
X210385254Y-85873118D01*
X210115927Y-85872883D01*
X209867011Y-85975733D01*
X209676402Y-86166010D01*
X209573118Y-86414746D01*
X209572883Y-86684073D01*
X208926883Y-86684073D01*
X208927117Y-86415927D01*
X208824267Y-86167011D01*
X208633990Y-85976402D01*
X208385254Y-85873118D01*
X208115927Y-85872883D01*
X207867011Y-85975733D01*
X207676402Y-86166010D01*
X207573118Y-86414746D01*
X207572883Y-86684073D01*
X206926883Y-86684073D01*
X206927117Y-86415927D01*
X206824267Y-86167011D01*
X206633990Y-85976402D01*
X206385254Y-85873118D01*
X206115927Y-85872883D01*
X205867011Y-85975733D01*
X205676402Y-86166010D01*
X205573118Y-86414746D01*
X205572883Y-86684073D01*
X204926883Y-86684073D01*
X204927117Y-86415927D01*
X204824267Y-86167011D01*
X204633990Y-85976402D01*
X204385254Y-85873118D01*
X204115927Y-85872883D01*
X203867011Y-85975733D01*
X203676402Y-86166010D01*
X203573118Y-86414746D01*
X203572883Y-86684073D01*
X203026883Y-86684073D01*
X203027117Y-86415927D01*
X202924267Y-86167011D01*
X202733990Y-85976402D01*
X202485254Y-85873118D01*
X202215927Y-85872883D01*
X202127000Y-85909627D01*
X202127000Y-85440447D01*
X202214746Y-85476882D01*
X202484073Y-85477117D01*
X202732989Y-85374267D01*
X202923598Y-85183990D01*
X203026882Y-84935254D01*
X203026883Y-84934073D01*
X203572883Y-84934073D01*
X203675733Y-85182989D01*
X203866010Y-85373598D01*
X204114746Y-85476882D01*
X204384073Y-85477117D01*
X204632989Y-85374267D01*
X204823598Y-85183990D01*
X204926882Y-84935254D01*
X204927003Y-84795567D01*
X205210803Y-84795567D01*
X205383840Y-85214349D01*
X205703966Y-85535034D01*
X206122445Y-85708802D01*
X206575567Y-85709197D01*
X206994349Y-85536160D01*
X207315034Y-85216034D01*
X207488802Y-84797555D01*
X207489197Y-84344433D01*
X207316160Y-83925651D01*
X206996034Y-83604966D01*
X206577555Y-83431198D01*
X206124433Y-83430803D01*
X205705651Y-83603840D01*
X205384966Y-83923966D01*
X205211198Y-84342445D01*
X205210803Y-84795567D01*
X204927003Y-84795567D01*
X204927117Y-84665927D01*
X204824267Y-84417011D01*
X204633990Y-84226402D01*
X204385254Y-84123118D01*
X204115927Y-84122883D01*
X203867011Y-84225733D01*
X203676402Y-84416010D01*
X203573118Y-84664746D01*
X203572883Y-84934073D01*
X203026883Y-84934073D01*
X203027117Y-84665927D01*
X202924267Y-84417011D01*
X202733990Y-84226402D01*
X202485254Y-84123118D01*
X202215927Y-84122883D01*
X202127000Y-84159627D01*
X202127000Y-83440447D01*
X202214746Y-83476882D01*
X202484073Y-83477117D01*
X202732989Y-83374267D01*
X202923598Y-83183990D01*
X203026882Y-82935254D01*
X203026883Y-82934073D01*
X203572883Y-82934073D01*
X203675733Y-83182989D01*
X203866010Y-83373598D01*
X204114746Y-83476882D01*
X204384073Y-83477117D01*
X204632989Y-83374267D01*
X204823598Y-83183990D01*
X204926882Y-82935254D01*
X204926883Y-82934073D01*
X207572883Y-82934073D01*
X207675733Y-83182989D01*
X207866010Y-83373598D01*
X208114746Y-83476882D01*
X208384073Y-83477117D01*
X208632989Y-83374267D01*
X208823598Y-83183990D01*
X208926882Y-82935254D01*
X208926883Y-82934073D01*
X209572883Y-82934073D01*
X209675733Y-83182989D01*
X209866010Y-83373598D01*
X210114746Y-83476882D01*
X210384073Y-83477117D01*
X210632989Y-83374267D01*
X210823598Y-83183990D01*
X210926882Y-82935254D01*
X210927117Y-82665927D01*
X210824267Y-82417011D01*
X210633990Y-82226402D01*
X210385254Y-82123118D01*
X210115927Y-82122883D01*
X209867011Y-82225733D01*
X209676402Y-82416010D01*
X209573118Y-82664746D01*
X209572883Y-82934073D01*
X208926883Y-82934073D01*
X208927117Y-82665927D01*
X208824267Y-82417011D01*
X208633990Y-82226402D01*
X208385254Y-82123118D01*
X208115927Y-82122883D01*
X207867011Y-82225733D01*
X207676402Y-82416010D01*
X207573118Y-82664746D01*
X207572883Y-82934073D01*
X204926883Y-82934073D01*
X204927117Y-82665927D01*
X204824267Y-82417011D01*
X204633990Y-82226402D01*
X204385254Y-82123118D01*
X204115927Y-82122883D01*
X203867011Y-82225733D01*
X203676402Y-82416010D01*
X203573118Y-82664746D01*
X203572883Y-82934073D01*
X203026883Y-82934073D01*
X203027117Y-82665927D01*
X202924267Y-82417011D01*
X202733990Y-82226402D01*
X202485254Y-82123118D01*
X202215927Y-82122883D01*
X202127000Y-82159627D01*
X202127000Y-81440447D01*
X202214746Y-81476882D01*
X202484073Y-81477117D01*
X202732989Y-81374267D01*
X202923598Y-81183990D01*
X203026882Y-80935254D01*
X203026883Y-80934073D01*
X203572883Y-80934073D01*
X203675733Y-81182989D01*
X203866010Y-81373598D01*
X204114746Y-81476882D01*
X204384073Y-81477117D01*
X204632989Y-81374267D01*
X204823598Y-81183990D01*
X204926882Y-80935254D01*
X204926883Y-80934073D01*
X207572883Y-80934073D01*
X207675733Y-81182989D01*
X207866010Y-81373598D01*
X208114746Y-81476882D01*
X208384073Y-81477117D01*
X208632989Y-81374267D01*
X208823598Y-81183990D01*
X208926882Y-80935254D01*
X208926883Y-80934073D01*
X209572883Y-80934073D01*
X209675733Y-81182989D01*
X209866010Y-81373598D01*
X210114746Y-81476882D01*
X210384073Y-81477117D01*
X210632989Y-81374267D01*
X210823598Y-81183990D01*
X210926882Y-80935254D01*
X210927117Y-80665927D01*
X210824267Y-80417011D01*
X210633990Y-80226402D01*
X210385254Y-80123118D01*
X210115927Y-80122883D01*
X209867011Y-80225733D01*
X209676402Y-80416010D01*
X209573118Y-80664746D01*
X209572883Y-80934073D01*
X208926883Y-80934073D01*
X208927117Y-80665927D01*
X208824267Y-80417011D01*
X208633990Y-80226402D01*
X208385254Y-80123118D01*
X208115927Y-80122883D01*
X207867011Y-80225733D01*
X207676402Y-80416010D01*
X207573118Y-80664746D01*
X207572883Y-80934073D01*
X204926883Y-80934073D01*
X204927117Y-80665927D01*
X204824267Y-80417011D01*
X204633990Y-80226402D01*
X204385254Y-80123118D01*
X204115927Y-80122883D01*
X203867011Y-80225733D01*
X203676402Y-80416010D01*
X203573118Y-80664746D01*
X203572883Y-80934073D01*
X203026883Y-80934073D01*
X203027117Y-80665927D01*
X202924267Y-80417011D01*
X202733990Y-80226402D01*
X202485254Y-80123118D01*
X202215927Y-80122883D01*
X202127000Y-80159627D01*
X202127000Y-79440447D01*
X202214746Y-79476882D01*
X202484073Y-79477117D01*
X202732989Y-79374267D01*
X202923598Y-79183990D01*
X203026882Y-78935254D01*
X203026883Y-78934073D01*
X203572883Y-78934073D01*
X203675733Y-79182989D01*
X203866010Y-79373598D01*
X204114746Y-79476882D01*
X204384073Y-79477117D01*
X204632989Y-79374267D01*
X204823598Y-79183990D01*
X204926882Y-78935254D01*
X204926883Y-78934073D01*
X207572883Y-78934073D01*
X207675733Y-79182989D01*
X207866010Y-79373598D01*
X208114746Y-79476882D01*
X208384073Y-79477117D01*
X208632989Y-79374267D01*
X208823598Y-79183990D01*
X208926882Y-78935254D01*
X208926883Y-78934073D01*
X209572883Y-78934073D01*
X209675733Y-79182989D01*
X209866010Y-79373598D01*
X210114746Y-79476882D01*
X210384073Y-79477117D01*
X210632989Y-79374267D01*
X210823598Y-79183990D01*
X210926882Y-78935254D01*
X210927117Y-78665927D01*
X210824267Y-78417011D01*
X210633990Y-78226402D01*
X210385254Y-78123118D01*
X210115927Y-78122883D01*
X209867011Y-78225733D01*
X209676402Y-78416010D01*
X209573118Y-78664746D01*
X209572883Y-78934073D01*
X208926883Y-78934073D01*
X208927117Y-78665927D01*
X208824267Y-78417011D01*
X208633990Y-78226402D01*
X208385254Y-78123118D01*
X208115927Y-78122883D01*
X207867011Y-78225733D01*
X207676402Y-78416010D01*
X207573118Y-78664746D01*
X207572883Y-78934073D01*
X204926883Y-78934073D01*
X204927117Y-78665927D01*
X204824267Y-78417011D01*
X204633990Y-78226402D01*
X204385254Y-78123118D01*
X204115927Y-78122883D01*
X203867011Y-78225733D01*
X203676402Y-78416010D01*
X203573118Y-78664746D01*
X203572883Y-78934073D01*
X203026883Y-78934073D01*
X203027117Y-78665927D01*
X202924267Y-78417011D01*
X202733990Y-78226402D01*
X202485254Y-78123118D01*
X202215927Y-78122883D01*
X202127000Y-78159627D01*
X202127000Y-77440447D01*
X202214746Y-77476882D01*
X202484073Y-77477117D01*
X202588247Y-77434073D01*
X203572883Y-77434073D01*
X203675733Y-77682989D01*
X203866010Y-77873598D01*
X204114746Y-77976882D01*
X204384073Y-77977117D01*
X204632989Y-77874267D01*
X204823598Y-77683990D01*
X204926882Y-77435254D01*
X204926883Y-77434073D01*
X207572883Y-77434073D01*
X207675733Y-77682989D01*
X207866010Y-77873598D01*
X208114746Y-77976882D01*
X208384073Y-77977117D01*
X208632989Y-77874267D01*
X208823598Y-77683990D01*
X208926882Y-77435254D01*
X208927117Y-77165927D01*
X208903626Y-77109073D01*
X209872883Y-77109073D01*
X209975733Y-77357989D01*
X210166010Y-77548598D01*
X210414746Y-77651882D01*
X210684073Y-77652117D01*
X210932989Y-77549267D01*
X211123598Y-77358990D01*
X211226882Y-77110254D01*
X211227117Y-76840927D01*
X211124267Y-76592011D01*
X210933990Y-76401402D01*
X210685254Y-76298118D01*
X210415927Y-76297883D01*
X210167011Y-76400733D01*
X209976402Y-76591010D01*
X209873118Y-76839746D01*
X209872883Y-77109073D01*
X208903626Y-77109073D01*
X208824267Y-76917011D01*
X208633990Y-76726402D01*
X208385254Y-76623118D01*
X208115927Y-76622883D01*
X207867011Y-76725733D01*
X207676402Y-76916010D01*
X207573118Y-77164746D01*
X207572883Y-77434073D01*
X204926883Y-77434073D01*
X204927117Y-77165927D01*
X204824267Y-76917011D01*
X204633990Y-76726402D01*
X204385254Y-76623118D01*
X204115927Y-76622883D01*
X203867011Y-76725733D01*
X203676402Y-76916010D01*
X203573118Y-77164746D01*
X203572883Y-77434073D01*
X202588247Y-77434073D01*
X202732989Y-77374267D01*
X202923598Y-77183990D01*
X203026882Y-76935254D01*
X203027117Y-76665927D01*
X202924267Y-76417011D01*
X202733990Y-76226402D01*
X202485254Y-76123118D01*
X202215927Y-76122883D01*
X202127000Y-76159627D01*
X202127000Y-73380066D01*
X202239746Y-73426882D01*
X202509073Y-73427117D01*
X202757989Y-73324267D01*
X202948598Y-73133990D01*
X203031610Y-72934073D01*
X203197883Y-72934073D01*
X203300733Y-73182989D01*
X203491010Y-73373598D01*
X203739746Y-73476882D01*
X204009073Y-73477117D01*
X204257989Y-73374267D01*
X204445274Y-73187308D01*
X204722727Y-73187308D01*
X204962305Y-73767132D01*
X205405535Y-74211136D01*
X205984939Y-74451725D01*
X206612308Y-74452273D01*
X207192132Y-74212695D01*
X207636136Y-73769465D01*
X207876725Y-73190061D01*
X207876948Y-72934073D01*
X208397883Y-72934073D01*
X208500733Y-73182989D01*
X208691010Y-73373598D01*
X208939746Y-73476882D01*
X209209073Y-73477117D01*
X209457989Y-73374267D01*
X209648598Y-73183990D01*
X209751882Y-72935254D01*
X209752117Y-72665927D01*
X209649267Y-72417011D01*
X209458990Y-72226402D01*
X209210254Y-72123118D01*
X208940927Y-72122883D01*
X208692011Y-72225733D01*
X208501402Y-72416010D01*
X208398118Y-72664746D01*
X208397883Y-72934073D01*
X207876948Y-72934073D01*
X207877273Y-72562692D01*
X207637695Y-71982868D01*
X207194465Y-71538864D01*
X206716858Y-71340545D01*
X206823598Y-71233990D01*
X206926882Y-70985254D01*
X206927117Y-70715927D01*
X206824267Y-70467011D01*
X206633990Y-70276402D01*
X206385254Y-70173118D01*
X206115927Y-70172883D01*
X205867011Y-70275733D01*
X205676402Y-70466010D01*
X205573118Y-70714746D01*
X205572883Y-70984073D01*
X205675733Y-71232989D01*
X205812585Y-71370080D01*
X205407868Y-71537305D01*
X204963864Y-71980535D01*
X204723275Y-72559939D01*
X204722727Y-73187308D01*
X204445274Y-73187308D01*
X204448598Y-73183990D01*
X204551882Y-72935254D01*
X204552117Y-72665927D01*
X204449267Y-72417011D01*
X204258990Y-72226402D01*
X204010254Y-72123118D01*
X203740927Y-72122883D01*
X203492011Y-72225733D01*
X203301402Y-72416010D01*
X203198118Y-72664746D01*
X203197883Y-72934073D01*
X203031610Y-72934073D01*
X203051882Y-72885254D01*
X203052117Y-72615927D01*
X202949267Y-72367011D01*
X202758990Y-72176402D01*
X202510254Y-72073118D01*
X202240927Y-72072883D01*
X202127000Y-72119957D01*
X202127000Y-69476893D01*
X202384073Y-69477117D01*
X202632989Y-69374267D01*
X202823598Y-69183990D01*
X202926882Y-68935254D01*
X202927117Y-68665927D01*
X202920362Y-68649579D01*
X205582325Y-68642574D01*
X205573118Y-68664746D01*
X205572883Y-68934073D01*
X205675733Y-69182989D01*
X205866010Y-69373598D01*
X206114746Y-69476882D01*
X206384073Y-69477117D01*
X206632989Y-69374267D01*
X206823598Y-69183990D01*
X206926882Y-68935254D01*
X206927117Y-68665927D01*
X206916017Y-68639064D01*
X209586700Y-68632036D01*
X209573118Y-68664746D01*
X209572883Y-68934073D01*
X209675733Y-69182989D01*
X209866010Y-69373598D01*
X210114746Y-69476882D01*
X210384073Y-69477117D01*
X210632989Y-69374267D01*
X210823598Y-69183990D01*
X210926882Y-68935254D01*
X210927117Y-68665927D01*
X210911673Y-68628549D01*
X211373000Y-68627335D01*
X211373000Y-70490655D01*
X211373000Y-70490655D01*
G37*
X211373000Y-70490655D02*
X211233990Y-70351402D01*
X210985254Y-70248118D01*
X210715927Y-70247883D01*
X210467011Y-70350733D01*
X210276402Y-70541010D01*
X210173118Y-70789746D01*
X210172883Y-71059073D01*
X210275733Y-71307989D01*
X210466010Y-71498598D01*
X210714746Y-71601882D01*
X210984073Y-71602117D01*
X211232989Y-71499267D01*
X211373000Y-71359500D01*
X211373000Y-72365655D01*
X211233990Y-72226402D01*
X210985254Y-72123118D01*
X210715927Y-72122883D01*
X210467011Y-72225733D01*
X210276402Y-72416010D01*
X210173118Y-72664746D01*
X210172883Y-72934073D01*
X210275733Y-73182989D01*
X210466010Y-73373598D01*
X210714746Y-73476882D01*
X210984073Y-73477117D01*
X211232989Y-73374267D01*
X211373000Y-73234500D01*
X211373000Y-74365655D01*
X211233990Y-74226402D01*
X210985254Y-74123118D01*
X210715927Y-74122883D01*
X210467011Y-74225733D01*
X210276402Y-74416010D01*
X210173118Y-74664746D01*
X210172883Y-74934073D01*
X210275733Y-75182989D01*
X210466010Y-75373598D01*
X210714746Y-75476882D01*
X210984073Y-75477117D01*
X211232989Y-75374267D01*
X211373000Y-75234500D01*
X211373000Y-77500000D01*
X211383006Y-77549410D01*
X211411447Y-77591035D01*
X211453841Y-77618315D01*
X211500000Y-77627000D01*
X211715480Y-77627000D01*
X211676402Y-77666010D01*
X211573118Y-77914746D01*
X211572883Y-78184073D01*
X211675733Y-78432989D01*
X211866010Y-78623598D01*
X212114746Y-78726882D01*
X212384073Y-78727117D01*
X212632989Y-78624267D01*
X212823598Y-78433990D01*
X212926882Y-78185254D01*
X212927117Y-77915927D01*
X212824267Y-77667011D01*
X212784326Y-77627000D01*
X213715480Y-77627000D01*
X213676402Y-77666010D01*
X213573118Y-77914746D01*
X213572883Y-78184073D01*
X213675733Y-78432989D01*
X213866010Y-78623598D01*
X214114746Y-78726882D01*
X214384073Y-78727117D01*
X214632989Y-78624267D01*
X214798035Y-78459508D01*
X214797883Y-78634073D01*
X214900733Y-78882989D01*
X215091010Y-79073598D01*
X215339746Y-79176882D01*
X215609073Y-79177117D01*
X215857989Y-79074267D01*
X215873000Y-79059282D01*
X215873000Y-79590436D01*
X215858990Y-79576402D01*
X215610254Y-79473118D01*
X215340927Y-79472883D01*
X215092011Y-79575733D01*
X214901402Y-79766010D01*
X214798118Y-80014746D01*
X214797883Y-80284073D01*
X214900733Y-80532989D01*
X215091010Y-80723598D01*
X215339746Y-80826882D01*
X215609073Y-80827117D01*
X215857989Y-80724267D01*
X215873000Y-80709282D01*
X215873000Y-81279458D01*
X215841845Y-81266521D01*
X215572518Y-81266286D01*
X215323602Y-81369136D01*
X215132993Y-81559413D01*
X215120037Y-81590615D01*
X214775000Y-81590615D01*
X214635292Y-81616903D01*
X214506980Y-81699470D01*
X214420899Y-81825453D01*
X214390615Y-81975000D01*
X214390615Y-82676865D01*
X214351402Y-82716010D01*
X214248118Y-82964746D01*
X214247883Y-83234073D01*
X214350733Y-83482989D01*
X214541010Y-83673598D01*
X214789746Y-83776882D01*
X215059073Y-83777117D01*
X215307989Y-83674267D01*
X215372984Y-83609385D01*
X215775000Y-83609385D01*
X215873000Y-83590945D01*
X215873000Y-85936458D01*
X215660254Y-85848118D01*
X215390927Y-85847883D01*
X215142011Y-85950733D01*
X214951402Y-86141010D01*
X214882293Y-86307444D01*
X214824267Y-86167011D01*
X214633990Y-85976402D01*
X214385254Y-85873118D01*
X214115927Y-85872883D01*
X213867011Y-85975733D01*
X213676402Y-86166010D01*
X213573118Y-86414746D01*
X213572883Y-86684073D01*
X213675733Y-86932989D01*
X213866010Y-87123598D01*
X214114746Y-87226882D01*
X214384073Y-87227117D01*
X214632989Y-87124267D01*
X214823598Y-86933990D01*
X214892707Y-86767556D01*
X214950733Y-86907989D01*
X215141010Y-87098598D01*
X215389746Y-87201882D01*
X215659073Y-87202117D01*
X215873000Y-87113724D01*
X215873000Y-87436458D01*
X215660254Y-87348118D01*
X215390927Y-87347883D01*
X215142011Y-87450733D01*
X214951402Y-87641010D01*
X214882293Y-87807444D01*
X214824267Y-87667011D01*
X214633990Y-87476402D01*
X214385254Y-87373118D01*
X214115927Y-87372883D01*
X213867011Y-87475733D01*
X213676402Y-87666010D01*
X213573118Y-87914746D01*
X213572883Y-88184073D01*
X213675733Y-88432989D01*
X213866010Y-88623598D01*
X214114746Y-88726882D01*
X214384073Y-88727117D01*
X214632989Y-88624267D01*
X214823598Y-88433990D01*
X214892707Y-88267556D01*
X214950733Y-88407989D01*
X215141010Y-88598598D01*
X215389746Y-88701882D01*
X215659073Y-88702117D01*
X215873000Y-88613724D01*
X215873000Y-91524983D01*
X215872883Y-91659073D01*
X215873000Y-91659356D01*
X215873000Y-92280315D01*
X215735254Y-92223118D01*
X215465927Y-92222883D01*
X215217011Y-92325733D01*
X215026402Y-92516010D01*
X214923118Y-92764746D01*
X214922883Y-93034073D01*
X215025733Y-93282989D01*
X215216010Y-93473598D01*
X215464746Y-93576882D01*
X215734073Y-93577117D01*
X215873000Y-93519714D01*
X215873000Y-94373000D01*
X213377000Y-94373000D01*
X213377000Y-93000000D01*
X213366994Y-92950590D01*
X213338553Y-92908965D01*
X213296159Y-92881685D01*
X213250000Y-92873000D01*
X212594037Y-92873000D01*
X212832989Y-92774267D01*
X213023598Y-92583990D01*
X213126882Y-92335254D01*
X213126883Y-92334073D01*
X213647883Y-92334073D01*
X213750733Y-92582989D01*
X213941010Y-92773598D01*
X214189746Y-92876882D01*
X214459073Y-92877117D01*
X214707989Y-92774267D01*
X214898598Y-92583990D01*
X215001882Y-92335254D01*
X215002117Y-92065927D01*
X214899267Y-91817011D01*
X214708990Y-91626402D01*
X214460254Y-91523118D01*
X214190927Y-91522883D01*
X213942011Y-91625733D01*
X213751402Y-91816010D01*
X213648118Y-92064746D01*
X213647883Y-92334073D01*
X213126883Y-92334073D01*
X213127117Y-92065927D01*
X213024267Y-91817011D01*
X212833990Y-91626402D01*
X212585254Y-91523118D01*
X212315927Y-91522883D01*
X212067011Y-91625733D01*
X211876402Y-91816010D01*
X211773118Y-92064746D01*
X211772883Y-92334073D01*
X211875733Y-92582989D01*
X212066010Y-92773598D01*
X212305397Y-92873000D01*
X210394037Y-92873000D01*
X210632989Y-92774267D01*
X210823598Y-92583990D01*
X210926882Y-92335254D01*
X210927117Y-92065927D01*
X210824267Y-91817011D01*
X210633990Y-91626402D01*
X210385254Y-91523118D01*
X210115927Y-91522883D01*
X209867011Y-91625733D01*
X209676402Y-91816010D01*
X209573118Y-92064746D01*
X209572883Y-92334073D01*
X209675733Y-92582989D01*
X209866010Y-92773598D01*
X210105397Y-92873000D01*
X208394037Y-92873000D01*
X208632989Y-92774267D01*
X208823598Y-92583990D01*
X208926882Y-92335254D01*
X208927117Y-92065927D01*
X208824267Y-91817011D01*
X208633990Y-91626402D01*
X208385254Y-91523118D01*
X208115927Y-91522883D01*
X207867011Y-91625733D01*
X207676402Y-91816010D01*
X207573118Y-92064746D01*
X207572883Y-92334073D01*
X207675733Y-92582989D01*
X207866010Y-92773598D01*
X208105397Y-92873000D01*
X206394037Y-92873000D01*
X206632989Y-92774267D01*
X206823598Y-92583990D01*
X206926882Y-92335254D01*
X206927117Y-92065927D01*
X206824267Y-91817011D01*
X206657423Y-91649876D01*
X206823598Y-91483990D01*
X206926882Y-91235254D01*
X206927117Y-90965927D01*
X206913956Y-90934073D01*
X207572883Y-90934073D01*
X207675733Y-91182989D01*
X207866010Y-91373598D01*
X208114746Y-91476882D01*
X208384073Y-91477117D01*
X208632989Y-91374267D01*
X208823598Y-91183990D01*
X208926882Y-90935254D01*
X208926883Y-90934073D01*
X209572883Y-90934073D01*
X209675733Y-91182989D01*
X209866010Y-91373598D01*
X210114746Y-91476882D01*
X210384073Y-91477117D01*
X210632989Y-91374267D01*
X210823598Y-91183990D01*
X210926882Y-90935254D01*
X210927117Y-90665927D01*
X210824267Y-90417011D01*
X210633990Y-90226402D01*
X210385254Y-90123118D01*
X210115927Y-90122883D01*
X209867011Y-90225733D01*
X209676402Y-90416010D01*
X209573118Y-90664746D01*
X209572883Y-90934073D01*
X208926883Y-90934073D01*
X208927117Y-90665927D01*
X208824267Y-90417011D01*
X208633990Y-90226402D01*
X208385254Y-90123118D01*
X208115927Y-90122883D01*
X207867011Y-90225733D01*
X207676402Y-90416010D01*
X207573118Y-90664746D01*
X207572883Y-90934073D01*
X206913956Y-90934073D01*
X206824267Y-90717011D01*
X206802659Y-90695365D01*
X206994349Y-90616160D01*
X207315034Y-90296034D01*
X207488802Y-89877555D01*
X207489197Y-89424433D01*
X207317574Y-89009073D01*
X207572883Y-89009073D01*
X207675733Y-89257989D01*
X207866010Y-89448598D01*
X208114746Y-89551882D01*
X208384073Y-89552117D01*
X208632989Y-89449267D01*
X208823598Y-89258990D01*
X208926882Y-89010254D01*
X208927117Y-88740927D01*
X208824267Y-88492011D01*
X208633990Y-88301402D01*
X208385254Y-88198118D01*
X208115927Y-88197883D01*
X207867011Y-88300733D01*
X207676402Y-88491010D01*
X207573118Y-88739746D01*
X207572883Y-89009073D01*
X207317574Y-89009073D01*
X207316160Y-89005651D01*
X206996034Y-88684966D01*
X206577555Y-88511198D01*
X206124433Y-88510803D01*
X205705651Y-88683840D01*
X205516161Y-88873000D01*
X202127000Y-88873000D01*
X202127000Y-88690447D01*
X202214746Y-88726882D01*
X202484073Y-88727117D01*
X202732989Y-88624267D01*
X202923598Y-88433990D01*
X202996229Y-88259073D01*
X203397883Y-88259073D01*
X203500733Y-88507989D01*
X203691010Y-88698598D01*
X203939746Y-88801882D01*
X204209073Y-88802117D01*
X204457989Y-88699267D01*
X204648598Y-88508990D01*
X204751882Y-88260254D01*
X204752117Y-87990927D01*
X204649267Y-87742011D01*
X204458990Y-87551402D01*
X204210254Y-87448118D01*
X203940927Y-87447883D01*
X203692011Y-87550733D01*
X203501402Y-87741010D01*
X203398118Y-87989746D01*
X203397883Y-88259073D01*
X202996229Y-88259073D01*
X203026882Y-88185254D01*
X203027117Y-87915927D01*
X202924267Y-87667011D01*
X202733990Y-87476402D01*
X202485254Y-87373118D01*
X202215927Y-87372883D01*
X202127000Y-87409627D01*
X202127000Y-87190447D01*
X202214746Y-87226882D01*
X202484073Y-87227117D01*
X202732989Y-87124267D01*
X202923598Y-86933990D01*
X203026882Y-86685254D01*
X203026883Y-86684073D01*
X203572883Y-86684073D01*
X203675733Y-86932989D01*
X203866010Y-87123598D01*
X204114746Y-87226882D01*
X204384073Y-87227117D01*
X204632989Y-87124267D01*
X204823598Y-86933990D01*
X204926882Y-86685254D01*
X204926883Y-86684073D01*
X205572883Y-86684073D01*
X205675733Y-86932989D01*
X205830077Y-87087602D01*
X205676402Y-87241010D01*
X205573118Y-87489746D01*
X205572883Y-87759073D01*
X205675733Y-88007989D01*
X205866010Y-88198598D01*
X206114746Y-88301882D01*
X206384073Y-88302117D01*
X206632989Y-88199267D01*
X206648209Y-88184073D01*
X209572883Y-88184073D01*
X209675733Y-88432989D01*
X209866010Y-88623598D01*
X210114746Y-88726882D01*
X210384073Y-88727117D01*
X210632989Y-88624267D01*
X210823598Y-88433990D01*
X210926882Y-88185254D01*
X210926883Y-88184073D01*
X211572883Y-88184073D01*
X211675733Y-88432989D01*
X211866010Y-88623598D01*
X212114746Y-88726882D01*
X212384073Y-88727117D01*
X212632989Y-88624267D01*
X212823598Y-88433990D01*
X212926882Y-88185254D01*
X212927117Y-87915927D01*
X212824267Y-87667011D01*
X212633990Y-87476402D01*
X212385254Y-87373118D01*
X212115927Y-87372883D01*
X211867011Y-87475733D01*
X211676402Y-87666010D01*
X211573118Y-87914746D01*
X211572883Y-88184073D01*
X210926883Y-88184073D01*
X210927117Y-87915927D01*
X210824267Y-87667011D01*
X210633990Y-87476402D01*
X210385254Y-87373118D01*
X210115927Y-87372883D01*
X209867011Y-87475733D01*
X209676402Y-87666010D01*
X209573118Y-87914746D01*
X209572883Y-88184073D01*
X206648209Y-88184073D01*
X206823598Y-88008990D01*
X206926882Y-87760254D01*
X206927117Y-87490927D01*
X206824267Y-87242011D01*
X206669923Y-87087398D01*
X206823598Y-86933990D01*
X206926882Y-86685254D01*
X206926883Y-86684073D01*
X207572883Y-86684073D01*
X207675733Y-86932989D01*
X207767577Y-87024994D01*
X207676402Y-87116010D01*
X207573118Y-87364746D01*
X207572883Y-87634073D01*
X207675733Y-87882989D01*
X207866010Y-88073598D01*
X208114746Y-88176882D01*
X208384073Y-88177117D01*
X208632989Y-88074267D01*
X208823598Y-87883990D01*
X208926882Y-87635254D01*
X208927117Y-87365927D01*
X208824267Y-87117011D01*
X208732423Y-87025006D01*
X208823598Y-86933990D01*
X208926882Y-86685254D01*
X208926883Y-86684073D01*
X209572883Y-86684073D01*
X209675733Y-86932989D01*
X209866010Y-87123598D01*
X210114746Y-87226882D01*
X210384073Y-87227117D01*
X210632989Y-87124267D01*
X210823598Y-86933990D01*
X210926882Y-86685254D01*
X210926883Y-86684073D01*
X211572883Y-86684073D01*
X211675733Y-86932989D01*
X211866010Y-87123598D01*
X212114746Y-87226882D01*
X212384073Y-87227117D01*
X212632989Y-87124267D01*
X212823598Y-86933990D01*
X212926882Y-86685254D01*
X212927117Y-86415927D01*
X212824267Y-86167011D01*
X212633990Y-85976402D01*
X212385254Y-85873118D01*
X212115927Y-85872883D01*
X211867011Y-85975733D01*
X211676402Y-86166010D01*
X211573118Y-86414746D01*
X211572883Y-86684073D01*
X210926883Y-86684073D01*
X210927117Y-86415927D01*
X210824267Y-86167011D01*
X210633990Y-85976402D01*
X210385254Y-85873118D01*
X210115927Y-85872883D01*
X209867011Y-85975733D01*
X209676402Y-86166010D01*
X209573118Y-86414746D01*
X209572883Y-86684073D01*
X208926883Y-86684073D01*
X208927117Y-86415927D01*
X208824267Y-86167011D01*
X208633990Y-85976402D01*
X208385254Y-85873118D01*
X208115927Y-85872883D01*
X207867011Y-85975733D01*
X207676402Y-86166010D01*
X207573118Y-86414746D01*
X207572883Y-86684073D01*
X206926883Y-86684073D01*
X206927117Y-86415927D01*
X206824267Y-86167011D01*
X206633990Y-85976402D01*
X206385254Y-85873118D01*
X206115927Y-85872883D01*
X205867011Y-85975733D01*
X205676402Y-86166010D01*
X205573118Y-86414746D01*
X205572883Y-86684073D01*
X204926883Y-86684073D01*
X204927117Y-86415927D01*
X204824267Y-86167011D01*
X204633990Y-85976402D01*
X204385254Y-85873118D01*
X204115927Y-85872883D01*
X203867011Y-85975733D01*
X203676402Y-86166010D01*
X203573118Y-86414746D01*
X203572883Y-86684073D01*
X203026883Y-86684073D01*
X203027117Y-86415927D01*
X202924267Y-86167011D01*
X202733990Y-85976402D01*
X202485254Y-85873118D01*
X202215927Y-85872883D01*
X202127000Y-85909627D01*
X202127000Y-85440447D01*
X202214746Y-85476882D01*
X202484073Y-85477117D01*
X202732989Y-85374267D01*
X202923598Y-85183990D01*
X203026882Y-84935254D01*
X203026883Y-84934073D01*
X203572883Y-84934073D01*
X203675733Y-85182989D01*
X203866010Y-85373598D01*
X204114746Y-85476882D01*
X204384073Y-85477117D01*
X204632989Y-85374267D01*
X204823598Y-85183990D01*
X204926882Y-84935254D01*
X204927003Y-84795567D01*
X205210803Y-84795567D01*
X205383840Y-85214349D01*
X205703966Y-85535034D01*
X206122445Y-85708802D01*
X206575567Y-85709197D01*
X206994349Y-85536160D01*
X207315034Y-85216034D01*
X207488802Y-84797555D01*
X207489197Y-84344433D01*
X207316160Y-83925651D01*
X206996034Y-83604966D01*
X206577555Y-83431198D01*
X206124433Y-83430803D01*
X205705651Y-83603840D01*
X205384966Y-83923966D01*
X205211198Y-84342445D01*
X205210803Y-84795567D01*
X204927003Y-84795567D01*
X204927117Y-84665927D01*
X204824267Y-84417011D01*
X204633990Y-84226402D01*
X204385254Y-84123118D01*
X204115927Y-84122883D01*
X203867011Y-84225733D01*
X203676402Y-84416010D01*
X203573118Y-84664746D01*
X203572883Y-84934073D01*
X203026883Y-84934073D01*
X203027117Y-84665927D01*
X202924267Y-84417011D01*
X202733990Y-84226402D01*
X202485254Y-84123118D01*
X202215927Y-84122883D01*
X202127000Y-84159627D01*
X202127000Y-83440447D01*
X202214746Y-83476882D01*
X202484073Y-83477117D01*
X202732989Y-83374267D01*
X202923598Y-83183990D01*
X203026882Y-82935254D01*
X203026883Y-82934073D01*
X203572883Y-82934073D01*
X203675733Y-83182989D01*
X203866010Y-83373598D01*
X204114746Y-83476882D01*
X204384073Y-83477117D01*
X204632989Y-83374267D01*
X204823598Y-83183990D01*
X204926882Y-82935254D01*
X204926883Y-82934073D01*
X207572883Y-82934073D01*
X207675733Y-83182989D01*
X207866010Y-83373598D01*
X208114746Y-83476882D01*
X208384073Y-83477117D01*
X208632989Y-83374267D01*
X208823598Y-83183990D01*
X208926882Y-82935254D01*
X208926883Y-82934073D01*
X209572883Y-82934073D01*
X209675733Y-83182989D01*
X209866010Y-83373598D01*
X210114746Y-83476882D01*
X210384073Y-83477117D01*
X210632989Y-83374267D01*
X210823598Y-83183990D01*
X210926882Y-82935254D01*
X210927117Y-82665927D01*
X210824267Y-82417011D01*
X210633990Y-82226402D01*
X210385254Y-82123118D01*
X210115927Y-82122883D01*
X209867011Y-82225733D01*
X209676402Y-82416010D01*
X209573118Y-82664746D01*
X209572883Y-82934073D01*
X208926883Y-82934073D01*
X208927117Y-82665927D01*
X208824267Y-82417011D01*
X208633990Y-82226402D01*
X208385254Y-82123118D01*
X208115927Y-82122883D01*
X207867011Y-82225733D01*
X207676402Y-82416010D01*
X207573118Y-82664746D01*
X207572883Y-82934073D01*
X204926883Y-82934073D01*
X204927117Y-82665927D01*
X204824267Y-82417011D01*
X204633990Y-82226402D01*
X204385254Y-82123118D01*
X204115927Y-82122883D01*
X203867011Y-82225733D01*
X203676402Y-82416010D01*
X203573118Y-82664746D01*
X203572883Y-82934073D01*
X203026883Y-82934073D01*
X203027117Y-82665927D01*
X202924267Y-82417011D01*
X202733990Y-82226402D01*
X202485254Y-82123118D01*
X202215927Y-82122883D01*
X202127000Y-82159627D01*
X202127000Y-81440447D01*
X202214746Y-81476882D01*
X202484073Y-81477117D01*
X202732989Y-81374267D01*
X202923598Y-81183990D01*
X203026882Y-80935254D01*
X203026883Y-80934073D01*
X203572883Y-80934073D01*
X203675733Y-81182989D01*
X203866010Y-81373598D01*
X204114746Y-81476882D01*
X204384073Y-81477117D01*
X204632989Y-81374267D01*
X204823598Y-81183990D01*
X204926882Y-80935254D01*
X204926883Y-80934073D01*
X207572883Y-80934073D01*
X207675733Y-81182989D01*
X207866010Y-81373598D01*
X208114746Y-81476882D01*
X208384073Y-81477117D01*
X208632989Y-81374267D01*
X208823598Y-81183990D01*
X208926882Y-80935254D01*
X208926883Y-80934073D01*
X209572883Y-80934073D01*
X209675733Y-81182989D01*
X209866010Y-81373598D01*
X210114746Y-81476882D01*
X210384073Y-81477117D01*
X210632989Y-81374267D01*
X210823598Y-81183990D01*
X210926882Y-80935254D01*
X210927117Y-80665927D01*
X210824267Y-80417011D01*
X210633990Y-80226402D01*
X210385254Y-80123118D01*
X210115927Y-80122883D01*
X209867011Y-80225733D01*
X209676402Y-80416010D01*
X209573118Y-80664746D01*
X209572883Y-80934073D01*
X208926883Y-80934073D01*
X208927117Y-80665927D01*
X208824267Y-80417011D01*
X208633990Y-80226402D01*
X208385254Y-80123118D01*
X208115927Y-80122883D01*
X207867011Y-80225733D01*
X207676402Y-80416010D01*
X207573118Y-80664746D01*
X207572883Y-80934073D01*
X204926883Y-80934073D01*
X204927117Y-80665927D01*
X204824267Y-80417011D01*
X204633990Y-80226402D01*
X204385254Y-80123118D01*
X204115927Y-80122883D01*
X203867011Y-80225733D01*
X203676402Y-80416010D01*
X203573118Y-80664746D01*
X203572883Y-80934073D01*
X203026883Y-80934073D01*
X203027117Y-80665927D01*
X202924267Y-80417011D01*
X202733990Y-80226402D01*
X202485254Y-80123118D01*
X202215927Y-80122883D01*
X202127000Y-80159627D01*
X202127000Y-79440447D01*
X202214746Y-79476882D01*
X202484073Y-79477117D01*
X202732989Y-79374267D01*
X202923598Y-79183990D01*
X203026882Y-78935254D01*
X203026883Y-78934073D01*
X203572883Y-78934073D01*
X203675733Y-79182989D01*
X203866010Y-79373598D01*
X204114746Y-79476882D01*
X204384073Y-79477117D01*
X204632989Y-79374267D01*
X204823598Y-79183990D01*
X204926882Y-78935254D01*
X204926883Y-78934073D01*
X207572883Y-78934073D01*
X207675733Y-79182989D01*
X207866010Y-79373598D01*
X208114746Y-79476882D01*
X208384073Y-79477117D01*
X208632989Y-79374267D01*
X208823598Y-79183990D01*
X208926882Y-78935254D01*
X208926883Y-78934073D01*
X209572883Y-78934073D01*
X209675733Y-79182989D01*
X209866010Y-79373598D01*
X210114746Y-79476882D01*
X210384073Y-79477117D01*
X210632989Y-79374267D01*
X210823598Y-79183990D01*
X210926882Y-78935254D01*
X210927117Y-78665927D01*
X210824267Y-78417011D01*
X210633990Y-78226402D01*
X210385254Y-78123118D01*
X210115927Y-78122883D01*
X209867011Y-78225733D01*
X209676402Y-78416010D01*
X209573118Y-78664746D01*
X209572883Y-78934073D01*
X208926883Y-78934073D01*
X208927117Y-78665927D01*
X208824267Y-78417011D01*
X208633990Y-78226402D01*
X208385254Y-78123118D01*
X208115927Y-78122883D01*
X207867011Y-78225733D01*
X207676402Y-78416010D01*
X207573118Y-78664746D01*
X207572883Y-78934073D01*
X204926883Y-78934073D01*
X204927117Y-78665927D01*
X204824267Y-78417011D01*
X204633990Y-78226402D01*
X204385254Y-78123118D01*
X204115927Y-78122883D01*
X203867011Y-78225733D01*
X203676402Y-78416010D01*
X203573118Y-78664746D01*
X203572883Y-78934073D01*
X203026883Y-78934073D01*
X203027117Y-78665927D01*
X202924267Y-78417011D01*
X202733990Y-78226402D01*
X202485254Y-78123118D01*
X202215927Y-78122883D01*
X202127000Y-78159627D01*
X202127000Y-77440447D01*
X202214746Y-77476882D01*
X202484073Y-77477117D01*
X202588247Y-77434073D01*
X203572883Y-77434073D01*
X203675733Y-77682989D01*
X203866010Y-77873598D01*
X204114746Y-77976882D01*
X204384073Y-77977117D01*
X204632989Y-77874267D01*
X204823598Y-77683990D01*
X204926882Y-77435254D01*
X204926883Y-77434073D01*
X207572883Y-77434073D01*
X207675733Y-77682989D01*
X207866010Y-77873598D01*
X208114746Y-77976882D01*
X208384073Y-77977117D01*
X208632989Y-77874267D01*
X208823598Y-77683990D01*
X208926882Y-77435254D01*
X208927117Y-77165927D01*
X208903626Y-77109073D01*
X209872883Y-77109073D01*
X209975733Y-77357989D01*
X210166010Y-77548598D01*
X210414746Y-77651882D01*
X210684073Y-77652117D01*
X210932989Y-77549267D01*
X211123598Y-77358990D01*
X211226882Y-77110254D01*
X211227117Y-76840927D01*
X211124267Y-76592011D01*
X210933990Y-76401402D01*
X210685254Y-76298118D01*
X210415927Y-76297883D01*
X210167011Y-76400733D01*
X209976402Y-76591010D01*
X209873118Y-76839746D01*
X209872883Y-77109073D01*
X208903626Y-77109073D01*
X208824267Y-76917011D01*
X208633990Y-76726402D01*
X208385254Y-76623118D01*
X208115927Y-76622883D01*
X207867011Y-76725733D01*
X207676402Y-76916010D01*
X207573118Y-77164746D01*
X207572883Y-77434073D01*
X204926883Y-77434073D01*
X204927117Y-77165927D01*
X204824267Y-76917011D01*
X204633990Y-76726402D01*
X204385254Y-76623118D01*
X204115927Y-76622883D01*
X203867011Y-76725733D01*
X203676402Y-76916010D01*
X203573118Y-77164746D01*
X203572883Y-77434073D01*
X202588247Y-77434073D01*
X202732989Y-77374267D01*
X202923598Y-77183990D01*
X203026882Y-76935254D01*
X203027117Y-76665927D01*
X202924267Y-76417011D01*
X202733990Y-76226402D01*
X202485254Y-76123118D01*
X202215927Y-76122883D01*
X202127000Y-76159627D01*
X202127000Y-73380066D01*
X202239746Y-73426882D01*
X202509073Y-73427117D01*
X202757989Y-73324267D01*
X202948598Y-73133990D01*
X203031610Y-72934073D01*
X203197883Y-72934073D01*
X203300733Y-73182989D01*
X203491010Y-73373598D01*
X203739746Y-73476882D01*
X204009073Y-73477117D01*
X204257989Y-73374267D01*
X204445274Y-73187308D01*
X204722727Y-73187308D01*
X204962305Y-73767132D01*
X205405535Y-74211136D01*
X205984939Y-74451725D01*
X206612308Y-74452273D01*
X207192132Y-74212695D01*
X207636136Y-73769465D01*
X207876725Y-73190061D01*
X207876948Y-72934073D01*
X208397883Y-72934073D01*
X208500733Y-73182989D01*
X208691010Y-73373598D01*
X208939746Y-73476882D01*
X209209073Y-73477117D01*
X209457989Y-73374267D01*
X209648598Y-73183990D01*
X209751882Y-72935254D01*
X209752117Y-72665927D01*
X209649267Y-72417011D01*
X209458990Y-72226402D01*
X209210254Y-72123118D01*
X208940927Y-72122883D01*
X208692011Y-72225733D01*
X208501402Y-72416010D01*
X208398118Y-72664746D01*
X208397883Y-72934073D01*
X207876948Y-72934073D01*
X207877273Y-72562692D01*
X207637695Y-71982868D01*
X207194465Y-71538864D01*
X206716858Y-71340545D01*
X206823598Y-71233990D01*
X206926882Y-70985254D01*
X206927117Y-70715927D01*
X206824267Y-70467011D01*
X206633990Y-70276402D01*
X206385254Y-70173118D01*
X206115927Y-70172883D01*
X205867011Y-70275733D01*
X205676402Y-70466010D01*
X205573118Y-70714746D01*
X205572883Y-70984073D01*
X205675733Y-71232989D01*
X205812585Y-71370080D01*
X205407868Y-71537305D01*
X204963864Y-71980535D01*
X204723275Y-72559939D01*
X204722727Y-73187308D01*
X204445274Y-73187308D01*
X204448598Y-73183990D01*
X204551882Y-72935254D01*
X204552117Y-72665927D01*
X204449267Y-72417011D01*
X204258990Y-72226402D01*
X204010254Y-72123118D01*
X203740927Y-72122883D01*
X203492011Y-72225733D01*
X203301402Y-72416010D01*
X203198118Y-72664746D01*
X203197883Y-72934073D01*
X203031610Y-72934073D01*
X203051882Y-72885254D01*
X203052117Y-72615927D01*
X202949267Y-72367011D01*
X202758990Y-72176402D01*
X202510254Y-72073118D01*
X202240927Y-72072883D01*
X202127000Y-72119957D01*
X202127000Y-69476893D01*
X202384073Y-69477117D01*
X202632989Y-69374267D01*
X202823598Y-69183990D01*
X202926882Y-68935254D01*
X202927117Y-68665927D01*
X202920362Y-68649579D01*
X205582325Y-68642574D01*
X205573118Y-68664746D01*
X205572883Y-68934073D01*
X205675733Y-69182989D01*
X205866010Y-69373598D01*
X206114746Y-69476882D01*
X206384073Y-69477117D01*
X206632989Y-69374267D01*
X206823598Y-69183990D01*
X206926882Y-68935254D01*
X206927117Y-68665927D01*
X206916017Y-68639064D01*
X209586700Y-68632036D01*
X209573118Y-68664746D01*
X209572883Y-68934073D01*
X209675733Y-69182989D01*
X209866010Y-69373598D01*
X210114746Y-69476882D01*
X210384073Y-69477117D01*
X210632989Y-69374267D01*
X210823598Y-69183990D01*
X210926882Y-68935254D01*
X210927117Y-68665927D01*
X210911673Y-68628549D01*
X211373000Y-68627335D01*
X211373000Y-70490655D01*
G36*
X225398000Y-82398000D02*
X223475000Y-82398000D01*
X223425590Y-82408006D01*
X223383965Y-82436447D01*
X223356685Y-82478841D01*
X223348000Y-82525283D01*
X223372885Y-93698654D01*
X219408827Y-97786589D01*
X219381613Y-97829027D01*
X219373000Y-97875000D01*
X219373000Y-111703649D01*
X218602856Y-112618195D01*
X218578683Y-112662434D01*
X218573000Y-112700000D01*
X218573000Y-117344812D01*
X217113346Y-118707156D01*
X217084051Y-118748184D01*
X217073000Y-118800000D01*
X217073000Y-124312919D01*
X214976075Y-125123095D01*
X208803620Y-125147784D01*
X208127000Y-124448610D01*
X208127000Y-120802606D01*
X208839803Y-120089803D01*
X208867666Y-120047789D01*
X208877000Y-120000000D01*
X208877000Y-113127000D01*
X209500000Y-113127000D01*
X209549410Y-113116994D01*
X209591035Y-113088553D01*
X209618315Y-113046159D01*
X209627000Y-113000000D01*
X209627000Y-105802606D01*
X215045533Y-100384073D01*
X216222881Y-100384073D01*
X216325731Y-100632989D01*
X216516008Y-100823598D01*
X216764744Y-100926882D01*
X217034071Y-100927117D01*
X217282987Y-100824267D01*
X217380424Y-100727000D01*
X217544592Y-100727000D01*
X217641022Y-100823598D01*
X217889758Y-100926882D01*
X218159085Y-100927117D01*
X218408001Y-100824267D01*
X218598610Y-100633990D01*
X218701894Y-100385254D01*
X218702129Y-100115927D01*
X218599279Y-99867011D01*
X218409002Y-99676402D01*
X218160266Y-99573118D01*
X217890939Y-99572883D01*
X217642023Y-99675733D01*
X217544586Y-99773000D01*
X217380418Y-99773000D01*
X217283988Y-99676402D01*
X217035252Y-99573118D01*
X216765925Y-99572883D01*
X216517009Y-99675733D01*
X216326400Y-99866010D01*
X216223116Y-100114746D01*
X216222881Y-100384073D01*
X215045533Y-100384073D01*
X222089803Y-93339803D01*
X222117666Y-93297789D01*
X222127000Y-93250000D01*
X222127000Y-81302606D01*
X223302606Y-80127000D01*
X225398000Y-80127000D01*
X225398000Y-82398000D01*
X225398000Y-82398000D01*
G37*
X225398000Y-82398000D02*
X223475000Y-82398000D01*
X223425590Y-82408006D01*
X223383965Y-82436447D01*
X223356685Y-82478841D01*
X223348000Y-82525283D01*
X223372885Y-93698654D01*
X219408827Y-97786589D01*
X219381613Y-97829027D01*
X219373000Y-97875000D01*
X219373000Y-111703649D01*
X218602856Y-112618195D01*
X218578683Y-112662434D01*
X218573000Y-112700000D01*
X218573000Y-117344812D01*
X217113346Y-118707156D01*
X217084051Y-118748184D01*
X217073000Y-118800000D01*
X217073000Y-124312919D01*
X214976075Y-125123095D01*
X208803620Y-125147784D01*
X208127000Y-124448610D01*
X208127000Y-120802606D01*
X208839803Y-120089803D01*
X208867666Y-120047789D01*
X208877000Y-120000000D01*
X208877000Y-113127000D01*
X209500000Y-113127000D01*
X209549410Y-113116994D01*
X209591035Y-113088553D01*
X209618315Y-113046159D01*
X209627000Y-113000000D01*
X209627000Y-105802606D01*
X215045533Y-100384073D01*
X216222881Y-100384073D01*
X216325731Y-100632989D01*
X216516008Y-100823598D01*
X216764744Y-100926882D01*
X217034071Y-100927117D01*
X217282987Y-100824267D01*
X217380424Y-100727000D01*
X217544592Y-100727000D01*
X217641022Y-100823598D01*
X217889758Y-100926882D01*
X218159085Y-100927117D01*
X218408001Y-100824267D01*
X218598610Y-100633990D01*
X218701894Y-100385254D01*
X218702129Y-100115927D01*
X218599279Y-99867011D01*
X218409002Y-99676402D01*
X218160266Y-99573118D01*
X217890939Y-99572883D01*
X217642023Y-99675733D01*
X217544586Y-99773000D01*
X217380418Y-99773000D01*
X217283988Y-99676402D01*
X217035252Y-99573118D01*
X216765925Y-99572883D01*
X216517009Y-99675733D01*
X216326400Y-99866010D01*
X216223116Y-100114746D01*
X216222881Y-100384073D01*
X215045533Y-100384073D01*
X222089803Y-93339803D01*
X222117666Y-93297789D01*
X222127000Y-93250000D01*
X222127000Y-81302606D01*
X223302606Y-80127000D01*
X225398000Y-80127000D01*
X225398000Y-82398000D01*
D10*
G36*
X226875000Y-127125000D02*
X201375000Y-127125000D01*
X201375000Y-120750000D01*
X207700000Y-120750000D01*
X207700000Y-124500000D01*
X207720237Y-124608317D01*
X207784419Y-124708626D01*
X208534419Y-125483626D01*
X208634390Y-125551829D01*
X208751200Y-125574998D01*
X215001200Y-125549998D01*
X215108120Y-125529839D01*
X217308120Y-124679839D01*
X217409181Y-124615042D01*
X217476364Y-124516717D01*
X217500000Y-124400000D01*
X217500000Y-123500524D01*
X217500104Y-123381176D01*
X217500000Y-123380924D01*
X217500000Y-118930366D01*
X218904695Y-117619317D01*
X218976364Y-117516717D01*
X219000000Y-117400000D01*
X219000000Y-112809490D01*
X219058250Y-112740318D01*
X220527816Y-112740318D01*
X220689155Y-113130789D01*
X220987640Y-113429795D01*
X221377828Y-113591815D01*
X221800318Y-113592184D01*
X222190789Y-113430845D01*
X222489795Y-113132360D01*
X222651815Y-112742172D01*
X222652184Y-112319682D01*
X222490845Y-111929211D01*
X222192360Y-111630205D01*
X221802172Y-111468185D01*
X221379682Y-111467816D01*
X220989211Y-111629155D01*
X220690205Y-111927640D01*
X220528185Y-112317828D01*
X220527816Y-112740318D01*
X219058250Y-112740318D01*
X219729473Y-111943241D01*
X219776364Y-111866717D01*
X219800000Y-111750000D01*
X219800000Y-107660318D01*
X220527816Y-107660318D01*
X220689155Y-108050789D01*
X220987640Y-108349795D01*
X221377828Y-108511815D01*
X221800318Y-108512184D01*
X222190789Y-108350845D01*
X222489795Y-108052360D01*
X222651815Y-107662172D01*
X222652184Y-107239682D01*
X222490845Y-106849211D01*
X222192360Y-106550205D01*
X221802172Y-106388185D01*
X221379682Y-106387816D01*
X220989211Y-106549155D01*
X220690205Y-106847640D01*
X220528185Y-107237828D01*
X220527816Y-107660318D01*
X219800000Y-107660318D01*
X219800000Y-97996569D01*
X223715370Y-93958844D01*
X223776623Y-93866101D01*
X223799999Y-93749332D01*
X223775669Y-82825000D01*
X225525000Y-82825000D01*
X225634037Y-82804483D01*
X225734181Y-82740042D01*
X225801364Y-82641717D01*
X225825000Y-82525000D01*
X225825000Y-80000000D01*
X225804483Y-79890963D01*
X225740042Y-79790819D01*
X225641717Y-79723636D01*
X225525000Y-79700000D01*
X223250000Y-79700000D01*
X223137112Y-79722050D01*
X223037868Y-79787868D01*
X221787868Y-81037868D01*
X221723636Y-81133283D01*
X221700000Y-81250000D01*
X221700000Y-93125736D01*
X209287868Y-105537868D01*
X209223636Y-105633283D01*
X209200000Y-105750000D01*
X209200000Y-112700000D01*
X208750000Y-112700000D01*
X208640963Y-112720517D01*
X208540819Y-112784958D01*
X208473636Y-112883283D01*
X208450000Y-113000000D01*
X208450000Y-119875736D01*
X207787868Y-120537868D01*
X207723636Y-120633283D01*
X207700000Y-120750000D01*
X201375000Y-120750000D01*
X201375000Y-112740318D01*
X205287816Y-112740318D01*
X205449155Y-113130789D01*
X205747640Y-113429795D01*
X206137828Y-113591815D01*
X206560318Y-113592184D01*
X206950789Y-113430845D01*
X207249795Y-113132360D01*
X207411815Y-112742172D01*
X207412184Y-112319682D01*
X207250845Y-111929211D01*
X206952360Y-111630205D01*
X206562172Y-111468185D01*
X206139682Y-111467816D01*
X205749211Y-111629155D01*
X205450205Y-111927640D01*
X205288185Y-112317828D01*
X205287816Y-112740318D01*
X201375000Y-112740318D01*
X201375000Y-68918824D01*
X201649896Y-68918824D01*
X201700000Y-69040085D01*
X201700000Y-89000000D01*
X201720517Y-89109037D01*
X201784958Y-89209181D01*
X201883283Y-89276364D01*
X202000000Y-89300000D01*
X203375000Y-89300000D01*
X203375000Y-93000000D01*
X203395517Y-93109037D01*
X203459958Y-93209181D01*
X203558283Y-93276364D01*
X203675000Y-93300000D01*
X212950000Y-93300000D01*
X212950000Y-94500000D01*
X212970517Y-94609037D01*
X213034958Y-94709181D01*
X213133283Y-94776364D01*
X213250000Y-94800000D01*
X216000000Y-94800000D01*
X216109037Y-94779483D01*
X216209181Y-94715042D01*
X216276364Y-94616717D01*
X216300000Y-94500000D01*
X216300000Y-93143824D01*
X216474896Y-93143824D01*
X216566048Y-93364429D01*
X216734683Y-93533359D01*
X216955129Y-93624896D01*
X217073959Y-93625000D01*
X217512508Y-94063549D01*
X217581048Y-94229429D01*
X217749683Y-94398359D01*
X217970129Y-94489896D01*
X218208824Y-94490104D01*
X218429429Y-94398952D01*
X218598359Y-94230317D01*
X218689896Y-94009871D01*
X218690104Y-93771176D01*
X218598952Y-93550571D01*
X218430317Y-93381641D01*
X218209871Y-93290104D01*
X217971176Y-93289896D01*
X217949778Y-93298737D01*
X217675001Y-93023961D01*
X217675104Y-92906176D01*
X217583952Y-92685571D01*
X217415317Y-92516641D01*
X217194871Y-92425104D01*
X216956176Y-92424896D01*
X216735571Y-92516048D01*
X216566641Y-92684683D01*
X216475104Y-92905129D01*
X216474896Y-93143824D01*
X216300000Y-93143824D01*
X216300000Y-82078896D01*
X216306487Y-82063274D01*
X216306695Y-81824579D01*
X216300000Y-81808376D01*
X216300000Y-77500000D01*
X216279483Y-77390963D01*
X216215042Y-77290819D01*
X216116717Y-77223636D01*
X216000000Y-77200000D01*
X211800000Y-77200000D01*
X211800000Y-72080318D01*
X220527816Y-72080318D01*
X220689155Y-72470789D01*
X220987640Y-72769795D01*
X221377828Y-72931815D01*
X221800318Y-72932184D01*
X222190789Y-72770845D01*
X222489795Y-72472360D01*
X222651815Y-72082172D01*
X222652184Y-71659682D01*
X222490845Y-71269211D01*
X222192360Y-70970205D01*
X221802172Y-70808185D01*
X221379682Y-70807816D01*
X220989211Y-70969155D01*
X220690205Y-71267640D01*
X220528185Y-71657828D01*
X220527816Y-72080318D01*
X211800000Y-72080318D01*
X211800000Y-68500000D01*
X211779195Y-68390228D01*
X211714491Y-68290254D01*
X211615989Y-68223330D01*
X211499211Y-68200001D01*
X210376737Y-68202955D01*
X210369871Y-68200104D01*
X210131176Y-68199896D01*
X210122152Y-68203625D01*
X206401927Y-68213415D01*
X206369871Y-68200104D01*
X206131176Y-68199896D01*
X206096513Y-68214219D01*
X202427118Y-68223875D01*
X202369871Y-68200104D01*
X202131176Y-68199896D01*
X202070874Y-68224812D01*
X201999211Y-68225001D01*
X201890963Y-68245517D01*
X201790819Y-68309958D01*
X201723636Y-68408283D01*
X201700000Y-68525000D01*
X201700000Y-68559966D01*
X201650104Y-68680129D01*
X201649896Y-68918824D01*
X201375000Y-68918824D01*
X201375000Y-66900000D01*
X226875000Y-66900000D01*
X226875000Y-127125000D01*
X226875000Y-127125000D01*
G37*
X226875000Y-127125000D02*
X201375000Y-127125000D01*
X201375000Y-120750000D01*
X207700000Y-120750000D01*
X207700000Y-124500000D01*
X207720237Y-124608317D01*
X207784419Y-124708626D01*
X208534419Y-125483626D01*
X208634390Y-125551829D01*
X208751200Y-125574998D01*
X215001200Y-125549998D01*
X215108120Y-125529839D01*
X217308120Y-124679839D01*
X217409181Y-124615042D01*
X217476364Y-124516717D01*
X217500000Y-124400000D01*
X217500000Y-123500524D01*
X217500104Y-123381176D01*
X217500000Y-123380924D01*
X217500000Y-118930366D01*
X218904695Y-117619317D01*
X218976364Y-117516717D01*
X219000000Y-117400000D01*
X219000000Y-112809490D01*
X219058250Y-112740318D01*
X220527816Y-112740318D01*
X220689155Y-113130789D01*
X220987640Y-113429795D01*
X221377828Y-113591815D01*
X221800318Y-113592184D01*
X222190789Y-113430845D01*
X222489795Y-113132360D01*
X222651815Y-112742172D01*
X222652184Y-112319682D01*
X222490845Y-111929211D01*
X222192360Y-111630205D01*
X221802172Y-111468185D01*
X221379682Y-111467816D01*
X220989211Y-111629155D01*
X220690205Y-111927640D01*
X220528185Y-112317828D01*
X220527816Y-112740318D01*
X219058250Y-112740318D01*
X219729473Y-111943241D01*
X219776364Y-111866717D01*
X219800000Y-111750000D01*
X219800000Y-107660318D01*
X220527816Y-107660318D01*
X220689155Y-108050789D01*
X220987640Y-108349795D01*
X221377828Y-108511815D01*
X221800318Y-108512184D01*
X222190789Y-108350845D01*
X222489795Y-108052360D01*
X222651815Y-107662172D01*
X222652184Y-107239682D01*
X222490845Y-106849211D01*
X222192360Y-106550205D01*
X221802172Y-106388185D01*
X221379682Y-106387816D01*
X220989211Y-106549155D01*
X220690205Y-106847640D01*
X220528185Y-107237828D01*
X220527816Y-107660318D01*
X219800000Y-107660318D01*
X219800000Y-97996569D01*
X223715370Y-93958844D01*
X223776623Y-93866101D01*
X223799999Y-93749332D01*
X223775669Y-82825000D01*
X225525000Y-82825000D01*
X225634037Y-82804483D01*
X225734181Y-82740042D01*
X225801364Y-82641717D01*
X225825000Y-82525000D01*
X225825000Y-80000000D01*
X225804483Y-79890963D01*
X225740042Y-79790819D01*
X225641717Y-79723636D01*
X225525000Y-79700000D01*
X223250000Y-79700000D01*
X223137112Y-79722050D01*
X223037868Y-79787868D01*
X221787868Y-81037868D01*
X221723636Y-81133283D01*
X221700000Y-81250000D01*
X221700000Y-93125736D01*
X209287868Y-105537868D01*
X209223636Y-105633283D01*
X209200000Y-105750000D01*
X209200000Y-112700000D01*
X208750000Y-112700000D01*
X208640963Y-112720517D01*
X208540819Y-112784958D01*
X208473636Y-112883283D01*
X208450000Y-113000000D01*
X208450000Y-119875736D01*
X207787868Y-120537868D01*
X207723636Y-120633283D01*
X207700000Y-120750000D01*
X201375000Y-120750000D01*
X201375000Y-112740318D01*
X205287816Y-112740318D01*
X205449155Y-113130789D01*
X205747640Y-113429795D01*
X206137828Y-113591815D01*
X206560318Y-113592184D01*
X206950789Y-113430845D01*
X207249795Y-113132360D01*
X207411815Y-112742172D01*
X207412184Y-112319682D01*
X207250845Y-111929211D01*
X206952360Y-111630205D01*
X206562172Y-111468185D01*
X206139682Y-111467816D01*
X205749211Y-111629155D01*
X205450205Y-111927640D01*
X205288185Y-112317828D01*
X205287816Y-112740318D01*
X201375000Y-112740318D01*
X201375000Y-68918824D01*
X201649896Y-68918824D01*
X201700000Y-69040085D01*
X201700000Y-89000000D01*
X201720517Y-89109037D01*
X201784958Y-89209181D01*
X201883283Y-89276364D01*
X202000000Y-89300000D01*
X203375000Y-89300000D01*
X203375000Y-93000000D01*
X203395517Y-93109037D01*
X203459958Y-93209181D01*
X203558283Y-93276364D01*
X203675000Y-93300000D01*
X212950000Y-93300000D01*
X212950000Y-94500000D01*
X212970517Y-94609037D01*
X213034958Y-94709181D01*
X213133283Y-94776364D01*
X213250000Y-94800000D01*
X216000000Y-94800000D01*
X216109037Y-94779483D01*
X216209181Y-94715042D01*
X216276364Y-94616717D01*
X216300000Y-94500000D01*
X216300000Y-93143824D01*
X216474896Y-93143824D01*
X216566048Y-93364429D01*
X216734683Y-93533359D01*
X216955129Y-93624896D01*
X217073959Y-93625000D01*
X217512508Y-94063549D01*
X217581048Y-94229429D01*
X217749683Y-94398359D01*
X217970129Y-94489896D01*
X218208824Y-94490104D01*
X218429429Y-94398952D01*
X218598359Y-94230317D01*
X218689896Y-94009871D01*
X218690104Y-93771176D01*
X218598952Y-93550571D01*
X218430317Y-93381641D01*
X218209871Y-93290104D01*
X217971176Y-93289896D01*
X217949778Y-93298737D01*
X217675001Y-93023961D01*
X217675104Y-92906176D01*
X217583952Y-92685571D01*
X217415317Y-92516641D01*
X217194871Y-92425104D01*
X216956176Y-92424896D01*
X216735571Y-92516048D01*
X216566641Y-92684683D01*
X216475104Y-92905129D01*
X216474896Y-93143824D01*
X216300000Y-93143824D01*
X216300000Y-82078896D01*
X216306487Y-82063274D01*
X216306695Y-81824579D01*
X216300000Y-81808376D01*
X216300000Y-77500000D01*
X216279483Y-77390963D01*
X216215042Y-77290819D01*
X216116717Y-77223636D01*
X216000000Y-77200000D01*
X211800000Y-77200000D01*
X211800000Y-72080318D01*
X220527816Y-72080318D01*
X220689155Y-72470789D01*
X220987640Y-72769795D01*
X221377828Y-72931815D01*
X221800318Y-72932184D01*
X222190789Y-72770845D01*
X222489795Y-72472360D01*
X222651815Y-72082172D01*
X222652184Y-71659682D01*
X222490845Y-71269211D01*
X222192360Y-70970205D01*
X221802172Y-70808185D01*
X221379682Y-70807816D01*
X220989211Y-70969155D01*
X220690205Y-71267640D01*
X220528185Y-71657828D01*
X220527816Y-72080318D01*
X211800000Y-72080318D01*
X211800000Y-68500000D01*
X211779195Y-68390228D01*
X211714491Y-68290254D01*
X211615989Y-68223330D01*
X211499211Y-68200001D01*
X210376737Y-68202955D01*
X210369871Y-68200104D01*
X210131176Y-68199896D01*
X210122152Y-68203625D01*
X206401927Y-68213415D01*
X206369871Y-68200104D01*
X206131176Y-68199896D01*
X206096513Y-68214219D01*
X202427118Y-68223875D01*
X202369871Y-68200104D01*
X202131176Y-68199896D01*
X202070874Y-68224812D01*
X201999211Y-68225001D01*
X201890963Y-68245517D01*
X201790819Y-68309958D01*
X201723636Y-68408283D01*
X201700000Y-68525000D01*
X201700000Y-68559966D01*
X201650104Y-68680129D01*
X201649896Y-68918824D01*
X201375000Y-68918824D01*
X201375000Y-66900000D01*
X226875000Y-66900000D01*
X226875000Y-127125000D01*
M02*
