M48
;DRILL file {KiCad 4.0.6} date 08/02/17 11:59:16
;FORMAT={-:-/ absolute / metric / decimal}
FMAT,2
METRIC,TZ
T1C0.400
T2C1.000
T3C1.500
T4C1.600
%
G90
G05
M71
T1
X202.25Y-68.8
X202.35Y-76.8
X202.35Y-78.8
X202.35Y-80.8
X202.35Y-82.8
X202.35Y-84.8
X202.35Y-86.55
X202.35Y-88.05
X202.375Y-72.75
X203.35Y-114.725
X203.375Y-116.475
X203.875Y-72.8
X204.075Y-88.125
X204.25Y-77.3
X204.25Y-78.8
X204.25Y-80.8
X204.25Y-82.8
X204.25Y-84.8
X204.25Y-86.55
X204.25Y-90.8
X204.25Y-92.2
X204.89Y-104.88
X206.1Y-97.09
X206.25Y-68.8
X206.25Y-70.85
X206.25Y-86.55
X206.25Y-87.625
X206.25Y-91.1
X206.25Y-92.2
X206.625Y-96.575
X207.4Y-97.11
X207.46Y-104.9
X208.25Y-77.3
X208.25Y-78.8
X208.25Y-80.8
X208.25Y-82.8
X208.25Y-86.55
X208.25Y-87.5
X208.25Y-88.875
X208.25Y-90.8
X208.25Y-92.2
X208.775Y-95.825
X209.Y-123.5
X209.075Y-72.8
X209.075Y-105.025
X209.1Y-117.4
X210.25Y-68.8
X210.25Y-78.8
X210.25Y-80.8
X210.25Y-82.8
X210.25Y-86.55
X210.25Y-88.05
X210.25Y-90.8
X210.25Y-92.2
X210.4Y-117.4
X210.4Y-119.
X210.55Y-76.975
X210.85Y-70.925
X210.85Y-72.8
X210.85Y-74.8
X210.87Y-97.29
X210.9Y-123.5
X211.Y-106.6
X211.Y-108.6
X211.Y-110.6
X211.Y-112.6
X211.Y-112.6
X211.05Y-95.825
X211.8Y-97.3
X212.Y-117.4
X212.13Y-96.76
X212.25Y-78.05
X212.25Y-86.55
X212.25Y-88.05
X212.45Y-92.2
X213.Y-104.6
X213.Y-106.6
X213.Y-108.6
X213.Y-110.6
X213.Y-112.6
X213.Y-123.5
X213.8Y-117.4
X214.2Y-105.2
X214.2Y-106.6
X214.2Y-108.6
X214.2Y-112.6
X214.25Y-78.05
X214.25Y-86.55
X214.25Y-88.05
X214.3Y-110.5
X214.325Y-92.2
X214.4Y-102.8
X214.925Y-83.1
X215.Y-118.4
X215.1Y-123.5
X215.475Y-78.5
X215.475Y-80.15
X215.525Y-86.525
X215.525Y-88.025
X215.6Y-92.9
X215.707Y-81.943
X216.2Y-107.
X216.55Y-91.525
X216.9Y-100.25
X216.9Y-123.5
X217.04Y-96.83
X217.075Y-93.025
X217.1Y-118.4
X217.925Y-82.225
X217.925Y-82.85
X217.95Y-80.9
X218.Y-109.
X218.Y-111.
X218.025Y-100.25
X218.09Y-93.89
X218.3Y-121.
X218.575Y-103.
X218.575Y-105.
X218.575Y-107.
X221.198Y-86.475
X221.225Y-88.7
X222.9Y-102.8
X224.74Y-99.8
X225.04Y-87.91
T2
X206.35Y-84.57
X206.35Y-89.65
X206.35Y-107.45
X206.35Y-112.53
X221.59Y-71.87
X221.59Y-107.45
X221.59Y-112.53
T3
X206.3Y-72.875
T4
X203.76Y-70.335
X203.76Y-75.415
X208.84Y-70.335
X208.84Y-75.415
T0
M30
