M48
;DRILL file {KiCad (2017-06-25 revision 6a3c1720b)-makepkg} date 08/03/17 10:22:13
;FORMAT={-:-/ absolute / inch / decimal}
FMAT,2
INCH,TZ
T1C0.016
T2C0.036
T3C0.039
T4C0.059
T5C0.063
T6C0.106
%
G90
G05
M72
T1
X7.9626Y-2.7087
X7.9665Y-3.0236
X7.9665Y-3.1024
X7.9665Y-3.1811
X7.9665Y-3.2598
X7.9665Y-3.3386
X7.9665Y-3.4075
X7.9665Y-3.4665
X7.9675Y-2.8642
X8.0059Y-4.5167
X8.0069Y-4.5856
X8.0266Y-2.8661
X8.0344Y-3.4695
X8.0413Y-3.0433
X8.0413Y-3.1024
X8.0413Y-3.1811
X8.0413Y-3.2598
X8.0413Y-3.3386
X8.0413Y-3.4075
X8.0413Y-3.5748
X8.0413Y-3.6299
X8.0665Y-4.1291
X8.1142Y-3.8224
X8.1201Y-2.7087
X8.1201Y-2.7894
X8.1201Y-3.4075
X8.1201Y-3.4498
X8.1201Y-3.5866
X8.1201Y-3.6299
X8.1348Y-3.8022
X8.1654Y-3.8232
X8.1677Y-4.1299
X8.1988Y-3.0433
X8.1988Y-3.1024
X8.1988Y-3.1811
X8.1988Y-3.2598
X8.1988Y-3.4075
X8.1988Y-3.4449
X8.1988Y-3.499
X8.1988Y-3.5748
X8.1988Y-3.6299
X8.2195Y-3.7726
X8.2313Y-2.8661
X8.2313Y-4.1348
X8.253Y-4.624
X8.253Y-4.7028
X8.2776Y-2.7087
X8.2776Y-3.1024
X8.2776Y-3.1811
X8.2776Y-3.2598
X8.2776Y-3.4075
X8.2776Y-3.4665
X8.2776Y-3.5748
X8.2776Y-3.6299
X8.2894Y-3.0305
X8.2972Y-4.8976
X8.3012Y-2.7923
X8.3012Y-2.8661
X8.3012Y-2.9449
X8.302Y-3.8303
X8.3061Y-4.1988
X8.3061Y-4.2776
X8.3061Y-4.3563
X8.3061Y-4.435
X8.3091Y-3.7726
X8.3386Y-3.8307
X8.3457Y-4.6228
X8.3516Y-3.8094
X8.3563Y-3.0728
X8.3563Y-3.4075
X8.3563Y-3.4665
X8.3642Y-3.6299
X8.3848Y-4.1201
X8.3848Y-4.1988
X8.3848Y-4.2776
X8.3848Y-4.3563
X8.3848Y-4.435
X8.3967Y-4.6634
X8.3967Y-4.7421
X8.3967Y-4.8209
X8.4331Y-4.1988
X8.4331Y-4.2776
X8.4331Y-4.3563
X8.4331Y-4.435
X8.4341Y-4.1447
X8.435Y-3.0728
X8.435Y-3.4075
X8.435Y-3.4665
X8.438Y-3.6299
X8.438Y-4.0512
X8.4616Y-3.2717
X8.4833Y-3.0906
X8.4833Y-3.1555
X8.4852Y-3.4065
X8.4852Y-3.4656
X8.4882Y-3.6575
X8.4924Y-3.2261
X8.5098Y-4.2116
X8.5256Y-3.6033
X8.5394Y-3.9469
X8.5449Y-3.8122
X8.5463Y-3.6624
X8.5797Y-3.2372
X8.5797Y-3.2618
X8.5807Y-3.185
X8.5827Y-4.2913
X8.5827Y-4.3701
X8.5837Y-3.9469
X8.5862Y-3.6965
X8.6063Y-3.9006
X8.6063Y-4.0531
X8.6063Y-4.1319
X8.6063Y-4.2106
X8.7086Y-3.4045
X8.7096Y-3.4921
X8.7756Y-4.0472
X8.848Y-3.9291
X8.8598Y-3.461
T2
X8.2463Y-4.7677
X8.2463Y-4.8677
X8.3463Y-4.7677
X8.3463Y-4.8677
X8.4463Y-4.7677
X8.4463Y-4.8677
X8.5463Y-4.7677
X8.5463Y-4.8677
X8.6463Y-4.7677
X8.6463Y-4.8677
T3
X8.124Y-3.3299
X8.124Y-3.5299
X8.124Y-4.2307
X8.124Y-4.4307
X8.724Y-2.8299
X8.724Y-4.2307
X8.724Y-4.4307
T4
X8.122Y-2.8691
T5
X8.022Y-2.7691
X8.022Y-2.9691
X8.222Y-2.7691
X8.222Y-2.9691
T6
X7.8963Y-4.8177
X8.9963Y-4.8177
T0
M30
