M48
;DRILL file {KiCad (2017-05-01 revision c8706e9c1)-makepkg} date 06/26/17 08:26:01
;FORMAT={-:-/ absolute / metric / decimal}
FMAT,2
METRIC,TZ
T1C0.400
T2C0.910
T3C1.000
T4C1.500
T5C1.600
T6C2.690
%
G90
G05
M71
T1
X203.5Y-78.5
X203.5Y-80.5
X203.5Y-82.5
X203.5Y-90.7
X203.55Y-84.8
X203.55Y-87.05
X203.55Y-89.05
X203.75Y-73.
X206.2Y-69.95
X206.4Y-86.8
X206.4Y-88.25
X207.9Y-82.55
X208.1Y-80.2
X208.15Y-78.05
X208.55Y-95.946
X208.55Y-104.85
X208.6Y-88.4
X208.6Y-90.8
X208.6Y-86.9
X209.Y-73.
X210.2Y-96.95
X210.75Y-73.
X210.75Y-80.25
X210.75Y-82.5
X210.8Y-69.95
X210.8Y-78.
X210.8Y-75.5
X211.Y-86.85
X211.05Y-88.6
X211.1Y-90.8
X211.1Y-95.946
X211.2Y-107.85
X212.05Y-104.
X212.1Y-98.05
X212.55Y-97.
X212.65Y-86.9
X212.65Y-88.15
X213.55Y-92.15
X214.95Y-92.8
X215.15Y-86.9
X215.15Y-88.25
X215.55Y-78.
X215.55Y-80.7
X215.95Y-99.05
X216.45Y-83.15
X216.5Y-88.5
X217.45Y-82.2
X218.85Y-100.7
X218.9Y-94.35
X221.25Y-87.9
X221.25Y-89.2
X221.25Y-89.75
X221.35Y-94.35
X221.65Y-98.35
X223.45Y-94.1
X223.95Y-109.7
X224.15Y-103.5
X226.75Y-94.45
X231.981Y-91.509
X233.15Y-91.05
T2
X233.41Y-87.24
X233.41Y-89.78
X233.41Y-92.32
X233.41Y-94.86
X233.41Y-97.4
X235.95Y-87.24
X235.95Y-89.78
X235.95Y-92.32
X235.95Y-94.86
X235.95Y-97.4
T3
X206.35Y-84.58
X206.35Y-89.66
X206.35Y-107.46
X206.35Y-112.54
X221.59Y-71.88
X221.59Y-107.46
X221.59Y-112.54
T4
X206.3Y-72.85
T5
X203.76Y-70.31
X203.76Y-75.39
X208.84Y-70.31
X208.84Y-75.39
T6
X234.68Y-78.35
X234.68Y-106.29
T0
M30
