%TF.GenerationSoftware,KiCad,Pcbnew,(2017-05-01 revision c8706e9c1)-makepkg*%
%TF.CreationDate,2017-06-26T08:26:11-04:00*%
%TF.ProjectId,pmt-transimpedance-amplifier,706D742D7472616E73696D706564616E,rev?*%
%TF.FileFunction,Soldermask,Top*%
%TF.FilePolarity,Negative*%
%FSLAX46Y46*%
G04 Gerber Fmt 4.6, Leading zero omitted, Abs format (unit mm)*
G04 Created by KiCad (PCBNEW (2017-05-01 revision c8706e9c1)-makepkg) date 06/26/17 08:26:11*
%MOMM*%
%LPD*%
G01*
G04 APERTURE LIST*
%ADD10C,0.100000*%
%ADD11R,1.000000X1.950000*%
%ADD12R,1.650000X1.400000*%
%ADD13C,1.924000*%
%ADD14C,5.860000*%
%ADD15R,1.920000X1.920000*%
%ADD16C,1.920000*%
%ADD17R,2.000000X0.810000*%
%ADD18R,1.700000X1.100000*%
%ADD19R,1.400000X1.650000*%
%ADD20C,2.800000*%
%ADD21C,2.900000*%
%ADD22R,1.100000X1.700000*%
%ADD23R,1.460000X1.050000*%
G04 APERTURE END LIST*
D10*
D11*
X225405000Y-99600000D03*
X224135000Y-99600000D03*
X222865000Y-99600000D03*
X221595000Y-99600000D03*
X221595000Y-105000000D03*
X222865000Y-105000000D03*
X224135000Y-105000000D03*
X225405000Y-105000000D03*
D12*
X219250000Y-97800000D03*
X219250000Y-99800000D03*
D13*
X206350000Y-112540000D03*
X221590000Y-112540000D03*
X221590000Y-107460000D03*
X206350000Y-107460000D03*
X206350000Y-89660000D03*
X206350000Y-84580000D03*
X221590000Y-71880000D03*
D14*
X234680000Y-106290000D03*
X234680000Y-78350000D03*
D15*
X235950000Y-97400000D03*
D16*
X233410000Y-97400000D03*
X235950000Y-94860000D03*
X233410000Y-94860000D03*
X235950000Y-92320000D03*
X233410000Y-92320000D03*
X235950000Y-89780000D03*
X233410000Y-89780000D03*
X235950000Y-87240000D03*
X233410000Y-87240000D03*
D17*
X222445700Y-85977500D03*
X222445700Y-86612500D03*
X222445700Y-87247500D03*
X222445700Y-87882500D03*
X222445700Y-88517500D03*
X222445700Y-89152500D03*
X222445700Y-89787500D03*
X222445700Y-90422500D03*
X227754300Y-90422500D03*
X227754300Y-89787500D03*
X227754300Y-89152500D03*
X227754300Y-88517500D03*
X227754300Y-87882500D03*
X227754300Y-87247500D03*
X227754300Y-86612500D03*
X227754300Y-85977500D03*
D12*
X207214896Y-95945680D03*
X207214896Y-93945680D03*
X209964896Y-95945680D03*
X209964896Y-93945680D03*
X212314896Y-93945680D03*
X212314896Y-95945680D03*
D18*
X204750000Y-95850000D03*
X204750000Y-93950000D03*
D12*
X227750000Y-91900000D03*
X227750000Y-93900000D03*
D19*
X212300000Y-79580000D03*
X214300000Y-79580000D03*
D20*
X206300000Y-72850000D03*
D21*
X203760000Y-70310000D03*
X208840000Y-70310000D03*
X208840000Y-75390000D03*
X203760000Y-75390000D03*
D22*
X214250000Y-81866000D03*
X212350000Y-81866000D03*
X208472000Y-84660000D03*
X210372000Y-84660000D03*
D11*
X212343000Y-90054000D03*
X213613000Y-90054000D03*
X214883000Y-90054000D03*
X216153000Y-90054000D03*
X216153000Y-84654000D03*
X214883000Y-84654000D03*
X213613000Y-84654000D03*
X212343000Y-84654000D03*
D12*
X209850000Y-107500000D03*
X209850000Y-105500000D03*
X225400000Y-109700000D03*
X225400000Y-107700000D03*
D18*
X214950000Y-94450000D03*
X214950000Y-96350000D03*
D11*
X207302171Y-103489303D03*
X208572171Y-103489303D03*
X209842171Y-103489303D03*
X211112171Y-103489303D03*
X211112171Y-98089303D03*
X209842171Y-98089303D03*
X208572171Y-98089303D03*
X207302171Y-98089303D03*
D23*
X217144970Y-97781312D03*
X217144970Y-99681312D03*
X214944970Y-99681312D03*
X214944970Y-98731312D03*
X214944970Y-97781312D03*
D12*
X220150000Y-92360000D03*
X220150000Y-94360000D03*
X222450000Y-94350000D03*
X222450000Y-92350000D03*
D22*
X218200000Y-92500000D03*
X216300000Y-92500000D03*
M02*
