G04 #@! TF.GenerationSoftware,KiCad,Pcbnew,(2017-06-25 revision 6a3c1720b)-makepkg*
G04 #@! TF.CreationDate,2017-08-03T10:21:49-04:00*
G04 #@! TF.ProjectId,pmt-transimpedance-amplifier,706D742D7472616E73696D706564616E,rev?*
G04 #@! TF.SameCoordinates,Original
G04 #@! TF.FileFunction,Copper,L2,Bot,Signal*
G04 #@! TF.FilePolarity,Positive*
%FSLAX46Y46*%
G04 Gerber Fmt 4.6, Leading zero omitted, Abs format (unit mm)*
G04 Created by KiCad (PCBNEW (2017-06-25 revision 6a3c1720b)-makepkg) date 08/03/17 10:21:49*
%MOMM*%
%LPD*%
G01*
G04 APERTURE LIST*
%ADD10C,0.100000*%
%ADD11R,1.000000X1.250000*%
%ADD12C,1.524000*%
%ADD13C,1.520000*%
%ADD14R,1.520000X1.520000*%
%ADD15C,5.460000*%
%ADD16C,2.400000*%
%ADD17C,2.500000*%
%ADD18C,0.600000*%
%ADD19C,0.820000*%
%ADD20C,0.250000*%
%ADD21C,0.200000*%
%ADD22C,0.254000*%
G04 APERTURE END LIST*
D10*
D11*
X219545000Y-113715000D03*
X217545000Y-113715000D03*
X219595000Y-115765000D03*
X217595000Y-115765000D03*
D12*
X206350000Y-112540000D03*
X221590000Y-112540000D03*
X221590000Y-107460000D03*
X206350000Y-107460000D03*
X206350000Y-89660000D03*
X206350000Y-84580000D03*
X221590000Y-71880000D03*
D13*
X209455000Y-123640000D03*
X209455000Y-121100000D03*
X211995000Y-123640000D03*
X211995000Y-121100000D03*
X214535000Y-123640000D03*
X214535000Y-121100000D03*
X217075000Y-123640000D03*
X217075000Y-121100000D03*
X219615000Y-123640000D03*
D14*
X219615000Y-121100000D03*
D15*
X200565000Y-122370000D03*
X228505000Y-122370000D03*
D16*
X206300000Y-72875000D03*
D17*
X203760000Y-70335000D03*
X208840000Y-70335000D03*
X208840000Y-75415000D03*
X203760000Y-75415000D03*
D11*
X215275000Y-82600000D03*
X217275000Y-82600000D03*
D18*
X217925000Y-82850000D03*
X207459998Y-104900000D03*
X204890000Y-104880000D03*
X225040000Y-87910000D03*
X224740000Y-99800000D03*
X207400000Y-97110002D03*
X206100000Y-97089998D03*
X212130000Y-96760000D03*
X211800000Y-97300000D03*
X210870000Y-97290000D03*
X217040000Y-96830000D03*
X217925000Y-82225000D03*
X221225000Y-88700000D03*
X221197905Y-86475000D03*
X217950000Y-80900000D03*
X209075000Y-105025000D03*
X206625000Y-96575000D03*
X211050000Y-95825000D03*
X208775000Y-95825000D03*
X216550000Y-91525000D03*
X203375000Y-116475000D03*
X203350000Y-114725000D03*
X218090000Y-93890000D03*
X215706591Y-81943403D03*
X217075000Y-93025000D03*
X222900000Y-102800000D03*
X215600000Y-92900000D03*
X215525000Y-88025000D03*
X215525000Y-86525000D03*
X210850000Y-70925000D03*
X206250000Y-70850000D03*
X203875000Y-72800000D03*
X209075000Y-72800000D03*
X208250000Y-87500000D03*
X214925000Y-83100000D03*
X218025012Y-100250000D03*
X216899998Y-100250000D03*
X211980000Y-117420000D03*
X210750000Y-124400000D03*
X209625000Y-119450000D03*
X214225000Y-105275000D03*
X218000000Y-111000000D03*
X213275000Y-122450000D03*
X218600000Y-99075000D03*
X212975000Y-112650000D03*
X218000000Y-109000000D03*
X213275000Y-120450000D03*
X214200000Y-112650000D03*
X212975000Y-110650000D03*
X210975000Y-112650000D03*
X218600000Y-106950000D03*
X213275000Y-118450000D03*
X214200000Y-110650000D03*
X212975000Y-108650000D03*
X210975000Y-110650000D03*
X218600000Y-104950000D03*
X214200000Y-108650000D03*
X212975000Y-106650000D03*
X210975000Y-108650000D03*
X218600000Y-102950000D03*
X209625000Y-117450000D03*
X214200000Y-106650000D03*
X212975000Y-104650000D03*
X210975000Y-106650000D03*
X214325000Y-102900000D03*
X216150000Y-106975000D03*
X215475000Y-78500000D03*
X215475000Y-80150000D03*
X206250000Y-91100000D03*
X214325000Y-92200000D03*
X210250000Y-92200000D03*
X208250000Y-92200000D03*
X206250000Y-92200000D03*
X204250000Y-92200000D03*
X212450000Y-92200000D03*
X210250000Y-90800000D03*
X208250000Y-90800000D03*
X204250000Y-90800000D03*
X214250000Y-88050000D03*
X212250000Y-88050000D03*
X210250000Y-88050000D03*
X208250000Y-88875000D03*
X206250000Y-87625000D03*
X204075000Y-88125000D03*
X202350000Y-88050000D03*
X214250000Y-86550000D03*
X212250000Y-86550000D03*
X210250000Y-86550000D03*
X208250000Y-86550000D03*
X206250000Y-86550000D03*
X204250000Y-86550000D03*
X202350000Y-86550000D03*
X204250000Y-84800000D03*
X202350000Y-84800000D03*
X210250000Y-82800000D03*
X208250000Y-82800000D03*
X204250000Y-82800000D03*
X202350000Y-82800000D03*
X210250000Y-80800000D03*
X208250000Y-80800000D03*
X204250000Y-80800000D03*
X202350000Y-80800000D03*
X214250000Y-78050000D03*
X212250000Y-78050000D03*
X210250000Y-78800000D03*
X208250000Y-78800000D03*
X204250000Y-78800000D03*
X202350000Y-78800000D03*
X210550000Y-76975000D03*
X208250000Y-77300000D03*
X204250000Y-77300000D03*
X202350000Y-76800000D03*
X210850000Y-74800000D03*
X210850000Y-72800000D03*
X202375000Y-72750000D03*
X210250000Y-68800000D03*
X206250000Y-68800000D03*
X202250000Y-68800000D03*
D19*
X206350000Y-89660000D02*
X202760000Y-89660000D01*
D20*
X217075000Y-93025000D02*
X217940000Y-93890000D01*
X217940000Y-93890000D02*
X218090000Y-93890000D01*
X214925000Y-82724994D02*
X215406592Y-82243402D01*
X214925000Y-83100000D02*
X215706591Y-82318409D01*
X214925000Y-82925000D02*
X214925000Y-82724994D01*
X215406592Y-82243402D02*
X215706591Y-81943403D01*
X215706591Y-82318409D02*
X215706591Y-81943403D01*
D21*
X218025012Y-100250000D02*
X216899998Y-100250000D01*
D22*
G36*
X211373000Y-77500000D02*
X211382667Y-77548601D01*
X211410197Y-77589803D01*
X211451399Y-77617333D01*
X211500000Y-77627000D01*
X215873000Y-77627000D01*
X215873000Y-81279458D01*
X215841845Y-81266521D01*
X215572518Y-81266286D01*
X215323602Y-81369136D01*
X215132993Y-81559413D01*
X215120037Y-81590615D01*
X214775000Y-81590615D01*
X214627902Y-81619875D01*
X214503199Y-81703199D01*
X214419875Y-81827902D01*
X214390615Y-81975000D01*
X214390615Y-82676865D01*
X214351402Y-82716010D01*
X214248118Y-82964746D01*
X214247883Y-83234073D01*
X214350733Y-83482989D01*
X214541010Y-83673598D01*
X214789746Y-83776882D01*
X215059073Y-83777117D01*
X215307989Y-83674267D01*
X215372984Y-83609385D01*
X215775000Y-83609385D01*
X215873000Y-83589891D01*
X215873000Y-91524983D01*
X215872883Y-91659073D01*
X215873000Y-91659356D01*
X215873000Y-94373000D01*
X213377000Y-94373000D01*
X213377000Y-93000000D01*
X213367333Y-92951399D01*
X213339803Y-92910197D01*
X213298601Y-92882667D01*
X213250000Y-92873000D01*
X203802000Y-92873000D01*
X203802000Y-90447000D01*
X205526242Y-90447000D01*
X205703966Y-90625034D01*
X206122445Y-90798802D01*
X206575567Y-90799197D01*
X206994349Y-90626160D01*
X207315034Y-90306034D01*
X207488802Y-89887555D01*
X207489197Y-89434433D01*
X207316160Y-89015651D01*
X206996034Y-88694966D01*
X206577555Y-88521198D01*
X206124433Y-88520803D01*
X205705651Y-88693840D01*
X205526178Y-88873000D01*
X202127000Y-88873000D01*
X202127000Y-84805567D01*
X205210803Y-84805567D01*
X205383840Y-85224349D01*
X205703966Y-85545034D01*
X206122445Y-85718802D01*
X206575567Y-85719197D01*
X206994349Y-85546160D01*
X207315034Y-85226034D01*
X207488802Y-84807555D01*
X207489197Y-84354433D01*
X207316160Y-83935651D01*
X206996034Y-83614966D01*
X206577555Y-83441198D01*
X206124433Y-83440803D01*
X205705651Y-83613840D01*
X205384966Y-83933966D01*
X205211198Y-84352445D01*
X205210803Y-84805567D01*
X202127000Y-84805567D01*
X202127000Y-73187308D01*
X204722727Y-73187308D01*
X204962305Y-73767132D01*
X205405535Y-74211136D01*
X205984939Y-74451725D01*
X206612308Y-74452273D01*
X207192132Y-74212695D01*
X207636136Y-73769465D01*
X207876725Y-73190061D01*
X207877273Y-72562692D01*
X207637695Y-71982868D01*
X207194465Y-71538864D01*
X206615061Y-71298275D01*
X205987692Y-71297727D01*
X205407868Y-71537305D01*
X204963864Y-71980535D01*
X204723275Y-72559939D01*
X204722727Y-73187308D01*
X202127000Y-73187308D01*
X202127000Y-68651667D01*
X211373000Y-68627335D01*
X211373000Y-77500000D01*
X211373000Y-77500000D01*
G37*
X211373000Y-77500000D02*
X211382667Y-77548601D01*
X211410197Y-77589803D01*
X211451399Y-77617333D01*
X211500000Y-77627000D01*
X215873000Y-77627000D01*
X215873000Y-81279458D01*
X215841845Y-81266521D01*
X215572518Y-81266286D01*
X215323602Y-81369136D01*
X215132993Y-81559413D01*
X215120037Y-81590615D01*
X214775000Y-81590615D01*
X214627902Y-81619875D01*
X214503199Y-81703199D01*
X214419875Y-81827902D01*
X214390615Y-81975000D01*
X214390615Y-82676865D01*
X214351402Y-82716010D01*
X214248118Y-82964746D01*
X214247883Y-83234073D01*
X214350733Y-83482989D01*
X214541010Y-83673598D01*
X214789746Y-83776882D01*
X215059073Y-83777117D01*
X215307989Y-83674267D01*
X215372984Y-83609385D01*
X215775000Y-83609385D01*
X215873000Y-83589891D01*
X215873000Y-91524983D01*
X215872883Y-91659073D01*
X215873000Y-91659356D01*
X215873000Y-94373000D01*
X213377000Y-94373000D01*
X213377000Y-93000000D01*
X213367333Y-92951399D01*
X213339803Y-92910197D01*
X213298601Y-92882667D01*
X213250000Y-92873000D01*
X203802000Y-92873000D01*
X203802000Y-90447000D01*
X205526242Y-90447000D01*
X205703966Y-90625034D01*
X206122445Y-90798802D01*
X206575567Y-90799197D01*
X206994349Y-90626160D01*
X207315034Y-90306034D01*
X207488802Y-89887555D01*
X207489197Y-89434433D01*
X207316160Y-89015651D01*
X206996034Y-88694966D01*
X206577555Y-88521198D01*
X206124433Y-88520803D01*
X205705651Y-88693840D01*
X205526178Y-88873000D01*
X202127000Y-88873000D01*
X202127000Y-84805567D01*
X205210803Y-84805567D01*
X205383840Y-85224349D01*
X205703966Y-85545034D01*
X206122445Y-85718802D01*
X206575567Y-85719197D01*
X206994349Y-85546160D01*
X207315034Y-85226034D01*
X207488802Y-84807555D01*
X207489197Y-84354433D01*
X207316160Y-83935651D01*
X206996034Y-83614966D01*
X206577555Y-83441198D01*
X206124433Y-83440803D01*
X205705651Y-83613840D01*
X205384966Y-83933966D01*
X205211198Y-84352445D01*
X205210803Y-84805567D01*
X202127000Y-84805567D01*
X202127000Y-73187308D01*
X204722727Y-73187308D01*
X204962305Y-73767132D01*
X205405535Y-74211136D01*
X205984939Y-74451725D01*
X206612308Y-74452273D01*
X207192132Y-74212695D01*
X207636136Y-73769465D01*
X207876725Y-73190061D01*
X207877273Y-72562692D01*
X207637695Y-71982868D01*
X207194465Y-71538864D01*
X206615061Y-71298275D01*
X205987692Y-71297727D01*
X205407868Y-71537305D01*
X204963864Y-71980535D01*
X204723275Y-72559939D01*
X204722727Y-73187308D01*
X202127000Y-73187308D01*
X202127000Y-68651667D01*
X211373000Y-68627335D01*
X211373000Y-77500000D01*
G36*
X225398000Y-82398000D02*
X223475000Y-82398000D01*
X223426399Y-82407667D01*
X223385197Y-82435197D01*
X223357667Y-82476399D01*
X223348000Y-82525283D01*
X223372885Y-93698654D01*
X219408827Y-97786589D01*
X219381934Y-97828210D01*
X219373000Y-97875000D01*
X219373000Y-111697394D01*
X218410197Y-112660197D01*
X218382667Y-112701399D01*
X218373000Y-112750000D01*
X218373000Y-116623000D01*
X217500000Y-116623000D01*
X217451399Y-116632667D01*
X217410197Y-116660197D01*
X215910197Y-118160197D01*
X215882667Y-118201399D01*
X215873000Y-118250000D01*
X215873000Y-124197394D01*
X214947184Y-125123210D01*
X208803620Y-125147784D01*
X208127000Y-124448610D01*
X208127000Y-123865171D01*
X208317803Y-123865171D01*
X208490536Y-124283217D01*
X208810100Y-124603340D01*
X209227845Y-124776802D01*
X209680171Y-124777197D01*
X210098217Y-124604464D01*
X210418340Y-124284900D01*
X210591802Y-123867155D01*
X210591803Y-123865171D01*
X210857803Y-123865171D01*
X211030536Y-124283217D01*
X211350100Y-124603340D01*
X211767845Y-124776802D01*
X212220171Y-124777197D01*
X212638217Y-124604464D01*
X212958340Y-124284900D01*
X213131802Y-123867155D01*
X213131803Y-123865171D01*
X213397803Y-123865171D01*
X213570536Y-124283217D01*
X213890100Y-124603340D01*
X214307845Y-124776802D01*
X214760171Y-124777197D01*
X215178217Y-124604464D01*
X215498340Y-124284900D01*
X215671802Y-123867155D01*
X215672197Y-123414829D01*
X215499464Y-122996783D01*
X215179900Y-122676660D01*
X214762155Y-122503198D01*
X214309829Y-122502803D01*
X213891783Y-122675536D01*
X213571660Y-122995100D01*
X213398198Y-123412845D01*
X213397803Y-123865171D01*
X213131803Y-123865171D01*
X213132197Y-123414829D01*
X212959464Y-122996783D01*
X212639900Y-122676660D01*
X212222155Y-122503198D01*
X211769829Y-122502803D01*
X211351783Y-122675536D01*
X211031660Y-122995100D01*
X210858198Y-123412845D01*
X210857803Y-123865171D01*
X210591803Y-123865171D01*
X210592197Y-123414829D01*
X210419464Y-122996783D01*
X210099900Y-122676660D01*
X209682155Y-122503198D01*
X209229829Y-122502803D01*
X208811783Y-122675536D01*
X208491660Y-122995100D01*
X208318198Y-123412845D01*
X208317803Y-123865171D01*
X208127000Y-123865171D01*
X208127000Y-121325171D01*
X208317803Y-121325171D01*
X208490536Y-121743217D01*
X208810100Y-122063340D01*
X209227845Y-122236802D01*
X209680171Y-122237197D01*
X210098217Y-122064464D01*
X210418340Y-121744900D01*
X210591802Y-121327155D01*
X210591803Y-121325171D01*
X210857803Y-121325171D01*
X211030536Y-121743217D01*
X211350100Y-122063340D01*
X211767845Y-122236802D01*
X212220171Y-122237197D01*
X212638217Y-122064464D01*
X212958340Y-121744900D01*
X213131802Y-121327155D01*
X213131803Y-121325171D01*
X213397803Y-121325171D01*
X213570536Y-121743217D01*
X213890100Y-122063340D01*
X214307845Y-122236802D01*
X214760171Y-122237197D01*
X215178217Y-122064464D01*
X215498340Y-121744900D01*
X215671802Y-121327155D01*
X215672197Y-120874829D01*
X215499464Y-120456783D01*
X215179900Y-120136660D01*
X214762155Y-119963198D01*
X214309829Y-119962803D01*
X213891783Y-120135536D01*
X213571660Y-120455100D01*
X213398198Y-120872845D01*
X213397803Y-121325171D01*
X213131803Y-121325171D01*
X213132197Y-120874829D01*
X212959464Y-120456783D01*
X212639900Y-120136660D01*
X212222155Y-119963198D01*
X211769829Y-119962803D01*
X211351783Y-120135536D01*
X211031660Y-120455100D01*
X210858198Y-120872845D01*
X210857803Y-121325171D01*
X210591803Y-121325171D01*
X210592197Y-120874829D01*
X210419464Y-120456783D01*
X210099900Y-120136660D01*
X209682155Y-119963198D01*
X209229829Y-119962803D01*
X208811783Y-120135536D01*
X208491660Y-120455100D01*
X208318198Y-120872845D01*
X208317803Y-121325171D01*
X208127000Y-121325171D01*
X208127000Y-120802606D01*
X208839803Y-120089803D01*
X208867333Y-120048601D01*
X208877000Y-120000000D01*
X208877000Y-113127000D01*
X209500000Y-113127000D01*
X209548601Y-113117333D01*
X209589803Y-113089803D01*
X209617333Y-113048601D01*
X209627000Y-113000000D01*
X209627000Y-105802606D01*
X215045533Y-100384073D01*
X216222881Y-100384073D01*
X216325731Y-100632989D01*
X216516008Y-100823598D01*
X216764744Y-100926882D01*
X217034071Y-100927117D01*
X217282987Y-100824267D01*
X217380424Y-100727000D01*
X217544592Y-100727000D01*
X217641022Y-100823598D01*
X217889758Y-100926882D01*
X218159085Y-100927117D01*
X218408001Y-100824267D01*
X218598610Y-100633990D01*
X218701894Y-100385254D01*
X218702129Y-100115927D01*
X218599279Y-99867011D01*
X218409002Y-99676402D01*
X218160266Y-99573118D01*
X217890939Y-99572883D01*
X217642023Y-99675733D01*
X217544586Y-99773000D01*
X217380418Y-99773000D01*
X217283988Y-99676402D01*
X217035252Y-99573118D01*
X216765925Y-99572883D01*
X216517009Y-99675733D01*
X216326400Y-99866010D01*
X216223116Y-100114746D01*
X216222881Y-100384073D01*
X215045533Y-100384073D01*
X222089803Y-93339803D01*
X222117333Y-93298601D01*
X222127000Y-93250000D01*
X222127000Y-81302606D01*
X223302606Y-80127000D01*
X225398000Y-80127000D01*
X225398000Y-82398000D01*
X225398000Y-82398000D01*
G37*
X225398000Y-82398000D02*
X223475000Y-82398000D01*
X223426399Y-82407667D01*
X223385197Y-82435197D01*
X223357667Y-82476399D01*
X223348000Y-82525283D01*
X223372885Y-93698654D01*
X219408827Y-97786589D01*
X219381934Y-97828210D01*
X219373000Y-97875000D01*
X219373000Y-111697394D01*
X218410197Y-112660197D01*
X218382667Y-112701399D01*
X218373000Y-112750000D01*
X218373000Y-116623000D01*
X217500000Y-116623000D01*
X217451399Y-116632667D01*
X217410197Y-116660197D01*
X215910197Y-118160197D01*
X215882667Y-118201399D01*
X215873000Y-118250000D01*
X215873000Y-124197394D01*
X214947184Y-125123210D01*
X208803620Y-125147784D01*
X208127000Y-124448610D01*
X208127000Y-123865171D01*
X208317803Y-123865171D01*
X208490536Y-124283217D01*
X208810100Y-124603340D01*
X209227845Y-124776802D01*
X209680171Y-124777197D01*
X210098217Y-124604464D01*
X210418340Y-124284900D01*
X210591802Y-123867155D01*
X210591803Y-123865171D01*
X210857803Y-123865171D01*
X211030536Y-124283217D01*
X211350100Y-124603340D01*
X211767845Y-124776802D01*
X212220171Y-124777197D01*
X212638217Y-124604464D01*
X212958340Y-124284900D01*
X213131802Y-123867155D01*
X213131803Y-123865171D01*
X213397803Y-123865171D01*
X213570536Y-124283217D01*
X213890100Y-124603340D01*
X214307845Y-124776802D01*
X214760171Y-124777197D01*
X215178217Y-124604464D01*
X215498340Y-124284900D01*
X215671802Y-123867155D01*
X215672197Y-123414829D01*
X215499464Y-122996783D01*
X215179900Y-122676660D01*
X214762155Y-122503198D01*
X214309829Y-122502803D01*
X213891783Y-122675536D01*
X213571660Y-122995100D01*
X213398198Y-123412845D01*
X213397803Y-123865171D01*
X213131803Y-123865171D01*
X213132197Y-123414829D01*
X212959464Y-122996783D01*
X212639900Y-122676660D01*
X212222155Y-122503198D01*
X211769829Y-122502803D01*
X211351783Y-122675536D01*
X211031660Y-122995100D01*
X210858198Y-123412845D01*
X210857803Y-123865171D01*
X210591803Y-123865171D01*
X210592197Y-123414829D01*
X210419464Y-122996783D01*
X210099900Y-122676660D01*
X209682155Y-122503198D01*
X209229829Y-122502803D01*
X208811783Y-122675536D01*
X208491660Y-122995100D01*
X208318198Y-123412845D01*
X208317803Y-123865171D01*
X208127000Y-123865171D01*
X208127000Y-121325171D01*
X208317803Y-121325171D01*
X208490536Y-121743217D01*
X208810100Y-122063340D01*
X209227845Y-122236802D01*
X209680171Y-122237197D01*
X210098217Y-122064464D01*
X210418340Y-121744900D01*
X210591802Y-121327155D01*
X210591803Y-121325171D01*
X210857803Y-121325171D01*
X211030536Y-121743217D01*
X211350100Y-122063340D01*
X211767845Y-122236802D01*
X212220171Y-122237197D01*
X212638217Y-122064464D01*
X212958340Y-121744900D01*
X213131802Y-121327155D01*
X213131803Y-121325171D01*
X213397803Y-121325171D01*
X213570536Y-121743217D01*
X213890100Y-122063340D01*
X214307845Y-122236802D01*
X214760171Y-122237197D01*
X215178217Y-122064464D01*
X215498340Y-121744900D01*
X215671802Y-121327155D01*
X215672197Y-120874829D01*
X215499464Y-120456783D01*
X215179900Y-120136660D01*
X214762155Y-119963198D01*
X214309829Y-119962803D01*
X213891783Y-120135536D01*
X213571660Y-120455100D01*
X213398198Y-120872845D01*
X213397803Y-121325171D01*
X213131803Y-121325171D01*
X213132197Y-120874829D01*
X212959464Y-120456783D01*
X212639900Y-120136660D01*
X212222155Y-119963198D01*
X211769829Y-119962803D01*
X211351783Y-120135536D01*
X211031660Y-120455100D01*
X210858198Y-120872845D01*
X210857803Y-121325171D01*
X210591803Y-121325171D01*
X210592197Y-120874829D01*
X210419464Y-120456783D01*
X210099900Y-120136660D01*
X209682155Y-119963198D01*
X209229829Y-119962803D01*
X208811783Y-120135536D01*
X208491660Y-120455100D01*
X208318198Y-120872845D01*
X208317803Y-121325171D01*
X208127000Y-121325171D01*
X208127000Y-120802606D01*
X208839803Y-120089803D01*
X208867333Y-120048601D01*
X208877000Y-120000000D01*
X208877000Y-113127000D01*
X209500000Y-113127000D01*
X209548601Y-113117333D01*
X209589803Y-113089803D01*
X209617333Y-113048601D01*
X209627000Y-113000000D01*
X209627000Y-105802606D01*
X215045533Y-100384073D01*
X216222881Y-100384073D01*
X216325731Y-100632989D01*
X216516008Y-100823598D01*
X216764744Y-100926882D01*
X217034071Y-100927117D01*
X217282987Y-100824267D01*
X217380424Y-100727000D01*
X217544592Y-100727000D01*
X217641022Y-100823598D01*
X217889758Y-100926882D01*
X218159085Y-100927117D01*
X218408001Y-100824267D01*
X218598610Y-100633990D01*
X218701894Y-100385254D01*
X218702129Y-100115927D01*
X218599279Y-99867011D01*
X218409002Y-99676402D01*
X218160266Y-99573118D01*
X217890939Y-99572883D01*
X217642023Y-99675733D01*
X217544586Y-99773000D01*
X217380418Y-99773000D01*
X217283988Y-99676402D01*
X217035252Y-99573118D01*
X216765925Y-99572883D01*
X216517009Y-99675733D01*
X216326400Y-99866010D01*
X216223116Y-100114746D01*
X216222881Y-100384073D01*
X215045533Y-100384073D01*
X222089803Y-93339803D01*
X222117333Y-93298601D01*
X222127000Y-93250000D01*
X222127000Y-81302606D01*
X223302606Y-80127000D01*
X225398000Y-80127000D01*
X225398000Y-82398000D01*
D10*
G36*
X226875000Y-117250000D02*
X226903545Y-117393506D01*
X226984835Y-117515165D01*
X227106494Y-117596455D01*
X227250000Y-117625000D01*
X231625000Y-117625000D01*
X231625000Y-127125000D01*
X197375000Y-127125000D01*
X197375000Y-122970060D01*
X197534475Y-122970060D01*
X197994793Y-124084115D01*
X198846402Y-124937211D01*
X199959652Y-125399473D01*
X201165060Y-125400525D01*
X202279115Y-124940207D01*
X203132211Y-124088598D01*
X203594473Y-122975348D01*
X203595525Y-121769940D01*
X203174095Y-120750000D01*
X207700000Y-120750000D01*
X207700000Y-124500000D01*
X207720992Y-124610247D01*
X207784419Y-124708626D01*
X208534419Y-125483626D01*
X208636305Y-125552621D01*
X208751200Y-125574998D01*
X215001200Y-125549998D01*
X215114805Y-125527164D01*
X215212132Y-125462132D01*
X216212132Y-124462132D01*
X216277164Y-124364805D01*
X216281088Y-124345079D01*
X216473774Y-124538101D01*
X216863228Y-124699816D01*
X217284922Y-124700184D01*
X217674658Y-124539149D01*
X217973101Y-124241226D01*
X218134816Y-123851772D01*
X218134817Y-123849922D01*
X218554816Y-123849922D01*
X218715851Y-124239658D01*
X219013774Y-124538101D01*
X219403228Y-124699816D01*
X219824922Y-124700184D01*
X220214658Y-124539149D01*
X220513101Y-124241226D01*
X220674816Y-123851772D01*
X220675184Y-123430078D01*
X220514149Y-123040342D01*
X220443990Y-122970060D01*
X225474475Y-122970060D01*
X225934793Y-124084115D01*
X226786402Y-124937211D01*
X227899652Y-125399473D01*
X229105060Y-125400525D01*
X230219115Y-124940207D01*
X231072211Y-124088598D01*
X231534473Y-122975348D01*
X231535525Y-121769940D01*
X231075207Y-120655885D01*
X230223598Y-119802789D01*
X229110348Y-119340527D01*
X227904940Y-119339475D01*
X226790885Y-119799793D01*
X225937789Y-120651402D01*
X225475527Y-121764652D01*
X225474475Y-122970060D01*
X220443990Y-122970060D01*
X220216226Y-122741899D01*
X219826772Y-122580184D01*
X219405078Y-122579816D01*
X219015342Y-122740851D01*
X218716899Y-123038774D01*
X218555184Y-123428228D01*
X218554816Y-123849922D01*
X218134817Y-123849922D01*
X218135184Y-123430078D01*
X217974149Y-123040342D01*
X217676226Y-122741899D01*
X217286772Y-122580184D01*
X216865078Y-122579816D01*
X216475342Y-122740851D01*
X216300000Y-122915887D01*
X216300000Y-121824024D01*
X216473774Y-121998101D01*
X216863228Y-122159816D01*
X217284922Y-122160184D01*
X217674658Y-121999149D01*
X217973101Y-121701226D01*
X218134816Y-121311772D01*
X218135184Y-120890078D01*
X217974149Y-120500342D01*
X217676226Y-120201899D01*
X217286772Y-120040184D01*
X216865078Y-120039816D01*
X216475342Y-120200851D01*
X216300000Y-120375887D01*
X216300000Y-118374264D01*
X217624264Y-117050000D01*
X218500000Y-117050000D01*
X218614805Y-117027164D01*
X218712132Y-116962132D01*
X218777164Y-116864805D01*
X218800000Y-116750000D01*
X218800000Y-112874264D01*
X218923946Y-112750318D01*
X220527816Y-112750318D01*
X220689155Y-113140789D01*
X220987640Y-113439795D01*
X221377828Y-113601815D01*
X221800318Y-113602184D01*
X222190789Y-113440845D01*
X222489795Y-113142360D01*
X222651815Y-112752172D01*
X222652184Y-112329682D01*
X222490845Y-111939211D01*
X222192360Y-111640205D01*
X221802172Y-111478185D01*
X221379682Y-111477816D01*
X220989211Y-111639155D01*
X220690205Y-111937640D01*
X220528185Y-112327828D01*
X220527816Y-112750318D01*
X218923946Y-112750318D01*
X219712132Y-111962132D01*
X219777164Y-111864805D01*
X219800000Y-111750000D01*
X219800000Y-107670318D01*
X220527816Y-107670318D01*
X220689155Y-108060789D01*
X220987640Y-108359795D01*
X221377828Y-108521815D01*
X221800318Y-108522184D01*
X222190789Y-108360845D01*
X222489795Y-108062360D01*
X222651815Y-107672172D01*
X222652184Y-107249682D01*
X222490845Y-106859211D01*
X222192360Y-106560205D01*
X221802172Y-106398185D01*
X221379682Y-106397816D01*
X220989211Y-106559155D01*
X220690205Y-106857640D01*
X220528185Y-107247828D01*
X220527816Y-107670318D01*
X219800000Y-107670318D01*
X219800000Y-97996569D01*
X223715370Y-93958844D01*
X223777419Y-93864187D01*
X223799999Y-93749332D01*
X223775669Y-82825000D01*
X225525000Y-82825000D01*
X225639805Y-82802164D01*
X225737132Y-82737132D01*
X225802164Y-82639805D01*
X225825000Y-82525000D01*
X225825000Y-80000000D01*
X225802164Y-79885195D01*
X225737132Y-79787868D01*
X225639805Y-79722836D01*
X225525000Y-79700000D01*
X223250000Y-79700000D01*
X223135195Y-79722836D01*
X223037868Y-79787868D01*
X221787868Y-81037868D01*
X221722836Y-81135195D01*
X221700000Y-81250000D01*
X221700000Y-93125736D01*
X209287868Y-105537868D01*
X209222836Y-105635195D01*
X209200000Y-105750000D01*
X209200000Y-112700000D01*
X208750000Y-112700000D01*
X208635195Y-112722836D01*
X208537868Y-112787868D01*
X208472836Y-112885195D01*
X208450000Y-113000000D01*
X208450000Y-119875736D01*
X207787868Y-120537868D01*
X207722836Y-120635195D01*
X207700000Y-120750000D01*
X203174095Y-120750000D01*
X203135207Y-120655885D01*
X202283598Y-119802789D01*
X201170348Y-119340527D01*
X199964940Y-119339475D01*
X198850885Y-119799793D01*
X197997789Y-120651402D01*
X197535527Y-121764652D01*
X197534475Y-122970060D01*
X197375000Y-122970060D01*
X197375000Y-117625000D01*
X201000000Y-117625000D01*
X201143506Y-117596455D01*
X201265165Y-117515165D01*
X201346455Y-117393506D01*
X201375000Y-117250000D01*
X201375000Y-112750318D01*
X205287816Y-112750318D01*
X205449155Y-113140789D01*
X205747640Y-113439795D01*
X206137828Y-113601815D01*
X206560318Y-113602184D01*
X206950789Y-113440845D01*
X207249795Y-113142360D01*
X207411815Y-112752172D01*
X207412184Y-112329682D01*
X207250845Y-111939211D01*
X206952360Y-111640205D01*
X206562172Y-111478185D01*
X206139682Y-111477816D01*
X205749211Y-111639155D01*
X205450205Y-111937640D01*
X205288185Y-112327828D01*
X205287816Y-112750318D01*
X201375000Y-112750318D01*
X201375000Y-68918824D01*
X201649896Y-68918824D01*
X201700000Y-69040085D01*
X201700000Y-89000000D01*
X201722836Y-89114805D01*
X201787868Y-89212132D01*
X201885195Y-89277164D01*
X202000000Y-89300000D01*
X203375000Y-89300000D01*
X203375000Y-93000000D01*
X203397836Y-93114805D01*
X203462868Y-93212132D01*
X203560195Y-93277164D01*
X203675000Y-93300000D01*
X212950000Y-93300000D01*
X212950000Y-94500000D01*
X212972836Y-94614805D01*
X213037868Y-94712132D01*
X213135195Y-94777164D01*
X213250000Y-94800000D01*
X216000000Y-94800000D01*
X216114805Y-94777164D01*
X216212132Y-94712132D01*
X216277164Y-94614805D01*
X216300000Y-94500000D01*
X216300000Y-93143824D01*
X216474896Y-93143824D01*
X216566048Y-93364429D01*
X216734683Y-93533359D01*
X216955129Y-93624896D01*
X217073959Y-93625000D01*
X217512508Y-94063549D01*
X217581048Y-94229429D01*
X217749683Y-94398359D01*
X217970129Y-94489896D01*
X218208824Y-94490104D01*
X218429429Y-94398952D01*
X218598359Y-94230317D01*
X218689896Y-94009871D01*
X218690104Y-93771176D01*
X218598952Y-93550571D01*
X218430317Y-93381641D01*
X218209871Y-93290104D01*
X217971176Y-93289896D01*
X217949778Y-93298737D01*
X217675001Y-93023961D01*
X217675104Y-92906176D01*
X217583952Y-92685571D01*
X217415317Y-92516641D01*
X217194871Y-92425104D01*
X216956176Y-92424896D01*
X216735571Y-92516048D01*
X216566641Y-92684683D01*
X216475104Y-92905129D01*
X216474896Y-93143824D01*
X216300000Y-93143824D01*
X216300000Y-82078896D01*
X216306487Y-82063274D01*
X216306695Y-81824579D01*
X216300000Y-81808376D01*
X216300000Y-77500000D01*
X216277164Y-77385195D01*
X216212132Y-77287868D01*
X216114805Y-77222836D01*
X216000000Y-77200000D01*
X211800000Y-77200000D01*
X211800000Y-72090318D01*
X220527816Y-72090318D01*
X220689155Y-72480789D01*
X220987640Y-72779795D01*
X221377828Y-72941815D01*
X221800318Y-72942184D01*
X222190789Y-72780845D01*
X222489795Y-72482360D01*
X222651815Y-72092172D01*
X222652184Y-71669682D01*
X222490845Y-71279211D01*
X222192360Y-70980205D01*
X221802172Y-70818185D01*
X221379682Y-70817816D01*
X220989211Y-70979155D01*
X220690205Y-71277640D01*
X220528185Y-71667828D01*
X220527816Y-72090318D01*
X211800000Y-72090318D01*
X211800000Y-68500000D01*
X211776861Y-68384466D01*
X211711573Y-68287310D01*
X211614075Y-68222535D01*
X211499211Y-68200001D01*
X210376737Y-68202955D01*
X210369871Y-68200104D01*
X210131176Y-68199896D01*
X210122152Y-68203625D01*
X206401927Y-68213415D01*
X206369871Y-68200104D01*
X206131176Y-68199896D01*
X206096513Y-68214219D01*
X202427118Y-68223875D01*
X202369871Y-68200104D01*
X202131176Y-68199896D01*
X202070874Y-68224812D01*
X201999211Y-68225001D01*
X201885195Y-68247836D01*
X201787868Y-68312868D01*
X201722836Y-68410195D01*
X201700000Y-68525000D01*
X201700000Y-68559966D01*
X201650104Y-68680129D01*
X201649896Y-68918824D01*
X201375000Y-68918824D01*
X201375000Y-66900000D01*
X226875000Y-66900000D01*
X226875000Y-117250000D01*
X226875000Y-117250000D01*
G37*
X226875000Y-117250000D02*
X226903545Y-117393506D01*
X226984835Y-117515165D01*
X227106494Y-117596455D01*
X227250000Y-117625000D01*
X231625000Y-117625000D01*
X231625000Y-127125000D01*
X197375000Y-127125000D01*
X197375000Y-122970060D01*
X197534475Y-122970060D01*
X197994793Y-124084115D01*
X198846402Y-124937211D01*
X199959652Y-125399473D01*
X201165060Y-125400525D01*
X202279115Y-124940207D01*
X203132211Y-124088598D01*
X203594473Y-122975348D01*
X203595525Y-121769940D01*
X203174095Y-120750000D01*
X207700000Y-120750000D01*
X207700000Y-124500000D01*
X207720992Y-124610247D01*
X207784419Y-124708626D01*
X208534419Y-125483626D01*
X208636305Y-125552621D01*
X208751200Y-125574998D01*
X215001200Y-125549998D01*
X215114805Y-125527164D01*
X215212132Y-125462132D01*
X216212132Y-124462132D01*
X216277164Y-124364805D01*
X216281088Y-124345079D01*
X216473774Y-124538101D01*
X216863228Y-124699816D01*
X217284922Y-124700184D01*
X217674658Y-124539149D01*
X217973101Y-124241226D01*
X218134816Y-123851772D01*
X218134817Y-123849922D01*
X218554816Y-123849922D01*
X218715851Y-124239658D01*
X219013774Y-124538101D01*
X219403228Y-124699816D01*
X219824922Y-124700184D01*
X220214658Y-124539149D01*
X220513101Y-124241226D01*
X220674816Y-123851772D01*
X220675184Y-123430078D01*
X220514149Y-123040342D01*
X220443990Y-122970060D01*
X225474475Y-122970060D01*
X225934793Y-124084115D01*
X226786402Y-124937211D01*
X227899652Y-125399473D01*
X229105060Y-125400525D01*
X230219115Y-124940207D01*
X231072211Y-124088598D01*
X231534473Y-122975348D01*
X231535525Y-121769940D01*
X231075207Y-120655885D01*
X230223598Y-119802789D01*
X229110348Y-119340527D01*
X227904940Y-119339475D01*
X226790885Y-119799793D01*
X225937789Y-120651402D01*
X225475527Y-121764652D01*
X225474475Y-122970060D01*
X220443990Y-122970060D01*
X220216226Y-122741899D01*
X219826772Y-122580184D01*
X219405078Y-122579816D01*
X219015342Y-122740851D01*
X218716899Y-123038774D01*
X218555184Y-123428228D01*
X218554816Y-123849922D01*
X218134817Y-123849922D01*
X218135184Y-123430078D01*
X217974149Y-123040342D01*
X217676226Y-122741899D01*
X217286772Y-122580184D01*
X216865078Y-122579816D01*
X216475342Y-122740851D01*
X216300000Y-122915887D01*
X216300000Y-121824024D01*
X216473774Y-121998101D01*
X216863228Y-122159816D01*
X217284922Y-122160184D01*
X217674658Y-121999149D01*
X217973101Y-121701226D01*
X218134816Y-121311772D01*
X218135184Y-120890078D01*
X217974149Y-120500342D01*
X217676226Y-120201899D01*
X217286772Y-120040184D01*
X216865078Y-120039816D01*
X216475342Y-120200851D01*
X216300000Y-120375887D01*
X216300000Y-118374264D01*
X217624264Y-117050000D01*
X218500000Y-117050000D01*
X218614805Y-117027164D01*
X218712132Y-116962132D01*
X218777164Y-116864805D01*
X218800000Y-116750000D01*
X218800000Y-112874264D01*
X218923946Y-112750318D01*
X220527816Y-112750318D01*
X220689155Y-113140789D01*
X220987640Y-113439795D01*
X221377828Y-113601815D01*
X221800318Y-113602184D01*
X222190789Y-113440845D01*
X222489795Y-113142360D01*
X222651815Y-112752172D01*
X222652184Y-112329682D01*
X222490845Y-111939211D01*
X222192360Y-111640205D01*
X221802172Y-111478185D01*
X221379682Y-111477816D01*
X220989211Y-111639155D01*
X220690205Y-111937640D01*
X220528185Y-112327828D01*
X220527816Y-112750318D01*
X218923946Y-112750318D01*
X219712132Y-111962132D01*
X219777164Y-111864805D01*
X219800000Y-111750000D01*
X219800000Y-107670318D01*
X220527816Y-107670318D01*
X220689155Y-108060789D01*
X220987640Y-108359795D01*
X221377828Y-108521815D01*
X221800318Y-108522184D01*
X222190789Y-108360845D01*
X222489795Y-108062360D01*
X222651815Y-107672172D01*
X222652184Y-107249682D01*
X222490845Y-106859211D01*
X222192360Y-106560205D01*
X221802172Y-106398185D01*
X221379682Y-106397816D01*
X220989211Y-106559155D01*
X220690205Y-106857640D01*
X220528185Y-107247828D01*
X220527816Y-107670318D01*
X219800000Y-107670318D01*
X219800000Y-97996569D01*
X223715370Y-93958844D01*
X223777419Y-93864187D01*
X223799999Y-93749332D01*
X223775669Y-82825000D01*
X225525000Y-82825000D01*
X225639805Y-82802164D01*
X225737132Y-82737132D01*
X225802164Y-82639805D01*
X225825000Y-82525000D01*
X225825000Y-80000000D01*
X225802164Y-79885195D01*
X225737132Y-79787868D01*
X225639805Y-79722836D01*
X225525000Y-79700000D01*
X223250000Y-79700000D01*
X223135195Y-79722836D01*
X223037868Y-79787868D01*
X221787868Y-81037868D01*
X221722836Y-81135195D01*
X221700000Y-81250000D01*
X221700000Y-93125736D01*
X209287868Y-105537868D01*
X209222836Y-105635195D01*
X209200000Y-105750000D01*
X209200000Y-112700000D01*
X208750000Y-112700000D01*
X208635195Y-112722836D01*
X208537868Y-112787868D01*
X208472836Y-112885195D01*
X208450000Y-113000000D01*
X208450000Y-119875736D01*
X207787868Y-120537868D01*
X207722836Y-120635195D01*
X207700000Y-120750000D01*
X203174095Y-120750000D01*
X203135207Y-120655885D01*
X202283598Y-119802789D01*
X201170348Y-119340527D01*
X199964940Y-119339475D01*
X198850885Y-119799793D01*
X197997789Y-120651402D01*
X197535527Y-121764652D01*
X197534475Y-122970060D01*
X197375000Y-122970060D01*
X197375000Y-117625000D01*
X201000000Y-117625000D01*
X201143506Y-117596455D01*
X201265165Y-117515165D01*
X201346455Y-117393506D01*
X201375000Y-117250000D01*
X201375000Y-112750318D01*
X205287816Y-112750318D01*
X205449155Y-113140789D01*
X205747640Y-113439795D01*
X206137828Y-113601815D01*
X206560318Y-113602184D01*
X206950789Y-113440845D01*
X207249795Y-113142360D01*
X207411815Y-112752172D01*
X207412184Y-112329682D01*
X207250845Y-111939211D01*
X206952360Y-111640205D01*
X206562172Y-111478185D01*
X206139682Y-111477816D01*
X205749211Y-111639155D01*
X205450205Y-111937640D01*
X205288185Y-112327828D01*
X205287816Y-112750318D01*
X201375000Y-112750318D01*
X201375000Y-68918824D01*
X201649896Y-68918824D01*
X201700000Y-69040085D01*
X201700000Y-89000000D01*
X201722836Y-89114805D01*
X201787868Y-89212132D01*
X201885195Y-89277164D01*
X202000000Y-89300000D01*
X203375000Y-89300000D01*
X203375000Y-93000000D01*
X203397836Y-93114805D01*
X203462868Y-93212132D01*
X203560195Y-93277164D01*
X203675000Y-93300000D01*
X212950000Y-93300000D01*
X212950000Y-94500000D01*
X212972836Y-94614805D01*
X213037868Y-94712132D01*
X213135195Y-94777164D01*
X213250000Y-94800000D01*
X216000000Y-94800000D01*
X216114805Y-94777164D01*
X216212132Y-94712132D01*
X216277164Y-94614805D01*
X216300000Y-94500000D01*
X216300000Y-93143824D01*
X216474896Y-93143824D01*
X216566048Y-93364429D01*
X216734683Y-93533359D01*
X216955129Y-93624896D01*
X217073959Y-93625000D01*
X217512508Y-94063549D01*
X217581048Y-94229429D01*
X217749683Y-94398359D01*
X217970129Y-94489896D01*
X218208824Y-94490104D01*
X218429429Y-94398952D01*
X218598359Y-94230317D01*
X218689896Y-94009871D01*
X218690104Y-93771176D01*
X218598952Y-93550571D01*
X218430317Y-93381641D01*
X218209871Y-93290104D01*
X217971176Y-93289896D01*
X217949778Y-93298737D01*
X217675001Y-93023961D01*
X217675104Y-92906176D01*
X217583952Y-92685571D01*
X217415317Y-92516641D01*
X217194871Y-92425104D01*
X216956176Y-92424896D01*
X216735571Y-92516048D01*
X216566641Y-92684683D01*
X216475104Y-92905129D01*
X216474896Y-93143824D01*
X216300000Y-93143824D01*
X216300000Y-82078896D01*
X216306487Y-82063274D01*
X216306695Y-81824579D01*
X216300000Y-81808376D01*
X216300000Y-77500000D01*
X216277164Y-77385195D01*
X216212132Y-77287868D01*
X216114805Y-77222836D01*
X216000000Y-77200000D01*
X211800000Y-77200000D01*
X211800000Y-72090318D01*
X220527816Y-72090318D01*
X220689155Y-72480789D01*
X220987640Y-72779795D01*
X221377828Y-72941815D01*
X221800318Y-72942184D01*
X222190789Y-72780845D01*
X222489795Y-72482360D01*
X222651815Y-72092172D01*
X222652184Y-71669682D01*
X222490845Y-71279211D01*
X222192360Y-70980205D01*
X221802172Y-70818185D01*
X221379682Y-70817816D01*
X220989211Y-70979155D01*
X220690205Y-71277640D01*
X220528185Y-71667828D01*
X220527816Y-72090318D01*
X211800000Y-72090318D01*
X211800000Y-68500000D01*
X211776861Y-68384466D01*
X211711573Y-68287310D01*
X211614075Y-68222535D01*
X211499211Y-68200001D01*
X210376737Y-68202955D01*
X210369871Y-68200104D01*
X210131176Y-68199896D01*
X210122152Y-68203625D01*
X206401927Y-68213415D01*
X206369871Y-68200104D01*
X206131176Y-68199896D01*
X206096513Y-68214219D01*
X202427118Y-68223875D01*
X202369871Y-68200104D01*
X202131176Y-68199896D01*
X202070874Y-68224812D01*
X201999211Y-68225001D01*
X201885195Y-68247836D01*
X201787868Y-68312868D01*
X201722836Y-68410195D01*
X201700000Y-68525000D01*
X201700000Y-68559966D01*
X201650104Y-68680129D01*
X201649896Y-68918824D01*
X201375000Y-68918824D01*
X201375000Y-66900000D01*
X226875000Y-66900000D01*
X226875000Y-117250000D01*
M02*
