M48
;DRILL file {KiCad (2017-06-25 revision 6a3c1720b)-makepkg} date 07/11/17 00:24:19
;FORMAT={-:-/ absolute / metric / decimal}
FMAT,2
METRIC,TZ
T1C0.400
T2C0.910
T3C1.000
T4C1.500
T5C1.600
T6C2.690
%
G90
G05
M71
T1
X202.25Y-68.8
X202.35Y-76.8
X202.35Y-78.8
X202.35Y-80.8
X202.35Y-82.8
X202.35Y-84.8
X202.35Y-86.55
X202.35Y-88.05
X202.375Y-72.75
X203.35Y-114.725
X203.375Y-116.475
X203.875Y-72.8
X204.075Y-88.125
X204.25Y-77.3
X204.25Y-78.8
X204.25Y-80.8
X204.25Y-82.8
X204.25Y-84.8
X204.25Y-86.55
X204.25Y-90.8
X204.25Y-92.2
X204.89Y-104.88
X206.1Y-97.09
X206.25Y-68.8
X206.25Y-70.85
X206.25Y-86.55
X206.25Y-87.625
X206.25Y-91.1
X206.25Y-92.2
X206.625Y-96.575
X207.4Y-97.11
X207.46Y-104.9
X208.25Y-77.3
X208.25Y-78.8
X208.25Y-80.8
X208.25Y-82.8
X208.25Y-86.55
X208.25Y-87.5
X208.25Y-88.875
X208.25Y-90.8
X208.25Y-92.2
X208.775Y-95.825
X209.075Y-72.8
X209.075Y-105.025
X209.625Y-117.45
X209.625Y-119.45
X210.25Y-68.8
X210.25Y-78.8
X210.25Y-80.8
X210.25Y-82.8
X210.25Y-86.55
X210.25Y-88.05
X210.25Y-90.8
X210.25Y-92.2
X210.55Y-76.975
X210.75Y-124.4
X210.85Y-70.925
X210.85Y-72.8
X210.85Y-74.8
X210.87Y-97.29
X210.975Y-106.65
X210.975Y-108.65
X210.975Y-110.65
X210.975Y-112.65
X211.05Y-95.825
X211.8Y-97.3
X211.98Y-117.42
X212.13Y-96.76
X212.25Y-78.05
X212.25Y-86.55
X212.25Y-88.05
X212.45Y-92.2
X212.975Y-104.65
X212.975Y-106.65
X212.975Y-108.65
X212.975Y-110.65
X212.975Y-112.65
X213.275Y-118.45
X213.275Y-120.45
X213.275Y-122.45
X214.2Y-106.65
X214.2Y-108.65
X214.2Y-110.65
X214.2Y-112.65
X214.225Y-105.275
X214.25Y-78.05
X214.25Y-86.55
X214.25Y-88.05
X214.325Y-92.2
X214.325Y-102.9
X214.925Y-83.1
X215.475Y-78.5
X215.475Y-80.15
X215.525Y-86.525
X215.525Y-88.025
X215.6Y-92.9
X215.707Y-81.943
X216.15Y-106.975
X216.55Y-91.525
X216.9Y-100.25
X217.04Y-96.83
X217.075Y-93.025
X217.925Y-82.225
X217.95Y-80.9
X218.Y-109.
X218.Y-111.
X218.025Y-100.25
X218.09Y-93.89
X218.6Y-99.075
X218.6Y-102.95
X218.6Y-104.95
X218.6Y-106.95
X219.22Y-84.15
X221.198Y-86.475
X221.225Y-88.7
X222.9Y-102.8
X224.74Y-99.8
X225.04Y-87.91
T2
X209.455Y-121.1
X209.455Y-123.64
X211.995Y-121.1
X211.995Y-123.64
X214.535Y-121.1
X214.535Y-123.64
X217.075Y-121.1
X217.075Y-123.64
X219.615Y-121.1
X219.615Y-123.64
T3
X206.35Y-84.58
X206.35Y-89.66
X206.35Y-107.46
X206.35Y-112.54
X221.59Y-71.88
X221.59Y-107.46
X221.59Y-112.54
T4
X206.3Y-72.875
T5
X203.76Y-70.335
X203.76Y-75.415
X208.84Y-70.335
X208.84Y-75.415
T6
X200.565Y-122.37
X228.505Y-122.37
T0
M30
