%TF.GenerationSoftware,KiCad,Pcbnew,(2017-05-01 revision c8706e9c1)-makepkg*%
%TF.CreationDate,2017-06-26T08:26:11-04:00*%
%TF.ProjectId,pmt-transimpedance-amplifier,706D742D7472616E73696D706564616E,rev?*%
%TF.FileFunction,Copper,L1,Top,Signal*%
%TF.FilePolarity,Positive*%
%FSLAX46Y46*%
G04 Gerber Fmt 4.6, Leading zero omitted, Abs format (unit mm)*
G04 Created by KiCad (PCBNEW (2017-05-01 revision c8706e9c1)-makepkg) date 06/26/17 08:26:11*
%MOMM*%
%LPD*%
G01*
G04 APERTURE LIST*
%ADD10C,0.100000*%
%ADD11R,0.600000X1.550000*%
%ADD12R,1.250000X1.000000*%
%ADD13C,1.524000*%
%ADD14C,5.460000*%
%ADD15R,1.520000X1.520000*%
%ADD16C,1.520000*%
%ADD17R,1.600000X0.410000*%
%ADD18R,1.300000X0.700000*%
%ADD19R,1.000000X1.250000*%
%ADD20C,2.400000*%
%ADD21C,2.500000*%
%ADD22R,0.700000X1.300000*%
%ADD23R,1.060000X0.650000*%
%ADD24C,0.600000*%
%ADD25C,0.250000*%
%ADD26C,0.200000*%
%ADD27C,0.254000*%
G04 APERTURE END LIST*
D10*
D11*
X225405000Y-99600000D03*
X224135000Y-99600000D03*
X222865000Y-99600000D03*
X221595000Y-99600000D03*
X221595000Y-105000000D03*
X222865000Y-105000000D03*
X224135000Y-105000000D03*
X225405000Y-105000000D03*
D12*
X219250000Y-97800000D03*
X219250000Y-99800000D03*
D13*
X206350000Y-112540000D03*
X221590000Y-112540000D03*
X221590000Y-107460000D03*
X206350000Y-107460000D03*
X206350000Y-89660000D03*
X206350000Y-84580000D03*
X221590000Y-71880000D03*
D14*
X234680000Y-106290000D03*
X234680000Y-78350000D03*
D15*
X235950000Y-97400000D03*
D16*
X233410000Y-97400000D03*
X235950000Y-94860000D03*
X233410000Y-94860000D03*
X235950000Y-92320000D03*
X233410000Y-92320000D03*
X235950000Y-89780000D03*
X233410000Y-89780000D03*
X235950000Y-87240000D03*
X233410000Y-87240000D03*
D17*
X222445700Y-85977500D03*
X222445700Y-86612500D03*
X222445700Y-87247500D03*
X222445700Y-87882500D03*
X222445700Y-88517500D03*
X222445700Y-89152500D03*
X222445700Y-89787500D03*
X222445700Y-90422500D03*
X227754300Y-90422500D03*
X227754300Y-89787500D03*
X227754300Y-89152500D03*
X227754300Y-88517500D03*
X227754300Y-87882500D03*
X227754300Y-87247500D03*
X227754300Y-86612500D03*
X227754300Y-85977500D03*
D12*
X207214896Y-95945680D03*
X207214896Y-93945680D03*
X209964896Y-95945680D03*
X209964896Y-93945680D03*
X212314896Y-93945680D03*
X212314896Y-95945680D03*
D18*
X204750000Y-95850000D03*
X204750000Y-93950000D03*
D12*
X227750000Y-91900000D03*
X227750000Y-93900000D03*
D19*
X212300000Y-79580000D03*
X214300000Y-79580000D03*
D20*
X206300000Y-72850000D03*
D21*
X203760000Y-70310000D03*
X208840000Y-70310000D03*
X208840000Y-75390000D03*
X203760000Y-75390000D03*
D22*
X214250000Y-81866000D03*
X212350000Y-81866000D03*
X208472000Y-84660000D03*
X210372000Y-84660000D03*
D11*
X212343000Y-90054000D03*
X213613000Y-90054000D03*
X214883000Y-90054000D03*
X216153000Y-90054000D03*
X216153000Y-84654000D03*
X214883000Y-84654000D03*
X213613000Y-84654000D03*
X212343000Y-84654000D03*
D12*
X209850000Y-107500000D03*
X209850000Y-105500000D03*
X225400000Y-109700000D03*
X225400000Y-107700000D03*
D18*
X214950000Y-94450000D03*
X214950000Y-96350000D03*
D11*
X207302171Y-103489303D03*
X208572171Y-103489303D03*
X209842171Y-103489303D03*
X211112171Y-103489303D03*
X211112171Y-98089303D03*
X209842171Y-98089303D03*
X208572171Y-98089303D03*
X207302171Y-98089303D03*
D23*
X217144970Y-97781312D03*
X217144970Y-99681312D03*
X214944970Y-99681312D03*
X214944970Y-98731312D03*
X214944970Y-97781312D03*
D12*
X220150000Y-92360000D03*
X220150000Y-94360000D03*
X222450000Y-94350000D03*
X222450000Y-92350000D03*
D22*
X218200000Y-92500000D03*
X216300000Y-92500000D03*
D24*
X221250000Y-87900000D03*
X208550000Y-95945680D03*
X211100000Y-95945680D03*
X221250000Y-89750000D03*
X221250000Y-89200000D03*
X218850000Y-100700000D03*
X215950000Y-99050000D03*
X223450000Y-94100000D03*
X218900000Y-94350000D03*
X221350000Y-94350000D03*
X226750000Y-94450000D03*
X221650000Y-98350000D03*
X211200000Y-107850000D03*
X208550000Y-104850000D03*
X212050000Y-104000000D03*
X210200000Y-96950000D03*
X212100000Y-98050000D03*
X212550000Y-97000000D03*
X216500000Y-88500000D03*
X224150000Y-103500000D03*
X223950000Y-109700000D03*
X217450000Y-82200000D03*
X216450000Y-83150000D03*
X233150000Y-91050006D03*
X231981203Y-91509036D03*
X213550000Y-92150000D03*
X215550000Y-80700000D03*
X215550000Y-78000000D03*
X214950000Y-92800000D03*
X210750000Y-82500000D03*
X210750000Y-80250000D03*
X210800000Y-78000000D03*
X210800006Y-75500000D03*
X210749996Y-73000000D03*
X209000000Y-73000000D03*
X203749992Y-73000000D03*
X203500000Y-78500006D03*
X203500000Y-80499996D03*
X203500000Y-82500000D03*
X203550000Y-84799998D03*
X211100000Y-90799996D03*
X208600000Y-90800000D03*
X203500002Y-90700000D03*
X203550000Y-87050000D03*
X206400000Y-86800000D03*
X206400000Y-88250000D03*
X208600012Y-86900000D03*
X212650000Y-86900000D03*
X212650000Y-88150000D03*
X215150000Y-88250000D03*
X206200000Y-69950000D03*
X210800000Y-69950000D03*
X208150000Y-78050000D03*
X208100000Y-80200000D03*
X207900000Y-82550000D03*
X215150000Y-86900000D03*
X211000000Y-86850000D03*
X211050000Y-88600000D03*
X208600000Y-88400000D03*
X203550000Y-89050000D03*
D25*
X222445700Y-87882500D02*
X221267500Y-87882500D01*
X221267500Y-87882500D02*
X221250000Y-87900000D01*
X221250000Y-89750000D02*
X222408200Y-89750000D01*
X222408200Y-89750000D02*
X222445700Y-89787500D01*
X222445700Y-89152500D02*
X221297500Y-89152500D01*
X221297500Y-89152500D02*
X221250000Y-89200000D01*
X222445700Y-89152500D02*
X222445700Y-89787500D01*
X219250000Y-99800000D02*
X219250000Y-100300000D01*
X219250000Y-100300000D02*
X218850000Y-100700000D01*
X214944970Y-98731312D02*
X215631312Y-98731312D01*
X215631312Y-98731312D02*
X215950000Y-99050000D01*
X222450000Y-94350000D02*
X223200000Y-94350000D01*
X223200000Y-94350000D02*
X223450000Y-94100000D01*
X220150000Y-94360000D02*
X218910000Y-94360000D01*
X218910000Y-94360000D02*
X218900000Y-94350000D01*
X221350000Y-94350000D02*
X220160000Y-94350000D01*
X222450000Y-94350000D02*
X221350000Y-94350000D01*
X220160000Y-94350000D02*
X220150000Y-94360000D01*
X227750000Y-93900000D02*
X227300000Y-93900000D01*
X227300000Y-93900000D02*
X226750000Y-94450000D01*
X221595000Y-99600000D02*
X221595000Y-98405000D01*
X221595000Y-98405000D02*
X221650000Y-98350000D01*
X209850000Y-107500000D02*
X210850000Y-107500000D01*
X210850000Y-107500000D02*
X211200000Y-107850000D01*
X208550000Y-104850000D02*
X208550000Y-103511474D01*
X208550000Y-103511474D02*
X208572171Y-103489303D01*
X211112171Y-103489303D02*
X211539303Y-103489303D01*
X211539303Y-103489303D02*
X212050000Y-104000000D01*
X209842171Y-98089303D02*
X209842171Y-97307829D01*
X209842171Y-97307829D02*
X210200000Y-96950000D01*
X209842171Y-98089303D02*
X211112171Y-98089303D01*
X212100000Y-98050000D02*
X211151474Y-98050000D01*
X211151474Y-98050000D02*
X211112171Y-98089303D01*
X212314896Y-95945680D02*
X212314896Y-96764896D01*
X212314896Y-96764896D02*
X212550000Y-97000000D01*
X211100000Y-95945680D02*
X212314896Y-95945680D01*
X209964896Y-95945680D02*
X211100000Y-95945680D01*
X208550000Y-95945680D02*
X209964896Y-95945680D01*
X207214896Y-95945680D02*
X208550000Y-95945680D01*
X222378200Y-87950000D02*
X222445700Y-87882500D01*
X214883000Y-90054000D02*
X214883000Y-89579000D01*
X214883000Y-89579000D02*
X215962000Y-88500000D01*
X215962000Y-88500000D02*
X216500000Y-88500000D01*
X224135000Y-105000000D02*
X224135000Y-103515000D01*
X224135000Y-103515000D02*
X224150000Y-103500000D01*
X225400000Y-109700000D02*
X223950000Y-109700000D01*
X224150000Y-88900000D02*
X223767500Y-88517500D01*
X223767500Y-88517500D02*
X223495700Y-88517500D01*
X223495700Y-88517500D02*
X222445700Y-88517500D01*
X224150000Y-94270002D02*
X224150000Y-88900000D01*
X213484651Y-95500000D02*
X213484651Y-99095383D01*
X213484651Y-94240435D02*
X213484651Y-95500000D01*
X213484651Y-95500000D02*
X222920002Y-95500000D01*
X222920002Y-95500000D02*
X224150000Y-94270002D01*
X212314896Y-93945680D02*
X213189896Y-93945680D01*
X213484651Y-99095383D02*
X214070580Y-99681312D01*
X214164970Y-99681312D02*
X214944970Y-99681312D01*
X213189896Y-93945680D02*
X213484651Y-94240435D01*
X214070580Y-99681312D02*
X214164970Y-99681312D01*
X212343000Y-90054000D02*
X212343000Y-93917576D01*
X212343000Y-93917576D02*
X212314896Y-93945680D01*
X204750000Y-93950000D02*
X207210576Y-93950000D01*
X207210576Y-93950000D02*
X207214896Y-93945680D01*
X209964896Y-93945680D02*
X212314896Y-93945680D01*
X207214896Y-93945680D02*
X208089896Y-93945680D01*
X208089896Y-93945680D02*
X209964896Y-93945680D01*
X216153000Y-90054000D02*
X216153000Y-92353000D01*
X216153000Y-92353000D02*
X216300000Y-92500000D01*
X216154000Y-92354000D02*
X216300000Y-92500000D01*
X217300000Y-83100000D02*
X216066000Y-81866000D01*
X216066000Y-81866000D02*
X214250000Y-81866000D01*
X217300000Y-89457000D02*
X217300000Y-83100000D01*
X216153000Y-90054000D02*
X216703000Y-90054000D01*
X216703000Y-90054000D02*
X217300000Y-89457000D01*
X214300000Y-79580000D02*
X214300000Y-81816000D01*
X214300000Y-81816000D02*
X214250000Y-81866000D01*
X212350000Y-81866000D02*
X212350000Y-79630000D01*
X212350000Y-79630000D02*
X212300000Y-79580000D01*
X212343000Y-84654000D02*
X212343000Y-81873000D01*
X212343000Y-81873000D02*
X212350000Y-81866000D01*
X212343000Y-84654000D02*
X210378000Y-84654000D01*
X210378000Y-84654000D02*
X210372000Y-84660000D01*
X235950000Y-97400000D02*
X235950000Y-96390000D01*
X235950000Y-96390000D02*
X235660000Y-96100000D01*
X235660000Y-96100000D02*
X232200000Y-96100000D01*
X232200000Y-96100000D02*
X226051002Y-102248998D01*
X226051002Y-102248998D02*
X223750000Y-102248998D01*
X225405000Y-103903998D02*
X223750000Y-102248998D01*
X223750000Y-102248998D02*
X222151003Y-100650001D01*
X220150001Y-99725003D02*
X220150001Y-97825001D01*
X220150001Y-97825001D02*
X220125000Y-97800000D01*
X219250000Y-97800000D02*
X220125000Y-97800000D01*
X220150001Y-97825001D02*
X220150001Y-98050001D01*
X220125000Y-97800000D02*
X219900000Y-97800000D01*
X209850000Y-105500000D02*
X215170002Y-105500000D01*
X219900000Y-97800000D02*
X219250000Y-97800000D01*
X215170002Y-105500000D02*
X220150001Y-100520001D01*
X220150001Y-100520001D02*
X220150001Y-98050001D01*
X220150001Y-98050001D02*
X219900000Y-97800000D01*
X225405000Y-105000000D02*
X225405000Y-103903998D01*
X220150001Y-99725003D02*
X220150001Y-98575001D01*
X222151003Y-100650001D02*
X221074999Y-100650001D01*
X221074999Y-100650001D02*
X220150001Y-99725003D01*
X219375000Y-97800000D02*
X219250000Y-97800000D01*
X225400000Y-107700000D02*
X225400000Y-105005000D01*
X225400000Y-105005000D02*
X225405000Y-105000000D01*
X227750000Y-91900000D02*
X227248998Y-91900000D01*
X227248998Y-91900000D02*
X221348998Y-97800000D01*
X221348998Y-97800000D02*
X220125000Y-97800000D01*
X217144970Y-97781312D02*
X219231312Y-97781312D01*
X219231312Y-97781312D02*
X219250000Y-97800000D01*
X207302171Y-103489303D02*
X207302171Y-102464303D01*
X207302171Y-102464303D02*
X207327172Y-102439302D01*
X207327172Y-102439302D02*
X209267170Y-102439302D01*
X209267170Y-102439302D02*
X209842171Y-103014303D01*
X209842171Y-103014303D02*
X209842171Y-103489303D01*
X209850000Y-105500000D02*
X209850000Y-103497132D01*
X209850000Y-103497132D02*
X209842171Y-103489303D01*
X226000000Y-85600000D02*
X222600000Y-82200000D01*
X222600000Y-82200000D02*
X217450000Y-82200000D01*
X226000000Y-89083200D02*
X226000000Y-85600000D01*
X227754300Y-89787500D02*
X226704300Y-89787500D01*
X226704300Y-89787500D02*
X226000000Y-89083200D01*
X227754300Y-90422500D02*
X227754300Y-89787500D01*
X227750000Y-91900000D02*
X227750000Y-90426800D01*
X227750000Y-90426800D02*
X227754300Y-90422500D01*
X214883000Y-84654000D02*
X214883000Y-84179000D01*
X214883000Y-84179000D02*
X215912000Y-83150000D01*
X215912000Y-83150000D02*
X216086998Y-83150000D01*
X216086998Y-83150000D02*
X216450000Y-83150000D01*
X206350000Y-84580000D02*
X206350000Y-72900000D01*
X206350000Y-72900000D02*
X206300000Y-72850000D01*
X206350000Y-84580000D02*
X208392000Y-84580000D01*
X208392000Y-84580000D02*
X208472000Y-84660000D01*
X206300000Y-84630000D02*
X206310000Y-84640000D01*
X208452000Y-84640000D02*
X208472000Y-84660000D01*
X221550000Y-107520000D02*
X221550000Y-105045000D01*
X221550000Y-105045000D02*
X221595000Y-105000000D01*
X233410000Y-94860000D02*
X234240000Y-94860000D01*
X234240000Y-94860000D02*
X235450000Y-93650000D01*
X235450000Y-93650000D02*
X236750000Y-93650000D01*
X207387001Y-113577001D02*
X207111999Y-113301999D01*
X236750000Y-93650000D02*
X238650000Y-95550000D01*
X238650000Y-95550000D02*
X238650000Y-108450000D01*
X238650000Y-108450000D02*
X233522999Y-113577001D01*
X233522999Y-113577001D02*
X207387001Y-113577001D01*
X207111999Y-113301999D02*
X206350000Y-112540000D01*
X235950000Y-87240000D02*
X221590000Y-72880000D01*
X221590000Y-72880000D02*
X221590000Y-71880000D01*
D26*
X235950000Y-92320000D02*
X234420001Y-93849999D01*
X234420001Y-93849999D02*
X231655001Y-93849999D01*
X231655001Y-93849999D02*
X225905000Y-99600000D01*
X225905000Y-99600000D02*
X225405000Y-99600000D01*
X230402500Y-89152500D02*
X227754300Y-89152500D01*
X233500000Y-92250000D02*
X230402500Y-89152500D01*
X233430000Y-92320000D02*
X233500000Y-92250000D01*
X233410000Y-92320000D02*
X233430000Y-92320000D01*
X233574264Y-91050006D02*
X233150000Y-91050006D01*
X234679994Y-91050006D02*
X233574264Y-91050006D01*
X235950000Y-89780000D02*
X234679994Y-91050006D01*
X231681204Y-91809035D02*
X231981203Y-91509036D01*
X227840239Y-95650000D02*
X231681204Y-91809035D01*
X222865000Y-99125000D02*
X226340000Y-95650000D01*
X226340000Y-95650000D02*
X227840239Y-95650000D01*
X222865000Y-99600000D02*
X222865000Y-99125000D01*
X235950000Y-89780000D02*
X234720000Y-88550000D01*
X234720000Y-88550000D02*
X231600186Y-88550000D01*
X231600186Y-88550000D02*
X230932686Y-87882500D01*
X230932686Y-87882500D02*
X228754300Y-87882500D01*
X228754300Y-87882500D02*
X227754300Y-87882500D01*
X233410000Y-89780000D02*
X232335198Y-89780000D01*
X232335198Y-89780000D02*
X231072698Y-88517500D01*
X231072698Y-88517500D02*
X228804300Y-88517500D01*
X228804300Y-88517500D02*
X227754300Y-88517500D01*
X231200000Y-93450000D02*
X228649990Y-96000010D01*
X228649990Y-96000010D02*
X227259990Y-96000010D01*
X227259990Y-96000010D02*
X224135000Y-99125000D01*
X224135000Y-99125000D02*
X224135000Y-99600000D01*
X233410000Y-87240000D02*
X234169999Y-87999999D01*
X234169999Y-87999999D02*
X234695199Y-87999999D01*
X236960001Y-89295199D02*
X236960001Y-90784799D01*
X234695199Y-87999999D02*
X235465199Y-88769999D01*
X235465199Y-88769999D02*
X236434801Y-88769999D01*
X236434801Y-88769999D02*
X236960001Y-89295199D01*
X236960001Y-90784799D02*
X236434801Y-91309999D01*
X236434801Y-91309999D02*
X235240001Y-91309999D01*
X235240001Y-91309999D02*
X234420001Y-92129999D01*
X234420001Y-92804801D02*
X233774802Y-93450000D01*
X234420001Y-92129999D02*
X234420001Y-92804801D01*
X233774802Y-93450000D02*
X231200000Y-93450000D01*
X227754300Y-87247500D02*
X233402500Y-87247500D01*
X233402500Y-87247500D02*
X233410000Y-87240000D01*
D25*
X233410000Y-97400000D02*
X230900000Y-99910000D01*
X230900000Y-99910000D02*
X230900000Y-106850000D01*
X230900000Y-106850000D02*
X225210000Y-112540000D01*
X225210000Y-112540000D02*
X222667630Y-112540000D01*
X222667630Y-112540000D02*
X221590000Y-112540000D01*
X223200000Y-106360000D02*
X223200000Y-110950000D01*
X222865000Y-106025000D02*
X223200000Y-106360000D01*
X222865000Y-105000000D02*
X222865000Y-106025000D01*
X223200000Y-110950000D02*
X221550000Y-112600000D01*
X213550000Y-91725736D02*
X213550000Y-92150000D01*
X212650000Y-88150000D02*
X213550000Y-89050000D01*
X213550000Y-89050000D02*
X213550000Y-91725736D01*
X210800000Y-78000000D02*
X215550000Y-78000000D01*
X210700000Y-82550000D02*
X210750000Y-82500000D01*
X207900000Y-82550000D02*
X210700000Y-82550000D01*
X208100000Y-80200000D02*
X210700000Y-80200000D01*
X210700000Y-80200000D02*
X210750000Y-80250000D01*
X210750000Y-78050000D02*
X210800000Y-78000000D01*
X208150000Y-78050000D02*
X210750000Y-78050000D01*
X210800000Y-75499994D02*
X210800006Y-75500000D01*
X210800000Y-69950000D02*
X210800000Y-75499994D01*
X209000000Y-73000000D02*
X210749996Y-73000000D01*
X203760000Y-70310000D02*
X203760000Y-72989992D01*
X203760000Y-72989992D02*
X203749992Y-73000000D01*
X203500000Y-80499996D02*
X203500000Y-78500006D01*
X203550000Y-82550000D02*
X203500000Y-82500000D01*
X203550000Y-84799998D02*
X203550000Y-82550000D01*
X211050000Y-90749996D02*
X211100000Y-90799996D01*
X211050000Y-88600000D02*
X211050000Y-90749996D01*
X208600000Y-88400000D02*
X208600000Y-90800000D01*
X203924266Y-90700000D02*
X203500002Y-90700000D01*
X205310000Y-90700000D02*
X203924266Y-90700000D01*
X206350000Y-89660000D02*
X205310000Y-90700000D01*
X203550000Y-89050000D02*
X203550000Y-87050000D01*
X206500000Y-86900000D02*
X206400000Y-86800000D01*
X208600012Y-86900000D02*
X206500000Y-86900000D01*
X208500012Y-86800000D02*
X206400000Y-86800000D01*
X206350000Y-88300000D02*
X206400000Y-88250000D01*
X206350000Y-89660000D02*
X206350000Y-88300000D01*
X212600000Y-86850000D02*
X212650000Y-86900000D01*
X211000000Y-86850000D02*
X212600000Y-86850000D01*
X215150000Y-86900000D02*
X215150000Y-88250000D01*
X214950000Y-94450000D02*
X214950000Y-93850000D01*
X213613000Y-92513000D02*
X213613000Y-91079000D01*
X214950000Y-93850000D02*
X213613000Y-92513000D01*
X213613000Y-91079000D02*
X213613000Y-90054000D01*
X217144970Y-99106312D02*
X215819970Y-97781312D01*
X215819970Y-97781312D02*
X215724970Y-97781312D01*
X214944970Y-97781312D02*
X214944970Y-96355030D01*
X214944970Y-96355030D02*
X214950000Y-96350000D01*
X217144970Y-99681312D02*
X217144970Y-99106312D01*
X215724970Y-97781312D02*
X214944970Y-97781312D01*
X222450000Y-92350000D02*
X222450000Y-90426800D01*
X222450000Y-90426800D02*
X222445700Y-90422500D01*
X222423200Y-90400000D02*
X222445700Y-90422500D01*
X220150000Y-92360000D02*
X222440000Y-92360000D01*
X222440000Y-92360000D02*
X222450000Y-92350000D01*
X218200000Y-92500000D02*
X220010000Y-92500000D01*
X220010000Y-92500000D02*
X220150000Y-92360000D01*
X207302171Y-98089303D02*
X206752171Y-98089303D01*
X206752171Y-98089303D02*
X204750000Y-96087132D01*
X204750000Y-96087132D02*
X204750000Y-95850000D01*
X207250171Y-98037303D02*
X207302171Y-98089303D01*
X208572171Y-98089303D02*
X207302171Y-98089303D01*
X208807171Y-97854303D02*
X208572171Y-98089303D01*
D27*
G36*
X211373000Y-77500000D02*
X211382667Y-77548601D01*
X211410197Y-77589803D01*
X211451399Y-77617333D01*
X211500000Y-77627000D01*
X215873000Y-77627000D01*
X215873000Y-81364000D01*
X214984385Y-81364000D01*
X214984385Y-81216000D01*
X214955125Y-81068902D01*
X214871801Y-80944199D01*
X214802000Y-80897559D01*
X214802000Y-80588987D01*
X214947098Y-80560125D01*
X215071801Y-80476801D01*
X215155125Y-80352098D01*
X215184385Y-80205000D01*
X215184385Y-78955000D01*
X215155125Y-78807902D01*
X215071801Y-78683199D01*
X214947098Y-78599875D01*
X214800000Y-78570615D01*
X213800000Y-78570615D01*
X213652902Y-78599875D01*
X213528199Y-78683199D01*
X213444875Y-78807902D01*
X213415615Y-78955000D01*
X213415615Y-80205000D01*
X213444875Y-80352098D01*
X213528199Y-80476801D01*
X213652902Y-80560125D01*
X213798000Y-80588987D01*
X213798000Y-80851904D01*
X213752902Y-80860875D01*
X213628199Y-80944199D01*
X213544875Y-81068902D01*
X213515615Y-81216000D01*
X213515615Y-82516000D01*
X213544875Y-82663098D01*
X213628199Y-82787801D01*
X213752902Y-82871125D01*
X213900000Y-82900385D01*
X214600000Y-82900385D01*
X214747098Y-82871125D01*
X214871801Y-82787801D01*
X214955125Y-82663098D01*
X214984385Y-82516000D01*
X214984385Y-82368000D01*
X215858064Y-82368000D01*
X215873000Y-82382936D01*
X215873000Y-82655757D01*
X215719893Y-82686212D01*
X215557032Y-82795032D01*
X215557030Y-82795035D01*
X214857449Y-83494615D01*
X214583000Y-83494615D01*
X214435902Y-83523875D01*
X214311199Y-83607199D01*
X214227875Y-83731902D01*
X214198615Y-83879000D01*
X214198615Y-85429000D01*
X214227875Y-85576098D01*
X214311199Y-85700801D01*
X214435902Y-85784125D01*
X214583000Y-85813385D01*
X215183000Y-85813385D01*
X215330098Y-85784125D01*
X215454801Y-85700801D01*
X215518000Y-85606217D01*
X215581199Y-85700801D01*
X215705902Y-85784125D01*
X215853000Y-85813385D01*
X215873000Y-85813385D01*
X215873000Y-88015703D01*
X215769893Y-88036212D01*
X215607032Y-88145032D01*
X215607030Y-88145035D01*
X214857449Y-88894615D01*
X214583000Y-88894615D01*
X214435902Y-88923875D01*
X214311199Y-89007199D01*
X214227875Y-89131902D01*
X214198615Y-89279000D01*
X214198615Y-90829000D01*
X214227875Y-90976098D01*
X214311199Y-91100801D01*
X214435902Y-91184125D01*
X214583000Y-91213385D01*
X215183000Y-91213385D01*
X215330098Y-91184125D01*
X215454801Y-91100801D01*
X215518000Y-91006217D01*
X215581199Y-91100801D01*
X215651000Y-91147441D01*
X215651000Y-91618905D01*
X215594875Y-91702902D01*
X215565615Y-91850000D01*
X215565615Y-93150000D01*
X215594875Y-93297098D01*
X215678199Y-93421801D01*
X215802902Y-93505125D01*
X215873000Y-93519069D01*
X215873000Y-94821656D01*
X213986651Y-94801800D01*
X213986651Y-94240440D01*
X213986652Y-94240435D01*
X213948439Y-94048328D01*
X213879852Y-93945680D01*
X213839619Y-93885467D01*
X213839616Y-93885465D01*
X213544864Y-93590712D01*
X213382003Y-93481892D01*
X213324281Y-93470410D01*
X213324281Y-93445680D01*
X213295021Y-93298582D01*
X213211697Y-93173879D01*
X213086994Y-93090555D01*
X212939896Y-93061295D01*
X212845000Y-93061295D01*
X212845000Y-91147441D01*
X212914801Y-91100801D01*
X212998125Y-90976098D01*
X213027385Y-90829000D01*
X213027385Y-89279000D01*
X212998125Y-89131902D01*
X212914801Y-89007199D01*
X212790098Y-88923875D01*
X212643000Y-88894615D01*
X212043000Y-88894615D01*
X211895902Y-88923875D01*
X211771199Y-89007199D01*
X211687875Y-89131902D01*
X211658615Y-89279000D01*
X211658615Y-90829000D01*
X211687875Y-90976098D01*
X211771199Y-91100801D01*
X211841000Y-91147441D01*
X211841000Y-93061295D01*
X211689896Y-93061295D01*
X211542798Y-93090555D01*
X211418095Y-93173879D01*
X211377000Y-93235382D01*
X211377000Y-91800000D01*
X211367333Y-91751399D01*
X211339803Y-91710197D01*
X211298601Y-91682667D01*
X211250000Y-91673000D01*
X201677273Y-91673000D01*
X201716995Y-73162308D01*
X204722727Y-73162308D01*
X204962305Y-73742132D01*
X205405535Y-74186136D01*
X205848000Y-74369863D01*
X205848000Y-83555023D01*
X205705651Y-83613840D01*
X205384966Y-83933966D01*
X205211198Y-84352445D01*
X205210803Y-84805567D01*
X205383840Y-85224349D01*
X205703966Y-85545034D01*
X206122445Y-85718802D01*
X206575567Y-85719197D01*
X206994349Y-85546160D01*
X207315034Y-85226034D01*
X207374842Y-85082000D01*
X207737615Y-85082000D01*
X207737615Y-85310000D01*
X207766875Y-85457098D01*
X207850199Y-85581801D01*
X207974902Y-85665125D01*
X208122000Y-85694385D01*
X208822000Y-85694385D01*
X208969098Y-85665125D01*
X209093801Y-85581801D01*
X209177125Y-85457098D01*
X209206385Y-85310000D01*
X209206385Y-84010000D01*
X209637615Y-84010000D01*
X209637615Y-85310000D01*
X209666875Y-85457098D01*
X209750199Y-85581801D01*
X209874902Y-85665125D01*
X210022000Y-85694385D01*
X210722000Y-85694385D01*
X210869098Y-85665125D01*
X210993801Y-85581801D01*
X211077125Y-85457098D01*
X211106385Y-85310000D01*
X211106385Y-85156000D01*
X211658615Y-85156000D01*
X211658615Y-85429000D01*
X211687875Y-85576098D01*
X211771199Y-85700801D01*
X211895902Y-85784125D01*
X212043000Y-85813385D01*
X212643000Y-85813385D01*
X212790098Y-85784125D01*
X212914801Y-85700801D01*
X212998125Y-85576098D01*
X213027385Y-85429000D01*
X213027385Y-83879000D01*
X212998125Y-83731902D01*
X212914801Y-83607199D01*
X212845000Y-83560559D01*
X212845000Y-82871542D01*
X212847098Y-82871125D01*
X212971801Y-82787801D01*
X213055125Y-82663098D01*
X213084385Y-82516000D01*
X213084385Y-81216000D01*
X213055125Y-81068902D01*
X212971801Y-80944199D01*
X212852000Y-80864150D01*
X212852000Y-80579041D01*
X212947098Y-80560125D01*
X213071801Y-80476801D01*
X213155125Y-80352098D01*
X213184385Y-80205000D01*
X213184385Y-78955000D01*
X213155125Y-78807902D01*
X213071801Y-78683199D01*
X212947098Y-78599875D01*
X212800000Y-78570615D01*
X211800000Y-78570615D01*
X211652902Y-78599875D01*
X211528199Y-78683199D01*
X211444875Y-78807902D01*
X211415615Y-78955000D01*
X211415615Y-80205000D01*
X211444875Y-80352098D01*
X211528199Y-80476801D01*
X211652902Y-80560125D01*
X211800000Y-80589385D01*
X211848000Y-80589385D01*
X211848000Y-80864150D01*
X211728199Y-80944199D01*
X211644875Y-81068902D01*
X211615615Y-81216000D01*
X211615615Y-82516000D01*
X211644875Y-82663098D01*
X211728199Y-82787801D01*
X211841000Y-82863172D01*
X211841000Y-83560559D01*
X211771199Y-83607199D01*
X211687875Y-83731902D01*
X211658615Y-83879000D01*
X211658615Y-84152000D01*
X211106385Y-84152000D01*
X211106385Y-84010000D01*
X211077125Y-83862902D01*
X210993801Y-83738199D01*
X210869098Y-83654875D01*
X210722000Y-83625615D01*
X210022000Y-83625615D01*
X209874902Y-83654875D01*
X209750199Y-83738199D01*
X209666875Y-83862902D01*
X209637615Y-84010000D01*
X209206385Y-84010000D01*
X209177125Y-83862902D01*
X209093801Y-83738199D01*
X208969098Y-83654875D01*
X208822000Y-83625615D01*
X208122000Y-83625615D01*
X207974902Y-83654875D01*
X207850199Y-83738199D01*
X207766875Y-83862902D01*
X207737615Y-84010000D01*
X207737615Y-84078000D01*
X207374977Y-84078000D01*
X207316160Y-83935651D01*
X206996034Y-83614966D01*
X206852000Y-83555158D01*
X206852000Y-74328234D01*
X207192132Y-74187695D01*
X207636136Y-73744465D01*
X207876725Y-73165061D01*
X207877273Y-72537692D01*
X207637695Y-71957868D01*
X207194465Y-71513864D01*
X206615061Y-71273275D01*
X205987692Y-71272727D01*
X205407868Y-71512305D01*
X204963864Y-71955535D01*
X204723275Y-72534939D01*
X204722727Y-73162308D01*
X201716995Y-73162308D01*
X201726728Y-68627000D01*
X211373000Y-68627000D01*
X211373000Y-77500000D01*
X211373000Y-77500000D01*
G37*
X211373000Y-77500000D02*
X211382667Y-77548601D01*
X211410197Y-77589803D01*
X211451399Y-77617333D01*
X211500000Y-77627000D01*
X215873000Y-77627000D01*
X215873000Y-81364000D01*
X214984385Y-81364000D01*
X214984385Y-81216000D01*
X214955125Y-81068902D01*
X214871801Y-80944199D01*
X214802000Y-80897559D01*
X214802000Y-80588987D01*
X214947098Y-80560125D01*
X215071801Y-80476801D01*
X215155125Y-80352098D01*
X215184385Y-80205000D01*
X215184385Y-78955000D01*
X215155125Y-78807902D01*
X215071801Y-78683199D01*
X214947098Y-78599875D01*
X214800000Y-78570615D01*
X213800000Y-78570615D01*
X213652902Y-78599875D01*
X213528199Y-78683199D01*
X213444875Y-78807902D01*
X213415615Y-78955000D01*
X213415615Y-80205000D01*
X213444875Y-80352098D01*
X213528199Y-80476801D01*
X213652902Y-80560125D01*
X213798000Y-80588987D01*
X213798000Y-80851904D01*
X213752902Y-80860875D01*
X213628199Y-80944199D01*
X213544875Y-81068902D01*
X213515615Y-81216000D01*
X213515615Y-82516000D01*
X213544875Y-82663098D01*
X213628199Y-82787801D01*
X213752902Y-82871125D01*
X213900000Y-82900385D01*
X214600000Y-82900385D01*
X214747098Y-82871125D01*
X214871801Y-82787801D01*
X214955125Y-82663098D01*
X214984385Y-82516000D01*
X214984385Y-82368000D01*
X215858064Y-82368000D01*
X215873000Y-82382936D01*
X215873000Y-82655757D01*
X215719893Y-82686212D01*
X215557032Y-82795032D01*
X215557030Y-82795035D01*
X214857449Y-83494615D01*
X214583000Y-83494615D01*
X214435902Y-83523875D01*
X214311199Y-83607199D01*
X214227875Y-83731902D01*
X214198615Y-83879000D01*
X214198615Y-85429000D01*
X214227875Y-85576098D01*
X214311199Y-85700801D01*
X214435902Y-85784125D01*
X214583000Y-85813385D01*
X215183000Y-85813385D01*
X215330098Y-85784125D01*
X215454801Y-85700801D01*
X215518000Y-85606217D01*
X215581199Y-85700801D01*
X215705902Y-85784125D01*
X215853000Y-85813385D01*
X215873000Y-85813385D01*
X215873000Y-88015703D01*
X215769893Y-88036212D01*
X215607032Y-88145032D01*
X215607030Y-88145035D01*
X214857449Y-88894615D01*
X214583000Y-88894615D01*
X214435902Y-88923875D01*
X214311199Y-89007199D01*
X214227875Y-89131902D01*
X214198615Y-89279000D01*
X214198615Y-90829000D01*
X214227875Y-90976098D01*
X214311199Y-91100801D01*
X214435902Y-91184125D01*
X214583000Y-91213385D01*
X215183000Y-91213385D01*
X215330098Y-91184125D01*
X215454801Y-91100801D01*
X215518000Y-91006217D01*
X215581199Y-91100801D01*
X215651000Y-91147441D01*
X215651000Y-91618905D01*
X215594875Y-91702902D01*
X215565615Y-91850000D01*
X215565615Y-93150000D01*
X215594875Y-93297098D01*
X215678199Y-93421801D01*
X215802902Y-93505125D01*
X215873000Y-93519069D01*
X215873000Y-94821656D01*
X213986651Y-94801800D01*
X213986651Y-94240440D01*
X213986652Y-94240435D01*
X213948439Y-94048328D01*
X213879852Y-93945680D01*
X213839619Y-93885467D01*
X213839616Y-93885465D01*
X213544864Y-93590712D01*
X213382003Y-93481892D01*
X213324281Y-93470410D01*
X213324281Y-93445680D01*
X213295021Y-93298582D01*
X213211697Y-93173879D01*
X213086994Y-93090555D01*
X212939896Y-93061295D01*
X212845000Y-93061295D01*
X212845000Y-91147441D01*
X212914801Y-91100801D01*
X212998125Y-90976098D01*
X213027385Y-90829000D01*
X213027385Y-89279000D01*
X212998125Y-89131902D01*
X212914801Y-89007199D01*
X212790098Y-88923875D01*
X212643000Y-88894615D01*
X212043000Y-88894615D01*
X211895902Y-88923875D01*
X211771199Y-89007199D01*
X211687875Y-89131902D01*
X211658615Y-89279000D01*
X211658615Y-90829000D01*
X211687875Y-90976098D01*
X211771199Y-91100801D01*
X211841000Y-91147441D01*
X211841000Y-93061295D01*
X211689896Y-93061295D01*
X211542798Y-93090555D01*
X211418095Y-93173879D01*
X211377000Y-93235382D01*
X211377000Y-91800000D01*
X211367333Y-91751399D01*
X211339803Y-91710197D01*
X211298601Y-91682667D01*
X211250000Y-91673000D01*
X201677273Y-91673000D01*
X201716995Y-73162308D01*
X204722727Y-73162308D01*
X204962305Y-73742132D01*
X205405535Y-74186136D01*
X205848000Y-74369863D01*
X205848000Y-83555023D01*
X205705651Y-83613840D01*
X205384966Y-83933966D01*
X205211198Y-84352445D01*
X205210803Y-84805567D01*
X205383840Y-85224349D01*
X205703966Y-85545034D01*
X206122445Y-85718802D01*
X206575567Y-85719197D01*
X206994349Y-85546160D01*
X207315034Y-85226034D01*
X207374842Y-85082000D01*
X207737615Y-85082000D01*
X207737615Y-85310000D01*
X207766875Y-85457098D01*
X207850199Y-85581801D01*
X207974902Y-85665125D01*
X208122000Y-85694385D01*
X208822000Y-85694385D01*
X208969098Y-85665125D01*
X209093801Y-85581801D01*
X209177125Y-85457098D01*
X209206385Y-85310000D01*
X209206385Y-84010000D01*
X209637615Y-84010000D01*
X209637615Y-85310000D01*
X209666875Y-85457098D01*
X209750199Y-85581801D01*
X209874902Y-85665125D01*
X210022000Y-85694385D01*
X210722000Y-85694385D01*
X210869098Y-85665125D01*
X210993801Y-85581801D01*
X211077125Y-85457098D01*
X211106385Y-85310000D01*
X211106385Y-85156000D01*
X211658615Y-85156000D01*
X211658615Y-85429000D01*
X211687875Y-85576098D01*
X211771199Y-85700801D01*
X211895902Y-85784125D01*
X212043000Y-85813385D01*
X212643000Y-85813385D01*
X212790098Y-85784125D01*
X212914801Y-85700801D01*
X212998125Y-85576098D01*
X213027385Y-85429000D01*
X213027385Y-83879000D01*
X212998125Y-83731902D01*
X212914801Y-83607199D01*
X212845000Y-83560559D01*
X212845000Y-82871542D01*
X212847098Y-82871125D01*
X212971801Y-82787801D01*
X213055125Y-82663098D01*
X213084385Y-82516000D01*
X213084385Y-81216000D01*
X213055125Y-81068902D01*
X212971801Y-80944199D01*
X212852000Y-80864150D01*
X212852000Y-80579041D01*
X212947098Y-80560125D01*
X213071801Y-80476801D01*
X213155125Y-80352098D01*
X213184385Y-80205000D01*
X213184385Y-78955000D01*
X213155125Y-78807902D01*
X213071801Y-78683199D01*
X212947098Y-78599875D01*
X212800000Y-78570615D01*
X211800000Y-78570615D01*
X211652902Y-78599875D01*
X211528199Y-78683199D01*
X211444875Y-78807902D01*
X211415615Y-78955000D01*
X211415615Y-80205000D01*
X211444875Y-80352098D01*
X211528199Y-80476801D01*
X211652902Y-80560125D01*
X211800000Y-80589385D01*
X211848000Y-80589385D01*
X211848000Y-80864150D01*
X211728199Y-80944199D01*
X211644875Y-81068902D01*
X211615615Y-81216000D01*
X211615615Y-82516000D01*
X211644875Y-82663098D01*
X211728199Y-82787801D01*
X211841000Y-82863172D01*
X211841000Y-83560559D01*
X211771199Y-83607199D01*
X211687875Y-83731902D01*
X211658615Y-83879000D01*
X211658615Y-84152000D01*
X211106385Y-84152000D01*
X211106385Y-84010000D01*
X211077125Y-83862902D01*
X210993801Y-83738199D01*
X210869098Y-83654875D01*
X210722000Y-83625615D01*
X210022000Y-83625615D01*
X209874902Y-83654875D01*
X209750199Y-83738199D01*
X209666875Y-83862902D01*
X209637615Y-84010000D01*
X209206385Y-84010000D01*
X209177125Y-83862902D01*
X209093801Y-83738199D01*
X208969098Y-83654875D01*
X208822000Y-83625615D01*
X208122000Y-83625615D01*
X207974902Y-83654875D01*
X207850199Y-83738199D01*
X207766875Y-83862902D01*
X207737615Y-84010000D01*
X207737615Y-84078000D01*
X207374977Y-84078000D01*
X207316160Y-83935651D01*
X206996034Y-83614966D01*
X206852000Y-83555158D01*
X206852000Y-74328234D01*
X207192132Y-74187695D01*
X207636136Y-73744465D01*
X207876725Y-73165061D01*
X207877273Y-72537692D01*
X207637695Y-71957868D01*
X207194465Y-71513864D01*
X206615061Y-71273275D01*
X205987692Y-71272727D01*
X205407868Y-71512305D01*
X204963864Y-71955535D01*
X204723275Y-72534939D01*
X204722727Y-73162308D01*
X201716995Y-73162308D01*
X201726728Y-68627000D01*
X211373000Y-68627000D01*
X211373000Y-77500000D01*
M02*
