%TF.GenerationSoftware,KiCad,Pcbnew,(2017-05-01 revision c8706e9c1)-makepkg*%
%TF.CreationDate,2017-06-26T08:26:11-04:00*%
%TF.ProjectId,pmt-transimpedance-amplifier,706D742D7472616E73696D706564616E,rev?*%
%TF.FileFunction,Legend,Top*%
%TF.FilePolarity,Positive*%
%FSLAX46Y46*%
G04 Gerber Fmt 4.6, Leading zero omitted, Abs format (unit mm)*
G04 Created by KiCad (PCBNEW (2017-05-01 revision c8706e9c1)-makepkg) date 06/26/17 08:26:11*
%MOMM*%
%LPD*%
G01*
G04 APERTURE LIST*
%ADD10C,0.100000*%
%ADD11C,0.150000*%
%ADD12C,0.120000*%
%ADD13C,0.381000*%
%ADD14C,0.254000*%
G04 APERTURE END LIST*
D10*
D11*
X226075000Y-100225000D02*
X226025000Y-100225000D01*
X226075000Y-104375000D02*
X225930000Y-104375000D01*
X220925000Y-104375000D02*
X221070000Y-104375000D01*
X220925000Y-100225000D02*
X221070000Y-100225000D01*
X226075000Y-100225000D02*
X226075000Y-104375000D01*
X220925000Y-100225000D02*
X220925000Y-104375000D01*
X226025000Y-100225000D02*
X226025000Y-98825000D01*
D12*
X220100000Y-99300000D02*
X220100000Y-98300000D01*
X218400000Y-98300000D02*
X218400000Y-99300000D01*
D11*
X201590000Y-66880000D02*
X201590000Y-117880000D01*
X201590000Y-117880000D02*
X226590000Y-117880000D01*
X226590000Y-66880000D02*
X226590000Y-117880000D01*
X201590000Y-66880000D02*
X226590000Y-66880000D01*
D12*
X235950000Y-98920000D02*
X235190000Y-100190000D01*
X235190000Y-100190000D02*
X236710000Y-100190000D01*
X236710000Y-100190000D02*
X235950000Y-98920000D01*
X230240000Y-109140000D02*
X230240000Y-75500000D01*
X230240000Y-109140000D02*
X239120000Y-109140000D01*
X239120000Y-75500000D02*
X230240000Y-75500000D01*
X239120000Y-75500000D02*
X239120000Y-109140000D01*
D11*
X223245700Y-90875000D02*
X226954300Y-90875000D01*
X221575000Y-85475000D02*
X226958600Y-85475000D01*
D12*
X206364896Y-94445680D02*
X206364896Y-95445680D01*
X208064896Y-95445680D02*
X208064896Y-94445680D01*
X209114896Y-94445680D02*
X209114896Y-95445680D01*
X210814896Y-95445680D02*
X210814896Y-94445680D01*
X213164896Y-95445680D02*
X213164896Y-94445680D01*
X211464896Y-94445680D02*
X211464896Y-95445680D01*
X205630000Y-94300000D02*
X205630000Y-95500000D01*
X203870000Y-95500000D02*
X203870000Y-94300000D01*
X228600000Y-93400000D02*
X228600000Y-92400000D01*
X226900000Y-92400000D02*
X226900000Y-93400000D01*
X213800000Y-78730000D02*
X212800000Y-78730000D01*
X212800000Y-80430000D02*
X213800000Y-80430000D01*
D13*
X210300000Y-68850000D02*
X202300000Y-68850000D01*
X202300000Y-68850000D02*
X202300000Y-76850000D01*
X202300000Y-76850000D02*
X210300000Y-76850000D01*
X210300000Y-76850000D02*
X210300000Y-68850000D01*
D12*
X212700000Y-80986000D02*
X213900000Y-80986000D01*
X213900000Y-82746000D02*
X212700000Y-82746000D01*
X210022000Y-85540000D02*
X208822000Y-85540000D01*
X208822000Y-83780000D02*
X210022000Y-83780000D01*
D11*
X211673000Y-89429000D02*
X211723000Y-89429000D01*
X211673000Y-85279000D02*
X211818000Y-85279000D01*
X216823000Y-85279000D02*
X216678000Y-85279000D01*
X216823000Y-89429000D02*
X216678000Y-89429000D01*
X211673000Y-89429000D02*
X211673000Y-85279000D01*
X216823000Y-89429000D02*
X216823000Y-85279000D01*
X211723000Y-89429000D02*
X211723000Y-90829000D01*
D12*
X209000000Y-106000000D02*
X209000000Y-107000000D01*
X210700000Y-107000000D02*
X210700000Y-106000000D01*
X224550000Y-108200000D02*
X224550000Y-109200000D01*
X226250000Y-109200000D02*
X226250000Y-108200000D01*
X214070000Y-96000000D02*
X214070000Y-94800000D01*
X215830000Y-94800000D02*
X215830000Y-96000000D01*
D11*
X206632171Y-102864303D02*
X206682171Y-102864303D01*
X206632171Y-98714303D02*
X206777171Y-98714303D01*
X211782171Y-98714303D02*
X211637171Y-98714303D01*
X211782171Y-102864303D02*
X211637171Y-102864303D01*
X206632171Y-102864303D02*
X206632171Y-98714303D01*
X211782171Y-102864303D02*
X211782171Y-98714303D01*
X206682171Y-102864303D02*
X206682171Y-104264303D01*
D12*
X216944970Y-97121312D02*
X214494970Y-97121312D01*
X215144970Y-100341312D02*
X216944970Y-100341312D01*
X221000000Y-93860000D02*
X221000000Y-92860000D01*
X219300000Y-92860000D02*
X219300000Y-93860000D01*
X221600000Y-92850000D02*
X221600000Y-93850000D01*
X223300000Y-93850000D02*
X223300000Y-92850000D01*
X216650000Y-91620000D02*
X217850000Y-91620000D01*
X217850000Y-93380000D02*
X216650000Y-93380000D01*
D11*
X222352380Y-98161904D02*
X223161904Y-98161904D01*
X223257142Y-98114285D01*
X223304761Y-98066666D01*
X223352380Y-97971428D01*
X223352380Y-97780952D01*
X223304761Y-97685714D01*
X223257142Y-97638095D01*
X223161904Y-97590476D01*
X222352380Y-97590476D01*
X222352380Y-96638095D02*
X222352380Y-97114285D01*
X222828571Y-97161904D01*
X222780952Y-97114285D01*
X222733333Y-97019047D01*
X222733333Y-96780952D01*
X222780952Y-96685714D01*
X222828571Y-96638095D01*
X222923809Y-96590476D01*
X223161904Y-96590476D01*
X223257142Y-96638095D01*
X223304761Y-96685714D01*
X223352380Y-96780952D01*
X223352380Y-97019047D01*
X223304761Y-97114285D01*
X223257142Y-97161904D01*
X219657142Y-102166666D02*
X219704761Y-102214285D01*
X219752380Y-102357142D01*
X219752380Y-102452380D01*
X219704761Y-102595238D01*
X219609523Y-102690476D01*
X219514285Y-102738095D01*
X219323809Y-102785714D01*
X219180952Y-102785714D01*
X218990476Y-102738095D01*
X218895238Y-102690476D01*
X218800000Y-102595238D01*
X218752380Y-102452380D01*
X218752380Y-102357142D01*
X218800000Y-102214285D01*
X218847619Y-102166666D01*
X218752380Y-101309523D02*
X218752380Y-101500000D01*
X218800000Y-101595238D01*
X218847619Y-101642857D01*
X218990476Y-101738095D01*
X219180952Y-101785714D01*
X219561904Y-101785714D01*
X219657142Y-101738095D01*
X219704761Y-101690476D01*
X219752380Y-101595238D01*
X219752380Y-101404761D01*
X219704761Y-101309523D01*
X219657142Y-101261904D01*
X219561904Y-101214285D01*
X219323809Y-101214285D01*
X219228571Y-101261904D01*
X219180952Y-101309523D01*
X219133333Y-101404761D01*
X219133333Y-101595238D01*
X219180952Y-101690476D01*
X219228571Y-101738095D01*
X219323809Y-101785714D01*
X220285714Y-69952380D02*
X220285714Y-68952380D01*
X220666666Y-68952380D01*
X220761904Y-69000000D01*
X220809523Y-69047619D01*
X220857142Y-69142857D01*
X220857142Y-69285714D01*
X220809523Y-69380952D01*
X220761904Y-69428571D01*
X220666666Y-69476190D01*
X220285714Y-69476190D01*
X221285714Y-69952380D02*
X221285714Y-68952380D01*
X221619047Y-69666666D01*
X221952380Y-68952380D01*
X221952380Y-69952380D01*
X222285714Y-68952380D02*
X222857142Y-68952380D01*
X222571428Y-69952380D02*
X222571428Y-68952380D01*
X232852380Y-99883333D02*
X233566666Y-99883333D01*
X233709523Y-99930952D01*
X233804761Y-100026190D01*
X233852380Y-100169047D01*
X233852380Y-100264285D01*
X232852380Y-98930952D02*
X232852380Y-99407142D01*
X233328571Y-99454761D01*
X233280952Y-99407142D01*
X233233333Y-99311904D01*
X233233333Y-99073809D01*
X233280952Y-98978571D01*
X233328571Y-98930952D01*
X233423809Y-98883333D01*
X233661904Y-98883333D01*
X233757142Y-98930952D01*
X233804761Y-98978571D01*
X233852380Y-99073809D01*
X233852380Y-99311904D01*
X233804761Y-99407142D01*
X233757142Y-99454761D01*
X223385714Y-84866666D02*
X223861904Y-84866666D01*
X223290476Y-85152380D02*
X223623809Y-84152380D01*
X223957142Y-85152380D01*
X224290476Y-85152380D02*
X224290476Y-84152380D01*
X224528571Y-84152380D01*
X224671428Y-84200000D01*
X224766666Y-84295238D01*
X224814285Y-84390476D01*
X224861904Y-84580952D01*
X224861904Y-84723809D01*
X224814285Y-84914285D01*
X224766666Y-85009523D01*
X224671428Y-85104761D01*
X224528571Y-85152380D01*
X224290476Y-85152380D01*
X225861904Y-85057142D02*
X225814285Y-85104761D01*
X225671428Y-85152380D01*
X225576190Y-85152380D01*
X225433333Y-85104761D01*
X225338095Y-85009523D01*
X225290476Y-84914285D01*
X225242857Y-84723809D01*
X225242857Y-84580952D01*
X225290476Y-84390476D01*
X225338095Y-84295238D01*
X225433333Y-84200000D01*
X225576190Y-84152380D01*
X225671428Y-84152380D01*
X225814285Y-84200000D01*
X225861904Y-84247619D01*
X226814285Y-85152380D02*
X226242857Y-85152380D01*
X226528571Y-85152380D02*
X226528571Y-84152380D01*
X226433333Y-84295238D01*
X226338095Y-84390476D01*
X226242857Y-84438095D01*
X207148229Y-92752822D02*
X207100610Y-92800441D01*
X206957753Y-92848060D01*
X206862515Y-92848060D01*
X206719657Y-92800441D01*
X206624419Y-92705203D01*
X206576800Y-92609965D01*
X206529181Y-92419489D01*
X206529181Y-92276632D01*
X206576800Y-92086156D01*
X206624419Y-91990918D01*
X206719657Y-91895680D01*
X206862515Y-91848060D01*
X206957753Y-91848060D01*
X207100610Y-91895680D01*
X207148229Y-91943299D01*
X207481562Y-91848060D02*
X208100610Y-91848060D01*
X207767276Y-92229013D01*
X207910134Y-92229013D01*
X208005372Y-92276632D01*
X208052991Y-92324251D01*
X208100610Y-92419489D01*
X208100610Y-92657584D01*
X208052991Y-92752822D01*
X208005372Y-92800441D01*
X207910134Y-92848060D01*
X207624419Y-92848060D01*
X207529181Y-92800441D01*
X207481562Y-92752822D01*
X209798229Y-92802822D02*
X209750610Y-92850441D01*
X209607753Y-92898060D01*
X209512515Y-92898060D01*
X209369657Y-92850441D01*
X209274419Y-92755203D01*
X209226800Y-92659965D01*
X209179181Y-92469489D01*
X209179181Y-92326632D01*
X209226800Y-92136156D01*
X209274419Y-92040918D01*
X209369657Y-91945680D01*
X209512515Y-91898060D01*
X209607753Y-91898060D01*
X209750610Y-91945680D01*
X209798229Y-91993299D01*
X210131562Y-91898060D02*
X210798229Y-91898060D01*
X210369657Y-92898060D01*
X212148229Y-92802822D02*
X212100610Y-92850441D01*
X211957753Y-92898060D01*
X211862515Y-92898060D01*
X211719657Y-92850441D01*
X211624419Y-92755203D01*
X211576800Y-92659965D01*
X211529181Y-92469489D01*
X211529181Y-92326632D01*
X211576800Y-92136156D01*
X211624419Y-92040918D01*
X211719657Y-91945680D01*
X211862515Y-91898060D01*
X211957753Y-91898060D01*
X212100610Y-91945680D01*
X212148229Y-91993299D01*
X212719657Y-92326632D02*
X212624419Y-92279013D01*
X212576800Y-92231394D01*
X212529181Y-92136156D01*
X212529181Y-92088537D01*
X212576800Y-91993299D01*
X212624419Y-91945680D01*
X212719657Y-91898060D01*
X212910134Y-91898060D01*
X213005372Y-91945680D01*
X213052991Y-91993299D01*
X213100610Y-92088537D01*
X213100610Y-92136156D01*
X213052991Y-92231394D01*
X213005372Y-92279013D01*
X212910134Y-92326632D01*
X212719657Y-92326632D01*
X212624419Y-92374251D01*
X212576800Y-92421870D01*
X212529181Y-92517108D01*
X212529181Y-92707584D01*
X212576800Y-92802822D01*
X212624419Y-92850441D01*
X212719657Y-92898060D01*
X212910134Y-92898060D01*
X213005372Y-92850441D01*
X213052991Y-92802822D01*
X213100610Y-92707584D01*
X213100610Y-92517108D01*
X213052991Y-92421870D01*
X213005372Y-92374251D01*
X212910134Y-92326632D01*
X204583333Y-92902380D02*
X204250000Y-92426190D01*
X204011904Y-92902380D02*
X204011904Y-91902380D01*
X204392857Y-91902380D01*
X204488095Y-91950000D01*
X204535714Y-91997619D01*
X204583333Y-92092857D01*
X204583333Y-92235714D01*
X204535714Y-92330952D01*
X204488095Y-92378571D01*
X204392857Y-92426190D01*
X204011904Y-92426190D01*
X205440476Y-91902380D02*
X205250000Y-91902380D01*
X205154761Y-91950000D01*
X205107142Y-91997619D01*
X205011904Y-92140476D01*
X204964285Y-92330952D01*
X204964285Y-92711904D01*
X205011904Y-92807142D01*
X205059523Y-92854761D01*
X205154761Y-92902380D01*
X205345238Y-92902380D01*
X205440476Y-92854761D01*
X205488095Y-92807142D01*
X205535714Y-92711904D01*
X205535714Y-92473809D01*
X205488095Y-92378571D01*
X205440476Y-92330952D01*
X205345238Y-92283333D01*
X205154761Y-92283333D01*
X205059523Y-92330952D01*
X205011904Y-92378571D01*
X204964285Y-92473809D01*
X229707142Y-93066666D02*
X229754761Y-93114285D01*
X229802380Y-93257142D01*
X229802380Y-93352380D01*
X229754761Y-93495238D01*
X229659523Y-93590476D01*
X229564285Y-93638095D01*
X229373809Y-93685714D01*
X229230952Y-93685714D01*
X229040476Y-93638095D01*
X228945238Y-93590476D01*
X228850000Y-93495238D01*
X228802380Y-93352380D01*
X228802380Y-93257142D01*
X228850000Y-93114285D01*
X228897619Y-93066666D01*
X229802380Y-92114285D02*
X229802380Y-92685714D01*
X229802380Y-92400000D02*
X228802380Y-92400000D01*
X228945238Y-92495238D01*
X229040476Y-92590476D01*
X229088095Y-92685714D01*
X215927333Y-79937142D02*
X215879714Y-79984761D01*
X215736857Y-80032380D01*
X215641619Y-80032380D01*
X215498761Y-79984761D01*
X215403523Y-79889523D01*
X215355904Y-79794285D01*
X215308285Y-79603809D01*
X215308285Y-79460952D01*
X215355904Y-79270476D01*
X215403523Y-79175238D01*
X215498761Y-79080000D01*
X215641619Y-79032380D01*
X215736857Y-79032380D01*
X215879714Y-79080000D01*
X215927333Y-79127619D01*
X216784476Y-79365714D02*
X216784476Y-80032380D01*
X216546380Y-78984761D02*
X216308285Y-79699047D01*
X216927333Y-79699047D01*
D14*
X205781333Y-69441619D02*
X205781333Y-70167333D01*
X205732952Y-70312476D01*
X205636190Y-70409238D01*
X205491047Y-70457619D01*
X205394285Y-70457619D01*
X206797333Y-70457619D02*
X206216761Y-70457619D01*
X206507047Y-70457619D02*
X206507047Y-69441619D01*
X206410285Y-69586761D01*
X206313523Y-69683523D01*
X206216761Y-69731904D01*
X202432857Y-68362857D02*
X202384476Y-68411238D01*
X202239333Y-68459619D01*
X202142571Y-68459619D01*
X201997428Y-68411238D01*
X201900666Y-68314476D01*
X201852285Y-68217714D01*
X201803904Y-68024190D01*
X201803904Y-67879047D01*
X201852285Y-67685523D01*
X201900666Y-67588761D01*
X201997428Y-67492000D01*
X202142571Y-67443619D01*
X202239333Y-67443619D01*
X202384476Y-67492000D01*
X202432857Y-67540380D01*
X203061809Y-67443619D02*
X203255333Y-67443619D01*
X203352095Y-67492000D01*
X203448857Y-67588761D01*
X203497238Y-67782285D01*
X203497238Y-68120952D01*
X203448857Y-68314476D01*
X203352095Y-68411238D01*
X203255333Y-68459619D01*
X203061809Y-68459619D01*
X202965047Y-68411238D01*
X202868285Y-68314476D01*
X202819904Y-68120952D01*
X202819904Y-67782285D01*
X202868285Y-67588761D01*
X202965047Y-67492000D01*
X203061809Y-67443619D01*
X203932666Y-68459619D02*
X203932666Y-67443619D01*
X204513238Y-68459619D01*
X204513238Y-67443619D01*
X204997047Y-68459619D02*
X204997047Y-67443619D01*
X205577619Y-68459619D01*
X205577619Y-67443619D01*
X205819523Y-68556380D02*
X206593619Y-68556380D01*
X207416095Y-68362857D02*
X207367714Y-68411238D01*
X207222571Y-68459619D01*
X207125809Y-68459619D01*
X206980666Y-68411238D01*
X206883904Y-68314476D01*
X206835523Y-68217714D01*
X206787142Y-68024190D01*
X206787142Y-67879047D01*
X206835523Y-67685523D01*
X206883904Y-67588761D01*
X206980666Y-67492000D01*
X207125809Y-67443619D01*
X207222571Y-67443619D01*
X207367714Y-67492000D01*
X207416095Y-67540380D01*
X208045047Y-67443619D02*
X208238571Y-67443619D01*
X208335333Y-67492000D01*
X208432095Y-67588761D01*
X208480476Y-67782285D01*
X208480476Y-68120952D01*
X208432095Y-68314476D01*
X208335333Y-68411238D01*
X208238571Y-68459619D01*
X208045047Y-68459619D01*
X207948285Y-68411238D01*
X207851523Y-68314476D01*
X207803142Y-68120952D01*
X207803142Y-67782285D01*
X207851523Y-67588761D01*
X207948285Y-67492000D01*
X208045047Y-67443619D01*
X208867523Y-68169333D02*
X209351333Y-68169333D01*
X208770761Y-68459619D02*
X209109428Y-67443619D01*
X209448095Y-68459619D01*
X209690000Y-67443619D02*
X210367333Y-68459619D01*
X210367333Y-67443619D02*
X209690000Y-68459619D01*
X210754380Y-68459619D02*
X210754380Y-67443619D01*
X211189809Y-68169333D02*
X211673619Y-68169333D01*
X211093047Y-68459619D02*
X211431714Y-67443619D01*
X211770380Y-68459619D01*
X212592857Y-68459619D02*
X212109047Y-68459619D01*
X212109047Y-67443619D01*
D11*
X216133333Y-82052380D02*
X215800000Y-81576190D01*
X215561904Y-82052380D02*
X215561904Y-81052380D01*
X215942857Y-81052380D01*
X216038095Y-81100000D01*
X216085714Y-81147619D01*
X216133333Y-81242857D01*
X216133333Y-81385714D01*
X216085714Y-81480952D01*
X216038095Y-81528571D01*
X215942857Y-81576190D01*
X215561904Y-81576190D01*
X216466666Y-81052380D02*
X217085714Y-81052380D01*
X216752380Y-81433333D01*
X216895238Y-81433333D01*
X216990476Y-81480952D01*
X217038095Y-81528571D01*
X217085714Y-81623809D01*
X217085714Y-81861904D01*
X217038095Y-81957142D01*
X216990476Y-82004761D01*
X216895238Y-82052380D01*
X216609523Y-82052380D01*
X216514285Y-82004761D01*
X216466666Y-81957142D01*
X209133333Y-83552380D02*
X208800000Y-83076190D01*
X208561904Y-83552380D02*
X208561904Y-82552380D01*
X208942857Y-82552380D01*
X209038095Y-82600000D01*
X209085714Y-82647619D01*
X209133333Y-82742857D01*
X209133333Y-82885714D01*
X209085714Y-82980952D01*
X209038095Y-83028571D01*
X208942857Y-83076190D01*
X208561904Y-83076190D01*
X209990476Y-82885714D02*
X209990476Y-83552380D01*
X209752380Y-82504761D02*
X209514285Y-83219047D01*
X210133333Y-83219047D01*
X210252380Y-88561904D02*
X211061904Y-88561904D01*
X211157142Y-88514285D01*
X211204761Y-88466666D01*
X211252380Y-88371428D01*
X211252380Y-88180952D01*
X211204761Y-88085714D01*
X211157142Y-88038095D01*
X211061904Y-87990476D01*
X210252380Y-87990476D01*
X210347619Y-87561904D02*
X210300000Y-87514285D01*
X210252380Y-87419047D01*
X210252380Y-87180952D01*
X210300000Y-87085714D01*
X210347619Y-87038095D01*
X210442857Y-86990476D01*
X210538095Y-86990476D01*
X210680952Y-87038095D01*
X211252380Y-87609523D01*
X211252380Y-86990476D01*
X208507142Y-106366666D02*
X208554761Y-106414285D01*
X208602380Y-106557142D01*
X208602380Y-106652380D01*
X208554761Y-106795238D01*
X208459523Y-106890476D01*
X208364285Y-106938095D01*
X208173809Y-106985714D01*
X208030952Y-106985714D01*
X207840476Y-106938095D01*
X207745238Y-106890476D01*
X207650000Y-106795238D01*
X207602380Y-106652380D01*
X207602380Y-106557142D01*
X207650000Y-106414285D01*
X207697619Y-106366666D01*
X208602380Y-105890476D02*
X208602380Y-105700000D01*
X208554761Y-105604761D01*
X208507142Y-105557142D01*
X208364285Y-105461904D01*
X208173809Y-105414285D01*
X207792857Y-105414285D01*
X207697619Y-105461904D01*
X207650000Y-105509523D01*
X207602380Y-105604761D01*
X207602380Y-105795238D01*
X207650000Y-105890476D01*
X207697619Y-105938095D01*
X207792857Y-105985714D01*
X208030952Y-105985714D01*
X208126190Y-105938095D01*
X208173809Y-105890476D01*
X208221428Y-105795238D01*
X208221428Y-105604761D01*
X208173809Y-105509523D01*
X208126190Y-105461904D01*
X208030952Y-105414285D01*
X224157142Y-109342857D02*
X224204761Y-109390476D01*
X224252380Y-109533333D01*
X224252380Y-109628571D01*
X224204761Y-109771428D01*
X224109523Y-109866666D01*
X224014285Y-109914285D01*
X223823809Y-109961904D01*
X223680952Y-109961904D01*
X223490476Y-109914285D01*
X223395238Y-109866666D01*
X223300000Y-109771428D01*
X223252380Y-109628571D01*
X223252380Y-109533333D01*
X223300000Y-109390476D01*
X223347619Y-109342857D01*
X224252380Y-108390476D02*
X224252380Y-108961904D01*
X224252380Y-108676190D02*
X223252380Y-108676190D01*
X223395238Y-108771428D01*
X223490476Y-108866666D01*
X223538095Y-108961904D01*
X223252380Y-107771428D02*
X223252380Y-107676190D01*
X223300000Y-107580952D01*
X223347619Y-107533333D01*
X223442857Y-107485714D01*
X223633333Y-107438095D01*
X223871428Y-107438095D01*
X224061904Y-107485714D01*
X224157142Y-107533333D01*
X224204761Y-107580952D01*
X224252380Y-107676190D01*
X224252380Y-107771428D01*
X224204761Y-107866666D01*
X224157142Y-107914285D01*
X224061904Y-107961904D01*
X223871428Y-108009523D01*
X223633333Y-108009523D01*
X223442857Y-107961904D01*
X223347619Y-107914285D01*
X223300000Y-107866666D01*
X223252380Y-107771428D01*
X217152380Y-95566666D02*
X216676190Y-95900000D01*
X217152380Y-96138095D02*
X216152380Y-96138095D01*
X216152380Y-95757142D01*
X216200000Y-95661904D01*
X216247619Y-95614285D01*
X216342857Y-95566666D01*
X216485714Y-95566666D01*
X216580952Y-95614285D01*
X216628571Y-95661904D01*
X216676190Y-95757142D01*
X216676190Y-96138095D01*
X216152380Y-94661904D02*
X216152380Y-95138095D01*
X216628571Y-95185714D01*
X216580952Y-95138095D01*
X216533333Y-95042857D01*
X216533333Y-94804761D01*
X216580952Y-94709523D01*
X216628571Y-94661904D01*
X216723809Y-94614285D01*
X216961904Y-94614285D01*
X217057142Y-94661904D01*
X217104761Y-94709523D01*
X217152380Y-94804761D01*
X217152380Y-95042857D01*
X217104761Y-95138095D01*
X217057142Y-95185714D01*
X206159551Y-102598826D02*
X205159551Y-102598826D01*
X205873837Y-102265493D01*
X205159551Y-101932160D01*
X206159551Y-101932160D01*
X206064313Y-100884541D02*
X206111932Y-100932160D01*
X206159551Y-101075017D01*
X206159551Y-101170255D01*
X206111932Y-101313112D01*
X206016694Y-101408350D01*
X205921456Y-101455969D01*
X205730980Y-101503588D01*
X205588123Y-101503588D01*
X205397647Y-101455969D01*
X205302409Y-101408350D01*
X205207171Y-101313112D01*
X205159551Y-101170255D01*
X205159551Y-101075017D01*
X205207171Y-100932160D01*
X205254790Y-100884541D01*
X206159551Y-100455969D02*
X205159551Y-100455969D01*
X205159551Y-100075017D01*
X205207171Y-99979779D01*
X205254790Y-99932160D01*
X205350028Y-99884541D01*
X205492885Y-99884541D01*
X205588123Y-99932160D01*
X205635742Y-99979779D01*
X205683361Y-100075017D01*
X205683361Y-100455969D01*
X206159551Y-98932160D02*
X206159551Y-99503588D01*
X206159551Y-99217874D02*
X205159551Y-99217874D01*
X205302409Y-99313112D01*
X205397647Y-99408350D01*
X205445266Y-99503588D01*
X214038095Y-101052380D02*
X214038095Y-101861904D01*
X214085714Y-101957142D01*
X214133333Y-102004761D01*
X214228571Y-102052380D01*
X214419047Y-102052380D01*
X214514285Y-102004761D01*
X214561904Y-101957142D01*
X214609523Y-101861904D01*
X214609523Y-101052380D01*
X214990476Y-101052380D02*
X215609523Y-101052380D01*
X215276190Y-101433333D01*
X215419047Y-101433333D01*
X215514285Y-101480952D01*
X215561904Y-101528571D01*
X215609523Y-101623809D01*
X215609523Y-101861904D01*
X215561904Y-101957142D01*
X215514285Y-102004761D01*
X215419047Y-102052380D01*
X215133333Y-102052380D01*
X215038095Y-102004761D01*
X214990476Y-101957142D01*
X219557142Y-96257142D02*
X219509523Y-96304761D01*
X219366666Y-96352380D01*
X219271428Y-96352380D01*
X219128571Y-96304761D01*
X219033333Y-96209523D01*
X218985714Y-96114285D01*
X218938095Y-95923809D01*
X218938095Y-95780952D01*
X218985714Y-95590476D01*
X219033333Y-95495238D01*
X219128571Y-95400000D01*
X219271428Y-95352380D01*
X219366666Y-95352380D01*
X219509523Y-95400000D01*
X219557142Y-95447619D01*
X220509523Y-96352380D02*
X219938095Y-96352380D01*
X220223809Y-96352380D02*
X220223809Y-95352380D01*
X220128571Y-95495238D01*
X220033333Y-95590476D01*
X219938095Y-95638095D01*
X221461904Y-96352380D02*
X220890476Y-96352380D01*
X221176190Y-96352380D02*
X221176190Y-95352380D01*
X221080952Y-95495238D01*
X220985714Y-95590476D01*
X220890476Y-95638095D01*
X224557142Y-93992857D02*
X224604761Y-94040476D01*
X224652380Y-94183333D01*
X224652380Y-94278571D01*
X224604761Y-94421428D01*
X224509523Y-94516666D01*
X224414285Y-94564285D01*
X224223809Y-94611904D01*
X224080952Y-94611904D01*
X223890476Y-94564285D01*
X223795238Y-94516666D01*
X223700000Y-94421428D01*
X223652380Y-94278571D01*
X223652380Y-94183333D01*
X223700000Y-94040476D01*
X223747619Y-93992857D01*
X224652380Y-93040476D02*
X224652380Y-93611904D01*
X224652380Y-93326190D02*
X223652380Y-93326190D01*
X223795238Y-93421428D01*
X223890476Y-93516666D01*
X223938095Y-93611904D01*
X223747619Y-92659523D02*
X223700000Y-92611904D01*
X223652380Y-92516666D01*
X223652380Y-92278571D01*
X223700000Y-92183333D01*
X223747619Y-92135714D01*
X223842857Y-92088095D01*
X223938095Y-92088095D01*
X224080952Y-92135714D01*
X224652380Y-92707142D01*
X224652380Y-92088095D01*
X217633333Y-91402380D02*
X217300000Y-90926190D01*
X217061904Y-91402380D02*
X217061904Y-90402380D01*
X217442857Y-90402380D01*
X217538095Y-90450000D01*
X217585714Y-90497619D01*
X217633333Y-90592857D01*
X217633333Y-90735714D01*
X217585714Y-90830952D01*
X217538095Y-90878571D01*
X217442857Y-90926190D01*
X217061904Y-90926190D01*
X217966666Y-90402380D02*
X218633333Y-90402380D01*
X218204761Y-91402380D01*
M02*
