%TF.GenerationSoftware,KiCad,Pcbnew,4.0.6*%
%TF.CreationDate,2017-08-02T11:59:14-04:00*%
%TF.ProjectId,pmt-transimpedance-amplifier,706D742D7472616E73696D706564616E,rev?*%
%TF.FileFunction,Legend,Bot*%
%FSLAX46Y46*%
G04 Gerber Fmt 4.6, Leading zero omitted, Abs format (unit mm)*
G04 Created by KiCad (PCBNEW 4.0.6) date 08/02/17 11:59:14*
%MOMM*%
%LPD*%
G01*
G04 APERTURE LIST*
%ADD10C,0.100000*%
%ADD11C,0.120000*%
%ADD12C,0.150000*%
G04 APERTURE END LIST*
D10*
D11*
X218045000Y-112865000D02*
X219045000Y-112865000D01*
X219045000Y-114565000D02*
X218045000Y-114565000D01*
X218095000Y-114915000D02*
X219095000Y-114915000D01*
X219095000Y-116615000D02*
X218095000Y-116615000D01*
X216775000Y-83450000D02*
X215775000Y-83450000D01*
X215775000Y-81750000D02*
X216775000Y-81750000D01*
D12*
X221864762Y-73382381D02*
X221912381Y-73525238D01*
X221912381Y-73763334D01*
X221864762Y-73858572D01*
X221817143Y-73906191D01*
X221721905Y-73953810D01*
X221626667Y-73953810D01*
X221531429Y-73906191D01*
X221483810Y-73858572D01*
X221436190Y-73763334D01*
X221388571Y-73572857D01*
X221340952Y-73477619D01*
X221293333Y-73430000D01*
X221198095Y-73382381D01*
X221102857Y-73382381D01*
X221007619Y-73430000D01*
X220960000Y-73477619D01*
X220912381Y-73572857D01*
X220912381Y-73810953D01*
X220960000Y-73953810D01*
X221912381Y-74382381D02*
X220912381Y-74382381D01*
X221388571Y-74382381D02*
X221388571Y-74953810D01*
X221912381Y-74953810D02*
X220912381Y-74953810D01*
X220912381Y-75430000D02*
X221721905Y-75430000D01*
X221817143Y-75477619D01*
X221864762Y-75525238D01*
X221912381Y-75620476D01*
X221912381Y-75810953D01*
X221864762Y-75906191D01*
X221817143Y-75953810D01*
X221721905Y-76001429D01*
X220912381Y-76001429D01*
X220912381Y-76334762D02*
X220912381Y-76906191D01*
X221912381Y-76620476D02*
X220912381Y-76620476D01*
X220912381Y-77096667D02*
X220912381Y-77668096D01*
X221912381Y-77382381D02*
X220912381Y-77382381D01*
X221388571Y-78001429D02*
X221388571Y-78334763D01*
X221912381Y-78477620D02*
X221912381Y-78001429D01*
X220912381Y-78001429D01*
X220912381Y-78477620D01*
X221912381Y-79477620D02*
X221436190Y-79144286D01*
X221912381Y-78906191D02*
X220912381Y-78906191D01*
X220912381Y-79287144D01*
X220960000Y-79382382D01*
X221007619Y-79430001D01*
X221102857Y-79477620D01*
X221245714Y-79477620D01*
X221340952Y-79430001D01*
X221388571Y-79382382D01*
X221436190Y-79287144D01*
X221436190Y-78906191D01*
X221621429Y-101390000D02*
X221621429Y-102151905D01*
X222002381Y-101770953D02*
X221240476Y-101770953D01*
X222002381Y-103151905D02*
X222002381Y-102580476D01*
X222002381Y-102866190D02*
X221002381Y-102866190D01*
X221145238Y-102770952D01*
X221240476Y-102675714D01*
X221288095Y-102580476D01*
X221907143Y-103580476D02*
X221954762Y-103628095D01*
X222002381Y-103580476D01*
X221954762Y-103532857D01*
X221907143Y-103580476D01*
X222002381Y-103580476D01*
X221097619Y-104009047D02*
X221050000Y-104056666D01*
X221002381Y-104151904D01*
X221002381Y-104390000D01*
X221050000Y-104485238D01*
X221097619Y-104532857D01*
X221192857Y-104580476D01*
X221288095Y-104580476D01*
X221430952Y-104532857D01*
X222002381Y-103961428D01*
X222002381Y-104580476D01*
X221002381Y-104866190D02*
X222002381Y-105199523D01*
X221002381Y-105532857D01*
X223012381Y-109322380D02*
X224012381Y-109655713D01*
X223012381Y-109989047D01*
X223917143Y-110893809D02*
X223964762Y-110846190D01*
X224012381Y-110703333D01*
X224012381Y-110608095D01*
X223964762Y-110465237D01*
X223869524Y-110369999D01*
X223774286Y-110322380D01*
X223583810Y-110274761D01*
X223440952Y-110274761D01*
X223250476Y-110322380D01*
X223155238Y-110369999D01*
X223060000Y-110465237D01*
X223012381Y-110608095D01*
X223012381Y-110703333D01*
X223060000Y-110846190D01*
X223107619Y-110893809D01*
X224012381Y-111465237D02*
X223964762Y-111369999D01*
X223917143Y-111322380D01*
X223821905Y-111274761D01*
X223536190Y-111274761D01*
X223440952Y-111322380D01*
X223393333Y-111369999D01*
X223345714Y-111465237D01*
X223345714Y-111608095D01*
X223393333Y-111703333D01*
X223440952Y-111750952D01*
X223536190Y-111798571D01*
X223821905Y-111798571D01*
X223917143Y-111750952D01*
X223964762Y-111703333D01*
X224012381Y-111608095D01*
X224012381Y-111465237D01*
X223345714Y-112227142D02*
X224012381Y-112227142D01*
X223440952Y-112227142D02*
X223393333Y-112274761D01*
X223345714Y-112369999D01*
X223345714Y-112512857D01*
X223393333Y-112608095D01*
X223488571Y-112655714D01*
X224012381Y-112655714D01*
X223345714Y-112989047D02*
X223345714Y-113369999D01*
X223012381Y-113131904D02*
X223869524Y-113131904D01*
X223964762Y-113179523D01*
X224012381Y-113274761D01*
X224012381Y-113369999D01*
X224012381Y-113703333D02*
X223345714Y-113703333D01*
X223536190Y-113703333D02*
X223440952Y-113750952D01*
X223393333Y-113798571D01*
X223345714Y-113893809D01*
X223345714Y-113989048D01*
X224012381Y-114465238D02*
X223964762Y-114370000D01*
X223917143Y-114322381D01*
X223821905Y-114274762D01*
X223536190Y-114274762D01*
X223440952Y-114322381D01*
X223393333Y-114370000D01*
X223345714Y-114465238D01*
X223345714Y-114608096D01*
X223393333Y-114703334D01*
X223440952Y-114750953D01*
X223536190Y-114798572D01*
X223821905Y-114798572D01*
X223917143Y-114750953D01*
X223964762Y-114703334D01*
X224012381Y-114608096D01*
X224012381Y-114465238D01*
X224012381Y-115370000D02*
X223964762Y-115274762D01*
X223869524Y-115227143D01*
X223012381Y-115227143D01*
X206391429Y-113694286D02*
X206391429Y-114456191D01*
X206772381Y-114075239D02*
X206010476Y-114075239D01*
X205772381Y-115408572D02*
X205772381Y-114932381D01*
X206248571Y-114884762D01*
X206200952Y-114932381D01*
X206153333Y-115027619D01*
X206153333Y-115265715D01*
X206200952Y-115360953D01*
X206248571Y-115408572D01*
X206343810Y-115456191D01*
X206581905Y-115456191D01*
X206677143Y-115408572D01*
X206724762Y-115360953D01*
X206772381Y-115265715D01*
X206772381Y-115027619D01*
X206724762Y-114932381D01*
X206677143Y-114884762D01*
X205772381Y-115741905D02*
X206772381Y-116075238D01*
X205772381Y-116408572D01*
X205840000Y-103938096D02*
X205792381Y-103842858D01*
X205792381Y-103700001D01*
X205840000Y-103557143D01*
X205935238Y-103461905D01*
X206030476Y-103414286D01*
X206220952Y-103366667D01*
X206363810Y-103366667D01*
X206554286Y-103414286D01*
X206649524Y-103461905D01*
X206744762Y-103557143D01*
X206792381Y-103700001D01*
X206792381Y-103795239D01*
X206744762Y-103938096D01*
X206697143Y-103985715D01*
X206363810Y-103985715D01*
X206363810Y-103795239D01*
X206792381Y-104414286D02*
X205792381Y-104414286D01*
X206792381Y-104985715D01*
X205792381Y-104985715D01*
X206792381Y-105461905D02*
X205792381Y-105461905D01*
X205792381Y-105700000D01*
X205840000Y-105842858D01*
X205935238Y-105938096D01*
X206030476Y-105985715D01*
X206220952Y-106033334D01*
X206363810Y-106033334D01*
X206554286Y-105985715D01*
X206649524Y-105938096D01*
X206744762Y-105842858D01*
X206792381Y-105700000D01*
X206792381Y-105461905D01*
X206804762Y-91082381D02*
X206852381Y-91225238D01*
X206852381Y-91463334D01*
X206804762Y-91558572D01*
X206757143Y-91606191D01*
X206661905Y-91653810D01*
X206566667Y-91653810D01*
X206471429Y-91606191D01*
X206423810Y-91558572D01*
X206376190Y-91463334D01*
X206328571Y-91272857D01*
X206280952Y-91177619D01*
X206233333Y-91130000D01*
X206138095Y-91082381D01*
X206042857Y-91082381D01*
X205947619Y-91130000D01*
X205900000Y-91177619D01*
X205852381Y-91272857D01*
X205852381Y-91510953D01*
X205900000Y-91653810D01*
X206852381Y-92082381D02*
X206185714Y-92082381D01*
X205852381Y-92082381D02*
X205900000Y-92034762D01*
X205947619Y-92082381D01*
X205900000Y-92130000D01*
X205852381Y-92082381D01*
X205947619Y-92082381D01*
X206185714Y-92987143D02*
X206995238Y-92987143D01*
X207090476Y-92939524D01*
X207138095Y-92891905D01*
X207185714Y-92796666D01*
X207185714Y-92653809D01*
X207138095Y-92558571D01*
X206804762Y-92987143D02*
X206852381Y-92891905D01*
X206852381Y-92701428D01*
X206804762Y-92606190D01*
X206757143Y-92558571D01*
X206661905Y-92510952D01*
X206376190Y-92510952D01*
X206280952Y-92558571D01*
X206233333Y-92606190D01*
X206185714Y-92701428D01*
X206185714Y-92891905D01*
X206233333Y-92987143D01*
X206185714Y-93463333D02*
X206852381Y-93463333D01*
X206280952Y-93463333D02*
X206233333Y-93510952D01*
X206185714Y-93606190D01*
X206185714Y-93749048D01*
X206233333Y-93844286D01*
X206328571Y-93891905D01*
X206852381Y-93891905D01*
X206852381Y-94796667D02*
X206328571Y-94796667D01*
X206233333Y-94749048D01*
X206185714Y-94653810D01*
X206185714Y-94463333D01*
X206233333Y-94368095D01*
X206804762Y-94796667D02*
X206852381Y-94701429D01*
X206852381Y-94463333D01*
X206804762Y-94368095D01*
X206709524Y-94320476D01*
X206614286Y-94320476D01*
X206519048Y-94368095D01*
X206471429Y-94463333D01*
X206471429Y-94701429D01*
X206423810Y-94796667D01*
X206852381Y-95415714D02*
X206804762Y-95320476D01*
X206709524Y-95272857D01*
X205852381Y-95272857D01*
X205900000Y-97082382D02*
X205852381Y-96987144D01*
X205852381Y-96844287D01*
X205900000Y-96701429D01*
X205995238Y-96606191D01*
X206090476Y-96558572D01*
X206280952Y-96510953D01*
X206423810Y-96510953D01*
X206614286Y-96558572D01*
X206709524Y-96606191D01*
X206804762Y-96701429D01*
X206852381Y-96844287D01*
X206852381Y-96939525D01*
X206804762Y-97082382D01*
X206757143Y-97130001D01*
X206423810Y-97130001D01*
X206423810Y-96939525D01*
X206852381Y-97558572D02*
X205852381Y-97558572D01*
X206852381Y-98130001D01*
X205852381Y-98130001D01*
X206852381Y-98606191D02*
X205852381Y-98606191D01*
X205852381Y-98844286D01*
X205900000Y-98987144D01*
X205995238Y-99082382D01*
X206090476Y-99130001D01*
X206280952Y-99177620D01*
X206423810Y-99177620D01*
X206614286Y-99130001D01*
X206709524Y-99082382D01*
X206804762Y-98987144D01*
X206852381Y-98844286D01*
X206852381Y-98606191D01*
X206734762Y-78637143D02*
X206782381Y-78780000D01*
X206782381Y-79018096D01*
X206734762Y-79113334D01*
X206687143Y-79160953D01*
X206591905Y-79208572D01*
X206496667Y-79208572D01*
X206401429Y-79160953D01*
X206353810Y-79113334D01*
X206306190Y-79018096D01*
X206258571Y-78827619D01*
X206210952Y-78732381D01*
X206163333Y-78684762D01*
X206068095Y-78637143D01*
X205972857Y-78637143D01*
X205877619Y-78684762D01*
X205830000Y-78732381D01*
X205782381Y-78827619D01*
X205782381Y-79065715D01*
X205830000Y-79208572D01*
X206782381Y-79637143D02*
X206115714Y-79637143D01*
X205782381Y-79637143D02*
X205830000Y-79589524D01*
X205877619Y-79637143D01*
X205830000Y-79684762D01*
X205782381Y-79637143D01*
X205877619Y-79637143D01*
X206115714Y-80541905D02*
X206925238Y-80541905D01*
X207020476Y-80494286D01*
X207068095Y-80446667D01*
X207115714Y-80351428D01*
X207115714Y-80208571D01*
X207068095Y-80113333D01*
X206734762Y-80541905D02*
X206782381Y-80446667D01*
X206782381Y-80256190D01*
X206734762Y-80160952D01*
X206687143Y-80113333D01*
X206591905Y-80065714D01*
X206306190Y-80065714D01*
X206210952Y-80113333D01*
X206163333Y-80160952D01*
X206115714Y-80256190D01*
X206115714Y-80446667D01*
X206163333Y-80541905D01*
X206115714Y-81018095D02*
X206782381Y-81018095D01*
X206210952Y-81018095D02*
X206163333Y-81065714D01*
X206115714Y-81160952D01*
X206115714Y-81303810D01*
X206163333Y-81399048D01*
X206258571Y-81446667D01*
X206782381Y-81446667D01*
X206782381Y-82351429D02*
X206258571Y-82351429D01*
X206163333Y-82303810D01*
X206115714Y-82208572D01*
X206115714Y-82018095D01*
X206163333Y-81922857D01*
X206734762Y-82351429D02*
X206782381Y-82256191D01*
X206782381Y-82018095D01*
X206734762Y-81922857D01*
X206639524Y-81875238D01*
X206544286Y-81875238D01*
X206449048Y-81922857D01*
X206401429Y-82018095D01*
X206401429Y-82256191D01*
X206353810Y-82351429D01*
X206782381Y-82970476D02*
X206734762Y-82875238D01*
X206639524Y-82827619D01*
X205782381Y-82827619D01*
X215966666Y-114142381D02*
X216442857Y-114142381D01*
X216442857Y-113142381D01*
X215109523Y-114142381D02*
X215680952Y-114142381D01*
X215395238Y-114142381D02*
X215395238Y-113142381D01*
X215490476Y-113285238D01*
X215585714Y-113380476D01*
X215680952Y-113428095D01*
X216012857Y-116107143D02*
X216060476Y-116154762D01*
X216203333Y-116202381D01*
X216298571Y-116202381D01*
X216441429Y-116154762D01*
X216536667Y-116059524D01*
X216584286Y-115964286D01*
X216631905Y-115773810D01*
X216631905Y-115630952D01*
X216584286Y-115440476D01*
X216536667Y-115345238D01*
X216441429Y-115250000D01*
X216298571Y-115202381D01*
X216203333Y-115202381D01*
X216060476Y-115250000D01*
X216012857Y-115297619D01*
X215060476Y-116202381D02*
X215631905Y-116202381D01*
X215346191Y-116202381D02*
X215346191Y-115202381D01*
X215441429Y-115345238D01*
X215536667Y-115440476D01*
X215631905Y-115488095D01*
X214203333Y-115535714D02*
X214203333Y-116202381D01*
X214441429Y-115154762D02*
X214679524Y-115869048D01*
X214060476Y-115869048D01*
X216456666Y-81447143D02*
X216504285Y-81494762D01*
X216647142Y-81542381D01*
X216742380Y-81542381D01*
X216885238Y-81494762D01*
X216980476Y-81399524D01*
X217028095Y-81304286D01*
X217075714Y-81113810D01*
X217075714Y-80970952D01*
X217028095Y-80780476D01*
X216980476Y-80685238D01*
X216885238Y-80590000D01*
X216742380Y-80542381D01*
X216647142Y-80542381D01*
X216504285Y-80590000D01*
X216456666Y-80637619D01*
X215599523Y-80542381D02*
X215790000Y-80542381D01*
X215885238Y-80590000D01*
X215932857Y-80637619D01*
X216028095Y-80780476D01*
X216075714Y-80970952D01*
X216075714Y-81351905D01*
X216028095Y-81447143D01*
X215980476Y-81494762D01*
X215885238Y-81542381D01*
X215694761Y-81542381D01*
X215599523Y-81494762D01*
X215551904Y-81447143D01*
X215504285Y-81351905D01*
X215504285Y-81113810D01*
X215551904Y-81018571D01*
X215599523Y-80970952D01*
X215694761Y-80923333D01*
X215885238Y-80923333D01*
X215980476Y-80970952D01*
X216028095Y-81018571D01*
X216075714Y-81113810D01*
M02*
