%TF.GenerationSoftware,KiCad,Pcbnew,(2017-05-01 revision c8706e9c1)-makepkg*%
%TF.CreationDate,2017-06-26T08:26:11-04:00*%
%TF.ProjectId,pmt-transimpedance-amplifier,706D742D7472616E73696D706564616E,rev?*%
%TF.FileFunction,Copper,L2,Bot,Signal*%
%TF.FilePolarity,Positive*%
%FSLAX46Y46*%
G04 Gerber Fmt 4.6, Leading zero omitted, Abs format (unit mm)*
G04 Created by KiCad (PCBNEW (2017-05-01 revision c8706e9c1)-makepkg) date 06/26/17 08:26:11*
%MOMM*%
%LPD*%
G01*
G04 APERTURE LIST*
%ADD10C,0.100000*%
%ADD11C,1.524000*%
%ADD12C,5.460000*%
%ADD13R,1.520000X1.520000*%
%ADD14C,1.520000*%
%ADD15C,2.400000*%
%ADD16C,2.500000*%
%ADD17C,0.600000*%
%ADD18C,0.250000*%
%ADD19C,0.200000*%
%ADD20C,0.254000*%
G04 APERTURE END LIST*
D10*
D11*
X206350000Y-112540000D03*
X221590000Y-112540000D03*
X221590000Y-107460000D03*
X206350000Y-107460000D03*
X206350000Y-89660000D03*
X206350000Y-84580000D03*
X221590000Y-71880000D03*
D12*
X234680000Y-106290000D03*
X234680000Y-78350000D03*
D13*
X235950000Y-97400000D03*
D14*
X233410000Y-97400000D03*
X235950000Y-94860000D03*
X233410000Y-94860000D03*
X235950000Y-92320000D03*
X233410000Y-92320000D03*
X235950000Y-89780000D03*
X233410000Y-89780000D03*
X235950000Y-87240000D03*
X233410000Y-87240000D03*
D15*
X206300000Y-72850000D03*
D16*
X203760000Y-70310000D03*
X208840000Y-70310000D03*
X208840000Y-75390000D03*
X203760000Y-75390000D03*
D17*
X221250000Y-87900000D03*
X208550000Y-95945680D03*
X211100000Y-95945680D03*
X221250000Y-89750000D03*
X221250000Y-89200000D03*
X218850000Y-100700000D03*
X215950000Y-99050000D03*
X223450000Y-94100000D03*
X218900000Y-94350000D03*
X221350000Y-94350000D03*
X226750000Y-94450000D03*
X221650000Y-98350000D03*
X211200000Y-107850000D03*
X208550000Y-104850000D03*
X212050000Y-104000000D03*
X210200000Y-96950000D03*
X212100000Y-98050000D03*
X212550000Y-97000000D03*
X216500000Y-88500000D03*
X224150000Y-103500000D03*
X223950000Y-109700000D03*
X217450000Y-82200000D03*
X216450000Y-83150000D03*
X233150000Y-91050006D03*
X231981203Y-91509036D03*
X213550000Y-92150000D03*
X215550000Y-80700000D03*
X215550000Y-78000000D03*
X214950000Y-92800000D03*
X210750000Y-82500000D03*
X210750000Y-80250000D03*
X210800000Y-78000000D03*
X210800006Y-75500000D03*
X210749996Y-73000000D03*
X209000000Y-73000000D03*
X203749992Y-73000000D03*
X203500000Y-78500006D03*
X203500000Y-80499996D03*
X203500000Y-82500000D03*
X203550000Y-84799998D03*
X211100000Y-90799996D03*
X208600000Y-90800000D03*
X203500002Y-90700000D03*
X203550000Y-87050000D03*
X206400000Y-86800000D03*
X206400000Y-88250000D03*
X208600012Y-86900000D03*
X212650000Y-86900000D03*
X212650000Y-88150000D03*
X215150000Y-88250000D03*
X206200000Y-69950000D03*
X210800000Y-69950000D03*
X208150000Y-78050000D03*
X208100000Y-80200000D03*
X207900000Y-82550000D03*
X215150000Y-86900000D03*
X211000000Y-86850000D03*
X211050000Y-88600000D03*
X208600000Y-88400000D03*
X203550000Y-89050000D03*
D18*
X221250000Y-89200000D02*
X221250000Y-89750000D01*
X211200000Y-104850000D02*
X208550000Y-104850000D01*
X212050000Y-104000000D02*
X211200000Y-104850000D01*
X212550000Y-97000000D02*
X212550000Y-97600000D01*
X212550000Y-97600000D02*
X212100000Y-98050000D01*
X216500000Y-88500000D02*
X220350000Y-88500000D01*
X220350000Y-88500000D02*
X220900000Y-87950000D01*
X216450000Y-83150000D02*
X216500000Y-83150000D01*
X216500000Y-83150000D02*
X217450000Y-82200000D01*
D19*
X232725736Y-91050006D02*
X233150000Y-91050006D01*
X232440233Y-91050006D02*
X232725736Y-91050006D01*
X231981203Y-91509036D02*
X232440233Y-91050006D01*
D18*
X213250001Y-91850001D02*
X213550000Y-92150000D01*
X210750000Y-89350000D02*
X213250001Y-91850001D01*
X210750000Y-82500000D02*
X210750000Y-89350000D01*
X214200000Y-92800000D02*
X213849999Y-92449999D01*
X213849999Y-92449999D02*
X213550000Y-92150000D01*
X214950000Y-92800000D02*
X214200000Y-92800000D01*
X215550000Y-78000000D02*
X215550000Y-80700000D01*
X210800000Y-80200000D02*
X210750000Y-80250000D01*
X210800000Y-78000000D02*
X210800000Y-80200000D01*
X210500007Y-75200001D02*
X210800006Y-75500000D01*
X209000000Y-73699994D02*
X210500007Y-75200001D01*
X209000000Y-73000000D02*
X209000000Y-73699994D01*
X210749996Y-73424264D02*
X210749996Y-73000000D01*
X210749996Y-75450004D02*
X210749996Y-73424264D01*
X208150000Y-78050000D02*
X210749996Y-75450004D01*
X203760000Y-73010008D02*
X203749992Y-73000000D01*
X203760000Y-75390000D02*
X203760000Y-73010008D01*
X203760000Y-78240006D02*
X203500000Y-78500006D01*
X203760000Y-75390000D02*
X203760000Y-78240006D01*
X203500000Y-82500000D02*
X203500000Y-80499996D01*
X203550000Y-87050000D02*
X203550000Y-84799998D01*
X211099996Y-90800000D02*
X211100000Y-90799996D01*
X208600000Y-90800000D02*
X211099996Y-90800000D01*
X203550000Y-90650002D02*
X203500002Y-90700000D01*
X203550000Y-89050000D02*
X203550000Y-90650002D01*
X206400000Y-88150000D02*
X206400000Y-87224264D01*
X206400000Y-87224264D02*
X206400000Y-86800000D01*
X206400000Y-88250000D02*
X206400000Y-86800000D01*
X206350000Y-88200000D02*
X206400000Y-88150000D01*
X208600000Y-88400000D02*
X208600000Y-86900012D01*
X208600000Y-86900012D02*
X208600012Y-86900000D01*
X212700000Y-86900000D02*
X212650000Y-86900000D01*
X215150000Y-86900000D02*
X212700000Y-86900000D01*
X212750000Y-88250000D02*
X212650000Y-88150000D01*
X215150000Y-88250000D02*
X212750000Y-88250000D01*
X210800000Y-69950000D02*
X206200000Y-69950000D01*
X207900000Y-82550000D02*
X207900000Y-80400000D01*
X207900000Y-80400000D02*
X208100000Y-80200000D01*
X211050000Y-88600000D02*
X211050000Y-86900000D01*
X211050000Y-86900000D02*
X211000000Y-86850000D01*
D20*
G36*
X211373000Y-77500000D02*
X211382667Y-77548601D01*
X211410197Y-77589803D01*
X211451399Y-77617333D01*
X211500000Y-77627000D01*
X215873000Y-77627000D01*
X215873000Y-82774203D01*
X215773118Y-83014746D01*
X215772883Y-83284073D01*
X215873000Y-83526375D01*
X215873000Y-88244617D01*
X215823118Y-88364746D01*
X215822883Y-88634073D01*
X215873000Y-88755365D01*
X215873000Y-94821656D01*
X211377000Y-94774330D01*
X211377000Y-91800000D01*
X211367333Y-91751399D01*
X211339803Y-91710197D01*
X211298601Y-91682667D01*
X211250000Y-91673000D01*
X201677273Y-91673000D01*
X201692009Y-84805567D01*
X205210803Y-84805567D01*
X205383840Y-85224349D01*
X205703966Y-85545034D01*
X206122445Y-85718802D01*
X206575567Y-85719197D01*
X206994349Y-85546160D01*
X207315034Y-85226034D01*
X207488802Y-84807555D01*
X207489197Y-84354433D01*
X207316160Y-83935651D01*
X206996034Y-83614966D01*
X206577555Y-83441198D01*
X206124433Y-83440803D01*
X205705651Y-83613840D01*
X205384966Y-83933966D01*
X205211198Y-84352445D01*
X205210803Y-84805567D01*
X201692009Y-84805567D01*
X201716995Y-73162308D01*
X204722727Y-73162308D01*
X204962305Y-73742132D01*
X205405535Y-74186136D01*
X205984939Y-74426725D01*
X206612308Y-74427273D01*
X207192132Y-74187695D01*
X207636136Y-73744465D01*
X207876725Y-73165061D01*
X207877273Y-72537692D01*
X207637695Y-71957868D01*
X207194465Y-71513864D01*
X206615061Y-71273275D01*
X205987692Y-71272727D01*
X205407868Y-71512305D01*
X204963864Y-71955535D01*
X204723275Y-72534939D01*
X204722727Y-73162308D01*
X201716995Y-73162308D01*
X201726728Y-68627000D01*
X211373000Y-68627000D01*
X211373000Y-77500000D01*
X211373000Y-77500000D01*
G37*
X211373000Y-77500000D02*
X211382667Y-77548601D01*
X211410197Y-77589803D01*
X211451399Y-77617333D01*
X211500000Y-77627000D01*
X215873000Y-77627000D01*
X215873000Y-82774203D01*
X215773118Y-83014746D01*
X215772883Y-83284073D01*
X215873000Y-83526375D01*
X215873000Y-88244617D01*
X215823118Y-88364746D01*
X215822883Y-88634073D01*
X215873000Y-88755365D01*
X215873000Y-94821656D01*
X211377000Y-94774330D01*
X211377000Y-91800000D01*
X211367333Y-91751399D01*
X211339803Y-91710197D01*
X211298601Y-91682667D01*
X211250000Y-91673000D01*
X201677273Y-91673000D01*
X201692009Y-84805567D01*
X205210803Y-84805567D01*
X205383840Y-85224349D01*
X205703966Y-85545034D01*
X206122445Y-85718802D01*
X206575567Y-85719197D01*
X206994349Y-85546160D01*
X207315034Y-85226034D01*
X207488802Y-84807555D01*
X207489197Y-84354433D01*
X207316160Y-83935651D01*
X206996034Y-83614966D01*
X206577555Y-83441198D01*
X206124433Y-83440803D01*
X205705651Y-83613840D01*
X205384966Y-83933966D01*
X205211198Y-84352445D01*
X205210803Y-84805567D01*
X201692009Y-84805567D01*
X201716995Y-73162308D01*
X204722727Y-73162308D01*
X204962305Y-73742132D01*
X205405535Y-74186136D01*
X205984939Y-74426725D01*
X206612308Y-74427273D01*
X207192132Y-74187695D01*
X207636136Y-73744465D01*
X207876725Y-73165061D01*
X207877273Y-72537692D01*
X207637695Y-71957868D01*
X207194465Y-71513864D01*
X206615061Y-71273275D01*
X205987692Y-71272727D01*
X205407868Y-71512305D01*
X204963864Y-71955535D01*
X204723275Y-72534939D01*
X204722727Y-73162308D01*
X201716995Y-73162308D01*
X201726728Y-68627000D01*
X211373000Y-68627000D01*
X211373000Y-77500000D01*
G36*
X239998000Y-75487224D02*
X239998000Y-110112776D01*
X231762776Y-118348000D01*
X201302000Y-118348000D01*
X201302000Y-112765567D01*
X205210803Y-112765567D01*
X205383840Y-113184349D01*
X205703966Y-113505034D01*
X206122445Y-113678802D01*
X206575567Y-113679197D01*
X206994349Y-113506160D01*
X207315034Y-113186034D01*
X207488802Y-112767555D01*
X207488803Y-112765567D01*
X220450803Y-112765567D01*
X220623840Y-113184349D01*
X220943966Y-113505034D01*
X221362445Y-113678802D01*
X221815567Y-113679197D01*
X222234349Y-113506160D01*
X222555034Y-113186034D01*
X222728802Y-112767555D01*
X222729197Y-112314433D01*
X222556160Y-111895651D01*
X222236034Y-111574966D01*
X221817555Y-111401198D01*
X221364433Y-111400803D01*
X220945651Y-111573840D01*
X220624966Y-111893966D01*
X220451198Y-112312445D01*
X220450803Y-112765567D01*
X207488803Y-112765567D01*
X207489197Y-112314433D01*
X207316160Y-111895651D01*
X206996034Y-111574966D01*
X206577555Y-111401198D01*
X206124433Y-111400803D01*
X205705651Y-111573840D01*
X205384966Y-111893966D01*
X205211198Y-112312445D01*
X205210803Y-112765567D01*
X201302000Y-112765567D01*
X201302000Y-107685567D01*
X220450803Y-107685567D01*
X220623840Y-108104349D01*
X220943966Y-108425034D01*
X221362445Y-108598802D01*
X221815567Y-108599197D01*
X222234349Y-108426160D01*
X222555034Y-108106034D01*
X222728802Y-107687555D01*
X222729197Y-107234433D01*
X222593206Y-106905309D01*
X231572462Y-106905309D01*
X232044477Y-108047675D01*
X232917728Y-108922451D01*
X234059268Y-109396460D01*
X235295309Y-109397538D01*
X236437675Y-108925523D01*
X237312451Y-108052272D01*
X237786460Y-106910732D01*
X237787538Y-105674691D01*
X237315523Y-104532325D01*
X236442272Y-103657549D01*
X235300732Y-103183540D01*
X234064691Y-103182462D01*
X232922325Y-103654477D01*
X232047549Y-104527728D01*
X231573540Y-105669268D01*
X231572462Y-106905309D01*
X222593206Y-106905309D01*
X222556160Y-106815651D01*
X222236034Y-106494966D01*
X221817555Y-106321198D01*
X221364433Y-106320803D01*
X220945651Y-106493840D01*
X220624966Y-106813966D01*
X220451198Y-107232445D01*
X220450803Y-107685567D01*
X201302000Y-107685567D01*
X201302000Y-97625171D01*
X232272803Y-97625171D01*
X232445536Y-98043217D01*
X232765100Y-98363340D01*
X233182845Y-98536802D01*
X233635171Y-98537197D01*
X234053217Y-98364464D01*
X234373340Y-98044900D01*
X234546802Y-97627155D01*
X234547197Y-97174829D01*
X234374464Y-96756783D01*
X234257885Y-96640000D01*
X234805615Y-96640000D01*
X234805615Y-98160000D01*
X234834875Y-98307098D01*
X234918199Y-98431801D01*
X235042902Y-98515125D01*
X235190000Y-98544385D01*
X236710000Y-98544385D01*
X236857098Y-98515125D01*
X236981801Y-98431801D01*
X237065125Y-98307098D01*
X237094385Y-98160000D01*
X237094385Y-96640000D01*
X237065125Y-96492902D01*
X236981801Y-96368199D01*
X236857098Y-96284875D01*
X236710000Y-96255615D01*
X235190000Y-96255615D01*
X235042902Y-96284875D01*
X234918199Y-96368199D01*
X234834875Y-96492902D01*
X234805615Y-96640000D01*
X234257885Y-96640000D01*
X234054900Y-96436660D01*
X233637155Y-96263198D01*
X233184829Y-96262803D01*
X232766783Y-96435536D01*
X232446660Y-96755100D01*
X232273198Y-97172845D01*
X232272803Y-97625171D01*
X201302000Y-97625171D01*
X201302000Y-92078993D01*
X201405728Y-92148303D01*
X201550000Y-92177000D01*
X210873000Y-92177000D01*
X210873000Y-94900000D01*
X210900198Y-95040598D01*
X210980630Y-95163759D01*
X211102070Y-95246765D01*
X211246032Y-95276979D01*
X215996032Y-95326979D01*
X216144272Y-95298303D01*
X216266579Y-95216579D01*
X216348303Y-95094272D01*
X216350113Y-95085171D01*
X232272803Y-95085171D01*
X232445536Y-95503217D01*
X232765100Y-95823340D01*
X233182845Y-95996802D01*
X233635171Y-95997197D01*
X234053217Y-95824464D01*
X234373340Y-95504900D01*
X234546802Y-95087155D01*
X234547197Y-94634829D01*
X234374464Y-94216783D01*
X234054900Y-93896660D01*
X233637155Y-93723198D01*
X233184829Y-93722803D01*
X232766783Y-93895536D01*
X232446660Y-94215100D01*
X232273198Y-94632845D01*
X232272803Y-95085171D01*
X216350113Y-95085171D01*
X216377000Y-94950000D01*
X216377000Y-91643109D01*
X231304086Y-91643109D01*
X231406936Y-91892025D01*
X231597213Y-92082634D01*
X231845949Y-92185918D01*
X232115276Y-92186153D01*
X232273173Y-92120911D01*
X232272803Y-92545171D01*
X232445536Y-92963217D01*
X232765100Y-93283340D01*
X233182845Y-93456802D01*
X233635171Y-93457197D01*
X234053217Y-93284464D01*
X234373340Y-92964900D01*
X234546802Y-92547155D01*
X234546803Y-92545171D01*
X234812803Y-92545171D01*
X234985536Y-92963217D01*
X235305100Y-93283340D01*
X235722845Y-93456802D01*
X236175171Y-93457197D01*
X236593217Y-93284464D01*
X236913340Y-92964900D01*
X237086802Y-92547155D01*
X237087197Y-92094829D01*
X236914464Y-91676783D01*
X236594900Y-91356660D01*
X236177155Y-91183198D01*
X235724829Y-91182803D01*
X235306783Y-91355536D01*
X234986660Y-91675100D01*
X234813198Y-92092845D01*
X234812803Y-92545171D01*
X234546803Y-92545171D01*
X234547197Y-92094829D01*
X234374464Y-91676783D01*
X234054900Y-91356660D01*
X233799710Y-91250697D01*
X233826882Y-91185260D01*
X233827117Y-90915933D01*
X233799572Y-90849268D01*
X234053217Y-90744464D01*
X234373340Y-90424900D01*
X234546802Y-90007155D01*
X234546803Y-90005171D01*
X234812803Y-90005171D01*
X234985536Y-90423217D01*
X235305100Y-90743340D01*
X235722845Y-90916802D01*
X236175171Y-90917197D01*
X236593217Y-90744464D01*
X236913340Y-90424900D01*
X237086802Y-90007155D01*
X237087197Y-89554829D01*
X236914464Y-89136783D01*
X236594900Y-88816660D01*
X236177155Y-88643198D01*
X235724829Y-88642803D01*
X235306783Y-88815536D01*
X234986660Y-89135100D01*
X234813198Y-89552845D01*
X234812803Y-90005171D01*
X234546803Y-90005171D01*
X234547197Y-89554829D01*
X234374464Y-89136783D01*
X234054900Y-88816660D01*
X233637155Y-88643198D01*
X233184829Y-88642803D01*
X232766783Y-88815536D01*
X232446660Y-89135100D01*
X232273198Y-89552845D01*
X232272803Y-90005171D01*
X232445536Y-90423217D01*
X232595063Y-90573006D01*
X232440233Y-90573006D01*
X232257692Y-90609315D01*
X232102943Y-90712716D01*
X231983621Y-90832038D01*
X231847130Y-90831919D01*
X231598214Y-90934769D01*
X231407605Y-91125046D01*
X231304321Y-91373782D01*
X231304086Y-91643109D01*
X216377000Y-91643109D01*
X216377000Y-87465171D01*
X232272803Y-87465171D01*
X232445536Y-87883217D01*
X232765100Y-88203340D01*
X233182845Y-88376802D01*
X233635171Y-88377197D01*
X234053217Y-88204464D01*
X234373340Y-87884900D01*
X234546802Y-87467155D01*
X234546803Y-87465171D01*
X234812803Y-87465171D01*
X234985536Y-87883217D01*
X235305100Y-88203340D01*
X235722845Y-88376802D01*
X236175171Y-88377197D01*
X236593217Y-88204464D01*
X236913340Y-87884900D01*
X237086802Y-87467155D01*
X237087197Y-87014829D01*
X236914464Y-86596783D01*
X236594900Y-86276660D01*
X236177155Y-86103198D01*
X235724829Y-86102803D01*
X235306783Y-86275536D01*
X234986660Y-86595100D01*
X234813198Y-87012845D01*
X234812803Y-87465171D01*
X234546803Y-87465171D01*
X234547197Y-87014829D01*
X234374464Y-86596783D01*
X234054900Y-86276660D01*
X233637155Y-86103198D01*
X233184829Y-86102803D01*
X232766783Y-86275536D01*
X232446660Y-86595100D01*
X232273198Y-87012845D01*
X232272803Y-87465171D01*
X216377000Y-87465171D01*
X216377000Y-83826936D01*
X216584073Y-83827117D01*
X216832989Y-83724267D01*
X217023598Y-83533990D01*
X217126882Y-83285254D01*
X217126928Y-83233008D01*
X217482907Y-82877029D01*
X217584073Y-82877117D01*
X217832989Y-82774267D01*
X218023598Y-82583990D01*
X218126882Y-82335254D01*
X218127117Y-82065927D01*
X218024267Y-81817011D01*
X217833990Y-81626402D01*
X217585254Y-81523118D01*
X217315927Y-81522883D01*
X217067011Y-81625733D01*
X216876402Y-81816010D01*
X216773118Y-82064746D01*
X216773029Y-82167035D01*
X216467049Y-82473015D01*
X216377000Y-82472936D01*
X216377000Y-78965309D01*
X231572462Y-78965309D01*
X232044477Y-80107675D01*
X232917728Y-80982451D01*
X234059268Y-81456460D01*
X235295309Y-81457538D01*
X236437675Y-80985523D01*
X237312451Y-80112272D01*
X237786460Y-78970732D01*
X237787538Y-77734691D01*
X237315523Y-76592325D01*
X236442272Y-75717549D01*
X235300732Y-75243540D01*
X234064691Y-75242462D01*
X232922325Y-75714477D01*
X232047549Y-76587728D01*
X231573540Y-77729268D01*
X231572462Y-78965309D01*
X216377000Y-78965309D01*
X216377000Y-77500000D01*
X216348303Y-77355728D01*
X216266579Y-77233421D01*
X216144272Y-77151697D01*
X216000000Y-77123000D01*
X211877000Y-77123000D01*
X211877000Y-72105567D01*
X220450803Y-72105567D01*
X220623840Y-72524349D01*
X220943966Y-72845034D01*
X221362445Y-73018802D01*
X221815567Y-73019197D01*
X222234349Y-72846160D01*
X222555034Y-72526034D01*
X222728802Y-72107555D01*
X222729197Y-71654433D01*
X222556160Y-71235651D01*
X222236034Y-70914966D01*
X221817555Y-70741198D01*
X221364433Y-70740803D01*
X220945651Y-70913840D01*
X220624966Y-71233966D01*
X220451198Y-71652445D01*
X220450803Y-72105567D01*
X211877000Y-72105567D01*
X211877000Y-68500000D01*
X211848303Y-68355728D01*
X211766579Y-68233421D01*
X211644272Y-68151697D01*
X211500000Y-68123000D01*
X201600000Y-68123000D01*
X201456476Y-68151389D01*
X201333993Y-68232849D01*
X201302000Y-68280509D01*
X201302000Y-66252000D01*
X230762776Y-66252000D01*
X239998000Y-75487224D01*
X239998000Y-75487224D01*
G37*
X239998000Y-75487224D02*
X239998000Y-110112776D01*
X231762776Y-118348000D01*
X201302000Y-118348000D01*
X201302000Y-112765567D01*
X205210803Y-112765567D01*
X205383840Y-113184349D01*
X205703966Y-113505034D01*
X206122445Y-113678802D01*
X206575567Y-113679197D01*
X206994349Y-113506160D01*
X207315034Y-113186034D01*
X207488802Y-112767555D01*
X207488803Y-112765567D01*
X220450803Y-112765567D01*
X220623840Y-113184349D01*
X220943966Y-113505034D01*
X221362445Y-113678802D01*
X221815567Y-113679197D01*
X222234349Y-113506160D01*
X222555034Y-113186034D01*
X222728802Y-112767555D01*
X222729197Y-112314433D01*
X222556160Y-111895651D01*
X222236034Y-111574966D01*
X221817555Y-111401198D01*
X221364433Y-111400803D01*
X220945651Y-111573840D01*
X220624966Y-111893966D01*
X220451198Y-112312445D01*
X220450803Y-112765567D01*
X207488803Y-112765567D01*
X207489197Y-112314433D01*
X207316160Y-111895651D01*
X206996034Y-111574966D01*
X206577555Y-111401198D01*
X206124433Y-111400803D01*
X205705651Y-111573840D01*
X205384966Y-111893966D01*
X205211198Y-112312445D01*
X205210803Y-112765567D01*
X201302000Y-112765567D01*
X201302000Y-107685567D01*
X220450803Y-107685567D01*
X220623840Y-108104349D01*
X220943966Y-108425034D01*
X221362445Y-108598802D01*
X221815567Y-108599197D01*
X222234349Y-108426160D01*
X222555034Y-108106034D01*
X222728802Y-107687555D01*
X222729197Y-107234433D01*
X222593206Y-106905309D01*
X231572462Y-106905309D01*
X232044477Y-108047675D01*
X232917728Y-108922451D01*
X234059268Y-109396460D01*
X235295309Y-109397538D01*
X236437675Y-108925523D01*
X237312451Y-108052272D01*
X237786460Y-106910732D01*
X237787538Y-105674691D01*
X237315523Y-104532325D01*
X236442272Y-103657549D01*
X235300732Y-103183540D01*
X234064691Y-103182462D01*
X232922325Y-103654477D01*
X232047549Y-104527728D01*
X231573540Y-105669268D01*
X231572462Y-106905309D01*
X222593206Y-106905309D01*
X222556160Y-106815651D01*
X222236034Y-106494966D01*
X221817555Y-106321198D01*
X221364433Y-106320803D01*
X220945651Y-106493840D01*
X220624966Y-106813966D01*
X220451198Y-107232445D01*
X220450803Y-107685567D01*
X201302000Y-107685567D01*
X201302000Y-97625171D01*
X232272803Y-97625171D01*
X232445536Y-98043217D01*
X232765100Y-98363340D01*
X233182845Y-98536802D01*
X233635171Y-98537197D01*
X234053217Y-98364464D01*
X234373340Y-98044900D01*
X234546802Y-97627155D01*
X234547197Y-97174829D01*
X234374464Y-96756783D01*
X234257885Y-96640000D01*
X234805615Y-96640000D01*
X234805615Y-98160000D01*
X234834875Y-98307098D01*
X234918199Y-98431801D01*
X235042902Y-98515125D01*
X235190000Y-98544385D01*
X236710000Y-98544385D01*
X236857098Y-98515125D01*
X236981801Y-98431801D01*
X237065125Y-98307098D01*
X237094385Y-98160000D01*
X237094385Y-96640000D01*
X237065125Y-96492902D01*
X236981801Y-96368199D01*
X236857098Y-96284875D01*
X236710000Y-96255615D01*
X235190000Y-96255615D01*
X235042902Y-96284875D01*
X234918199Y-96368199D01*
X234834875Y-96492902D01*
X234805615Y-96640000D01*
X234257885Y-96640000D01*
X234054900Y-96436660D01*
X233637155Y-96263198D01*
X233184829Y-96262803D01*
X232766783Y-96435536D01*
X232446660Y-96755100D01*
X232273198Y-97172845D01*
X232272803Y-97625171D01*
X201302000Y-97625171D01*
X201302000Y-92078993D01*
X201405728Y-92148303D01*
X201550000Y-92177000D01*
X210873000Y-92177000D01*
X210873000Y-94900000D01*
X210900198Y-95040598D01*
X210980630Y-95163759D01*
X211102070Y-95246765D01*
X211246032Y-95276979D01*
X215996032Y-95326979D01*
X216144272Y-95298303D01*
X216266579Y-95216579D01*
X216348303Y-95094272D01*
X216350113Y-95085171D01*
X232272803Y-95085171D01*
X232445536Y-95503217D01*
X232765100Y-95823340D01*
X233182845Y-95996802D01*
X233635171Y-95997197D01*
X234053217Y-95824464D01*
X234373340Y-95504900D01*
X234546802Y-95087155D01*
X234547197Y-94634829D01*
X234374464Y-94216783D01*
X234054900Y-93896660D01*
X233637155Y-93723198D01*
X233184829Y-93722803D01*
X232766783Y-93895536D01*
X232446660Y-94215100D01*
X232273198Y-94632845D01*
X232272803Y-95085171D01*
X216350113Y-95085171D01*
X216377000Y-94950000D01*
X216377000Y-91643109D01*
X231304086Y-91643109D01*
X231406936Y-91892025D01*
X231597213Y-92082634D01*
X231845949Y-92185918D01*
X232115276Y-92186153D01*
X232273173Y-92120911D01*
X232272803Y-92545171D01*
X232445536Y-92963217D01*
X232765100Y-93283340D01*
X233182845Y-93456802D01*
X233635171Y-93457197D01*
X234053217Y-93284464D01*
X234373340Y-92964900D01*
X234546802Y-92547155D01*
X234546803Y-92545171D01*
X234812803Y-92545171D01*
X234985536Y-92963217D01*
X235305100Y-93283340D01*
X235722845Y-93456802D01*
X236175171Y-93457197D01*
X236593217Y-93284464D01*
X236913340Y-92964900D01*
X237086802Y-92547155D01*
X237087197Y-92094829D01*
X236914464Y-91676783D01*
X236594900Y-91356660D01*
X236177155Y-91183198D01*
X235724829Y-91182803D01*
X235306783Y-91355536D01*
X234986660Y-91675100D01*
X234813198Y-92092845D01*
X234812803Y-92545171D01*
X234546803Y-92545171D01*
X234547197Y-92094829D01*
X234374464Y-91676783D01*
X234054900Y-91356660D01*
X233799710Y-91250697D01*
X233826882Y-91185260D01*
X233827117Y-90915933D01*
X233799572Y-90849268D01*
X234053217Y-90744464D01*
X234373340Y-90424900D01*
X234546802Y-90007155D01*
X234546803Y-90005171D01*
X234812803Y-90005171D01*
X234985536Y-90423217D01*
X235305100Y-90743340D01*
X235722845Y-90916802D01*
X236175171Y-90917197D01*
X236593217Y-90744464D01*
X236913340Y-90424900D01*
X237086802Y-90007155D01*
X237087197Y-89554829D01*
X236914464Y-89136783D01*
X236594900Y-88816660D01*
X236177155Y-88643198D01*
X235724829Y-88642803D01*
X235306783Y-88815536D01*
X234986660Y-89135100D01*
X234813198Y-89552845D01*
X234812803Y-90005171D01*
X234546803Y-90005171D01*
X234547197Y-89554829D01*
X234374464Y-89136783D01*
X234054900Y-88816660D01*
X233637155Y-88643198D01*
X233184829Y-88642803D01*
X232766783Y-88815536D01*
X232446660Y-89135100D01*
X232273198Y-89552845D01*
X232272803Y-90005171D01*
X232445536Y-90423217D01*
X232595063Y-90573006D01*
X232440233Y-90573006D01*
X232257692Y-90609315D01*
X232102943Y-90712716D01*
X231983621Y-90832038D01*
X231847130Y-90831919D01*
X231598214Y-90934769D01*
X231407605Y-91125046D01*
X231304321Y-91373782D01*
X231304086Y-91643109D01*
X216377000Y-91643109D01*
X216377000Y-87465171D01*
X232272803Y-87465171D01*
X232445536Y-87883217D01*
X232765100Y-88203340D01*
X233182845Y-88376802D01*
X233635171Y-88377197D01*
X234053217Y-88204464D01*
X234373340Y-87884900D01*
X234546802Y-87467155D01*
X234546803Y-87465171D01*
X234812803Y-87465171D01*
X234985536Y-87883217D01*
X235305100Y-88203340D01*
X235722845Y-88376802D01*
X236175171Y-88377197D01*
X236593217Y-88204464D01*
X236913340Y-87884900D01*
X237086802Y-87467155D01*
X237087197Y-87014829D01*
X236914464Y-86596783D01*
X236594900Y-86276660D01*
X236177155Y-86103198D01*
X235724829Y-86102803D01*
X235306783Y-86275536D01*
X234986660Y-86595100D01*
X234813198Y-87012845D01*
X234812803Y-87465171D01*
X234546803Y-87465171D01*
X234547197Y-87014829D01*
X234374464Y-86596783D01*
X234054900Y-86276660D01*
X233637155Y-86103198D01*
X233184829Y-86102803D01*
X232766783Y-86275536D01*
X232446660Y-86595100D01*
X232273198Y-87012845D01*
X232272803Y-87465171D01*
X216377000Y-87465171D01*
X216377000Y-83826936D01*
X216584073Y-83827117D01*
X216832989Y-83724267D01*
X217023598Y-83533990D01*
X217126882Y-83285254D01*
X217126928Y-83233008D01*
X217482907Y-82877029D01*
X217584073Y-82877117D01*
X217832989Y-82774267D01*
X218023598Y-82583990D01*
X218126882Y-82335254D01*
X218127117Y-82065927D01*
X218024267Y-81817011D01*
X217833990Y-81626402D01*
X217585254Y-81523118D01*
X217315927Y-81522883D01*
X217067011Y-81625733D01*
X216876402Y-81816010D01*
X216773118Y-82064746D01*
X216773029Y-82167035D01*
X216467049Y-82473015D01*
X216377000Y-82472936D01*
X216377000Y-78965309D01*
X231572462Y-78965309D01*
X232044477Y-80107675D01*
X232917728Y-80982451D01*
X234059268Y-81456460D01*
X235295309Y-81457538D01*
X236437675Y-80985523D01*
X237312451Y-80112272D01*
X237786460Y-78970732D01*
X237787538Y-77734691D01*
X237315523Y-76592325D01*
X236442272Y-75717549D01*
X235300732Y-75243540D01*
X234064691Y-75242462D01*
X232922325Y-75714477D01*
X232047549Y-76587728D01*
X231573540Y-77729268D01*
X231572462Y-78965309D01*
X216377000Y-78965309D01*
X216377000Y-77500000D01*
X216348303Y-77355728D01*
X216266579Y-77233421D01*
X216144272Y-77151697D01*
X216000000Y-77123000D01*
X211877000Y-77123000D01*
X211877000Y-72105567D01*
X220450803Y-72105567D01*
X220623840Y-72524349D01*
X220943966Y-72845034D01*
X221362445Y-73018802D01*
X221815567Y-73019197D01*
X222234349Y-72846160D01*
X222555034Y-72526034D01*
X222728802Y-72107555D01*
X222729197Y-71654433D01*
X222556160Y-71235651D01*
X222236034Y-70914966D01*
X221817555Y-70741198D01*
X221364433Y-70740803D01*
X220945651Y-70913840D01*
X220624966Y-71233966D01*
X220451198Y-71652445D01*
X220450803Y-72105567D01*
X211877000Y-72105567D01*
X211877000Y-68500000D01*
X211848303Y-68355728D01*
X211766579Y-68233421D01*
X211644272Y-68151697D01*
X211500000Y-68123000D01*
X201600000Y-68123000D01*
X201456476Y-68151389D01*
X201333993Y-68232849D01*
X201302000Y-68280509D01*
X201302000Y-66252000D01*
X230762776Y-66252000D01*
X239998000Y-75487224D01*
M02*
