%TF.GenerationSoftware,KiCad,Pcbnew,4.0.6*%
%TF.CreationDate,2017-08-02T11:59:14-04:00*%
%TF.ProjectId,pmt-transimpedance-amplifier,706D742D7472616E73696D706564616E,rev?*%
%TF.FileFunction,Legend,Top*%
%FSLAX46Y46*%
G04 Gerber Fmt 4.6, Leading zero omitted, Abs format (unit mm)*
G04 Created by KiCad (PCBNEW 4.0.6) date 08/02/17 11:59:14*
%MOMM*%
%LPD*%
G01*
G04 APERTURE LIST*
%ADD10C,0.100000*%
%ADD11C,0.350000*%
%ADD12C,0.300000*%
%ADD13C,0.125000*%
%ADD14C,0.200000*%
%ADD15C,0.150000*%
%ADD16C,0.120000*%
%ADD17C,0.381000*%
%ADD18C,0.050000*%
%ADD19C,0.254000*%
G04 APERTURE END LIST*
D10*
X223707421Y-115010890D02*
X223937421Y-115010890D01*
X225170000Y-114320000D02*
X224960000Y-114430000D01*
X223410000Y-115880000D02*
X223095483Y-114633268D01*
X223160000Y-116190000D02*
X223340000Y-116190000D01*
X223170000Y-116250000D02*
X223350000Y-116250000D01*
X223090000Y-114380000D02*
X222720000Y-114380000D01*
X223810000Y-114640000D02*
X224040000Y-114640000D01*
D11*
X224570000Y-116140000D02*
X224940000Y-114410000D01*
X223990000Y-114500000D02*
X224470000Y-116160000D01*
X223410000Y-116140000D02*
X223900000Y-114490000D01*
D12*
X222920000Y-114450000D02*
X223280000Y-116050000D01*
D10*
X224310000Y-116300000D02*
X224710000Y-116300000D01*
X223560000Y-116310000D02*
X223922128Y-115010890D01*
X223170000Y-116310000D02*
X223560000Y-116310000D01*
X223937421Y-115010890D02*
X224310000Y-116300000D01*
X222710000Y-114330000D02*
X223170000Y-116310000D01*
X223080000Y-114330000D02*
X222710000Y-114330000D01*
X225180000Y-114270000D02*
X224780000Y-114270000D01*
X223394517Y-115576732D02*
X223080000Y-114330000D01*
X223750000Y-114330000D02*
X223394517Y-115576732D01*
X224100000Y-114330000D02*
X223750000Y-114330000D01*
X224476501Y-115588207D02*
X224100000Y-114330000D01*
X224780000Y-114270000D02*
X224476501Y-115588207D01*
X224710000Y-116300000D02*
X225180000Y-114270000D01*
D13*
X221675715Y-117096190D02*
X221794762Y-117596190D01*
X221890000Y-117239048D01*
X221985238Y-117596190D01*
X222104286Y-117096190D01*
X222294763Y-117596190D02*
X222294763Y-117096190D01*
X222509048Y-117596190D02*
X222509048Y-117334286D01*
X222485239Y-117286667D01*
X222437620Y-117262857D01*
X222366191Y-117262857D01*
X222318572Y-117286667D01*
X222294763Y-117310476D01*
X222937620Y-117572381D02*
X222890001Y-117596190D01*
X222794763Y-117596190D01*
X222747144Y-117572381D01*
X222723334Y-117524762D01*
X222723334Y-117334286D01*
X222747144Y-117286667D01*
X222794763Y-117262857D01*
X222890001Y-117262857D01*
X222937620Y-117286667D01*
X222961429Y-117334286D01*
X222961429Y-117381905D01*
X222723334Y-117429524D01*
X223366191Y-117572381D02*
X223318572Y-117596190D01*
X223223334Y-117596190D01*
X223175715Y-117572381D01*
X223151905Y-117524762D01*
X223151905Y-117334286D01*
X223175715Y-117286667D01*
X223223334Y-117262857D01*
X223318572Y-117262857D01*
X223366191Y-117286667D01*
X223390000Y-117334286D01*
X223390000Y-117381905D01*
X223151905Y-117429524D01*
X223675714Y-117596190D02*
X223628095Y-117572381D01*
X223604286Y-117524762D01*
X223604286Y-117096190D01*
X224056667Y-117572381D02*
X224009048Y-117596190D01*
X223913810Y-117596190D01*
X223866191Y-117572381D01*
X223842381Y-117524762D01*
X223842381Y-117334286D01*
X223866191Y-117286667D01*
X223913810Y-117262857D01*
X224009048Y-117262857D01*
X224056667Y-117286667D01*
X224080476Y-117334286D01*
X224080476Y-117381905D01*
X223842381Y-117429524D01*
X224294762Y-117596190D02*
X224294762Y-117262857D01*
X224294762Y-117358095D02*
X224318571Y-117310476D01*
X224342381Y-117286667D01*
X224390000Y-117262857D01*
X224437619Y-117262857D01*
X225223333Y-117596190D02*
X224985238Y-117596190D01*
X224985238Y-117096190D01*
X225604285Y-117596190D02*
X225604285Y-117334286D01*
X225580476Y-117286667D01*
X225532857Y-117262857D01*
X225437619Y-117262857D01*
X225390000Y-117286667D01*
X225604285Y-117572381D02*
X225556666Y-117596190D01*
X225437619Y-117596190D01*
X225390000Y-117572381D01*
X225366190Y-117524762D01*
X225366190Y-117477143D01*
X225390000Y-117429524D01*
X225437619Y-117405714D01*
X225556666Y-117405714D01*
X225604285Y-117381905D01*
X225842381Y-117596190D02*
X225842381Y-117096190D01*
X225842381Y-117286667D02*
X225890000Y-117262857D01*
X225985238Y-117262857D01*
X226032857Y-117286667D01*
X226056666Y-117310476D01*
X226080476Y-117358095D01*
X226080476Y-117500952D01*
X226056666Y-117548571D01*
X226032857Y-117572381D01*
X225985238Y-117596190D01*
X225890000Y-117596190D01*
X225842381Y-117572381D01*
D14*
X221080278Y-79200000D02*
G75*
G03X221080278Y-79200000I-180278J0D01*
G01*
X212080278Y-88575000D02*
G75*
G03X212080278Y-88575000I-180278J0D01*
G01*
X203930278Y-102025000D02*
G75*
G03X203930278Y-102025000I-180278J0D01*
G01*
X217905278Y-101400000D02*
G75*
G03X217905278Y-101400000I-180278J0D01*
G01*
D15*
X201590000Y-66870000D02*
X201590000Y-117870000D01*
X201590000Y-117870000D02*
X226590000Y-117870000D01*
X226590000Y-66870000D02*
X226590000Y-117870000D01*
X201590000Y-66870000D02*
X226590000Y-66870000D01*
D16*
X217055000Y-109875000D02*
X217055000Y-111075000D01*
X215295000Y-111075000D02*
X215295000Y-109875000D01*
D15*
X202975000Y-103100000D02*
X203025000Y-103100000D01*
X202975000Y-98950000D02*
X203120000Y-98950000D01*
X208125000Y-98950000D02*
X207980000Y-98950000D01*
X208125000Y-103100000D02*
X207980000Y-103100000D01*
X202975000Y-103100000D02*
X202975000Y-98950000D01*
X208125000Y-103100000D02*
X208125000Y-98950000D01*
X203025000Y-103100000D02*
X203025000Y-104500000D01*
X216825000Y-100855000D02*
X215425000Y-100855000D01*
X216825000Y-105955000D02*
X220975000Y-105955000D01*
X216825000Y-100805000D02*
X220975000Y-100805000D01*
X216825000Y-105955000D02*
X216825000Y-105810000D01*
X220975000Y-105955000D02*
X220975000Y-105810000D01*
X220975000Y-100805000D02*
X220975000Y-100950000D01*
X216825000Y-100805000D02*
X216825000Y-100855000D01*
D16*
X216495000Y-115600000D02*
X216495000Y-114400000D01*
X218255000Y-114400000D02*
X218255000Y-115600000D01*
X205875000Y-115775000D02*
X204875000Y-115775000D01*
X204875000Y-117475000D02*
X205875000Y-117475000D01*
X204850000Y-115525000D02*
X205850000Y-115525000D01*
X205850000Y-113825000D02*
X204850000Y-113825000D01*
X213205000Y-114400000D02*
X213205000Y-115600000D01*
X211445000Y-115600000D02*
X211445000Y-114400000D01*
X210580000Y-114400000D02*
X210580000Y-115600000D01*
X208820000Y-115600000D02*
X208820000Y-114400000D01*
X210000000Y-85480000D02*
X208800000Y-85480000D01*
X208800000Y-83720000D02*
X210000000Y-83720000D01*
X206205000Y-94175000D02*
X206205000Y-95375000D01*
X204445000Y-95375000D02*
X204445000Y-94175000D01*
X213435000Y-100250000D02*
X213435000Y-97800000D01*
X210215000Y-98450000D02*
X210215000Y-100250000D01*
D17*
X210300000Y-68875000D02*
X202300000Y-68875000D01*
X202300000Y-68875000D02*
X202300000Y-76875000D01*
X202300000Y-76875000D02*
X210300000Y-76875000D01*
X210300000Y-76875000D02*
X210300000Y-68875000D01*
D16*
X219697905Y-86175095D02*
X220697905Y-86175095D01*
X220697905Y-84475095D02*
X219697905Y-84475095D01*
X223125000Y-98950000D02*
X222125000Y-98950000D01*
X222125000Y-100650000D02*
X223125000Y-100650000D01*
X215309620Y-97388299D02*
X214602513Y-98095406D01*
X215804594Y-99297487D02*
X216511701Y-98590380D01*
D15*
X219991400Y-83927500D02*
X223700000Y-83927500D01*
X218320700Y-78527500D02*
X223704300Y-78527500D01*
D16*
X224175000Y-85425000D02*
X224175000Y-86425000D01*
X225875000Y-86425000D02*
X225875000Y-85425000D01*
X213650000Y-82780000D02*
X212450000Y-82780000D01*
X212450000Y-81020000D02*
X213650000Y-81020000D01*
X220697905Y-86750095D02*
X219697905Y-86750095D01*
X219697905Y-88450095D02*
X220697905Y-88450095D01*
X213500000Y-78625000D02*
X212500000Y-78625000D01*
X212500000Y-80325000D02*
X213500000Y-80325000D01*
X213970000Y-115600000D02*
X213970000Y-114400000D01*
X215730000Y-114400000D02*
X215730000Y-115600000D01*
D15*
X211448000Y-89329000D02*
X211498000Y-89329000D01*
X211448000Y-85179000D02*
X211593000Y-85179000D01*
X216598000Y-85179000D02*
X216453000Y-85179000D01*
X216598000Y-89329000D02*
X216453000Y-89329000D01*
X211448000Y-89329000D02*
X211448000Y-85179000D01*
X216598000Y-89329000D02*
X216598000Y-85179000D01*
X211498000Y-89329000D02*
X211498000Y-90729000D01*
D16*
X210425000Y-103625000D02*
X210425000Y-102625000D01*
X208725000Y-102625000D02*
X208725000Y-103625000D01*
X206750000Y-94325000D02*
X206750000Y-95325000D01*
X208450000Y-95325000D02*
X208450000Y-94325000D01*
X218825000Y-90830000D02*
X217625000Y-90830000D01*
X217625000Y-89070000D02*
X218825000Y-89070000D01*
X209050000Y-94325000D02*
X209050000Y-95325000D01*
X210750000Y-95325000D02*
X210750000Y-94325000D01*
X211275000Y-94325000D02*
X211275000Y-95325000D01*
X212975000Y-95325000D02*
X212975000Y-94325000D01*
X215205000Y-94125000D02*
X215205000Y-95325000D01*
X213445000Y-95325000D02*
X213445000Y-94125000D01*
D18*
X221900000Y-122100000D02*
X221900000Y-126400000D01*
X205600000Y-122100000D02*
X221900000Y-122100000D01*
X205600000Y-126400000D02*
X205600000Y-122100000D01*
D10*
X205225000Y-126400000D02*
X205225000Y-127500000D01*
X222375000Y-126400000D02*
X222375000Y-127500000D01*
X205225000Y-126400000D02*
X222375000Y-126400000D01*
X205225000Y-127500000D02*
X222375000Y-127500000D01*
D15*
X222909524Y-68292381D02*
X222909524Y-67292381D01*
X223290477Y-67292381D01*
X223385715Y-67340000D01*
X223433334Y-67387619D01*
X223480953Y-67482857D01*
X223480953Y-67625714D01*
X223433334Y-67720952D01*
X223385715Y-67768571D01*
X223290477Y-67816190D01*
X222909524Y-67816190D01*
X223909524Y-68292381D02*
X223909524Y-67292381D01*
X224242858Y-68006667D01*
X224576191Y-67292381D01*
X224576191Y-68292381D01*
X224909524Y-67292381D02*
X225480953Y-67292381D01*
X225195238Y-68292381D02*
X225195238Y-67292381D01*
X226338096Y-68292381D02*
X225766667Y-68292381D01*
X226052381Y-68292381D02*
X226052381Y-67292381D01*
X225957143Y-67435238D01*
X225861905Y-67530476D01*
X225766667Y-67578095D01*
X218452381Y-70544762D02*
X218595238Y-70592381D01*
X218833334Y-70592381D01*
X218928572Y-70544762D01*
X218976191Y-70497143D01*
X219023810Y-70401905D01*
X219023810Y-70306667D01*
X218976191Y-70211429D01*
X218928572Y-70163810D01*
X218833334Y-70116190D01*
X218642857Y-70068571D01*
X218547619Y-70020952D01*
X218500000Y-69973333D01*
X218452381Y-69878095D01*
X218452381Y-69782857D01*
X218500000Y-69687619D01*
X218547619Y-69640000D01*
X218642857Y-69592381D01*
X218880953Y-69592381D01*
X219023810Y-69640000D01*
X219452381Y-70592381D02*
X219452381Y-69592381D01*
X219452381Y-70068571D02*
X220023810Y-70068571D01*
X220023810Y-70592381D02*
X220023810Y-69592381D01*
X220500000Y-69592381D02*
X220500000Y-70401905D01*
X220547619Y-70497143D01*
X220595238Y-70544762D01*
X220690476Y-70592381D01*
X220880953Y-70592381D01*
X220976191Y-70544762D01*
X221023810Y-70497143D01*
X221071429Y-70401905D01*
X221071429Y-69592381D01*
X221404762Y-69592381D02*
X221976191Y-69592381D01*
X221690476Y-70592381D02*
X221690476Y-69592381D01*
X222166667Y-69592381D02*
X222738096Y-69592381D01*
X222452381Y-70592381D02*
X222452381Y-69592381D01*
X223071429Y-70068571D02*
X223404763Y-70068571D01*
X223547620Y-70592381D02*
X223071429Y-70592381D01*
X223071429Y-69592381D01*
X223547620Y-69592381D01*
X224547620Y-70592381D02*
X224214286Y-70116190D01*
X223976191Y-70592381D02*
X223976191Y-69592381D01*
X224357144Y-69592381D01*
X224452382Y-69640000D01*
X224500001Y-69687619D01*
X224547620Y-69782857D01*
X224547620Y-69925714D01*
X224500001Y-70020952D01*
X224452382Y-70068571D01*
X224357144Y-70116190D01*
X223976191Y-70116190D01*
X222850000Y-107497143D02*
X223459524Y-107497143D01*
X223154762Y-107801905D02*
X223154762Y-107192381D01*
X224259524Y-107801905D02*
X223802381Y-107801905D01*
X224030952Y-107801905D02*
X224030952Y-107001905D01*
X223954762Y-107116190D01*
X223878571Y-107192381D01*
X223802381Y-107230476D01*
X224602381Y-107725714D02*
X224640476Y-107763810D01*
X224602381Y-107801905D01*
X224564286Y-107763810D01*
X224602381Y-107725714D01*
X224602381Y-107801905D01*
X224945238Y-107078095D02*
X224983333Y-107040000D01*
X225059524Y-107001905D01*
X225250000Y-107001905D01*
X225326190Y-107040000D01*
X225364286Y-107078095D01*
X225402381Y-107154286D01*
X225402381Y-107230476D01*
X225364286Y-107344762D01*
X224907143Y-107801905D01*
X225402381Y-107801905D01*
X225630952Y-107001905D02*
X225897619Y-107801905D01*
X226164286Y-107001905D01*
X222711429Y-112281429D02*
X222911429Y-112881429D01*
X223111429Y-112281429D01*
X223654286Y-112824286D02*
X223625715Y-112852857D01*
X223540001Y-112881429D01*
X223482858Y-112881429D01*
X223397143Y-112852857D01*
X223340001Y-112795714D01*
X223311429Y-112738571D01*
X223282858Y-112624286D01*
X223282858Y-112538571D01*
X223311429Y-112424286D01*
X223340001Y-112367143D01*
X223397143Y-112310000D01*
X223482858Y-112281429D01*
X223540001Y-112281429D01*
X223625715Y-112310000D01*
X223654286Y-112338571D01*
X223997143Y-112881429D02*
X223940001Y-112852857D01*
X223911429Y-112824286D01*
X223882858Y-112767143D01*
X223882858Y-112595714D01*
X223911429Y-112538571D01*
X223940001Y-112510000D01*
X223997143Y-112481429D01*
X224082858Y-112481429D01*
X224140001Y-112510000D01*
X224168572Y-112538571D01*
X224197143Y-112595714D01*
X224197143Y-112767143D01*
X224168572Y-112824286D01*
X224140001Y-112852857D01*
X224082858Y-112881429D01*
X223997143Y-112881429D01*
X224454286Y-112481429D02*
X224454286Y-112881429D01*
X224454286Y-112538571D02*
X224482858Y-112510000D01*
X224540000Y-112481429D01*
X224625715Y-112481429D01*
X224682858Y-112510000D01*
X224711429Y-112567143D01*
X224711429Y-112881429D01*
X224911429Y-112481429D02*
X225140000Y-112481429D01*
X224997143Y-112281429D02*
X224997143Y-112795714D01*
X225025715Y-112852857D01*
X225082857Y-112881429D01*
X225140000Y-112881429D01*
X225340000Y-112881429D02*
X225340000Y-112481429D01*
X225340000Y-112595714D02*
X225368572Y-112538571D01*
X225397143Y-112510000D01*
X225454286Y-112481429D01*
X225511429Y-112481429D01*
X225797143Y-112881429D02*
X225740001Y-112852857D01*
X225711429Y-112824286D01*
X225682858Y-112767143D01*
X225682858Y-112595714D01*
X225711429Y-112538571D01*
X225740001Y-112510000D01*
X225797143Y-112481429D01*
X225882858Y-112481429D01*
X225940001Y-112510000D01*
X225968572Y-112538571D01*
X225997143Y-112595714D01*
X225997143Y-112767143D01*
X225968572Y-112824286D01*
X225940001Y-112852857D01*
X225882858Y-112881429D01*
X225797143Y-112881429D01*
X226340000Y-112881429D02*
X226282858Y-112852857D01*
X226254286Y-112795714D01*
X226254286Y-112281429D01*
X202689286Y-111711429D02*
X203451191Y-111711429D01*
X203070239Y-112092381D02*
X203070239Y-111330476D01*
X204403572Y-111092381D02*
X203927381Y-111092381D01*
X203879762Y-111568571D01*
X203927381Y-111520952D01*
X204022619Y-111473333D01*
X204260715Y-111473333D01*
X204355953Y-111520952D01*
X204403572Y-111568571D01*
X204451191Y-111663810D01*
X204451191Y-111901905D01*
X204403572Y-111997143D01*
X204355953Y-112044762D01*
X204260715Y-112092381D01*
X204022619Y-112092381D01*
X203927381Y-112044762D01*
X203879762Y-111997143D01*
X204736905Y-111092381D02*
X205070238Y-112092381D01*
X205403572Y-111092381D01*
X203038096Y-106965000D02*
X202942858Y-106917381D01*
X202800001Y-106917381D01*
X202657143Y-106965000D01*
X202561905Y-107060238D01*
X202514286Y-107155476D01*
X202466667Y-107345952D01*
X202466667Y-107488810D01*
X202514286Y-107679286D01*
X202561905Y-107774524D01*
X202657143Y-107869762D01*
X202800001Y-107917381D01*
X202895239Y-107917381D01*
X203038096Y-107869762D01*
X203085715Y-107822143D01*
X203085715Y-107488810D01*
X202895239Y-107488810D01*
X203514286Y-107917381D02*
X203514286Y-106917381D01*
X204085715Y-107917381D01*
X204085715Y-106917381D01*
X204561905Y-107917381D02*
X204561905Y-106917381D01*
X204800000Y-106917381D01*
X204942858Y-106965000D01*
X205038096Y-107060238D01*
X205085715Y-107155476D01*
X205133334Y-107345952D01*
X205133334Y-107488810D01*
X205085715Y-107679286D01*
X205038096Y-107774524D01*
X204942858Y-107869762D01*
X204800000Y-107917381D01*
X204561905Y-107917381D01*
D13*
X203281904Y-88343810D02*
X203396190Y-88381905D01*
X203586666Y-88381905D01*
X203662856Y-88343810D01*
X203700952Y-88305714D01*
X203739047Y-88229524D01*
X203739047Y-88153333D01*
X203700952Y-88077143D01*
X203662856Y-88039048D01*
X203586666Y-88000952D01*
X203434285Y-87962857D01*
X203358094Y-87924762D01*
X203319999Y-87886667D01*
X203281904Y-87810476D01*
X203281904Y-87734286D01*
X203319999Y-87658095D01*
X203358094Y-87620000D01*
X203434285Y-87581905D01*
X203624761Y-87581905D01*
X203739047Y-87620000D01*
X204081904Y-88381905D02*
X204081904Y-87848571D01*
X204081904Y-87581905D02*
X204043809Y-87620000D01*
X204081904Y-87658095D01*
X204119999Y-87620000D01*
X204081904Y-87581905D01*
X204081904Y-87658095D01*
X204805713Y-87848571D02*
X204805713Y-88496190D01*
X204767618Y-88572381D01*
X204729523Y-88610476D01*
X204653332Y-88648571D01*
X204539047Y-88648571D01*
X204462856Y-88610476D01*
X204805713Y-88343810D02*
X204729523Y-88381905D01*
X204577142Y-88381905D01*
X204500951Y-88343810D01*
X204462856Y-88305714D01*
X204424761Y-88229524D01*
X204424761Y-88000952D01*
X204462856Y-87924762D01*
X204500951Y-87886667D01*
X204577142Y-87848571D01*
X204729523Y-87848571D01*
X204805713Y-87886667D01*
X205186666Y-87848571D02*
X205186666Y-88381905D01*
X205186666Y-87924762D02*
X205224761Y-87886667D01*
X205300952Y-87848571D01*
X205415238Y-87848571D01*
X205491428Y-87886667D01*
X205529523Y-87962857D01*
X205529523Y-88381905D01*
X206253333Y-88381905D02*
X206253333Y-87962857D01*
X206215238Y-87886667D01*
X206139048Y-87848571D01*
X205986667Y-87848571D01*
X205910476Y-87886667D01*
X206253333Y-88343810D02*
X206177143Y-88381905D01*
X205986667Y-88381905D01*
X205910476Y-88343810D01*
X205872381Y-88267619D01*
X205872381Y-88191429D01*
X205910476Y-88115238D01*
X205986667Y-88077143D01*
X206177143Y-88077143D01*
X206253333Y-88039048D01*
X206748572Y-88381905D02*
X206672381Y-88343810D01*
X206634286Y-88267619D01*
X206634286Y-87581905D01*
X208081906Y-87620000D02*
X208005715Y-87581905D01*
X207891430Y-87581905D01*
X207777144Y-87620000D01*
X207700953Y-87696190D01*
X207662858Y-87772381D01*
X207624763Y-87924762D01*
X207624763Y-88039048D01*
X207662858Y-88191429D01*
X207700953Y-88267619D01*
X207777144Y-88343810D01*
X207891430Y-88381905D01*
X207967620Y-88381905D01*
X208081906Y-88343810D01*
X208120001Y-88305714D01*
X208120001Y-88039048D01*
X207967620Y-88039048D01*
X208462858Y-88381905D02*
X208462858Y-87581905D01*
X208920001Y-88381905D01*
X208920001Y-87581905D01*
X209300953Y-88381905D02*
X209300953Y-87581905D01*
X209491429Y-87581905D01*
X209605715Y-87620000D01*
X209681906Y-87696190D01*
X209720001Y-87772381D01*
X209758096Y-87924762D01*
X209758096Y-88039048D01*
X209720001Y-88191429D01*
X209681906Y-88267619D01*
X209605715Y-88343810D01*
X209491429Y-88381905D01*
X209300953Y-88381905D01*
X204575714Y-82983810D02*
X204690000Y-83021905D01*
X204880476Y-83021905D01*
X204956666Y-82983810D01*
X204994762Y-82945714D01*
X205032857Y-82869524D01*
X205032857Y-82793333D01*
X204994762Y-82717143D01*
X204956666Y-82679048D01*
X204880476Y-82640952D01*
X204728095Y-82602857D01*
X204651904Y-82564762D01*
X204613809Y-82526667D01*
X204575714Y-82450476D01*
X204575714Y-82374286D01*
X204613809Y-82298095D01*
X204651904Y-82260000D01*
X204728095Y-82221905D01*
X204918571Y-82221905D01*
X205032857Y-82260000D01*
X205375714Y-83021905D02*
X205375714Y-82488571D01*
X205375714Y-82221905D02*
X205337619Y-82260000D01*
X205375714Y-82298095D01*
X205413809Y-82260000D01*
X205375714Y-82221905D01*
X205375714Y-82298095D01*
X206099523Y-82488571D02*
X206099523Y-83136190D01*
X206061428Y-83212381D01*
X206023333Y-83250476D01*
X205947142Y-83288571D01*
X205832857Y-83288571D01*
X205756666Y-83250476D01*
X206099523Y-82983810D02*
X206023333Y-83021905D01*
X205870952Y-83021905D01*
X205794761Y-82983810D01*
X205756666Y-82945714D01*
X205718571Y-82869524D01*
X205718571Y-82640952D01*
X205756666Y-82564762D01*
X205794761Y-82526667D01*
X205870952Y-82488571D01*
X206023333Y-82488571D01*
X206099523Y-82526667D01*
X206480476Y-82488571D02*
X206480476Y-83021905D01*
X206480476Y-82564762D02*
X206518571Y-82526667D01*
X206594762Y-82488571D01*
X206709048Y-82488571D01*
X206785238Y-82526667D01*
X206823333Y-82602857D01*
X206823333Y-83021905D01*
X207547143Y-83021905D02*
X207547143Y-82602857D01*
X207509048Y-82526667D01*
X207432858Y-82488571D01*
X207280477Y-82488571D01*
X207204286Y-82526667D01*
X207547143Y-82983810D02*
X207470953Y-83021905D01*
X207280477Y-83021905D01*
X207204286Y-82983810D01*
X207166191Y-82907619D01*
X207166191Y-82831429D01*
X207204286Y-82755238D01*
X207280477Y-82717143D01*
X207470953Y-82717143D01*
X207547143Y-82679048D01*
X208042382Y-83021905D02*
X207966191Y-82983810D01*
X207928096Y-82907619D01*
X207928096Y-82221905D01*
D15*
X215532143Y-108752381D02*
X215198809Y-108276190D01*
X214960714Y-108752381D02*
X214960714Y-107752381D01*
X215341667Y-107752381D01*
X215436905Y-107800000D01*
X215484524Y-107847619D01*
X215532143Y-107942857D01*
X215532143Y-108085714D01*
X215484524Y-108180952D01*
X215436905Y-108228571D01*
X215341667Y-108276190D01*
X214960714Y-108276190D01*
X216484524Y-108752381D02*
X215913095Y-108752381D01*
X216198809Y-108752381D02*
X216198809Y-107752381D01*
X216103571Y-107895238D01*
X216008333Y-107990476D01*
X215913095Y-108038095D01*
X217103571Y-107752381D02*
X217198810Y-107752381D01*
X217294048Y-107800000D01*
X217341667Y-107847619D01*
X217389286Y-107942857D01*
X217436905Y-108133333D01*
X217436905Y-108371429D01*
X217389286Y-108561905D01*
X217341667Y-108657143D01*
X217294048Y-108704762D01*
X217198810Y-108752381D01*
X217103571Y-108752381D01*
X217008333Y-108704762D01*
X216960714Y-108657143D01*
X216913095Y-108561905D01*
X216865476Y-108371429D01*
X216865476Y-108133333D01*
X216913095Y-107942857D01*
X216960714Y-107847619D01*
X217008333Y-107800000D01*
X217103571Y-107752381D01*
X201901905Y-102802381D02*
X202701905Y-102535714D01*
X201901905Y-102269047D01*
X202701905Y-101545238D02*
X202320952Y-101811905D01*
X202701905Y-102002381D02*
X201901905Y-102002381D01*
X201901905Y-101697619D01*
X201940000Y-101621428D01*
X201978095Y-101583333D01*
X202054286Y-101545238D01*
X202168571Y-101545238D01*
X202244762Y-101583333D01*
X202282857Y-101621428D01*
X202320952Y-101697619D01*
X202320952Y-102002381D01*
X202282857Y-101202381D02*
X202282857Y-100935714D01*
X202701905Y-100821428D02*
X202701905Y-101202381D01*
X201901905Y-101202381D01*
X201901905Y-100821428D01*
X202282857Y-100211904D02*
X202282857Y-100478571D01*
X202701905Y-100478571D02*
X201901905Y-100478571D01*
X201901905Y-100097618D01*
X202701905Y-99373809D02*
X202701905Y-99830952D01*
X202701905Y-99602381D02*
X201901905Y-99602381D01*
X202016190Y-99678571D01*
X202092381Y-99754762D01*
X202130476Y-99830952D01*
X216668572Y-100461429D02*
X216668572Y-99861429D01*
X216811429Y-99861429D01*
X216897144Y-99890000D01*
X216954286Y-99947143D01*
X216982858Y-100004286D01*
X217011429Y-100118571D01*
X217011429Y-100204286D01*
X216982858Y-100318571D01*
X216954286Y-100375714D01*
X216897144Y-100432857D01*
X216811429Y-100461429D01*
X216668572Y-100461429D01*
X217268572Y-100461429D02*
X217268572Y-99861429D01*
X217868572Y-99890000D02*
X217811429Y-99861429D01*
X217725715Y-99861429D01*
X217640000Y-99890000D01*
X217582858Y-99947143D01*
X217554286Y-100004286D01*
X217525715Y-100118571D01*
X217525715Y-100204286D01*
X217554286Y-100318571D01*
X217582858Y-100375714D01*
X217640000Y-100432857D01*
X217725715Y-100461429D01*
X217782858Y-100461429D01*
X217868572Y-100432857D01*
X217897143Y-100404286D01*
X217897143Y-100204286D01*
X217782858Y-100204286D01*
X218154286Y-100461429D02*
X218154286Y-99861429D01*
X218440000Y-100461429D02*
X218440000Y-99861429D01*
X218668572Y-99861429D01*
X218725714Y-99890000D01*
X218754286Y-99918571D01*
X218782857Y-99975714D01*
X218782857Y-100061429D01*
X218754286Y-100118571D01*
X218725714Y-100147143D01*
X218668572Y-100175714D01*
X218440000Y-100175714D01*
X219154286Y-99861429D02*
X219268572Y-99861429D01*
X219325714Y-99890000D01*
X219382857Y-99947143D01*
X219411429Y-100061429D01*
X219411429Y-100261429D01*
X219382857Y-100375714D01*
X219325714Y-100432857D01*
X219268572Y-100461429D01*
X219154286Y-100461429D01*
X219097143Y-100432857D01*
X219040000Y-100375714D01*
X219011429Y-100261429D01*
X219011429Y-100061429D01*
X219040000Y-99947143D01*
X219097143Y-99890000D01*
X219154286Y-99861429D01*
X219582857Y-99861429D02*
X219925714Y-99861429D01*
X219754285Y-100461429D02*
X219754285Y-99861429D01*
X220440000Y-100461429D02*
X220097143Y-100461429D01*
X220268571Y-100461429D02*
X220268571Y-99861429D01*
X220211428Y-99947143D01*
X220154286Y-100004286D01*
X220097143Y-100032857D01*
X217208334Y-113252381D02*
X216875000Y-112776190D01*
X216636905Y-113252381D02*
X216636905Y-112252381D01*
X217017858Y-112252381D01*
X217113096Y-112300000D01*
X217160715Y-112347619D01*
X217208334Y-112442857D01*
X217208334Y-112585714D01*
X217160715Y-112680952D01*
X217113096Y-112728571D01*
X217017858Y-112776190D01*
X216636905Y-112776190D01*
X218065477Y-112585714D02*
X218065477Y-113252381D01*
X217827381Y-112204762D02*
X217589286Y-112919048D01*
X218208334Y-112919048D01*
X202433334Y-116807143D02*
X202385715Y-116854762D01*
X202242858Y-116902381D01*
X202147620Y-116902381D01*
X202004762Y-116854762D01*
X201909524Y-116759524D01*
X201861905Y-116664286D01*
X201814286Y-116473810D01*
X201814286Y-116330952D01*
X201861905Y-116140476D01*
X201909524Y-116045238D01*
X202004762Y-115950000D01*
X202147620Y-115902381D01*
X202242858Y-115902381D01*
X202385715Y-115950000D01*
X202433334Y-115997619D01*
X202766667Y-115902381D02*
X203433334Y-115902381D01*
X203004762Y-116902381D01*
X202443334Y-114987143D02*
X202395715Y-115034762D01*
X202252858Y-115082381D01*
X202157620Y-115082381D01*
X202014762Y-115034762D01*
X201919524Y-114939524D01*
X201871905Y-114844286D01*
X201824286Y-114653810D01*
X201824286Y-114510952D01*
X201871905Y-114320476D01*
X201919524Y-114225238D01*
X202014762Y-114130000D01*
X202157620Y-114082381D01*
X202252858Y-114082381D01*
X202395715Y-114130000D01*
X202443334Y-114177619D01*
X203014762Y-114510952D02*
X202919524Y-114463333D01*
X202871905Y-114415714D01*
X202824286Y-114320476D01*
X202824286Y-114272857D01*
X202871905Y-114177619D01*
X202919524Y-114130000D01*
X203014762Y-114082381D01*
X203205239Y-114082381D01*
X203300477Y-114130000D01*
X203348096Y-114177619D01*
X203395715Y-114272857D01*
X203395715Y-114320476D01*
X203348096Y-114415714D01*
X203300477Y-114463333D01*
X203205239Y-114510952D01*
X203014762Y-114510952D01*
X202919524Y-114558571D01*
X202871905Y-114606190D01*
X202824286Y-114701429D01*
X202824286Y-114891905D01*
X202871905Y-114987143D01*
X202919524Y-115034762D01*
X203014762Y-115082381D01*
X203205239Y-115082381D01*
X203300477Y-115034762D01*
X203348096Y-114987143D01*
X203395715Y-114891905D01*
X203395715Y-114701429D01*
X203348096Y-114606190D01*
X203300477Y-114558571D01*
X203205239Y-114510952D01*
X212183334Y-113252381D02*
X211850000Y-112776190D01*
X211611905Y-113252381D02*
X211611905Y-112252381D01*
X211992858Y-112252381D01*
X212088096Y-112300000D01*
X212135715Y-112347619D01*
X212183334Y-112442857D01*
X212183334Y-112585714D01*
X212135715Y-112680952D01*
X212088096Y-112728571D01*
X211992858Y-112776190D01*
X211611905Y-112776190D01*
X212564286Y-112347619D02*
X212611905Y-112300000D01*
X212707143Y-112252381D01*
X212945239Y-112252381D01*
X213040477Y-112300000D01*
X213088096Y-112347619D01*
X213135715Y-112442857D01*
X213135715Y-112538095D01*
X213088096Y-112680952D01*
X212516667Y-113252381D01*
X213135715Y-113252381D01*
X209583334Y-113227381D02*
X209250000Y-112751190D01*
X209011905Y-113227381D02*
X209011905Y-112227381D01*
X209392858Y-112227381D01*
X209488096Y-112275000D01*
X209535715Y-112322619D01*
X209583334Y-112417857D01*
X209583334Y-112560714D01*
X209535715Y-112655952D01*
X209488096Y-112703571D01*
X209392858Y-112751190D01*
X209011905Y-112751190D01*
X210535715Y-113227381D02*
X209964286Y-113227381D01*
X210250000Y-113227381D02*
X210250000Y-112227381D01*
X210154762Y-112370238D01*
X210059524Y-112465476D01*
X209964286Y-112513095D01*
X209223334Y-86672381D02*
X208890000Y-86196190D01*
X208651905Y-86672381D02*
X208651905Y-85672381D01*
X209032858Y-85672381D01*
X209128096Y-85720000D01*
X209175715Y-85767619D01*
X209223334Y-85862857D01*
X209223334Y-86005714D01*
X209175715Y-86100952D01*
X209128096Y-86148571D01*
X209032858Y-86196190D01*
X208651905Y-86196190D01*
X209794762Y-86100952D02*
X209699524Y-86053333D01*
X209651905Y-86005714D01*
X209604286Y-85910476D01*
X209604286Y-85862857D01*
X209651905Y-85767619D01*
X209699524Y-85720000D01*
X209794762Y-85672381D01*
X209985239Y-85672381D01*
X210080477Y-85720000D01*
X210128096Y-85767619D01*
X210175715Y-85862857D01*
X210175715Y-85910476D01*
X210128096Y-86005714D01*
X210080477Y-86053333D01*
X209985239Y-86100952D01*
X209794762Y-86100952D01*
X209699524Y-86148571D01*
X209651905Y-86196190D01*
X209604286Y-86291429D01*
X209604286Y-86481905D01*
X209651905Y-86577143D01*
X209699524Y-86624762D01*
X209794762Y-86672381D01*
X209985239Y-86672381D01*
X210080477Y-86624762D01*
X210128096Y-86577143D01*
X210175715Y-86481905D01*
X210175715Y-86291429D01*
X210128096Y-86196190D01*
X210080477Y-86148571D01*
X209985239Y-86100952D01*
X203308334Y-95227381D02*
X202975000Y-94751190D01*
X202736905Y-95227381D02*
X202736905Y-94227381D01*
X203117858Y-94227381D01*
X203213096Y-94275000D01*
X203260715Y-94322619D01*
X203308334Y-94417857D01*
X203308334Y-94560714D01*
X203260715Y-94655952D01*
X203213096Y-94703571D01*
X203117858Y-94751190D01*
X202736905Y-94751190D01*
X203784524Y-95227381D02*
X203975000Y-95227381D01*
X204070239Y-95179762D01*
X204117858Y-95132143D01*
X204213096Y-94989286D01*
X204260715Y-94798810D01*
X204260715Y-94417857D01*
X204213096Y-94322619D01*
X204165477Y-94275000D01*
X204070239Y-94227381D01*
X203879762Y-94227381D01*
X203784524Y-94275000D01*
X203736905Y-94322619D01*
X203689286Y-94417857D01*
X203689286Y-94655952D01*
X203736905Y-94751190D01*
X203784524Y-94798810D01*
X203879762Y-94846429D01*
X204070239Y-94846429D01*
X204165477Y-94798810D01*
X204213096Y-94751190D01*
X204260715Y-94655952D01*
X208827381Y-100161905D02*
X209636905Y-100161905D01*
X209732143Y-100114286D01*
X209779762Y-100066667D01*
X209827381Y-99971429D01*
X209827381Y-99780952D01*
X209779762Y-99685714D01*
X209732143Y-99638095D01*
X209636905Y-99590476D01*
X208827381Y-99590476D01*
X209827381Y-98590476D02*
X209827381Y-99161905D01*
X209827381Y-98876191D02*
X208827381Y-98876191D01*
X208970238Y-98971429D01*
X209065476Y-99066667D01*
X209113095Y-99161905D01*
D19*
X206036333Y-69318619D02*
X206036333Y-70044333D01*
X205987953Y-70189476D01*
X205891191Y-70286238D01*
X205746048Y-70334619D01*
X205649286Y-70334619D01*
X206471762Y-69415381D02*
X206520143Y-69367000D01*
X206616905Y-69318619D01*
X206858809Y-69318619D01*
X206955571Y-69367000D01*
X207003952Y-69415381D01*
X207052333Y-69512143D01*
X207052333Y-69608905D01*
X207003952Y-69754048D01*
X206423381Y-70334619D01*
X207052333Y-70334619D01*
X202532857Y-68012857D02*
X202484476Y-68061238D01*
X202339333Y-68109619D01*
X202242571Y-68109619D01*
X202097429Y-68061238D01*
X202000667Y-67964476D01*
X201952286Y-67867714D01*
X201903905Y-67674190D01*
X201903905Y-67529048D01*
X201952286Y-67335524D01*
X202000667Y-67238762D01*
X202097429Y-67142000D01*
X202242571Y-67093619D01*
X202339333Y-67093619D01*
X202484476Y-67142000D01*
X202532857Y-67190381D01*
X203161810Y-67093619D02*
X203355333Y-67093619D01*
X203452095Y-67142000D01*
X203548857Y-67238762D01*
X203597238Y-67432286D01*
X203597238Y-67770952D01*
X203548857Y-67964476D01*
X203452095Y-68061238D01*
X203355333Y-68109619D01*
X203161810Y-68109619D01*
X203065048Y-68061238D01*
X202968286Y-67964476D01*
X202919905Y-67770952D01*
X202919905Y-67432286D01*
X202968286Y-67238762D01*
X203065048Y-67142000D01*
X203161810Y-67093619D01*
X204032667Y-68109619D02*
X204032667Y-67093619D01*
X204613238Y-68109619D01*
X204613238Y-67093619D01*
X205097048Y-68109619D02*
X205097048Y-67093619D01*
X205677619Y-68109619D01*
X205677619Y-67093619D01*
X205919524Y-68206381D02*
X206693619Y-68206381D01*
X207516095Y-68012857D02*
X207467714Y-68061238D01*
X207322571Y-68109619D01*
X207225809Y-68109619D01*
X207080667Y-68061238D01*
X206983905Y-67964476D01*
X206935524Y-67867714D01*
X206887143Y-67674190D01*
X206887143Y-67529048D01*
X206935524Y-67335524D01*
X206983905Y-67238762D01*
X207080667Y-67142000D01*
X207225809Y-67093619D01*
X207322571Y-67093619D01*
X207467714Y-67142000D01*
X207516095Y-67190381D01*
X208145048Y-67093619D02*
X208338571Y-67093619D01*
X208435333Y-67142000D01*
X208532095Y-67238762D01*
X208580476Y-67432286D01*
X208580476Y-67770952D01*
X208532095Y-67964476D01*
X208435333Y-68061238D01*
X208338571Y-68109619D01*
X208145048Y-68109619D01*
X208048286Y-68061238D01*
X207951524Y-67964476D01*
X207903143Y-67770952D01*
X207903143Y-67432286D01*
X207951524Y-67238762D01*
X208048286Y-67142000D01*
X208145048Y-67093619D01*
X208967524Y-67819333D02*
X209451333Y-67819333D01*
X208870762Y-68109619D02*
X209209429Y-67093619D01*
X209548095Y-68109619D01*
X209790000Y-67093619D02*
X210467333Y-68109619D01*
X210467333Y-67093619D02*
X209790000Y-68109619D01*
X210854381Y-68109619D02*
X210854381Y-67093619D01*
X211289810Y-67819333D02*
X211773619Y-67819333D01*
X211193048Y-68109619D02*
X211531715Y-67093619D01*
X211870381Y-68109619D01*
X212692857Y-68109619D02*
X212209048Y-68109619D01*
X212209048Y-67093619D01*
D15*
X223105048Y-85491761D02*
X223152667Y-85539380D01*
X223200286Y-85682237D01*
X223200286Y-85777475D01*
X223152667Y-85920333D01*
X223057429Y-86015571D01*
X222962191Y-86063190D01*
X222771715Y-86110809D01*
X222628857Y-86110809D01*
X222438381Y-86063190D01*
X222343143Y-86015571D01*
X222247905Y-85920333D01*
X222200286Y-85777475D01*
X222200286Y-85682237D01*
X222247905Y-85539380D01*
X222295524Y-85491761D01*
X222295524Y-85110809D02*
X222247905Y-85063190D01*
X222200286Y-84967952D01*
X222200286Y-84729856D01*
X222247905Y-84634618D01*
X222295524Y-84586999D01*
X222390762Y-84539380D01*
X222486000Y-84539380D01*
X222628857Y-84586999D01*
X223200286Y-85158428D01*
X223200286Y-84539380D01*
X222007143Y-98632143D02*
X221959524Y-98679762D01*
X221816667Y-98727381D01*
X221721429Y-98727381D01*
X221578571Y-98679762D01*
X221483333Y-98584524D01*
X221435714Y-98489286D01*
X221388095Y-98298810D01*
X221388095Y-98155952D01*
X221435714Y-97965476D01*
X221483333Y-97870238D01*
X221578571Y-97775000D01*
X221721429Y-97727381D01*
X221816667Y-97727381D01*
X221959524Y-97775000D01*
X222007143Y-97822619D01*
X222959524Y-98727381D02*
X222388095Y-98727381D01*
X222673809Y-98727381D02*
X222673809Y-97727381D01*
X222578571Y-97870238D01*
X222483333Y-97965476D01*
X222388095Y-98013095D01*
X223292857Y-97727381D02*
X223911905Y-97727381D01*
X223578571Y-98108333D01*
X223721429Y-98108333D01*
X223816667Y-98155952D01*
X223864286Y-98203571D01*
X223911905Y-98298810D01*
X223911905Y-98536905D01*
X223864286Y-98632143D01*
X223816667Y-98679762D01*
X223721429Y-98727381D01*
X223435714Y-98727381D01*
X223340476Y-98679762D01*
X223292857Y-98632143D01*
X217509688Y-96495389D02*
X217509688Y-96562732D01*
X217442344Y-96697419D01*
X217375001Y-96764763D01*
X217240313Y-96832107D01*
X217105626Y-96832107D01*
X217004611Y-96798435D01*
X216836253Y-96697420D01*
X216735237Y-96596404D01*
X216634222Y-96428045D01*
X216600550Y-96327030D01*
X216600550Y-96192343D01*
X216667894Y-96057656D01*
X216735237Y-95990312D01*
X216869924Y-95922969D01*
X216937268Y-95922969D01*
X217509688Y-95215862D02*
X217172970Y-95552580D01*
X217476015Y-95922969D01*
X217476015Y-95855626D01*
X217509687Y-95754610D01*
X217678046Y-95586251D01*
X217779061Y-95552579D01*
X217846405Y-95552579D01*
X217947421Y-95586252D01*
X218115779Y-95754610D01*
X218149451Y-95855626D01*
X218149451Y-95922969D01*
X218115779Y-96023984D01*
X217947420Y-96192343D01*
X217846405Y-96226015D01*
X217779061Y-96226015D01*
X220131414Y-77919167D02*
X220607605Y-77919167D01*
X220036176Y-78204881D02*
X220369509Y-77204881D01*
X220702843Y-78204881D01*
X221036176Y-78204881D02*
X221036176Y-77204881D01*
X221274271Y-77204881D01*
X221417129Y-77252500D01*
X221512367Y-77347738D01*
X221559986Y-77442976D01*
X221607605Y-77633452D01*
X221607605Y-77776310D01*
X221559986Y-77966786D01*
X221512367Y-78062024D01*
X221417129Y-78157262D01*
X221274271Y-78204881D01*
X221036176Y-78204881D01*
X222607605Y-78109643D02*
X222559986Y-78157262D01*
X222417129Y-78204881D01*
X222321891Y-78204881D01*
X222179033Y-78157262D01*
X222083795Y-78062024D01*
X222036176Y-77966786D01*
X221988557Y-77776310D01*
X221988557Y-77633452D01*
X222036176Y-77442976D01*
X222083795Y-77347738D01*
X222179033Y-77252500D01*
X222321891Y-77204881D01*
X222417129Y-77204881D01*
X222559986Y-77252500D01*
X222607605Y-77300119D01*
X223559986Y-78204881D02*
X222988557Y-78204881D01*
X223274271Y-78204881D02*
X223274271Y-77204881D01*
X223179033Y-77347738D01*
X223083795Y-77442976D01*
X222988557Y-77490595D01*
X224883334Y-88957143D02*
X224835715Y-89004762D01*
X224692858Y-89052381D01*
X224597620Y-89052381D01*
X224454762Y-89004762D01*
X224359524Y-88909524D01*
X224311905Y-88814286D01*
X224264286Y-88623810D01*
X224264286Y-88480952D01*
X224311905Y-88290476D01*
X224359524Y-88195238D01*
X224454762Y-88100000D01*
X224597620Y-88052381D01*
X224692858Y-88052381D01*
X224835715Y-88100000D01*
X224883334Y-88147619D01*
X225216667Y-88052381D02*
X225835715Y-88052381D01*
X225502381Y-88433333D01*
X225645239Y-88433333D01*
X225740477Y-88480952D01*
X225788096Y-88528571D01*
X225835715Y-88623810D01*
X225835715Y-88861905D01*
X225788096Y-88957143D01*
X225740477Y-89004762D01*
X225645239Y-89052381D01*
X225359524Y-89052381D01*
X225264286Y-89004762D01*
X225216667Y-88957143D01*
X210158334Y-82277381D02*
X209825000Y-81801190D01*
X209586905Y-82277381D02*
X209586905Y-81277381D01*
X209967858Y-81277381D01*
X210063096Y-81325000D01*
X210110715Y-81372619D01*
X210158334Y-81467857D01*
X210158334Y-81610714D01*
X210110715Y-81705952D01*
X210063096Y-81753571D01*
X209967858Y-81801190D01*
X209586905Y-81801190D01*
X211015477Y-81277381D02*
X210825000Y-81277381D01*
X210729762Y-81325000D01*
X210682143Y-81372619D01*
X210586905Y-81515476D01*
X210539286Y-81705952D01*
X210539286Y-82086905D01*
X210586905Y-82182143D01*
X210634524Y-82229762D01*
X210729762Y-82277381D01*
X210920239Y-82277381D01*
X211015477Y-82229762D01*
X211063096Y-82182143D01*
X211110715Y-82086905D01*
X211110715Y-81848810D01*
X211063096Y-81753571D01*
X211015477Y-81705952D01*
X210920239Y-81658333D01*
X210729762Y-81658333D01*
X210634524Y-81705952D01*
X210586905Y-81753571D01*
X210539286Y-81848810D01*
X223057143Y-87766666D02*
X223104762Y-87814285D01*
X223152381Y-87957142D01*
X223152381Y-88052380D01*
X223104762Y-88195238D01*
X223009524Y-88290476D01*
X222914286Y-88338095D01*
X222723810Y-88385714D01*
X222580952Y-88385714D01*
X222390476Y-88338095D01*
X222295238Y-88290476D01*
X222200000Y-88195238D01*
X222152381Y-88052380D01*
X222152381Y-87957142D01*
X222200000Y-87814285D01*
X222247619Y-87766666D01*
X223152381Y-86814285D02*
X223152381Y-87385714D01*
X223152381Y-87100000D02*
X222152381Y-87100000D01*
X222295238Y-87195238D01*
X222390476Y-87290476D01*
X222438095Y-87385714D01*
X210033334Y-79852143D02*
X209985715Y-79899762D01*
X209842858Y-79947381D01*
X209747620Y-79947381D01*
X209604762Y-79899762D01*
X209509524Y-79804524D01*
X209461905Y-79709286D01*
X209414286Y-79518810D01*
X209414286Y-79375952D01*
X209461905Y-79185476D01*
X209509524Y-79090238D01*
X209604762Y-78995000D01*
X209747620Y-78947381D01*
X209842858Y-78947381D01*
X209985715Y-78995000D01*
X210033334Y-79042619D01*
X210890477Y-79280714D02*
X210890477Y-79947381D01*
X210652381Y-78899762D02*
X210414286Y-79614048D01*
X211033334Y-79614048D01*
X214683334Y-113277381D02*
X214350000Y-112801190D01*
X214111905Y-113277381D02*
X214111905Y-112277381D01*
X214492858Y-112277381D01*
X214588096Y-112325000D01*
X214635715Y-112372619D01*
X214683334Y-112467857D01*
X214683334Y-112610714D01*
X214635715Y-112705952D01*
X214588096Y-112753571D01*
X214492858Y-112801190D01*
X214111905Y-112801190D01*
X215016667Y-112277381D02*
X215635715Y-112277381D01*
X215302381Y-112658333D01*
X215445239Y-112658333D01*
X215540477Y-112705952D01*
X215588096Y-112753571D01*
X215635715Y-112848810D01*
X215635715Y-113086905D01*
X215588096Y-113182143D01*
X215540477Y-113229762D01*
X215445239Y-113277381D01*
X215159524Y-113277381D01*
X215064286Y-113229762D01*
X215016667Y-113182143D01*
X210127381Y-90261905D02*
X210936905Y-90261905D01*
X211032143Y-90214286D01*
X211079762Y-90166667D01*
X211127381Y-90071429D01*
X211127381Y-89880952D01*
X211079762Y-89785714D01*
X211032143Y-89738095D01*
X210936905Y-89690476D01*
X210127381Y-89690476D01*
X210222619Y-89261905D02*
X210175000Y-89214286D01*
X210127381Y-89119048D01*
X210127381Y-88880952D01*
X210175000Y-88785714D01*
X210222619Y-88738095D01*
X210317857Y-88690476D01*
X210413095Y-88690476D01*
X210555952Y-88738095D01*
X211127381Y-89309524D01*
X211127381Y-88690476D01*
X211083334Y-103432143D02*
X211035715Y-103479762D01*
X210892858Y-103527381D01*
X210797620Y-103527381D01*
X210654762Y-103479762D01*
X210559524Y-103384524D01*
X210511905Y-103289286D01*
X210464286Y-103098810D01*
X210464286Y-102955952D01*
X210511905Y-102765476D01*
X210559524Y-102670238D01*
X210654762Y-102575000D01*
X210797620Y-102527381D01*
X210892858Y-102527381D01*
X211035715Y-102575000D01*
X211083334Y-102622619D01*
X211559524Y-103527381D02*
X211750000Y-103527381D01*
X211845239Y-103479762D01*
X211892858Y-103432143D01*
X211988096Y-103289286D01*
X212035715Y-103098810D01*
X212035715Y-102717857D01*
X211988096Y-102622619D01*
X211940477Y-102575000D01*
X211845239Y-102527381D01*
X211654762Y-102527381D01*
X211559524Y-102575000D01*
X211511905Y-102622619D01*
X211464286Y-102717857D01*
X211464286Y-102955952D01*
X211511905Y-103051190D01*
X211559524Y-103098810D01*
X211654762Y-103146429D01*
X211845239Y-103146429D01*
X211940477Y-103098810D01*
X211988096Y-103051190D01*
X212035715Y-102955952D01*
X207075714Y-92625714D02*
X207037619Y-92663810D01*
X206923333Y-92701905D01*
X206847143Y-92701905D01*
X206732857Y-92663810D01*
X206656666Y-92587619D01*
X206618571Y-92511429D01*
X206580476Y-92359048D01*
X206580476Y-92244762D01*
X206618571Y-92092381D01*
X206656666Y-92016190D01*
X206732857Y-91940000D01*
X206847143Y-91901905D01*
X206923333Y-91901905D01*
X207037619Y-91940000D01*
X207075714Y-91978095D01*
X207837619Y-92701905D02*
X207380476Y-92701905D01*
X207609047Y-92701905D02*
X207609047Y-91901905D01*
X207532857Y-92016190D01*
X207456666Y-92092381D01*
X207380476Y-92130476D01*
X208332857Y-91901905D02*
X208409048Y-91901905D01*
X208485238Y-91940000D01*
X208523333Y-91978095D01*
X208561429Y-92054286D01*
X208599524Y-92206667D01*
X208599524Y-92397143D01*
X208561429Y-92549524D01*
X208523333Y-92625714D01*
X208485238Y-92663810D01*
X208409048Y-92701905D01*
X208332857Y-92701905D01*
X208256667Y-92663810D01*
X208218571Y-92625714D01*
X208180476Y-92549524D01*
X208142381Y-92397143D01*
X208142381Y-92206667D01*
X208180476Y-92054286D01*
X208218571Y-91978095D01*
X208256667Y-91940000D01*
X208332857Y-91901905D01*
X218043334Y-92062381D02*
X217710000Y-91586190D01*
X217471905Y-92062381D02*
X217471905Y-91062381D01*
X217852858Y-91062381D01*
X217948096Y-91110000D01*
X217995715Y-91157619D01*
X218043334Y-91252857D01*
X218043334Y-91395714D01*
X217995715Y-91490952D01*
X217948096Y-91538571D01*
X217852858Y-91586190D01*
X217471905Y-91586190D01*
X218948096Y-91062381D02*
X218471905Y-91062381D01*
X218424286Y-91538571D01*
X218471905Y-91490952D01*
X218567143Y-91443333D01*
X218805239Y-91443333D01*
X218900477Y-91490952D01*
X218948096Y-91538571D01*
X218995715Y-91633810D01*
X218995715Y-91871905D01*
X218948096Y-91967143D01*
X218900477Y-92014762D01*
X218805239Y-92062381D01*
X218567143Y-92062381D01*
X218471905Y-92014762D01*
X218424286Y-91967143D01*
X209375714Y-92625714D02*
X209337619Y-92663810D01*
X209223333Y-92701905D01*
X209147143Y-92701905D01*
X209032857Y-92663810D01*
X208956666Y-92587619D01*
X208918571Y-92511429D01*
X208880476Y-92359048D01*
X208880476Y-92244762D01*
X208918571Y-92092381D01*
X208956666Y-92016190D01*
X209032857Y-91940000D01*
X209147143Y-91901905D01*
X209223333Y-91901905D01*
X209337619Y-91940000D01*
X209375714Y-91978095D01*
X210137619Y-92701905D02*
X209680476Y-92701905D01*
X209909047Y-92701905D02*
X209909047Y-91901905D01*
X209832857Y-92016190D01*
X209756666Y-92092381D01*
X209680476Y-92130476D01*
X210899524Y-92701905D02*
X210442381Y-92701905D01*
X210670952Y-92701905D02*
X210670952Y-91901905D01*
X210594762Y-92016190D01*
X210518571Y-92092381D01*
X210442381Y-92130476D01*
X211595714Y-92655714D02*
X211557619Y-92693810D01*
X211443333Y-92731905D01*
X211367143Y-92731905D01*
X211252857Y-92693810D01*
X211176666Y-92617619D01*
X211138571Y-92541429D01*
X211100476Y-92389048D01*
X211100476Y-92274762D01*
X211138571Y-92122381D01*
X211176666Y-92046190D01*
X211252857Y-91970000D01*
X211367143Y-91931905D01*
X211443333Y-91931905D01*
X211557619Y-91970000D01*
X211595714Y-92008095D01*
X212357619Y-92731905D02*
X211900476Y-92731905D01*
X212129047Y-92731905D02*
X212129047Y-91931905D01*
X212052857Y-92046190D01*
X211976666Y-92122381D01*
X211900476Y-92160476D01*
X212662381Y-92008095D02*
X212700476Y-91970000D01*
X212776667Y-91931905D01*
X212967143Y-91931905D01*
X213043333Y-91970000D01*
X213081429Y-92008095D01*
X213119524Y-92084286D01*
X213119524Y-92160476D01*
X213081429Y-92274762D01*
X212624286Y-92731905D01*
X213119524Y-92731905D01*
X216033334Y-94427381D02*
X215700000Y-93951190D01*
X215461905Y-94427381D02*
X215461905Y-93427381D01*
X215842858Y-93427381D01*
X215938096Y-93475000D01*
X215985715Y-93522619D01*
X216033334Y-93617857D01*
X216033334Y-93760714D01*
X215985715Y-93855952D01*
X215938096Y-93903571D01*
X215842858Y-93951190D01*
X215461905Y-93951190D01*
X216366667Y-93427381D02*
X217033334Y-93427381D01*
X216604762Y-94427381D01*
X213966667Y-113562381D02*
X213966667Y-114276667D01*
X213919047Y-114419524D01*
X213823809Y-114514762D01*
X213680952Y-114562381D01*
X213585714Y-114562381D01*
X214966667Y-114562381D02*
X214395238Y-114562381D01*
X214680952Y-114562381D02*
X214680952Y-113562381D01*
X214585714Y-113705238D01*
X214490476Y-113800476D01*
X214395238Y-113848095D01*
M02*
