%TF.GenerationSoftware,KiCad,Pcbnew,(2017-06-25 revision 6a3c1720b)-makepkg*%
%TF.CreationDate,2017-07-11T00:42:26-04:00*%
%TF.ProjectId,pmt-transimpedance-amplifier,706D742D7472616E73696D706564616E,rev?*%
%TF.SameCoordinates,Original%
%TF.FileFunction,Soldermask,Top*%
%TF.FilePolarity,Negative*%
%FSLAX46Y46*%
G04 Gerber Fmt 4.6, Leading zero omitted, Abs format (unit mm)*
G04 Created by KiCad (PCBNEW (2017-06-25 revision 6a3c1720b)-makepkg) date 07/11/17 00:42:26*
%MOMM*%
%LPD*%
G01*
G04 APERTURE LIST*
%ADD10C,0.100000*%
%ADD11C,0.150000*%
%ADD12C,0.050000*%
%ADD13C,0.200000*%
%ADD14C,0.250000*%
%ADD15R,1.700000X1.100000*%
%ADD16C,1.924000*%
%ADD17R,1.000000X1.950000*%
%ADD18R,1.950000X1.000000*%
%ADD19R,1.400000X1.650000*%
%ADD20C,1.920000*%
%ADD21R,1.920000X1.920000*%
%ADD22C,5.860000*%
%ADD23R,1.100000X1.700000*%
%ADD24R,1.050000X1.460000*%
%ADD25C,2.800000*%
%ADD26C,2.900000*%
%ADD27C,1.400000*%
%ADD28R,2.000000X0.810000*%
%ADD29R,1.650000X1.400000*%
G04 APERTURE END LIST*
D10*
D11*
X225743536Y-115100000D02*
G75*
G03X225743536Y-115100000I-1783536J0D01*
G01*
D10*
X223230000Y-116490000D02*
X222910000Y-116410000D01*
X223590000Y-116710000D02*
X223510000Y-116620000D01*
X224030000Y-116760000D02*
X223850000Y-116640000D01*
X222770000Y-116160000D02*
X222550000Y-116050000D01*
D12*
X224800000Y-116570000D02*
X224630000Y-116560000D01*
X222480000Y-115850000D02*
X222340000Y-115710000D01*
X222300000Y-115560000D02*
X222250000Y-115340000D01*
X225410000Y-116030000D02*
X225300000Y-116170000D01*
X225320000Y-114070000D02*
X225430000Y-114190000D01*
X225710000Y-115010000D02*
X225710000Y-115210000D01*
D10*
X222250000Y-114850000D02*
X222400000Y-114750000D01*
X222350000Y-114500000D02*
X222530000Y-114400000D01*
X224640000Y-113650000D02*
X224780000Y-113630000D01*
D12*
X222590000Y-114180000D02*
X222790000Y-114000000D01*
X222550000Y-114180000D02*
X222740000Y-113980000D01*
X222510000Y-114180000D02*
X222700000Y-113971142D01*
X223820000Y-113470000D02*
X224050000Y-113440000D01*
X224050084Y-113411528D02*
X223750000Y-114149572D01*
D10*
X222980000Y-113750000D02*
X223282153Y-113756280D01*
X222890000Y-113810000D02*
X223192153Y-113816280D01*
D13*
X223100000Y-113730000D02*
X223402153Y-113736280D01*
X223460000Y-113770000D02*
X223470000Y-113570000D01*
X223530000Y-113750000D02*
X223540000Y-113550000D01*
X223187847Y-113733720D02*
X223490000Y-113740000D01*
D12*
X223090000Y-113630000D02*
X223400000Y-113630000D01*
X223130000Y-116590000D02*
X222810000Y-116380000D01*
X223610000Y-116420000D02*
X223630000Y-116470000D01*
X225451097Y-116030000D02*
X225310000Y-116220000D01*
X222670000Y-116250000D02*
X222480000Y-116020000D01*
X224070000Y-116790000D02*
X223810000Y-116790000D01*
X222300000Y-115690000D02*
X223800000Y-115690000D01*
X224613026Y-113525075D02*
X224840117Y-113622399D01*
X224840117Y-113622399D02*
X223830000Y-114540000D01*
X225460000Y-114180000D02*
X223900000Y-114880000D01*
X223390000Y-116590000D02*
X223130000Y-116590000D01*
X222210000Y-115340000D02*
X223920000Y-115340000D01*
X223630000Y-116760000D02*
X223390000Y-116700000D01*
D14*
X223521687Y-116492528D02*
X223510000Y-116620000D01*
X223777653Y-115793547D02*
X224630000Y-116550000D01*
D12*
X223390000Y-116700000D02*
X223390000Y-116590000D01*
X224830000Y-116580000D02*
X224600000Y-116690000D01*
X225750000Y-115000000D02*
X225750000Y-115220000D01*
D14*
X223140000Y-116480000D02*
X223500000Y-116480000D01*
X223684127Y-116143045D02*
X223890000Y-116680000D01*
D12*
X223610000Y-116250000D02*
X222670000Y-116250000D01*
X224600000Y-116690000D02*
X223740000Y-115910000D01*
X222260000Y-115560000D02*
X222210000Y-115340000D01*
D14*
X223900714Y-115448976D02*
X225280000Y-116080000D01*
D13*
X223850000Y-114770000D02*
X225320000Y-114120000D01*
X223770000Y-114450000D02*
X224660000Y-113640000D01*
D12*
X222300000Y-114540000D02*
X222390000Y-114310000D01*
X223870000Y-115560000D02*
X222260000Y-115560000D01*
X223742513Y-114314483D02*
X224613026Y-113525075D01*
X223820000Y-114660000D02*
X225330000Y-114000000D01*
D13*
X222440000Y-114420000D02*
X223802266Y-114430036D01*
X223664438Y-114090386D02*
X223910000Y-113500000D01*
D12*
X222200000Y-115220000D02*
X222200000Y-115000000D01*
X223890000Y-114880000D02*
X222200000Y-114880000D01*
X223810000Y-116790000D02*
X223610000Y-116250000D01*
D14*
X222710000Y-116130000D02*
X223680000Y-116140000D01*
X222470000Y-115800000D02*
X223777653Y-115793547D01*
D12*
X222200000Y-114880000D02*
X222250000Y-114660000D01*
X225330000Y-114000000D02*
X225460000Y-114180000D01*
X222810000Y-116380000D02*
X223530000Y-116380000D01*
X223830000Y-114540000D02*
X222300000Y-114540000D01*
X223540000Y-116380000D02*
X223610000Y-116420000D01*
X223800000Y-116090000D02*
X224070000Y-116790000D01*
X225310000Y-116220000D02*
X223870000Y-115560000D01*
X223920000Y-115340000D02*
X225450000Y-116030000D01*
D14*
X222350000Y-115450000D02*
X223900714Y-115448976D01*
D12*
X225750000Y-115220000D02*
X222200000Y-115220000D01*
D13*
X222280000Y-115110000D02*
X225670000Y-115100000D01*
D12*
X223890000Y-115730000D02*
X224830000Y-116580000D01*
X222200000Y-115000000D02*
X225750000Y-115000000D01*
D13*
X222320000Y-114760000D02*
X223851490Y-114784449D01*
D12*
X223720000Y-116020000D02*
X223800000Y-116090000D01*
X222410000Y-115910000D02*
X222300000Y-115690000D01*
X223800000Y-115690000D02*
X223890000Y-115730000D01*
D13*
X222700000Y-114090000D02*
X223664438Y-114090386D01*
D12*
X222480000Y-116020000D02*
X223720000Y-116020000D01*
X223630000Y-116470000D02*
X223630000Y-116760000D01*
X223740000Y-115910000D02*
X222410000Y-115910000D01*
X222250000Y-114660000D02*
X223810000Y-114660000D01*
X222390000Y-114310000D02*
X223730000Y-114310000D01*
X223620000Y-113970000D02*
X223829023Y-113411528D01*
X223553266Y-113849488D02*
X222785483Y-113849488D01*
X223720000Y-114190000D02*
X222470000Y-114190000D01*
X224085852Y-113411528D02*
X223785768Y-114149572D01*
X222785483Y-113849488D02*
X223090000Y-113630000D01*
X223599429Y-113819929D02*
X223553266Y-113849488D01*
X222660000Y-113970000D02*
X223600000Y-113970000D01*
X222470000Y-114190000D02*
X222655723Y-113971142D01*
X223829023Y-113411528D02*
X224085852Y-113411528D01*
X223785768Y-114149572D02*
X223726292Y-114187420D01*
X223623555Y-113768385D02*
X223599429Y-113819929D01*
X223390000Y-113620000D02*
X223391058Y-113503446D01*
X223391058Y-113503446D02*
X223623555Y-113438563D01*
X223623555Y-113438563D02*
X223623555Y-113768385D01*
D15*
%TO.C,R10*%
X216175000Y-111425000D03*
X216175000Y-109525000D03*
%TD*%
D16*
%TO.C,PMT1*%
X206350000Y-112540000D03*
X221590000Y-112540000D03*
X221590000Y-107460000D03*
X206350000Y-107460000D03*
X206350000Y-89660000D03*
X206350000Y-84580000D03*
X221590000Y-71880000D03*
%TD*%
D17*
%TO.C,VREF1*%
X203645000Y-103725000D03*
X204915000Y-103725000D03*
X206185000Y-103725000D03*
X207455000Y-103725000D03*
X207455000Y-98325000D03*
X206185000Y-98325000D03*
X204915000Y-98325000D03*
X203645000Y-98325000D03*
%TD*%
D18*
%TO.C,DIGIPOT1*%
X221600000Y-101475000D03*
X221600000Y-102745000D03*
X221600000Y-104015000D03*
X221600000Y-105285000D03*
X216200000Y-105285000D03*
X216200000Y-104015000D03*
X216200000Y-102745000D03*
X216200000Y-101475000D03*
%TD*%
D15*
%TO.C,R4*%
X217375000Y-114050000D03*
X217375000Y-115950000D03*
%TD*%
D19*
%TO.C,C7*%
X204375000Y-116625000D03*
X206375000Y-116625000D03*
%TD*%
%TO.C,C8*%
X206350000Y-114675000D03*
X204350000Y-114675000D03*
%TD*%
D20*
%TO.C,J1*%
X209455000Y-123640000D03*
X209455000Y-121100000D03*
X211995000Y-123640000D03*
X211995000Y-121100000D03*
X214535000Y-123640000D03*
X214535000Y-121100000D03*
X217075000Y-123640000D03*
X217075000Y-121100000D03*
X219615000Y-123640000D03*
D21*
X219615000Y-121100000D03*
D22*
X200565000Y-122370000D03*
X228505000Y-122370000D03*
%TD*%
D15*
%TO.C,R2*%
X212325000Y-115950000D03*
X212325000Y-114050000D03*
%TD*%
%TO.C,R1*%
X209700000Y-115950000D03*
X209700000Y-114050000D03*
%TD*%
D23*
%TO.C,R8*%
X208450000Y-84600000D03*
X210350000Y-84600000D03*
%TD*%
D15*
%TO.C,R9*%
X205325000Y-95725000D03*
X205325000Y-93825000D03*
%TD*%
D24*
%TO.C,U1*%
X212775000Y-100450000D03*
X210875000Y-100450000D03*
X210875000Y-98250000D03*
X211825000Y-98250000D03*
X212775000Y-98250000D03*
%TD*%
D25*
%TO.C,J2*%
X206300000Y-72875000D03*
D26*
X203760000Y-70335000D03*
X208840000Y-70335000D03*
X208840000Y-75415000D03*
X203760000Y-75415000D03*
%TD*%
D19*
%TO.C,C2*%
X221197905Y-85325095D03*
X219197905Y-85325095D03*
%TD*%
%TO.C,C13*%
X221625000Y-99800000D03*
X223625000Y-99800000D03*
%TD*%
D27*
%TO.C,C5*%
X214850000Y-99050000D03*
D10*
%TO.C,*%
G36*
X214761612Y-97971662D02*
X215928338Y-99138388D01*
X214938388Y-100128338D01*
X213771662Y-98961612D01*
X214761612Y-97971662D01*
X214761612Y-97971662D01*
G37*
D27*
%TO.C,C5*%
X216264214Y-97635786D03*
D10*
%TO.C,*%
G36*
X216175826Y-96557448D02*
X217342552Y-97724174D01*
X216352602Y-98714124D01*
X215185876Y-97547398D01*
X216175826Y-96557448D01*
X216175826Y-96557448D01*
G37*
%TD*%
D28*
%TO.C,ADC1*%
X219191400Y-79030000D03*
X219191400Y-79665000D03*
X219191400Y-80300000D03*
X219191400Y-80935000D03*
X219191400Y-81570000D03*
X219191400Y-82205000D03*
X219191400Y-82840000D03*
X219191400Y-83475000D03*
X224500000Y-83475000D03*
X224500000Y-82840000D03*
X224500000Y-82205000D03*
X224500000Y-81570000D03*
X224500000Y-80935000D03*
X224500000Y-80300000D03*
X224500000Y-79665000D03*
X224500000Y-79030000D03*
%TD*%
D29*
%TO.C,C3*%
X225025000Y-86925000D03*
X225025000Y-84925000D03*
%TD*%
D23*
%TO.C,R6*%
X212100000Y-81900000D03*
X214000000Y-81900000D03*
%TD*%
D19*
%TO.C,C1*%
X219197905Y-87600095D03*
X221197905Y-87600095D03*
%TD*%
%TO.C,C4*%
X212000000Y-79475000D03*
X214000000Y-79475000D03*
%TD*%
D15*
%TO.C,R3*%
X214850000Y-114050000D03*
X214850000Y-115950000D03*
%TD*%
D17*
%TO.C,U2*%
X212118000Y-89954000D03*
X213388000Y-89954000D03*
X214658000Y-89954000D03*
X215928000Y-89954000D03*
X215928000Y-84554000D03*
X214658000Y-84554000D03*
X213388000Y-84554000D03*
X212118000Y-84554000D03*
%TD*%
D29*
%TO.C,C9*%
X209575000Y-102125000D03*
X209575000Y-104125000D03*
%TD*%
%TO.C,C10*%
X207600000Y-95825000D03*
X207600000Y-93825000D03*
%TD*%
D23*
%TO.C,R5*%
X217275000Y-89950000D03*
X219175000Y-89950000D03*
%TD*%
D29*
%TO.C,C11*%
X209900000Y-95825000D03*
X209900000Y-93825000D03*
%TD*%
%TO.C,C12*%
X212125000Y-95825000D03*
X212125000Y-93825000D03*
%TD*%
D15*
%TO.C,R7*%
X214325000Y-95675000D03*
X214325000Y-93775000D03*
%TD*%
M02*
