G04 #@! TF.GenerationSoftware,KiCad,Pcbnew,(2017-06-25 revision 6a3c1720b)-makepkg*
G04 #@! TF.CreationDate,2017-08-03T12:33:03-04:00*
G04 #@! TF.ProjectId,pmt-transimpedance-amplifier_small_con,706D742D7472616E73696D706564616E,rev?*
G04 #@! TF.SameCoordinates,Original
G04 #@! TF.FileFunction,Copper,L1,Top,Signal*
G04 #@! TF.FilePolarity,Positive*
%FSLAX46Y46*%
G04 Gerber Fmt 4.6, Leading zero omitted, Abs format (unit mm)*
G04 Created by KiCad (PCBNEW (2017-06-25 revision 6a3c1720b)-makepkg) date 08/03/17 12:33:03*
%MOMM*%
%LPD*%
G01*
G04 APERTURE LIST*
%ADD10C,0.100000*%
%ADD11R,1.800000X2.600000*%
%ADD12R,0.600000X2.200000*%
%ADD13R,1.300000X0.700000*%
%ADD14C,1.524000*%
%ADD15R,0.600000X1.550000*%
%ADD16R,1.550000X0.600000*%
%ADD17R,1.000000X1.250000*%
%ADD18R,0.700000X1.300000*%
%ADD19R,0.650000X1.060000*%
%ADD20C,2.400000*%
%ADD21C,2.500000*%
%ADD22C,1.000000*%
%ADD23R,1.600000X0.410000*%
%ADD24R,1.250000X1.000000*%
%ADD25C,0.600000*%
%ADD26C,0.250000*%
%ADD27C,0.200000*%
%ADD28C,0.254000*%
G04 APERTURE END LIST*
D10*
D11*
X221350000Y-121650000D03*
X207150000Y-121650000D03*
D12*
X209750000Y-119250000D03*
X210750000Y-119250000D03*
X211750000Y-119250000D03*
X212750000Y-119250000D03*
X213750000Y-119250000D03*
X214750000Y-119250000D03*
X215750000Y-119250000D03*
X216750000Y-119250000D03*
X217750000Y-119250000D03*
X218750000Y-119250000D03*
D13*
X216175000Y-111425000D03*
X216175000Y-109525000D03*
D14*
X206350000Y-112540000D03*
X221590000Y-112540000D03*
X221590000Y-107460000D03*
X206350000Y-107460000D03*
X206350000Y-89660000D03*
X206350000Y-84580000D03*
X221590000Y-71880000D03*
D15*
X203645000Y-103725000D03*
X204915000Y-103725000D03*
X206185000Y-103725000D03*
X207455000Y-103725000D03*
X207455000Y-98325000D03*
X206185000Y-98325000D03*
X204915000Y-98325000D03*
X203645000Y-98325000D03*
D16*
X221600000Y-101475000D03*
X221600000Y-102745000D03*
X221600000Y-104015000D03*
X221600000Y-105285000D03*
X216200000Y-105285000D03*
X216200000Y-104015000D03*
X216200000Y-102745000D03*
X216200000Y-101475000D03*
D13*
X217375000Y-114050000D03*
X217375000Y-115950000D03*
D17*
X204375000Y-116625000D03*
X206375000Y-116625000D03*
X206350000Y-114675000D03*
X204350000Y-114675000D03*
D13*
X212325000Y-115950000D03*
X212325000Y-114050000D03*
X209700000Y-115950000D03*
X209700000Y-114050000D03*
D18*
X208450000Y-84600000D03*
X210350000Y-84600000D03*
D13*
X205325000Y-95725000D03*
X205325000Y-93825000D03*
D19*
X212775000Y-100450000D03*
X210875000Y-100450000D03*
X210875000Y-98250000D03*
X211825000Y-98250000D03*
X212775000Y-98250000D03*
D20*
X206300000Y-72875000D03*
D21*
X203760000Y-70335000D03*
X208840000Y-70335000D03*
X208840000Y-75415000D03*
X203760000Y-75415000D03*
D17*
X221197905Y-85325095D03*
X219197905Y-85325095D03*
X221625000Y-99800000D03*
X223625000Y-99800000D03*
D22*
X214850000Y-99050000D03*
D10*
G36*
X214761612Y-98254505D02*
X215645495Y-99138388D01*
X214938388Y-99845495D01*
X214054505Y-98961612D01*
X214761612Y-98254505D01*
X214761612Y-98254505D01*
G37*
D22*
X216264214Y-97635786D03*
D10*
G36*
X216175826Y-96840291D02*
X217059709Y-97724174D01*
X216352602Y-98431281D01*
X215468719Y-97547398D01*
X216175826Y-96840291D01*
X216175826Y-96840291D01*
G37*
D23*
X219191400Y-79030000D03*
X219191400Y-79665000D03*
X219191400Y-80300000D03*
X219191400Y-80935000D03*
X219191400Y-81570000D03*
X219191400Y-82205000D03*
X219191400Y-82840000D03*
X219191400Y-83475000D03*
X224500000Y-83475000D03*
X224500000Y-82840000D03*
X224500000Y-82205000D03*
X224500000Y-81570000D03*
X224500000Y-80935000D03*
X224500000Y-80300000D03*
X224500000Y-79665000D03*
X224500000Y-79030000D03*
D24*
X225025000Y-86925000D03*
X225025000Y-84925000D03*
D18*
X212100000Y-81900000D03*
X214000000Y-81900000D03*
D17*
X219197905Y-87600095D03*
X221197905Y-87600095D03*
X212000000Y-79475000D03*
X214000000Y-79475000D03*
D13*
X214850000Y-114050000D03*
X214850000Y-115950000D03*
D15*
X212118000Y-89954000D03*
X213388000Y-89954000D03*
X214658000Y-89954000D03*
X215928000Y-89954000D03*
X215928000Y-84554000D03*
X214658000Y-84554000D03*
X213388000Y-84554000D03*
X212118000Y-84554000D03*
D24*
X209575000Y-102125000D03*
X209575000Y-104125000D03*
X207600000Y-95825000D03*
X207600000Y-93825000D03*
D18*
X217275000Y-89950000D03*
X219175000Y-89950000D03*
D24*
X209900000Y-95825000D03*
X209900000Y-93825000D03*
X212125000Y-95825000D03*
X212125000Y-93825000D03*
D13*
X214325000Y-95675000D03*
X214325000Y-93775000D03*
D25*
X218775000Y-118475000D03*
X217925000Y-82850000D03*
X207459998Y-104900000D03*
X204890000Y-104880000D03*
X225040000Y-87910000D03*
X224740000Y-99800000D03*
X207400000Y-97110002D03*
X206100000Y-97089998D03*
X212130000Y-96760000D03*
X211800000Y-97300000D03*
X210870000Y-97290000D03*
X217040000Y-96830000D03*
X217925000Y-82225000D03*
X221225000Y-88700000D03*
X221197905Y-86475000D03*
X217950000Y-80900000D03*
X209075000Y-105025000D03*
X206625000Y-96575000D03*
X211050000Y-95825000D03*
X208775000Y-95825000D03*
X216550000Y-91525000D03*
X203375000Y-116475000D03*
X203350000Y-114725000D03*
X218090000Y-93890000D03*
X215706591Y-81943403D03*
X217075000Y-93025000D03*
X222900000Y-102800000D03*
X210749998Y-121775000D03*
X210750000Y-119250000D03*
X215600000Y-92900000D03*
X215525000Y-88025000D03*
X215525000Y-86525000D03*
X210850000Y-70925000D03*
X206250000Y-70850000D03*
X203875000Y-72800000D03*
X209075000Y-72800000D03*
X208250000Y-87500000D03*
X214925000Y-83100000D03*
X218025012Y-100250000D03*
X216899998Y-100250000D03*
X210825000Y-117050000D03*
X214225000Y-105275000D03*
X218000000Y-111000000D03*
X218600000Y-99075000D03*
X212975000Y-112650000D03*
X218000000Y-109000000D03*
X214200000Y-112650000D03*
X212975000Y-110650000D03*
X210975000Y-112650000D03*
X218600000Y-106950000D03*
X214200000Y-110650000D03*
X212975000Y-108650000D03*
X210975000Y-110650000D03*
X218600000Y-104950000D03*
X214200000Y-108650000D03*
X212975000Y-106650000D03*
X210975000Y-108650000D03*
X218600000Y-102950000D03*
X214200000Y-106650000D03*
X212975000Y-104650000D03*
X210975000Y-106650000D03*
X214325000Y-102900000D03*
X216150000Y-106975000D03*
X215475000Y-78500000D03*
X215475000Y-80150000D03*
X206250000Y-91100000D03*
X214325000Y-92200000D03*
X210250000Y-92200000D03*
X208250000Y-92200000D03*
X206250000Y-92200000D03*
X204250000Y-92200000D03*
X212450000Y-92200000D03*
X210250000Y-90800000D03*
X208250000Y-90800000D03*
X204250000Y-90800000D03*
X214250000Y-88050000D03*
X212250000Y-88050000D03*
X210250000Y-88050000D03*
X208250000Y-88875000D03*
X206250000Y-87625000D03*
X204075000Y-88125000D03*
X202350000Y-88050000D03*
X214250000Y-86550000D03*
X212250000Y-86550000D03*
X210250000Y-86550000D03*
X208250000Y-86550000D03*
X206250000Y-86550000D03*
X204250000Y-86550000D03*
X202350000Y-86550000D03*
X204250000Y-84800000D03*
X202350000Y-84800000D03*
X210250000Y-82800000D03*
X208250000Y-82800000D03*
X204250000Y-82800000D03*
X202350000Y-82800000D03*
X210250000Y-80800000D03*
X208250000Y-80800000D03*
X204250000Y-80800000D03*
X202350000Y-80800000D03*
X214250000Y-78050000D03*
X212250000Y-78050000D03*
X210250000Y-78800000D03*
X208250000Y-78800000D03*
X204250000Y-78800000D03*
X202350000Y-78800000D03*
X210550000Y-76975000D03*
X208250000Y-77300000D03*
X204250000Y-77300000D03*
X202350000Y-76800000D03*
X210850000Y-74800000D03*
X210850000Y-72800000D03*
X202375000Y-72750000D03*
X210250000Y-68800000D03*
X206250000Y-68800000D03*
X202250000Y-68800000D03*
D26*
X219191400Y-82840000D02*
X217935000Y-82840000D01*
X217935000Y-82840000D02*
X217925000Y-82850000D01*
X207459998Y-104475736D02*
X207459998Y-104900000D01*
X207459998Y-103575002D02*
X207459998Y-104475736D01*
X207510000Y-103525000D02*
X207459998Y-103575002D01*
X204890000Y-104455736D02*
X204890000Y-104880000D01*
X204890000Y-103605000D02*
X204890000Y-104455736D01*
X204970000Y-103525000D02*
X204890000Y-103605000D01*
X225025000Y-87895000D02*
X225040000Y-87910000D01*
X225025000Y-86925000D02*
X225025000Y-87895000D01*
X223625000Y-99800000D02*
X224740000Y-99800000D01*
X207400000Y-97534266D02*
X207400000Y-97110002D01*
X207400000Y-98015000D02*
X207400000Y-97534266D01*
X207510000Y-98125000D02*
X207400000Y-98015000D01*
X206100000Y-97514262D02*
X206100000Y-97089998D01*
X206100000Y-97985000D02*
X206100000Y-97514262D01*
X206240000Y-98125000D02*
X206100000Y-97985000D01*
X212125000Y-96755000D02*
X212130000Y-96760000D01*
X212125000Y-95825000D02*
X212125000Y-96755000D01*
X211825000Y-97325000D02*
X211800000Y-97300000D01*
X211825000Y-98250000D02*
X211825000Y-97325000D01*
X210875000Y-98250000D02*
X210875000Y-97295000D01*
X210875000Y-97295000D02*
X210870000Y-97290000D01*
X217040000Y-96860000D02*
X217040000Y-96830000D01*
X216264214Y-97635786D02*
X217040000Y-96860000D01*
X210875000Y-98250000D02*
X210875000Y-98618629D01*
X206350000Y-89660000D02*
X211824000Y-89660000D01*
X211824000Y-89660000D02*
X212118000Y-89954000D01*
X217945000Y-82205000D02*
X217925000Y-82225000D01*
X219191400Y-82205000D02*
X217945000Y-82205000D01*
X221197905Y-87600095D02*
X221197905Y-88672905D01*
X221197905Y-88672905D02*
X221225000Y-88700000D01*
X221197905Y-85325095D02*
X221197905Y-86475000D01*
X221197905Y-87600095D02*
X221197905Y-86475000D01*
X219191400Y-80935000D02*
X217985000Y-80935000D01*
X217985000Y-80935000D02*
X217950000Y-80900000D01*
X209575000Y-104125000D02*
X209575000Y-104525000D01*
X209575000Y-104525000D02*
X209075000Y-105025000D01*
X207600000Y-95825000D02*
X207375000Y-95825000D01*
X207375000Y-95825000D02*
X206625000Y-96575000D01*
X211050000Y-95825000D02*
X212125000Y-95825000D01*
X209900000Y-95825000D02*
X211050000Y-95825000D01*
X208775000Y-95825000D02*
X209900000Y-95825000D01*
X207600000Y-95825000D02*
X208775000Y-95825000D01*
X214658000Y-89954000D02*
X214658000Y-90429000D01*
X214658000Y-90429000D02*
X215754000Y-91525000D01*
X215754000Y-91525000D02*
X216550000Y-91525000D01*
X204350000Y-114675000D02*
X204350000Y-116600000D01*
X204350000Y-116600000D02*
X204375000Y-116625000D01*
X204375000Y-116625000D02*
X203525000Y-116625000D01*
X203525000Y-116625000D02*
X203375000Y-116475000D01*
X204350000Y-114675000D02*
X203400000Y-114675000D01*
X203400000Y-114675000D02*
X203350000Y-114725000D01*
X214850000Y-81900000D02*
X216250000Y-83300000D01*
X214000000Y-81900000D02*
X214850000Y-81900000D01*
X216503001Y-83558999D02*
X216503001Y-88353999D01*
X216250000Y-83300000D02*
X216250000Y-83305998D01*
X216250000Y-83305998D02*
X216503001Y-83558999D01*
X216503001Y-88353999D02*
X215928000Y-88929000D01*
X215928000Y-88929000D02*
X215928000Y-89954000D01*
X216750000Y-119250000D02*
X216750000Y-118354998D01*
X216750000Y-118354998D02*
X217304988Y-117800010D01*
X217304988Y-117800010D02*
X218599990Y-117800010D01*
X218599990Y-117800010D02*
X220175000Y-116225000D01*
X221625000Y-99800000D02*
X221050000Y-99800000D01*
X221050000Y-99800000D02*
X220175000Y-100675000D01*
X220175000Y-100675000D02*
X220175000Y-116225000D01*
X218090000Y-93890000D02*
X218090000Y-93980000D01*
X218090000Y-93980000D02*
X214850000Y-97220000D01*
X214850000Y-97220000D02*
X214850000Y-99050000D01*
X225025000Y-84925000D02*
X225025000Y-84905000D01*
X225025000Y-84905000D02*
X225724990Y-84205010D01*
X225724990Y-84205010D02*
X225724990Y-83014990D01*
X224500000Y-83475000D02*
X224500000Y-84400000D01*
X224500000Y-84400000D02*
X225025000Y-84925000D01*
X225550000Y-82840000D02*
X225724990Y-83014990D01*
X216825000Y-79425000D02*
X216825000Y-80824994D01*
X218175000Y-78075000D02*
X216825000Y-79425000D01*
X225275000Y-78075000D02*
X218175000Y-78075000D01*
X217075000Y-93025000D02*
X218225000Y-91875000D01*
X218225000Y-88750000D02*
X217350000Y-87875000D01*
X224500000Y-82840000D02*
X225550000Y-82840000D01*
X225725000Y-82665000D02*
X225725000Y-78525000D01*
X225550000Y-82840000D02*
X225725000Y-82665000D01*
X216006590Y-81643404D02*
X215706591Y-81943403D01*
X217350000Y-83586812D02*
X216006590Y-82243402D01*
X217350000Y-87875000D02*
X217350000Y-83586812D01*
X218225000Y-91875000D02*
X218225000Y-88750000D01*
X216825000Y-80824994D02*
X216006590Y-81643404D01*
X215706591Y-82031591D02*
X215706591Y-81943403D01*
X216006590Y-82243402D02*
X215706591Y-81943403D01*
X215725000Y-82050000D02*
X215706591Y-82031591D01*
X225725000Y-78525000D02*
X225275000Y-78075000D01*
X221625000Y-102830000D02*
X222870000Y-102830000D01*
X222870000Y-102830000D02*
X222900000Y-102800000D01*
X212125000Y-93825000D02*
X212250000Y-93825000D01*
X212250000Y-93825000D02*
X213275000Y-94850000D01*
X213275000Y-94850000D02*
X216100000Y-94850000D01*
X216100000Y-94850000D02*
X220350000Y-90600000D01*
X220350000Y-90600000D02*
X220350000Y-81678600D01*
X220350000Y-81678600D02*
X220241400Y-81570000D01*
X220241400Y-81570000D02*
X219191400Y-81570000D01*
X209900000Y-93825000D02*
X212125000Y-93825000D01*
X207600000Y-93825000D02*
X209900000Y-93825000D01*
X205325000Y-93825000D02*
X207600000Y-93825000D01*
X215928000Y-89954000D02*
X217271000Y-89954000D01*
X217271000Y-89954000D02*
X217275000Y-89950000D01*
X214000000Y-81900000D02*
X214000000Y-79475000D01*
X206375000Y-116625000D02*
X207125000Y-116625000D01*
X207125000Y-116625000D02*
X208750000Y-118250000D01*
X208750000Y-118250000D02*
X208750000Y-120625000D01*
X208750000Y-120625000D02*
X209250000Y-121125000D01*
X209250000Y-121125000D02*
X215100000Y-121125000D01*
X215100000Y-121125000D02*
X215750000Y-120475000D01*
X215750000Y-120475000D02*
X215750000Y-119250000D01*
X221590000Y-71880000D02*
X226125000Y-76415000D01*
X226125000Y-76415000D02*
X226125000Y-120450000D01*
X226125000Y-120450000D02*
X222925000Y-123650000D01*
X222925000Y-123650000D02*
X219800000Y-123650000D01*
X219800000Y-123650000D02*
X218224999Y-122074999D01*
X218224999Y-122074999D02*
X211049997Y-122074999D01*
X211049997Y-122074999D02*
X210749998Y-121775000D01*
D27*
X216175000Y-109525000D02*
X216175000Y-108975000D01*
X216175000Y-108975000D02*
X218025012Y-107124988D01*
X218025012Y-107124988D02*
X218025012Y-100674264D01*
X218025012Y-100674264D02*
X218025012Y-100250000D01*
D26*
X217750000Y-119250000D02*
X217750000Y-120050000D01*
X221590000Y-118510000D02*
X221590000Y-115714998D01*
X217750000Y-120050000D02*
X218425000Y-120725000D01*
X218425000Y-120725000D02*
X219375000Y-120725000D01*
X219375000Y-120725000D02*
X221590000Y-118510000D01*
X221590000Y-115714998D02*
X221590000Y-112540000D01*
X208450000Y-84600000D02*
X210350000Y-84600000D01*
X210350000Y-84600000D02*
X212072000Y-84600000D01*
X212072000Y-84600000D02*
X212118000Y-84554000D01*
X212100000Y-81900000D02*
X212100000Y-84536000D01*
X212100000Y-84536000D02*
X212118000Y-84554000D01*
X212100000Y-81900000D02*
X212100000Y-79575000D01*
X212100000Y-79575000D02*
X212000000Y-79475000D01*
X214658000Y-83367000D02*
X214925000Y-83100000D01*
X214658000Y-84554000D02*
X214658000Y-83367000D01*
X221625000Y-97125000D02*
X221900000Y-96850000D01*
X221900000Y-96850000D02*
X223974999Y-94775001D01*
X225025000Y-84925000D02*
X224900000Y-84925000D01*
X224900000Y-84925000D02*
X223974999Y-85850001D01*
X223974999Y-85850001D02*
X223974999Y-94775001D01*
X212775000Y-100450000D02*
X213450000Y-100450000D01*
X213450000Y-100450000D02*
X214850000Y-99050000D01*
X209575000Y-102125000D02*
X211305000Y-102125000D01*
X211305000Y-102125000D02*
X212775000Y-100655000D01*
X212775000Y-100655000D02*
X212775000Y-100450000D01*
X206185000Y-103725000D02*
X206185000Y-102700000D01*
X208700000Y-102125000D02*
X209575000Y-102125000D01*
X206185000Y-102700000D02*
X206760000Y-102125000D01*
X206760000Y-102125000D02*
X208700000Y-102125000D01*
X203700000Y-103525000D02*
X203700000Y-103050000D01*
X203700000Y-103050000D02*
X204275001Y-102474999D01*
X204275001Y-102474999D02*
X205664999Y-102474999D01*
X205664999Y-102474999D02*
X206240000Y-103050000D01*
X206240000Y-103050000D02*
X206240000Y-103525000D01*
X221625000Y-99800000D02*
X221625000Y-97125000D01*
X221625000Y-99800000D02*
X221625000Y-101560000D01*
X221590000Y-107460000D02*
X221590000Y-105405000D01*
X221590000Y-105405000D02*
X221625000Y-105370000D01*
X206350000Y-114675000D02*
X206350000Y-112540000D01*
X206375000Y-116625000D02*
X206375000Y-114700000D01*
X206375000Y-114700000D02*
X206350000Y-114675000D01*
D27*
X216599999Y-100549999D02*
X216899998Y-100250000D01*
X216225000Y-100924998D02*
X216599999Y-100549999D01*
X216225000Y-101560000D02*
X216225000Y-100924998D01*
X223350022Y-93684948D02*
X223350022Y-88775000D01*
X223350022Y-88775000D02*
X223350022Y-88556778D01*
X224500000Y-82205000D02*
X223500000Y-82205000D01*
X223500000Y-82205000D02*
X223350022Y-82354978D01*
X223350022Y-82354978D02*
X223350022Y-88775000D01*
X217375000Y-114050000D02*
X217375000Y-113500000D01*
X217375000Y-113500000D02*
X219249990Y-111625010D01*
X219249990Y-97784980D02*
X223350022Y-93684948D01*
X219249990Y-111625010D02*
X219249990Y-97784980D01*
D26*
X214750000Y-119250000D02*
X214750000Y-118354998D01*
X214750000Y-118354998D02*
X215704998Y-117400000D01*
X215704998Y-117400000D02*
X216975000Y-117400000D01*
X216975000Y-117400000D02*
X217400000Y-116975000D01*
X217400000Y-116975000D02*
X218150000Y-116975000D01*
X216175000Y-114345002D02*
X216175000Y-111425000D01*
X218150000Y-116975000D02*
X218525000Y-116600000D01*
X218525000Y-116600000D02*
X218525000Y-115325000D01*
X218525000Y-115325000D02*
X218200000Y-115000000D01*
X218200000Y-115000000D02*
X216829998Y-115000000D01*
X216829998Y-115000000D02*
X216175000Y-114345002D01*
X213750000Y-119250000D02*
X213750000Y-118025000D01*
X213750000Y-118025000D02*
X214825000Y-116950000D01*
X217300000Y-116125000D02*
X217300000Y-115975000D01*
X214825000Y-116950000D02*
X216475000Y-116950000D01*
X216475000Y-116950000D02*
X217300000Y-116125000D01*
X217300000Y-115975000D02*
X217350000Y-115975000D01*
X217350000Y-115975000D02*
X217375000Y-115950000D01*
X217375000Y-115950000D02*
X217225000Y-115950000D01*
X209700000Y-115950000D02*
X209700000Y-119200000D01*
X209700000Y-119200000D02*
X209750000Y-119250000D01*
X209750000Y-116000000D02*
X209700000Y-115950000D01*
X211750000Y-119250000D02*
X211750000Y-116525000D01*
X211750000Y-116525000D02*
X212325000Y-115950000D01*
X212325000Y-115955000D02*
X212325000Y-115950000D01*
X216225000Y-105370000D02*
X216150000Y-105445000D01*
D27*
X223500000Y-81570000D02*
X224500000Y-81570000D01*
X223000014Y-82069986D02*
X223500000Y-81570000D01*
X214850000Y-114050000D02*
X214850000Y-104625000D01*
X223000011Y-93539969D02*
X223000011Y-88271789D01*
X217475002Y-103324998D02*
X217475002Y-99064978D01*
X214850000Y-104625000D02*
X215375000Y-104100000D01*
X215375000Y-104100000D02*
X216700000Y-104100000D01*
X216700000Y-104100000D02*
X217475002Y-103324998D01*
X217475002Y-99064978D02*
X223000011Y-93539969D01*
X223000011Y-88271789D02*
X223000014Y-82069986D01*
X212325000Y-114050000D02*
X212325000Y-103719990D01*
X212325000Y-103719990D02*
X222650000Y-93394990D01*
X222650000Y-93394990D02*
X222650000Y-81785000D01*
X222650000Y-81785000D02*
X223500000Y-80935000D01*
X223500000Y-80935000D02*
X224500000Y-80935000D01*
X209700000Y-114050000D02*
X210550000Y-114050000D01*
X210550000Y-114050000D02*
X211450000Y-114950000D01*
X211450000Y-114950000D02*
X213125000Y-114950000D01*
X213125000Y-114950000D02*
X213600000Y-114475000D01*
X213600000Y-114475000D02*
X213600000Y-104980000D01*
X213600000Y-104980000D02*
X215750000Y-102830000D01*
X215750000Y-102830000D02*
X216225000Y-102830000D01*
X209700000Y-114050000D02*
X209700000Y-105850000D01*
X209700000Y-105850000D02*
X222275000Y-93275000D01*
X222275000Y-93275000D02*
X222275000Y-81525000D01*
X222275000Y-81525000D02*
X223500000Y-80300000D01*
X223500000Y-80300000D02*
X224500000Y-80300000D01*
D26*
X221590000Y-112540000D02*
X222875000Y-111255000D01*
X221625000Y-104100000D02*
X222650000Y-104100000D01*
X222650000Y-104100000D02*
X222875000Y-104325000D01*
X222875000Y-104325000D02*
X222875000Y-111255000D01*
X219191400Y-83475000D02*
X219191400Y-85318590D01*
X219191400Y-85318590D02*
X219197905Y-85325095D01*
X219197905Y-83481505D02*
X219191400Y-83475000D01*
X219197905Y-85325095D02*
X219197905Y-85200095D01*
X219197905Y-87600095D02*
X219197905Y-85325095D01*
X219197905Y-89625095D02*
X219197905Y-87600095D01*
X204915000Y-98325000D02*
X204915000Y-96135000D01*
X204915000Y-96135000D02*
X205325000Y-95725000D01*
X204970000Y-98125000D02*
X203700000Y-98125000D01*
X206350000Y-84580000D02*
X208430000Y-84580000D01*
X208430000Y-84580000D02*
X208450000Y-84600000D01*
X206300000Y-72875000D02*
X206300000Y-84530000D01*
X207050000Y-84855000D02*
X207100000Y-84905000D01*
X210875000Y-100450000D02*
X211450000Y-100450000D01*
X211450000Y-100450000D02*
X212775000Y-99125000D01*
X212775000Y-99125000D02*
X212775000Y-99030000D01*
X212775000Y-99030000D02*
X212775000Y-98250000D01*
X212775000Y-98250000D02*
X213350000Y-98250000D01*
X213350000Y-98250000D02*
X214325000Y-97275000D01*
X214325000Y-97275000D02*
X214325000Y-96275000D01*
X214325000Y-96275000D02*
X214325000Y-95675000D01*
X212750000Y-119250000D02*
X212750000Y-117750000D01*
X212750000Y-117750000D02*
X214550000Y-115950000D01*
X214550000Y-115950000D02*
X214850000Y-115950000D01*
X214850000Y-116175000D02*
X214850000Y-115950000D01*
D28*
G36*
X211373000Y-77500000D02*
X211382667Y-77548601D01*
X211410197Y-77589803D01*
X211451399Y-77617333D01*
X211500000Y-77627000D01*
X215873000Y-77627000D01*
X215873000Y-81067058D01*
X215673684Y-81266374D01*
X215572518Y-81266286D01*
X215323602Y-81369136D01*
X215170482Y-81521989D01*
X215042107Y-81436212D01*
X214850000Y-81397999D01*
X214849995Y-81398000D01*
X214734385Y-81398000D01*
X214734385Y-81250000D01*
X214705125Y-81102902D01*
X214621801Y-80978199D01*
X214502000Y-80898150D01*
X214502000Y-80483987D01*
X214647098Y-80455125D01*
X214771801Y-80371801D01*
X214855125Y-80247098D01*
X214884385Y-80100000D01*
X214884385Y-78850000D01*
X214855125Y-78702902D01*
X214771801Y-78578199D01*
X214647098Y-78494875D01*
X214500000Y-78465615D01*
X213500000Y-78465615D01*
X213352902Y-78494875D01*
X213228199Y-78578199D01*
X213144875Y-78702902D01*
X213115615Y-78850000D01*
X213115615Y-80100000D01*
X213144875Y-80247098D01*
X213228199Y-80371801D01*
X213352902Y-80455125D01*
X213498000Y-80483987D01*
X213498000Y-80898150D01*
X213378199Y-80978199D01*
X213294875Y-81102902D01*
X213265615Y-81250000D01*
X213265615Y-82550000D01*
X213294875Y-82697098D01*
X213378199Y-82821801D01*
X213502902Y-82905125D01*
X213650000Y-82934385D01*
X214260725Y-82934385D01*
X214248118Y-82964746D01*
X214248005Y-83094386D01*
X214194212Y-83174893D01*
X214155999Y-83367000D01*
X214156000Y-83367005D01*
X214156000Y-83460559D01*
X214086199Y-83507199D01*
X214002875Y-83631902D01*
X213973615Y-83779000D01*
X213973615Y-85329000D01*
X214002875Y-85476098D01*
X214086199Y-85600801D01*
X214210902Y-85684125D01*
X214358000Y-85713385D01*
X214958000Y-85713385D01*
X215105098Y-85684125D01*
X215229801Y-85600801D01*
X215293000Y-85506217D01*
X215356199Y-85600801D01*
X215480902Y-85684125D01*
X215628000Y-85713385D01*
X215873000Y-85713385D01*
X215873000Y-88274065D01*
X215573032Y-88574032D01*
X215464212Y-88736893D01*
X215441700Y-88850069D01*
X215356199Y-88907199D01*
X215293000Y-89001783D01*
X215229801Y-88907199D01*
X215105098Y-88823875D01*
X214958000Y-88794615D01*
X214358000Y-88794615D01*
X214210902Y-88823875D01*
X214086199Y-88907199D01*
X214002875Y-89031902D01*
X213973615Y-89179000D01*
X213973615Y-90729000D01*
X214002875Y-90876098D01*
X214086199Y-91000801D01*
X214210902Y-91084125D01*
X214358000Y-91113385D01*
X214632449Y-91113385D01*
X215399032Y-91879968D01*
X215561892Y-91988788D01*
X215754000Y-92027001D01*
X215754005Y-92027000D01*
X215873000Y-92027000D01*
X215873000Y-94348000D01*
X213482936Y-94348000D01*
X213377000Y-94242064D01*
X213377000Y-93000000D01*
X213367333Y-92951399D01*
X213339803Y-92910197D01*
X213298601Y-92882667D01*
X213250000Y-92873000D01*
X203802000Y-92873000D01*
X203802000Y-89885567D01*
X205210803Y-89885567D01*
X205383840Y-90304349D01*
X205703966Y-90625034D01*
X206122445Y-90798802D01*
X206575567Y-90799197D01*
X206994349Y-90626160D01*
X207315034Y-90306034D01*
X207374842Y-90162000D01*
X211433615Y-90162000D01*
X211433615Y-90729000D01*
X211462875Y-90876098D01*
X211546199Y-91000801D01*
X211670902Y-91084125D01*
X211818000Y-91113385D01*
X212418000Y-91113385D01*
X212565098Y-91084125D01*
X212689801Y-91000801D01*
X212773125Y-90876098D01*
X212802385Y-90729000D01*
X212802385Y-89179000D01*
X212773125Y-89031902D01*
X212689801Y-88907199D01*
X212565098Y-88823875D01*
X212418000Y-88794615D01*
X211818000Y-88794615D01*
X211670902Y-88823875D01*
X211546199Y-88907199D01*
X211462875Y-89031902D01*
X211437792Y-89158000D01*
X207374977Y-89158000D01*
X207316160Y-89015651D01*
X206996034Y-88694966D01*
X206577555Y-88521198D01*
X206124433Y-88520803D01*
X205705651Y-88693840D01*
X205384966Y-89013966D01*
X205211198Y-89432445D01*
X205210803Y-89885567D01*
X203802000Y-89885567D01*
X203802000Y-89000000D01*
X203792333Y-88951399D01*
X203764803Y-88910197D01*
X203723601Y-88882667D01*
X203675000Y-88873000D01*
X202127000Y-88873000D01*
X202127000Y-73187308D01*
X204722727Y-73187308D01*
X204962305Y-73767132D01*
X205405535Y-74211136D01*
X205798000Y-74374101D01*
X205798000Y-83575682D01*
X205705651Y-83613840D01*
X205384966Y-83933966D01*
X205211198Y-84352445D01*
X205210803Y-84805567D01*
X205383840Y-85224349D01*
X205703966Y-85545034D01*
X206122445Y-85718802D01*
X206575567Y-85719197D01*
X206994349Y-85546160D01*
X207142150Y-85398617D01*
X207292108Y-85368788D01*
X207454968Y-85259968D01*
X207563788Y-85097108D01*
X207566793Y-85082000D01*
X207715615Y-85082000D01*
X207715615Y-85250000D01*
X207744875Y-85397098D01*
X207828199Y-85521801D01*
X207952902Y-85605125D01*
X208100000Y-85634385D01*
X208800000Y-85634385D01*
X208947098Y-85605125D01*
X209071801Y-85521801D01*
X209155125Y-85397098D01*
X209184385Y-85250000D01*
X209184385Y-85102000D01*
X209615615Y-85102000D01*
X209615615Y-85250000D01*
X209644875Y-85397098D01*
X209728199Y-85521801D01*
X209852902Y-85605125D01*
X210000000Y-85634385D01*
X210700000Y-85634385D01*
X210847098Y-85605125D01*
X210971801Y-85521801D01*
X211055125Y-85397098D01*
X211084385Y-85250000D01*
X211084385Y-85102000D01*
X211433615Y-85102000D01*
X211433615Y-85329000D01*
X211462875Y-85476098D01*
X211546199Y-85600801D01*
X211670902Y-85684125D01*
X211818000Y-85713385D01*
X212418000Y-85713385D01*
X212565098Y-85684125D01*
X212689801Y-85600801D01*
X212773125Y-85476098D01*
X212802385Y-85329000D01*
X212802385Y-83779000D01*
X212773125Y-83631902D01*
X212689801Y-83507199D01*
X212602000Y-83448532D01*
X212602000Y-82901850D01*
X212721801Y-82821801D01*
X212805125Y-82697098D01*
X212834385Y-82550000D01*
X212834385Y-81250000D01*
X212805125Y-81102902D01*
X212721801Y-80978199D01*
X212602000Y-80898150D01*
X212602000Y-80464096D01*
X212647098Y-80455125D01*
X212771801Y-80371801D01*
X212855125Y-80247098D01*
X212884385Y-80100000D01*
X212884385Y-78850000D01*
X212855125Y-78702902D01*
X212771801Y-78578199D01*
X212647098Y-78494875D01*
X212500000Y-78465615D01*
X211500000Y-78465615D01*
X211352902Y-78494875D01*
X211228199Y-78578199D01*
X211144875Y-78702902D01*
X211115615Y-78850000D01*
X211115615Y-80100000D01*
X211144875Y-80247098D01*
X211228199Y-80371801D01*
X211352902Y-80455125D01*
X211500000Y-80484385D01*
X211598000Y-80484385D01*
X211598000Y-80898150D01*
X211478199Y-80978199D01*
X211394875Y-81102902D01*
X211365615Y-81250000D01*
X211365615Y-82550000D01*
X211394875Y-82697098D01*
X211478199Y-82821801D01*
X211598000Y-82901850D01*
X211598000Y-83472587D01*
X211546199Y-83507199D01*
X211462875Y-83631902D01*
X211433615Y-83779000D01*
X211433615Y-84098000D01*
X211084385Y-84098000D01*
X211084385Y-83950000D01*
X211055125Y-83802902D01*
X210971801Y-83678199D01*
X210847098Y-83594875D01*
X210700000Y-83565615D01*
X210000000Y-83565615D01*
X209852902Y-83594875D01*
X209728199Y-83678199D01*
X209644875Y-83802902D01*
X209615615Y-83950000D01*
X209615615Y-84098000D01*
X209184385Y-84098000D01*
X209184385Y-83950000D01*
X209155125Y-83802902D01*
X209071801Y-83678199D01*
X208947098Y-83594875D01*
X208800000Y-83565615D01*
X208100000Y-83565615D01*
X207952902Y-83594875D01*
X207828199Y-83678199D01*
X207744875Y-83802902D01*
X207715615Y-83950000D01*
X207715615Y-84078000D01*
X207374977Y-84078000D01*
X207316160Y-83935651D01*
X206996034Y-83614966D01*
X206802000Y-83534396D01*
X206802000Y-74373894D01*
X207192132Y-74212695D01*
X207636136Y-73769465D01*
X207876725Y-73190061D01*
X207877273Y-72562692D01*
X207637695Y-71982868D01*
X207194465Y-71538864D01*
X206615061Y-71298275D01*
X205987692Y-71297727D01*
X205407868Y-71537305D01*
X204963864Y-71980535D01*
X204723275Y-72559939D01*
X204722727Y-73187308D01*
X202127000Y-73187308D01*
X202127000Y-68651667D01*
X211373000Y-68627335D01*
X211373000Y-77500000D01*
X211373000Y-77500000D01*
G37*
X211373000Y-77500000D02*
X211382667Y-77548601D01*
X211410197Y-77589803D01*
X211451399Y-77617333D01*
X211500000Y-77627000D01*
X215873000Y-77627000D01*
X215873000Y-81067058D01*
X215673684Y-81266374D01*
X215572518Y-81266286D01*
X215323602Y-81369136D01*
X215170482Y-81521989D01*
X215042107Y-81436212D01*
X214850000Y-81397999D01*
X214849995Y-81398000D01*
X214734385Y-81398000D01*
X214734385Y-81250000D01*
X214705125Y-81102902D01*
X214621801Y-80978199D01*
X214502000Y-80898150D01*
X214502000Y-80483987D01*
X214647098Y-80455125D01*
X214771801Y-80371801D01*
X214855125Y-80247098D01*
X214884385Y-80100000D01*
X214884385Y-78850000D01*
X214855125Y-78702902D01*
X214771801Y-78578199D01*
X214647098Y-78494875D01*
X214500000Y-78465615D01*
X213500000Y-78465615D01*
X213352902Y-78494875D01*
X213228199Y-78578199D01*
X213144875Y-78702902D01*
X213115615Y-78850000D01*
X213115615Y-80100000D01*
X213144875Y-80247098D01*
X213228199Y-80371801D01*
X213352902Y-80455125D01*
X213498000Y-80483987D01*
X213498000Y-80898150D01*
X213378199Y-80978199D01*
X213294875Y-81102902D01*
X213265615Y-81250000D01*
X213265615Y-82550000D01*
X213294875Y-82697098D01*
X213378199Y-82821801D01*
X213502902Y-82905125D01*
X213650000Y-82934385D01*
X214260725Y-82934385D01*
X214248118Y-82964746D01*
X214248005Y-83094386D01*
X214194212Y-83174893D01*
X214155999Y-83367000D01*
X214156000Y-83367005D01*
X214156000Y-83460559D01*
X214086199Y-83507199D01*
X214002875Y-83631902D01*
X213973615Y-83779000D01*
X213973615Y-85329000D01*
X214002875Y-85476098D01*
X214086199Y-85600801D01*
X214210902Y-85684125D01*
X214358000Y-85713385D01*
X214958000Y-85713385D01*
X215105098Y-85684125D01*
X215229801Y-85600801D01*
X215293000Y-85506217D01*
X215356199Y-85600801D01*
X215480902Y-85684125D01*
X215628000Y-85713385D01*
X215873000Y-85713385D01*
X215873000Y-88274065D01*
X215573032Y-88574032D01*
X215464212Y-88736893D01*
X215441700Y-88850069D01*
X215356199Y-88907199D01*
X215293000Y-89001783D01*
X215229801Y-88907199D01*
X215105098Y-88823875D01*
X214958000Y-88794615D01*
X214358000Y-88794615D01*
X214210902Y-88823875D01*
X214086199Y-88907199D01*
X214002875Y-89031902D01*
X213973615Y-89179000D01*
X213973615Y-90729000D01*
X214002875Y-90876098D01*
X214086199Y-91000801D01*
X214210902Y-91084125D01*
X214358000Y-91113385D01*
X214632449Y-91113385D01*
X215399032Y-91879968D01*
X215561892Y-91988788D01*
X215754000Y-92027001D01*
X215754005Y-92027000D01*
X215873000Y-92027000D01*
X215873000Y-94348000D01*
X213482936Y-94348000D01*
X213377000Y-94242064D01*
X213377000Y-93000000D01*
X213367333Y-92951399D01*
X213339803Y-92910197D01*
X213298601Y-92882667D01*
X213250000Y-92873000D01*
X203802000Y-92873000D01*
X203802000Y-89885567D01*
X205210803Y-89885567D01*
X205383840Y-90304349D01*
X205703966Y-90625034D01*
X206122445Y-90798802D01*
X206575567Y-90799197D01*
X206994349Y-90626160D01*
X207315034Y-90306034D01*
X207374842Y-90162000D01*
X211433615Y-90162000D01*
X211433615Y-90729000D01*
X211462875Y-90876098D01*
X211546199Y-91000801D01*
X211670902Y-91084125D01*
X211818000Y-91113385D01*
X212418000Y-91113385D01*
X212565098Y-91084125D01*
X212689801Y-91000801D01*
X212773125Y-90876098D01*
X212802385Y-90729000D01*
X212802385Y-89179000D01*
X212773125Y-89031902D01*
X212689801Y-88907199D01*
X212565098Y-88823875D01*
X212418000Y-88794615D01*
X211818000Y-88794615D01*
X211670902Y-88823875D01*
X211546199Y-88907199D01*
X211462875Y-89031902D01*
X211437792Y-89158000D01*
X207374977Y-89158000D01*
X207316160Y-89015651D01*
X206996034Y-88694966D01*
X206577555Y-88521198D01*
X206124433Y-88520803D01*
X205705651Y-88693840D01*
X205384966Y-89013966D01*
X205211198Y-89432445D01*
X205210803Y-89885567D01*
X203802000Y-89885567D01*
X203802000Y-89000000D01*
X203792333Y-88951399D01*
X203764803Y-88910197D01*
X203723601Y-88882667D01*
X203675000Y-88873000D01*
X202127000Y-88873000D01*
X202127000Y-73187308D01*
X204722727Y-73187308D01*
X204962305Y-73767132D01*
X205405535Y-74211136D01*
X205798000Y-74374101D01*
X205798000Y-83575682D01*
X205705651Y-83613840D01*
X205384966Y-83933966D01*
X205211198Y-84352445D01*
X205210803Y-84805567D01*
X205383840Y-85224349D01*
X205703966Y-85545034D01*
X206122445Y-85718802D01*
X206575567Y-85719197D01*
X206994349Y-85546160D01*
X207142150Y-85398617D01*
X207292108Y-85368788D01*
X207454968Y-85259968D01*
X207563788Y-85097108D01*
X207566793Y-85082000D01*
X207715615Y-85082000D01*
X207715615Y-85250000D01*
X207744875Y-85397098D01*
X207828199Y-85521801D01*
X207952902Y-85605125D01*
X208100000Y-85634385D01*
X208800000Y-85634385D01*
X208947098Y-85605125D01*
X209071801Y-85521801D01*
X209155125Y-85397098D01*
X209184385Y-85250000D01*
X209184385Y-85102000D01*
X209615615Y-85102000D01*
X209615615Y-85250000D01*
X209644875Y-85397098D01*
X209728199Y-85521801D01*
X209852902Y-85605125D01*
X210000000Y-85634385D01*
X210700000Y-85634385D01*
X210847098Y-85605125D01*
X210971801Y-85521801D01*
X211055125Y-85397098D01*
X211084385Y-85250000D01*
X211084385Y-85102000D01*
X211433615Y-85102000D01*
X211433615Y-85329000D01*
X211462875Y-85476098D01*
X211546199Y-85600801D01*
X211670902Y-85684125D01*
X211818000Y-85713385D01*
X212418000Y-85713385D01*
X212565098Y-85684125D01*
X212689801Y-85600801D01*
X212773125Y-85476098D01*
X212802385Y-85329000D01*
X212802385Y-83779000D01*
X212773125Y-83631902D01*
X212689801Y-83507199D01*
X212602000Y-83448532D01*
X212602000Y-82901850D01*
X212721801Y-82821801D01*
X212805125Y-82697098D01*
X212834385Y-82550000D01*
X212834385Y-81250000D01*
X212805125Y-81102902D01*
X212721801Y-80978199D01*
X212602000Y-80898150D01*
X212602000Y-80464096D01*
X212647098Y-80455125D01*
X212771801Y-80371801D01*
X212855125Y-80247098D01*
X212884385Y-80100000D01*
X212884385Y-78850000D01*
X212855125Y-78702902D01*
X212771801Y-78578199D01*
X212647098Y-78494875D01*
X212500000Y-78465615D01*
X211500000Y-78465615D01*
X211352902Y-78494875D01*
X211228199Y-78578199D01*
X211144875Y-78702902D01*
X211115615Y-78850000D01*
X211115615Y-80100000D01*
X211144875Y-80247098D01*
X211228199Y-80371801D01*
X211352902Y-80455125D01*
X211500000Y-80484385D01*
X211598000Y-80484385D01*
X211598000Y-80898150D01*
X211478199Y-80978199D01*
X211394875Y-81102902D01*
X211365615Y-81250000D01*
X211365615Y-82550000D01*
X211394875Y-82697098D01*
X211478199Y-82821801D01*
X211598000Y-82901850D01*
X211598000Y-83472587D01*
X211546199Y-83507199D01*
X211462875Y-83631902D01*
X211433615Y-83779000D01*
X211433615Y-84098000D01*
X211084385Y-84098000D01*
X211084385Y-83950000D01*
X211055125Y-83802902D01*
X210971801Y-83678199D01*
X210847098Y-83594875D01*
X210700000Y-83565615D01*
X210000000Y-83565615D01*
X209852902Y-83594875D01*
X209728199Y-83678199D01*
X209644875Y-83802902D01*
X209615615Y-83950000D01*
X209615615Y-84098000D01*
X209184385Y-84098000D01*
X209184385Y-83950000D01*
X209155125Y-83802902D01*
X209071801Y-83678199D01*
X208947098Y-83594875D01*
X208800000Y-83565615D01*
X208100000Y-83565615D01*
X207952902Y-83594875D01*
X207828199Y-83678199D01*
X207744875Y-83802902D01*
X207715615Y-83950000D01*
X207715615Y-84078000D01*
X207374977Y-84078000D01*
X207316160Y-83935651D01*
X206996034Y-83614966D01*
X206802000Y-83534396D01*
X206802000Y-74373894D01*
X207192132Y-74212695D01*
X207636136Y-73769465D01*
X207876725Y-73190061D01*
X207877273Y-72562692D01*
X207637695Y-71982868D01*
X207194465Y-71538864D01*
X206615061Y-71298275D01*
X205987692Y-71297727D01*
X205407868Y-71537305D01*
X204963864Y-71980535D01*
X204723275Y-72559939D01*
X204722727Y-73187308D01*
X202127000Y-73187308D01*
X202127000Y-68651667D01*
X211373000Y-68627335D01*
X211373000Y-77500000D01*
D26*
G36*
X211114124Y-115285876D02*
X211268225Y-115388843D01*
X211353720Y-115405849D01*
X211321758Y-115453683D01*
X211292654Y-115600000D01*
X211292654Y-116300000D01*
X211296759Y-116320639D01*
X211288060Y-116333658D01*
X211250000Y-116525000D01*
X211250000Y-117832628D01*
X211196317Y-117796758D01*
X211050000Y-117767654D01*
X210450000Y-117767654D01*
X210303683Y-117796758D01*
X210250000Y-117832628D01*
X210200000Y-117799219D01*
X210200000Y-116682346D01*
X210350000Y-116682346D01*
X210496317Y-116653242D01*
X210620359Y-116570359D01*
X210703242Y-116446317D01*
X210732346Y-116300000D01*
X210732346Y-115600000D01*
X210703242Y-115453683D01*
X210620359Y-115329641D01*
X210496317Y-115246758D01*
X210350000Y-115217654D01*
X209050000Y-115217654D01*
X208903683Y-115246758D01*
X208875000Y-115265924D01*
X208875000Y-114734076D01*
X208903683Y-114753242D01*
X209050000Y-114782346D01*
X210350000Y-114782346D01*
X210496317Y-114753242D01*
X210547374Y-114719126D01*
X211114124Y-115285876D01*
X211114124Y-115285876D01*
G37*
X211114124Y-115285876D02*
X211268225Y-115388843D01*
X211353720Y-115405849D01*
X211321758Y-115453683D01*
X211292654Y-115600000D01*
X211292654Y-116300000D01*
X211296759Y-116320639D01*
X211288060Y-116333658D01*
X211250000Y-116525000D01*
X211250000Y-117832628D01*
X211196317Y-117796758D01*
X211050000Y-117767654D01*
X210450000Y-117767654D01*
X210303683Y-117796758D01*
X210250000Y-117832628D01*
X210200000Y-117799219D01*
X210200000Y-116682346D01*
X210350000Y-116682346D01*
X210496317Y-116653242D01*
X210620359Y-116570359D01*
X210703242Y-116446317D01*
X210732346Y-116300000D01*
X210732346Y-115600000D01*
X210703242Y-115453683D01*
X210620359Y-115329641D01*
X210496317Y-115246758D01*
X210350000Y-115217654D01*
X209050000Y-115217654D01*
X208903683Y-115246758D01*
X208875000Y-115265924D01*
X208875000Y-114734076D01*
X208903683Y-114753242D01*
X209050000Y-114782346D01*
X210350000Y-114782346D01*
X210496317Y-114753242D01*
X210547374Y-114719126D01*
X211114124Y-115285876D01*
G36*
X211850000Y-113317654D02*
X211675000Y-113317654D01*
X211528683Y-113346758D01*
X211404641Y-113429641D01*
X211321758Y-113553683D01*
X211292654Y-113700000D01*
X211292654Y-114120902D01*
X210885876Y-113714124D01*
X210731775Y-113611157D01*
X210713970Y-113607615D01*
X210703242Y-113553683D01*
X210620359Y-113429641D01*
X210496317Y-113346758D01*
X210350000Y-113317654D01*
X210175000Y-113317654D01*
X210175000Y-106046752D01*
X211850000Y-104371752D01*
X211850000Y-113317654D01*
X211850000Y-113317654D01*
G37*
X211850000Y-113317654D02*
X211675000Y-113317654D01*
X211528683Y-113346758D01*
X211404641Y-113429641D01*
X211321758Y-113553683D01*
X211292654Y-113700000D01*
X211292654Y-114120902D01*
X210885876Y-113714124D01*
X210731775Y-113611157D01*
X210713970Y-113607615D01*
X210703242Y-113553683D01*
X210620359Y-113429641D01*
X210496317Y-113346758D01*
X210350000Y-113317654D01*
X210175000Y-113317654D01*
X210175000Y-106046752D01*
X211850000Y-104371752D01*
X211850000Y-113317654D01*
G36*
X215042654Y-101775000D02*
X215071758Y-101921317D01*
X215154641Y-102045359D01*
X215251382Y-102110000D01*
X215154641Y-102174641D01*
X215071758Y-102298683D01*
X215042654Y-102445000D01*
X215042654Y-102865594D01*
X213264124Y-104644124D01*
X213161157Y-104798225D01*
X213125000Y-104980000D01*
X213125000Y-113349219D01*
X213121317Y-113346758D01*
X212975000Y-113317654D01*
X212800000Y-113317654D01*
X212800000Y-103916742D01*
X215042654Y-101674088D01*
X215042654Y-101775000D01*
X215042654Y-101775000D01*
G37*
X215042654Y-101775000D02*
X215071758Y-101921317D01*
X215154641Y-102045359D01*
X215251382Y-102110000D01*
X215154641Y-102174641D01*
X215071758Y-102298683D01*
X215042654Y-102445000D01*
X215042654Y-102865594D01*
X213264124Y-104644124D01*
X213161157Y-104798225D01*
X213125000Y-104980000D01*
X213125000Y-113349219D01*
X213121317Y-113346758D01*
X212975000Y-113317654D01*
X212800000Y-113317654D01*
X212800000Y-103916742D01*
X215042654Y-101674088D01*
X215042654Y-101775000D01*
G36*
X214375000Y-113317654D02*
X214200000Y-113317654D01*
X214075000Y-113342518D01*
X214075000Y-105176752D01*
X214375000Y-104876752D01*
X214375000Y-113317654D01*
X214375000Y-113317654D01*
G37*
X214375000Y-113317654D02*
X214200000Y-113317654D01*
X214075000Y-113342518D01*
X214075000Y-105176752D01*
X214375000Y-104876752D01*
X214375000Y-113317654D01*
G36*
X218774990Y-111428258D02*
X217039124Y-113164124D01*
X216936539Y-113317654D01*
X216725000Y-113317654D01*
X216675000Y-113327600D01*
X216675000Y-112157346D01*
X216825000Y-112157346D01*
X216971317Y-112128242D01*
X217095359Y-112045359D01*
X217178242Y-111921317D01*
X217207346Y-111775000D01*
X217207346Y-111075000D01*
X217178242Y-110928683D01*
X217095359Y-110804641D01*
X216971317Y-110721758D01*
X216825000Y-110692654D01*
X215525000Y-110692654D01*
X215378683Y-110721758D01*
X215325000Y-110757628D01*
X215325000Y-110192372D01*
X215378683Y-110228242D01*
X215525000Y-110257346D01*
X216825000Y-110257346D01*
X216971317Y-110228242D01*
X217095359Y-110145359D01*
X217178242Y-110021317D01*
X217207346Y-109875000D01*
X217207346Y-109175000D01*
X217178242Y-109028683D01*
X217095359Y-108904641D01*
X216988508Y-108833244D01*
X218360888Y-107460864D01*
X218463855Y-107306763D01*
X218500012Y-107124988D01*
X218500012Y-100729590D01*
X218596915Y-100632856D01*
X218699895Y-100384855D01*
X218700129Y-100116323D01*
X218597583Y-99868143D01*
X218407868Y-99678097D01*
X218159867Y-99575117D01*
X217950002Y-99574934D01*
X217950002Y-99261730D01*
X218774990Y-98436742D01*
X218774990Y-111428258D01*
X218774990Y-111428258D01*
G37*
X218774990Y-111428258D02*
X217039124Y-113164124D01*
X216936539Y-113317654D01*
X216725000Y-113317654D01*
X216675000Y-113327600D01*
X216675000Y-112157346D01*
X216825000Y-112157346D01*
X216971317Y-112128242D01*
X217095359Y-112045359D01*
X217178242Y-111921317D01*
X217207346Y-111775000D01*
X217207346Y-111075000D01*
X217178242Y-110928683D01*
X217095359Y-110804641D01*
X216971317Y-110721758D01*
X216825000Y-110692654D01*
X215525000Y-110692654D01*
X215378683Y-110721758D01*
X215325000Y-110757628D01*
X215325000Y-110192372D01*
X215378683Y-110228242D01*
X215525000Y-110257346D01*
X216825000Y-110257346D01*
X216971317Y-110228242D01*
X217095359Y-110145359D01*
X217178242Y-110021317D01*
X217207346Y-109875000D01*
X217207346Y-109175000D01*
X217178242Y-109028683D01*
X217095359Y-108904641D01*
X216988508Y-108833244D01*
X218360888Y-107460864D01*
X218463855Y-107306763D01*
X218500012Y-107124988D01*
X218500012Y-100729590D01*
X218596915Y-100632856D01*
X218699895Y-100384855D01*
X218700129Y-100116323D01*
X218597583Y-99868143D01*
X218407868Y-99678097D01*
X218159867Y-99575117D01*
X217950002Y-99574934D01*
X217950002Y-99261730D01*
X218774990Y-98436742D01*
X218774990Y-111428258D01*
G36*
X217550012Y-106928236D02*
X215839124Y-108639124D01*
X215736539Y-108792654D01*
X215525000Y-108792654D01*
X215378683Y-108821758D01*
X215325000Y-108857628D01*
X215325000Y-104821752D01*
X215449406Y-104697346D01*
X216975000Y-104697346D01*
X217121317Y-104668242D01*
X217245359Y-104585359D01*
X217328242Y-104461317D01*
X217357346Y-104315000D01*
X217357346Y-104114406D01*
X217550012Y-103921739D01*
X217550012Y-106928236D01*
X217550012Y-106928236D01*
G37*
X217550012Y-106928236D02*
X215839124Y-108639124D01*
X215736539Y-108792654D01*
X215525000Y-108792654D01*
X215378683Y-108821758D01*
X215325000Y-108857628D01*
X215325000Y-104821752D01*
X215449406Y-104697346D01*
X216975000Y-104697346D01*
X217121317Y-104668242D01*
X217245359Y-104585359D01*
X217328242Y-104461317D01*
X217357346Y-104315000D01*
X217357346Y-104114406D01*
X217550012Y-103921739D01*
X217550012Y-106928236D01*
M02*
