G04 #@! TF.GenerationSoftware,KiCad,Pcbnew,(2017-06-25 revision 6a3c1720b)-makepkg*
G04 #@! TF.CreationDate,2017-08-03T12:33:03-04:00*
G04 #@! TF.ProjectId,pmt-transimpedance-amplifier_small_con,706D742D7472616E73696D706564616E,rev?*
G04 #@! TF.SameCoordinates,Original
G04 #@! TF.FileFunction,Copper,L2,Bot,Signal*
G04 #@! TF.FilePolarity,Positive*
%FSLAX46Y46*%
G04 Gerber Fmt 4.6, Leading zero omitted, Abs format (unit mm)*
G04 Created by KiCad (PCBNEW (2017-06-25 revision 6a3c1720b)-makepkg) date 08/03/17 12:33:03*
%MOMM*%
%LPD*%
G01*
G04 APERTURE LIST*
%ADD10C,0.100000*%
%ADD11R,1.000000X1.250000*%
%ADD12C,1.524000*%
%ADD13C,2.400000*%
%ADD14C,2.500000*%
%ADD15C,0.600000*%
%ADD16C,0.820000*%
%ADD17C,0.250000*%
%ADD18C,0.200000*%
%ADD19C,0.254000*%
G04 APERTURE END LIST*
D10*
D11*
X219545000Y-113715000D03*
X217545000Y-113715000D03*
X219595000Y-115765000D03*
X217595000Y-115765000D03*
D12*
X206350000Y-112540000D03*
X221590000Y-112540000D03*
X221590000Y-107460000D03*
X206350000Y-107460000D03*
X206350000Y-89660000D03*
X206350000Y-84580000D03*
X221590000Y-71880000D03*
D13*
X206300000Y-72875000D03*
D14*
X203760000Y-70335000D03*
X208840000Y-70335000D03*
X208840000Y-75415000D03*
X203760000Y-75415000D03*
D11*
X215275000Y-82600000D03*
X217275000Y-82600000D03*
D15*
X218775000Y-118475000D03*
X217925000Y-82850000D03*
X207459998Y-104900000D03*
X204890000Y-104880000D03*
X225040000Y-87910000D03*
X224740000Y-99800000D03*
X207400000Y-97110002D03*
X206100000Y-97089998D03*
X212130000Y-96760000D03*
X211800000Y-97300000D03*
X210870000Y-97290000D03*
X217040000Y-96830000D03*
X217925000Y-82225000D03*
X221225000Y-88700000D03*
X221197905Y-86475000D03*
X217950000Y-80900000D03*
X209075000Y-105025000D03*
X206625000Y-96575000D03*
X211050000Y-95825000D03*
X208775000Y-95825000D03*
X216550000Y-91525000D03*
X203375000Y-116475000D03*
X203350000Y-114725000D03*
X218090000Y-93890000D03*
X215706591Y-81943403D03*
X217075000Y-93025000D03*
X222900000Y-102800000D03*
X210749998Y-121775000D03*
X210750000Y-119250000D03*
X215600000Y-92900000D03*
X215525000Y-88025000D03*
X215525000Y-86525000D03*
X210850000Y-70925000D03*
X206250000Y-70850000D03*
X203875000Y-72800000D03*
X209075000Y-72800000D03*
X208250000Y-87500000D03*
X214925000Y-83100000D03*
X218025012Y-100250000D03*
X216899998Y-100250000D03*
X210825000Y-117050000D03*
X214225000Y-105275000D03*
X218000000Y-111000000D03*
X218600000Y-99075000D03*
X212975000Y-112650000D03*
X218000000Y-109000000D03*
X214200000Y-112650000D03*
X212975000Y-110650000D03*
X210975000Y-112650000D03*
X218600000Y-106950000D03*
X214200000Y-110650000D03*
X212975000Y-108650000D03*
X210975000Y-110650000D03*
X218600000Y-104950000D03*
X214200000Y-108650000D03*
X212975000Y-106650000D03*
X210975000Y-108650000D03*
X218600000Y-102950000D03*
X214200000Y-106650000D03*
X212975000Y-104650000D03*
X210975000Y-106650000D03*
X214325000Y-102900000D03*
X216150000Y-106975000D03*
X215475000Y-78500000D03*
X215475000Y-80150000D03*
X206250000Y-91100000D03*
X214325000Y-92200000D03*
X210250000Y-92200000D03*
X208250000Y-92200000D03*
X206250000Y-92200000D03*
X204250000Y-92200000D03*
X212450000Y-92200000D03*
X210250000Y-90800000D03*
X208250000Y-90800000D03*
X204250000Y-90800000D03*
X214250000Y-88050000D03*
X212250000Y-88050000D03*
X210250000Y-88050000D03*
X208250000Y-88875000D03*
X206250000Y-87625000D03*
X204075000Y-88125000D03*
X202350000Y-88050000D03*
X214250000Y-86550000D03*
X212250000Y-86550000D03*
X210250000Y-86550000D03*
X208250000Y-86550000D03*
X206250000Y-86550000D03*
X204250000Y-86550000D03*
X202350000Y-86550000D03*
X204250000Y-84800000D03*
X202350000Y-84800000D03*
X210250000Y-82800000D03*
X208250000Y-82800000D03*
X204250000Y-82800000D03*
X202350000Y-82800000D03*
X210250000Y-80800000D03*
X208250000Y-80800000D03*
X204250000Y-80800000D03*
X202350000Y-80800000D03*
X214250000Y-78050000D03*
X212250000Y-78050000D03*
X210250000Y-78800000D03*
X208250000Y-78800000D03*
X204250000Y-78800000D03*
X202350000Y-78800000D03*
X210550000Y-76975000D03*
X208250000Y-77300000D03*
X204250000Y-77300000D03*
X202350000Y-76800000D03*
X210850000Y-74800000D03*
X210850000Y-72800000D03*
X202375000Y-72750000D03*
X210250000Y-68800000D03*
X206250000Y-68800000D03*
X202250000Y-68800000D03*
D16*
X206350000Y-89660000D02*
X202760000Y-89660000D01*
D17*
X217075000Y-93025000D02*
X217940000Y-93890000D01*
X217940000Y-93890000D02*
X218090000Y-93890000D01*
X214925000Y-82724994D02*
X215406592Y-82243402D01*
X214925000Y-83100000D02*
X215706591Y-82318409D01*
X214925000Y-82925000D02*
X214925000Y-82724994D01*
X215406592Y-82243402D02*
X215706591Y-81943403D01*
X215706591Y-82318409D02*
X215706591Y-81943403D01*
X210750000Y-121774998D02*
X210749998Y-121775000D01*
X210750000Y-119250000D02*
X210750000Y-121774998D01*
D18*
X218025012Y-100250000D02*
X216899998Y-100250000D01*
D19*
G36*
X211373000Y-77500000D02*
X211382667Y-77548601D01*
X211410197Y-77589803D01*
X211451399Y-77617333D01*
X211500000Y-77627000D01*
X215873000Y-77627000D01*
X215873000Y-81279458D01*
X215841845Y-81266521D01*
X215572518Y-81266286D01*
X215323602Y-81369136D01*
X215132993Y-81559413D01*
X215120037Y-81590615D01*
X214775000Y-81590615D01*
X214627902Y-81619875D01*
X214503199Y-81703199D01*
X214419875Y-81827902D01*
X214390615Y-81975000D01*
X214390615Y-82676865D01*
X214351402Y-82716010D01*
X214248118Y-82964746D01*
X214247883Y-83234073D01*
X214350733Y-83482989D01*
X214541010Y-83673598D01*
X214789746Y-83776882D01*
X215059073Y-83777117D01*
X215307989Y-83674267D01*
X215372984Y-83609385D01*
X215775000Y-83609385D01*
X215873000Y-83589891D01*
X215873000Y-91524983D01*
X215872883Y-91659073D01*
X215873000Y-91659356D01*
X215873000Y-94373000D01*
X213377000Y-94373000D01*
X213377000Y-93000000D01*
X213367333Y-92951399D01*
X213339803Y-92910197D01*
X213298601Y-92882667D01*
X213250000Y-92873000D01*
X203802000Y-92873000D01*
X203802000Y-90447000D01*
X205526242Y-90447000D01*
X205703966Y-90625034D01*
X206122445Y-90798802D01*
X206575567Y-90799197D01*
X206994349Y-90626160D01*
X207315034Y-90306034D01*
X207488802Y-89887555D01*
X207489197Y-89434433D01*
X207316160Y-89015651D01*
X206996034Y-88694966D01*
X206577555Y-88521198D01*
X206124433Y-88520803D01*
X205705651Y-88693840D01*
X205526178Y-88873000D01*
X202127000Y-88873000D01*
X202127000Y-84805567D01*
X205210803Y-84805567D01*
X205383840Y-85224349D01*
X205703966Y-85545034D01*
X206122445Y-85718802D01*
X206575567Y-85719197D01*
X206994349Y-85546160D01*
X207315034Y-85226034D01*
X207488802Y-84807555D01*
X207489197Y-84354433D01*
X207316160Y-83935651D01*
X206996034Y-83614966D01*
X206577555Y-83441198D01*
X206124433Y-83440803D01*
X205705651Y-83613840D01*
X205384966Y-83933966D01*
X205211198Y-84352445D01*
X205210803Y-84805567D01*
X202127000Y-84805567D01*
X202127000Y-73187308D01*
X204722727Y-73187308D01*
X204962305Y-73767132D01*
X205405535Y-74211136D01*
X205984939Y-74451725D01*
X206612308Y-74452273D01*
X207192132Y-74212695D01*
X207636136Y-73769465D01*
X207876725Y-73190061D01*
X207877273Y-72562692D01*
X207637695Y-71982868D01*
X207194465Y-71538864D01*
X206615061Y-71298275D01*
X205987692Y-71297727D01*
X205407868Y-71537305D01*
X204963864Y-71980535D01*
X204723275Y-72559939D01*
X204722727Y-73187308D01*
X202127000Y-73187308D01*
X202127000Y-68651667D01*
X211373000Y-68627335D01*
X211373000Y-77500000D01*
X211373000Y-77500000D01*
G37*
X211373000Y-77500000D02*
X211382667Y-77548601D01*
X211410197Y-77589803D01*
X211451399Y-77617333D01*
X211500000Y-77627000D01*
X215873000Y-77627000D01*
X215873000Y-81279458D01*
X215841845Y-81266521D01*
X215572518Y-81266286D01*
X215323602Y-81369136D01*
X215132993Y-81559413D01*
X215120037Y-81590615D01*
X214775000Y-81590615D01*
X214627902Y-81619875D01*
X214503199Y-81703199D01*
X214419875Y-81827902D01*
X214390615Y-81975000D01*
X214390615Y-82676865D01*
X214351402Y-82716010D01*
X214248118Y-82964746D01*
X214247883Y-83234073D01*
X214350733Y-83482989D01*
X214541010Y-83673598D01*
X214789746Y-83776882D01*
X215059073Y-83777117D01*
X215307989Y-83674267D01*
X215372984Y-83609385D01*
X215775000Y-83609385D01*
X215873000Y-83589891D01*
X215873000Y-91524983D01*
X215872883Y-91659073D01*
X215873000Y-91659356D01*
X215873000Y-94373000D01*
X213377000Y-94373000D01*
X213377000Y-93000000D01*
X213367333Y-92951399D01*
X213339803Y-92910197D01*
X213298601Y-92882667D01*
X213250000Y-92873000D01*
X203802000Y-92873000D01*
X203802000Y-90447000D01*
X205526242Y-90447000D01*
X205703966Y-90625034D01*
X206122445Y-90798802D01*
X206575567Y-90799197D01*
X206994349Y-90626160D01*
X207315034Y-90306034D01*
X207488802Y-89887555D01*
X207489197Y-89434433D01*
X207316160Y-89015651D01*
X206996034Y-88694966D01*
X206577555Y-88521198D01*
X206124433Y-88520803D01*
X205705651Y-88693840D01*
X205526178Y-88873000D01*
X202127000Y-88873000D01*
X202127000Y-84805567D01*
X205210803Y-84805567D01*
X205383840Y-85224349D01*
X205703966Y-85545034D01*
X206122445Y-85718802D01*
X206575567Y-85719197D01*
X206994349Y-85546160D01*
X207315034Y-85226034D01*
X207488802Y-84807555D01*
X207489197Y-84354433D01*
X207316160Y-83935651D01*
X206996034Y-83614966D01*
X206577555Y-83441198D01*
X206124433Y-83440803D01*
X205705651Y-83613840D01*
X205384966Y-83933966D01*
X205211198Y-84352445D01*
X205210803Y-84805567D01*
X202127000Y-84805567D01*
X202127000Y-73187308D01*
X204722727Y-73187308D01*
X204962305Y-73767132D01*
X205405535Y-74211136D01*
X205984939Y-74451725D01*
X206612308Y-74452273D01*
X207192132Y-74212695D01*
X207636136Y-73769465D01*
X207876725Y-73190061D01*
X207877273Y-72562692D01*
X207637695Y-71982868D01*
X207194465Y-71538864D01*
X206615061Y-71298275D01*
X205987692Y-71297727D01*
X205407868Y-71537305D01*
X204963864Y-71980535D01*
X204723275Y-72559939D01*
X204722727Y-73187308D01*
X202127000Y-73187308D01*
X202127000Y-68651667D01*
X211373000Y-68627335D01*
X211373000Y-77500000D01*
D10*
G36*
X226875000Y-125875000D02*
X201375000Y-125875000D01*
X201375000Y-112750318D01*
X205287816Y-112750318D01*
X205449155Y-113140789D01*
X205747640Y-113439795D01*
X206137828Y-113601815D01*
X206560318Y-113602184D01*
X206950789Y-113440845D01*
X207249795Y-113142360D01*
X207308907Y-113000000D01*
X208450000Y-113000000D01*
X208450000Y-117775000D01*
X208484525Y-117914724D01*
X208700000Y-118324127D01*
X208700000Y-120350000D01*
X208737209Y-120494710D01*
X208812591Y-120584261D01*
X209312591Y-120984261D01*
X209385195Y-121027164D01*
X209500000Y-121050000D01*
X210325000Y-121050000D01*
X210325000Y-121351468D01*
X210241639Y-121434683D01*
X210150102Y-121655129D01*
X210149894Y-121893824D01*
X210241046Y-122114429D01*
X210409681Y-122283359D01*
X210630127Y-122374896D01*
X210868822Y-122375104D01*
X211089427Y-122283952D01*
X211258357Y-122115317D01*
X211349894Y-121894871D01*
X211350102Y-121656176D01*
X211258950Y-121435571D01*
X211175000Y-121351474D01*
X211175000Y-121050000D01*
X214875000Y-121050000D01*
X215023842Y-121010473D01*
X215373842Y-120810473D01*
X215437132Y-120762132D01*
X215502164Y-120664805D01*
X215525000Y-120550000D01*
X215525000Y-118395833D01*
X215977724Y-117925000D01*
X217025000Y-117925000D01*
X217138039Y-117902889D01*
X218613039Y-117302889D01*
X218712132Y-117237132D01*
X218777164Y-117139805D01*
X218800000Y-117025000D01*
X218800000Y-112874264D01*
X218923946Y-112750318D01*
X220527816Y-112750318D01*
X220689155Y-113140789D01*
X220987640Y-113439795D01*
X221377828Y-113601815D01*
X221800318Y-113602184D01*
X222190789Y-113440845D01*
X222489795Y-113142360D01*
X222651815Y-112752172D01*
X222652184Y-112329682D01*
X222490845Y-111939211D01*
X222192360Y-111640205D01*
X221802172Y-111478185D01*
X221379682Y-111477816D01*
X220989211Y-111639155D01*
X220690205Y-111937640D01*
X220528185Y-112327828D01*
X220527816Y-112750318D01*
X218923946Y-112750318D01*
X219712132Y-111962132D01*
X219777164Y-111864805D01*
X219800000Y-111750000D01*
X219800000Y-107670318D01*
X220527816Y-107670318D01*
X220689155Y-108060789D01*
X220987640Y-108359795D01*
X221377828Y-108521815D01*
X221800318Y-108522184D01*
X222190789Y-108360845D01*
X222489795Y-108062360D01*
X222651815Y-107672172D01*
X222652184Y-107249682D01*
X222490845Y-106859211D01*
X222192360Y-106560205D01*
X221802172Y-106398185D01*
X221379682Y-106397816D01*
X220989211Y-106559155D01*
X220690205Y-106857640D01*
X220528185Y-107247828D01*
X220527816Y-107670318D01*
X219800000Y-107670318D01*
X219800000Y-97996569D01*
X223715370Y-93958844D01*
X223777419Y-93864187D01*
X223799999Y-93749332D01*
X223775669Y-82825000D01*
X225525000Y-82825000D01*
X225639805Y-82802164D01*
X225737132Y-82737132D01*
X225802164Y-82639805D01*
X225825000Y-82525000D01*
X225825000Y-80000000D01*
X225802164Y-79885195D01*
X225737132Y-79787868D01*
X225639805Y-79722836D01*
X225525000Y-79700000D01*
X223250000Y-79700000D01*
X223135195Y-79722836D01*
X223037868Y-79787868D01*
X221787868Y-81037868D01*
X221722836Y-81135195D01*
X221700000Y-81250000D01*
X221700000Y-93125736D01*
X209287868Y-105537868D01*
X209222836Y-105635195D01*
X209200000Y-105750000D01*
X209200000Y-112700000D01*
X208750000Y-112700000D01*
X208635195Y-112722836D01*
X208537868Y-112787868D01*
X208472836Y-112885195D01*
X208450000Y-113000000D01*
X207308907Y-113000000D01*
X207411815Y-112752172D01*
X207412184Y-112329682D01*
X207250845Y-111939211D01*
X206952360Y-111640205D01*
X206562172Y-111478185D01*
X206139682Y-111477816D01*
X205749211Y-111639155D01*
X205450205Y-111937640D01*
X205288185Y-112327828D01*
X205287816Y-112750318D01*
X201375000Y-112750318D01*
X201375000Y-68918824D01*
X201649896Y-68918824D01*
X201700000Y-69040085D01*
X201700000Y-89000000D01*
X201722836Y-89114805D01*
X201787868Y-89212132D01*
X201885195Y-89277164D01*
X202000000Y-89300000D01*
X203375000Y-89300000D01*
X203375000Y-93000000D01*
X203397836Y-93114805D01*
X203462868Y-93212132D01*
X203560195Y-93277164D01*
X203675000Y-93300000D01*
X212950000Y-93300000D01*
X212950000Y-94500000D01*
X212972836Y-94614805D01*
X213037868Y-94712132D01*
X213135195Y-94777164D01*
X213250000Y-94800000D01*
X216000000Y-94800000D01*
X216114805Y-94777164D01*
X216212132Y-94712132D01*
X216277164Y-94614805D01*
X216300000Y-94500000D01*
X216300000Y-93143824D01*
X216474896Y-93143824D01*
X216566048Y-93364429D01*
X216734683Y-93533359D01*
X216955129Y-93624896D01*
X217073959Y-93625000D01*
X217512508Y-94063549D01*
X217581048Y-94229429D01*
X217749683Y-94398359D01*
X217970129Y-94489896D01*
X218208824Y-94490104D01*
X218429429Y-94398952D01*
X218598359Y-94230317D01*
X218689896Y-94009871D01*
X218690104Y-93771176D01*
X218598952Y-93550571D01*
X218430317Y-93381641D01*
X218209871Y-93290104D01*
X217971176Y-93289896D01*
X217949778Y-93298737D01*
X217675001Y-93023961D01*
X217675104Y-92906176D01*
X217583952Y-92685571D01*
X217415317Y-92516641D01*
X217194871Y-92425104D01*
X216956176Y-92424896D01*
X216735571Y-92516048D01*
X216566641Y-92684683D01*
X216475104Y-92905129D01*
X216474896Y-93143824D01*
X216300000Y-93143824D01*
X216300000Y-82078896D01*
X216306487Y-82063274D01*
X216306695Y-81824579D01*
X216300000Y-81808376D01*
X216300000Y-77500000D01*
X216277164Y-77385195D01*
X216212132Y-77287868D01*
X216114805Y-77222836D01*
X216000000Y-77200000D01*
X211800000Y-77200000D01*
X211800000Y-72090318D01*
X220527816Y-72090318D01*
X220689155Y-72480789D01*
X220987640Y-72779795D01*
X221377828Y-72941815D01*
X221800318Y-72942184D01*
X222190789Y-72780845D01*
X222489795Y-72482360D01*
X222651815Y-72092172D01*
X222652184Y-71669682D01*
X222490845Y-71279211D01*
X222192360Y-70980205D01*
X221802172Y-70818185D01*
X221379682Y-70817816D01*
X220989211Y-70979155D01*
X220690205Y-71277640D01*
X220528185Y-71667828D01*
X220527816Y-72090318D01*
X211800000Y-72090318D01*
X211800000Y-68500000D01*
X211776861Y-68384466D01*
X211711573Y-68287310D01*
X211614075Y-68222535D01*
X211499211Y-68200001D01*
X210376737Y-68202955D01*
X210369871Y-68200104D01*
X210131176Y-68199896D01*
X210122152Y-68203625D01*
X206401927Y-68213415D01*
X206369871Y-68200104D01*
X206131176Y-68199896D01*
X206096513Y-68214219D01*
X202427118Y-68223875D01*
X202369871Y-68200104D01*
X202131176Y-68199896D01*
X202070874Y-68224812D01*
X201999211Y-68225001D01*
X201885195Y-68247836D01*
X201787868Y-68312868D01*
X201722836Y-68410195D01*
X201700000Y-68525000D01*
X201700000Y-68559966D01*
X201650104Y-68680129D01*
X201649896Y-68918824D01*
X201375000Y-68918824D01*
X201375000Y-66900000D01*
X226875000Y-66900000D01*
X226875000Y-125875000D01*
X226875000Y-125875000D01*
G37*
X226875000Y-125875000D02*
X201375000Y-125875000D01*
X201375000Y-112750318D01*
X205287816Y-112750318D01*
X205449155Y-113140789D01*
X205747640Y-113439795D01*
X206137828Y-113601815D01*
X206560318Y-113602184D01*
X206950789Y-113440845D01*
X207249795Y-113142360D01*
X207308907Y-113000000D01*
X208450000Y-113000000D01*
X208450000Y-117775000D01*
X208484525Y-117914724D01*
X208700000Y-118324127D01*
X208700000Y-120350000D01*
X208737209Y-120494710D01*
X208812591Y-120584261D01*
X209312591Y-120984261D01*
X209385195Y-121027164D01*
X209500000Y-121050000D01*
X210325000Y-121050000D01*
X210325000Y-121351468D01*
X210241639Y-121434683D01*
X210150102Y-121655129D01*
X210149894Y-121893824D01*
X210241046Y-122114429D01*
X210409681Y-122283359D01*
X210630127Y-122374896D01*
X210868822Y-122375104D01*
X211089427Y-122283952D01*
X211258357Y-122115317D01*
X211349894Y-121894871D01*
X211350102Y-121656176D01*
X211258950Y-121435571D01*
X211175000Y-121351474D01*
X211175000Y-121050000D01*
X214875000Y-121050000D01*
X215023842Y-121010473D01*
X215373842Y-120810473D01*
X215437132Y-120762132D01*
X215502164Y-120664805D01*
X215525000Y-120550000D01*
X215525000Y-118395833D01*
X215977724Y-117925000D01*
X217025000Y-117925000D01*
X217138039Y-117902889D01*
X218613039Y-117302889D01*
X218712132Y-117237132D01*
X218777164Y-117139805D01*
X218800000Y-117025000D01*
X218800000Y-112874264D01*
X218923946Y-112750318D01*
X220527816Y-112750318D01*
X220689155Y-113140789D01*
X220987640Y-113439795D01*
X221377828Y-113601815D01*
X221800318Y-113602184D01*
X222190789Y-113440845D01*
X222489795Y-113142360D01*
X222651815Y-112752172D01*
X222652184Y-112329682D01*
X222490845Y-111939211D01*
X222192360Y-111640205D01*
X221802172Y-111478185D01*
X221379682Y-111477816D01*
X220989211Y-111639155D01*
X220690205Y-111937640D01*
X220528185Y-112327828D01*
X220527816Y-112750318D01*
X218923946Y-112750318D01*
X219712132Y-111962132D01*
X219777164Y-111864805D01*
X219800000Y-111750000D01*
X219800000Y-107670318D01*
X220527816Y-107670318D01*
X220689155Y-108060789D01*
X220987640Y-108359795D01*
X221377828Y-108521815D01*
X221800318Y-108522184D01*
X222190789Y-108360845D01*
X222489795Y-108062360D01*
X222651815Y-107672172D01*
X222652184Y-107249682D01*
X222490845Y-106859211D01*
X222192360Y-106560205D01*
X221802172Y-106398185D01*
X221379682Y-106397816D01*
X220989211Y-106559155D01*
X220690205Y-106857640D01*
X220528185Y-107247828D01*
X220527816Y-107670318D01*
X219800000Y-107670318D01*
X219800000Y-97996569D01*
X223715370Y-93958844D01*
X223777419Y-93864187D01*
X223799999Y-93749332D01*
X223775669Y-82825000D01*
X225525000Y-82825000D01*
X225639805Y-82802164D01*
X225737132Y-82737132D01*
X225802164Y-82639805D01*
X225825000Y-82525000D01*
X225825000Y-80000000D01*
X225802164Y-79885195D01*
X225737132Y-79787868D01*
X225639805Y-79722836D01*
X225525000Y-79700000D01*
X223250000Y-79700000D01*
X223135195Y-79722836D01*
X223037868Y-79787868D01*
X221787868Y-81037868D01*
X221722836Y-81135195D01*
X221700000Y-81250000D01*
X221700000Y-93125736D01*
X209287868Y-105537868D01*
X209222836Y-105635195D01*
X209200000Y-105750000D01*
X209200000Y-112700000D01*
X208750000Y-112700000D01*
X208635195Y-112722836D01*
X208537868Y-112787868D01*
X208472836Y-112885195D01*
X208450000Y-113000000D01*
X207308907Y-113000000D01*
X207411815Y-112752172D01*
X207412184Y-112329682D01*
X207250845Y-111939211D01*
X206952360Y-111640205D01*
X206562172Y-111478185D01*
X206139682Y-111477816D01*
X205749211Y-111639155D01*
X205450205Y-111937640D01*
X205288185Y-112327828D01*
X205287816Y-112750318D01*
X201375000Y-112750318D01*
X201375000Y-68918824D01*
X201649896Y-68918824D01*
X201700000Y-69040085D01*
X201700000Y-89000000D01*
X201722836Y-89114805D01*
X201787868Y-89212132D01*
X201885195Y-89277164D01*
X202000000Y-89300000D01*
X203375000Y-89300000D01*
X203375000Y-93000000D01*
X203397836Y-93114805D01*
X203462868Y-93212132D01*
X203560195Y-93277164D01*
X203675000Y-93300000D01*
X212950000Y-93300000D01*
X212950000Y-94500000D01*
X212972836Y-94614805D01*
X213037868Y-94712132D01*
X213135195Y-94777164D01*
X213250000Y-94800000D01*
X216000000Y-94800000D01*
X216114805Y-94777164D01*
X216212132Y-94712132D01*
X216277164Y-94614805D01*
X216300000Y-94500000D01*
X216300000Y-93143824D01*
X216474896Y-93143824D01*
X216566048Y-93364429D01*
X216734683Y-93533359D01*
X216955129Y-93624896D01*
X217073959Y-93625000D01*
X217512508Y-94063549D01*
X217581048Y-94229429D01*
X217749683Y-94398359D01*
X217970129Y-94489896D01*
X218208824Y-94490104D01*
X218429429Y-94398952D01*
X218598359Y-94230317D01*
X218689896Y-94009871D01*
X218690104Y-93771176D01*
X218598952Y-93550571D01*
X218430317Y-93381641D01*
X218209871Y-93290104D01*
X217971176Y-93289896D01*
X217949778Y-93298737D01*
X217675001Y-93023961D01*
X217675104Y-92906176D01*
X217583952Y-92685571D01*
X217415317Y-92516641D01*
X217194871Y-92425104D01*
X216956176Y-92424896D01*
X216735571Y-92516048D01*
X216566641Y-92684683D01*
X216475104Y-92905129D01*
X216474896Y-93143824D01*
X216300000Y-93143824D01*
X216300000Y-82078896D01*
X216306487Y-82063274D01*
X216306695Y-81824579D01*
X216300000Y-81808376D01*
X216300000Y-77500000D01*
X216277164Y-77385195D01*
X216212132Y-77287868D01*
X216114805Y-77222836D01*
X216000000Y-77200000D01*
X211800000Y-77200000D01*
X211800000Y-72090318D01*
X220527816Y-72090318D01*
X220689155Y-72480789D01*
X220987640Y-72779795D01*
X221377828Y-72941815D01*
X221800318Y-72942184D01*
X222190789Y-72780845D01*
X222489795Y-72482360D01*
X222651815Y-72092172D01*
X222652184Y-71669682D01*
X222490845Y-71279211D01*
X222192360Y-70980205D01*
X221802172Y-70818185D01*
X221379682Y-70817816D01*
X220989211Y-70979155D01*
X220690205Y-71277640D01*
X220528185Y-71667828D01*
X220527816Y-72090318D01*
X211800000Y-72090318D01*
X211800000Y-68500000D01*
X211776861Y-68384466D01*
X211711573Y-68287310D01*
X211614075Y-68222535D01*
X211499211Y-68200001D01*
X210376737Y-68202955D01*
X210369871Y-68200104D01*
X210131176Y-68199896D01*
X210122152Y-68203625D01*
X206401927Y-68213415D01*
X206369871Y-68200104D01*
X206131176Y-68199896D01*
X206096513Y-68214219D01*
X202427118Y-68223875D01*
X202369871Y-68200104D01*
X202131176Y-68199896D01*
X202070874Y-68224812D01*
X201999211Y-68225001D01*
X201885195Y-68247836D01*
X201787868Y-68312868D01*
X201722836Y-68410195D01*
X201700000Y-68525000D01*
X201700000Y-68559966D01*
X201650104Y-68680129D01*
X201649896Y-68918824D01*
X201375000Y-68918824D01*
X201375000Y-66900000D01*
X226875000Y-66900000D01*
X226875000Y-125875000D01*
D17*
G36*
X225400000Y-82400000D02*
X223475000Y-82400000D01*
X223427165Y-82409515D01*
X223386612Y-82436612D01*
X223359515Y-82477165D01*
X223350000Y-82525278D01*
X223374887Y-93699463D01*
X219410262Y-97787982D01*
X219383793Y-97828947D01*
X219375000Y-97875000D01*
X219375000Y-111698224D01*
X218411612Y-112661612D01*
X218384515Y-112702165D01*
X218375000Y-112750000D01*
X218375000Y-116940901D01*
X217000549Y-117500000D01*
X215850000Y-117500000D01*
X215802165Y-117509515D01*
X215759896Y-117538361D01*
X215134896Y-118188361D01*
X215108599Y-118229438D01*
X215100000Y-118275000D01*
X215100000Y-120477460D01*
X214841806Y-120625000D01*
X211250000Y-120625000D01*
X211250000Y-119704634D01*
X211321903Y-119632856D01*
X211424883Y-119384855D01*
X211425117Y-119116323D01*
X211322571Y-118868143D01*
X211132856Y-118678097D01*
X210884855Y-118575117D01*
X210616323Y-118574883D01*
X210368143Y-118677429D01*
X210178097Y-118867144D01*
X210075117Y-119115145D01*
X210074883Y-119383677D01*
X210177429Y-119631857D01*
X210250000Y-119704555D01*
X210250000Y-120625000D01*
X209543848Y-120625000D01*
X209125000Y-120289921D01*
X209125000Y-118250000D01*
X209110615Y-118191782D01*
X208875000Y-117744114D01*
X208875000Y-113125000D01*
X209500000Y-113125000D01*
X209547835Y-113115485D01*
X209588388Y-113088388D01*
X209615485Y-113047835D01*
X209625000Y-113000000D01*
X209625000Y-105801776D01*
X215043099Y-100383677D01*
X216224881Y-100383677D01*
X216327427Y-100631857D01*
X216517142Y-100821903D01*
X216765143Y-100924883D01*
X217033675Y-100925117D01*
X217281855Y-100822571D01*
X217379596Y-100725000D01*
X217545422Y-100725000D01*
X217642156Y-100821903D01*
X217890157Y-100924883D01*
X218158689Y-100925117D01*
X218406869Y-100822571D01*
X218596915Y-100632856D01*
X218699895Y-100384855D01*
X218700129Y-100116323D01*
X218597583Y-99868143D01*
X218407868Y-99678097D01*
X218159867Y-99575117D01*
X217891335Y-99574883D01*
X217643155Y-99677429D01*
X217545414Y-99775000D01*
X217379588Y-99775000D01*
X217282854Y-99678097D01*
X217034853Y-99575117D01*
X216766321Y-99574883D01*
X216518141Y-99677429D01*
X216328095Y-99867144D01*
X216225115Y-100115145D01*
X216224881Y-100383677D01*
X215043099Y-100383677D01*
X222088388Y-93338388D01*
X222115485Y-93297835D01*
X222125000Y-93250000D01*
X222125000Y-81301776D01*
X223301776Y-80125000D01*
X225400000Y-80125000D01*
X225400000Y-82400000D01*
X225400000Y-82400000D01*
G37*
X225400000Y-82400000D02*
X223475000Y-82400000D01*
X223427165Y-82409515D01*
X223386612Y-82436612D01*
X223359515Y-82477165D01*
X223350000Y-82525278D01*
X223374887Y-93699463D01*
X219410262Y-97787982D01*
X219383793Y-97828947D01*
X219375000Y-97875000D01*
X219375000Y-111698224D01*
X218411612Y-112661612D01*
X218384515Y-112702165D01*
X218375000Y-112750000D01*
X218375000Y-116940901D01*
X217000549Y-117500000D01*
X215850000Y-117500000D01*
X215802165Y-117509515D01*
X215759896Y-117538361D01*
X215134896Y-118188361D01*
X215108599Y-118229438D01*
X215100000Y-118275000D01*
X215100000Y-120477460D01*
X214841806Y-120625000D01*
X211250000Y-120625000D01*
X211250000Y-119704634D01*
X211321903Y-119632856D01*
X211424883Y-119384855D01*
X211425117Y-119116323D01*
X211322571Y-118868143D01*
X211132856Y-118678097D01*
X210884855Y-118575117D01*
X210616323Y-118574883D01*
X210368143Y-118677429D01*
X210178097Y-118867144D01*
X210075117Y-119115145D01*
X210074883Y-119383677D01*
X210177429Y-119631857D01*
X210250000Y-119704555D01*
X210250000Y-120625000D01*
X209543848Y-120625000D01*
X209125000Y-120289921D01*
X209125000Y-118250000D01*
X209110615Y-118191782D01*
X208875000Y-117744114D01*
X208875000Y-113125000D01*
X209500000Y-113125000D01*
X209547835Y-113115485D01*
X209588388Y-113088388D01*
X209615485Y-113047835D01*
X209625000Y-113000000D01*
X209625000Y-105801776D01*
X215043099Y-100383677D01*
X216224881Y-100383677D01*
X216327427Y-100631857D01*
X216517142Y-100821903D01*
X216765143Y-100924883D01*
X217033675Y-100925117D01*
X217281855Y-100822571D01*
X217379596Y-100725000D01*
X217545422Y-100725000D01*
X217642156Y-100821903D01*
X217890157Y-100924883D01*
X218158689Y-100925117D01*
X218406869Y-100822571D01*
X218596915Y-100632856D01*
X218699895Y-100384855D01*
X218700129Y-100116323D01*
X218597583Y-99868143D01*
X218407868Y-99678097D01*
X218159867Y-99575117D01*
X217891335Y-99574883D01*
X217643155Y-99677429D01*
X217545414Y-99775000D01*
X217379588Y-99775000D01*
X217282854Y-99678097D01*
X217034853Y-99575117D01*
X216766321Y-99574883D01*
X216518141Y-99677429D01*
X216328095Y-99867144D01*
X216225115Y-100115145D01*
X216224881Y-100383677D01*
X215043099Y-100383677D01*
X222088388Y-93338388D01*
X222115485Y-93297835D01*
X222125000Y-93250000D01*
X222125000Y-81301776D01*
X223301776Y-80125000D01*
X225400000Y-80125000D01*
X225400000Y-82400000D01*
M02*
