G04 #@! TF.GenerationSoftware,KiCad,Pcbnew,(2017-06-25 revision 6a3c1720b)-makepkg*
G04 #@! TF.CreationDate,2017-08-03T12:33:03-04:00*
G04 #@! TF.ProjectId,pmt-transimpedance-amplifier_small_con,706D742D7472616E73696D706564616E,rev?*
G04 #@! TF.SameCoordinates,Original
G04 #@! TF.FileFunction,Paste,Top*
G04 #@! TF.FilePolarity,Positive*
%FSLAX46Y46*%
G04 Gerber Fmt 4.6, Leading zero omitted, Abs format (unit mm)*
G04 Created by KiCad (PCBNEW (2017-06-25 revision 6a3c1720b)-makepkg) date 08/03/17 12:33:03*
%MOMM*%
%LPD*%
G01*
G04 APERTURE LIST*
%ADD10C,0.100000*%
%ADD11R,1.800000X2.600000*%
%ADD12R,0.600000X2.200000*%
%ADD13R,1.300000X0.700000*%
%ADD14R,0.600000X1.550000*%
%ADD15R,1.550000X0.600000*%
%ADD16R,1.000000X1.250000*%
%ADD17R,0.700000X1.300000*%
%ADD18R,0.650000X1.060000*%
%ADD19C,1.000000*%
%ADD20R,1.600000X0.410000*%
%ADD21R,1.250000X1.000000*%
G04 APERTURE END LIST*
D10*
D11*
X221350000Y-121650000D03*
X207150000Y-121650000D03*
D12*
X209750000Y-119250000D03*
X210750000Y-119250000D03*
X211750000Y-119250000D03*
X212750000Y-119250000D03*
X213750000Y-119250000D03*
X214750000Y-119250000D03*
X215750000Y-119250000D03*
X216750000Y-119250000D03*
X217750000Y-119250000D03*
X218750000Y-119250000D03*
D13*
X216175000Y-111425000D03*
X216175000Y-109525000D03*
D14*
X203645000Y-103725000D03*
X204915000Y-103725000D03*
X206185000Y-103725000D03*
X207455000Y-103725000D03*
X207455000Y-98325000D03*
X206185000Y-98325000D03*
X204915000Y-98325000D03*
X203645000Y-98325000D03*
D15*
X221600000Y-101475000D03*
X221600000Y-102745000D03*
X221600000Y-104015000D03*
X221600000Y-105285000D03*
X216200000Y-105285000D03*
X216200000Y-104015000D03*
X216200000Y-102745000D03*
X216200000Y-101475000D03*
D13*
X217375000Y-114050000D03*
X217375000Y-115950000D03*
D16*
X204375000Y-116625000D03*
X206375000Y-116625000D03*
X206350000Y-114675000D03*
X204350000Y-114675000D03*
D13*
X212325000Y-115950000D03*
X212325000Y-114050000D03*
X209700000Y-115950000D03*
X209700000Y-114050000D03*
D17*
X208450000Y-84600000D03*
X210350000Y-84600000D03*
D13*
X205325000Y-95725000D03*
X205325000Y-93825000D03*
D18*
X212775000Y-100450000D03*
X210875000Y-100450000D03*
X210875000Y-98250000D03*
X211825000Y-98250000D03*
X212775000Y-98250000D03*
D16*
X221197905Y-85325095D03*
X219197905Y-85325095D03*
X221625000Y-99800000D03*
X223625000Y-99800000D03*
D19*
X214850000Y-99050000D03*
D10*
G36*
X214761612Y-98254505D02*
X215645495Y-99138388D01*
X214938388Y-99845495D01*
X214054505Y-98961612D01*
X214761612Y-98254505D01*
X214761612Y-98254505D01*
G37*
D19*
X216264214Y-97635786D03*
D10*
G36*
X216175826Y-96840291D02*
X217059709Y-97724174D01*
X216352602Y-98431281D01*
X215468719Y-97547398D01*
X216175826Y-96840291D01*
X216175826Y-96840291D01*
G37*
D20*
X219191400Y-79030000D03*
X219191400Y-79665000D03*
X219191400Y-80300000D03*
X219191400Y-80935000D03*
X219191400Y-81570000D03*
X219191400Y-82205000D03*
X219191400Y-82840000D03*
X219191400Y-83475000D03*
X224500000Y-83475000D03*
X224500000Y-82840000D03*
X224500000Y-82205000D03*
X224500000Y-81570000D03*
X224500000Y-80935000D03*
X224500000Y-80300000D03*
X224500000Y-79665000D03*
X224500000Y-79030000D03*
D21*
X225025000Y-86925000D03*
X225025000Y-84925000D03*
D17*
X212100000Y-81900000D03*
X214000000Y-81900000D03*
D16*
X219197905Y-87600095D03*
X221197905Y-87600095D03*
X212000000Y-79475000D03*
X214000000Y-79475000D03*
D13*
X214850000Y-114050000D03*
X214850000Y-115950000D03*
D14*
X212118000Y-89954000D03*
X213388000Y-89954000D03*
X214658000Y-89954000D03*
X215928000Y-89954000D03*
X215928000Y-84554000D03*
X214658000Y-84554000D03*
X213388000Y-84554000D03*
X212118000Y-84554000D03*
D21*
X209575000Y-102125000D03*
X209575000Y-104125000D03*
X207600000Y-95825000D03*
X207600000Y-93825000D03*
D17*
X217275000Y-89950000D03*
X219175000Y-89950000D03*
D21*
X209900000Y-95825000D03*
X209900000Y-93825000D03*
X212125000Y-95825000D03*
X212125000Y-93825000D03*
D13*
X214325000Y-95675000D03*
X214325000Y-93775000D03*
M02*
